<?xml version="1.0" encoding="utf-8" standalone="no"?>
<!DOCTYPE svg PUBLIC "-//W3C//DTD SVG 1.1//EN"
  "http://www.w3.org/Graphics/SVG/1.1/DTD/svg11.dtd">
<svg xmlns:xlink="http://www.w3.org/1999/xlink" width="432pt" height="288pt" viewBox="0 0 432 288" xmlns="http://www.w3.org/2000/svg" version="1.1">
 <metadata>
  <rdf:RDF xmlns:dc="http://purl.org/dc/elements/1.1/" xmlns:cc="http://creativecommons.org/ns#" xmlns:rdf="http://www.w3.org/1999/02/22-rdf-syntax-ns#">
   <cc:Work>
    <dc:type rdf:resource="http://purl.org/dc/dcmitype/StillImage"/>
    <dc:date>2022-10-05T09:33:49.165426</dc:date>
    <dc:format>image/svg+xml</dc:format>
    <dc:creator>
     <cc:Agent>
      <dc:title>Matplotlib v3.5.1, https://matplotlib.org/</dc:title>
     </cc:Agent>
    </dc:creator>
   </cc:Work>
  </rdf:RDF>
 </metadata>
 <defs>
  <style type="text/css">*{stroke-linejoin: round; stroke-linecap: butt}</style>
 </defs>
 <g id="figure_1">
  <g id="patch_1">
   <path d="M 0 288 
L 432 288 
L 432 0 
L 0 0 
L 0 288 
z
" style="fill: none"/>
  </g>
  <g id="axes_1">
   <g id="patch_2">
    <path d="M 54 252 
L 388.8 252 
L 388.8 34.56 
L 54 34.56 
z
" style="fill: #ffffff"/>
   </g>
   <g id="matplotlib.axis_1">
    <g id="xtick_1">
     <g id="line2d_1">
      <defs>
       <path id="m9ff47a2cc1" d="M 0 0 
L 0 3.5 
" style="stroke: #000000; stroke-width: 0.8"/>
      </defs>
      <g>
       <use xlink:href="#m9ff47a2cc1" x="69.218182" y="252" style="stroke: #000000; stroke-width: 0.8"/>
      </g>
     </g>
     <g id="text_1">
      <!-- 0 -->
      <g transform="translate(66.036932 266.598437)scale(0.1 -0.1)">
       <defs>
        <path id="DejaVuSans-30" d="M 2034 4250 
Q 1547 4250 1301 3770 
Q 1056 3291 1056 2328 
Q 1056 1369 1301 889 
Q 1547 409 2034 409 
Q 2525 409 2770 889 
Q 3016 1369 3016 2328 
Q 3016 3291 2770 3770 
Q 2525 4250 2034 4250 
z
M 2034 4750 
Q 2819 4750 3233 4129 
Q 3647 3509 3647 2328 
Q 3647 1150 3233 529 
Q 2819 -91 2034 -91 
Q 1250 -91 836 529 
Q 422 1150 422 2328 
Q 422 3509 836 4129 
Q 1250 4750 2034 4750 
z
" transform="scale(0.015625)"/>
       </defs>
       <use xlink:href="#DejaVuSans-30"/>
      </g>
     </g>
    </g>
    <g id="xtick_2">
     <g id="line2d_2">
      <g>
       <use xlink:href="#m9ff47a2cc1" x="131.33321" y="252" style="stroke: #000000; stroke-width: 0.8"/>
      </g>
     </g>
     <g id="text_2">
      <!-- 2 -->
      <g transform="translate(128.15196 266.598437)scale(0.1 -0.1)">
       <defs>
        <path id="DejaVuSans-32" d="M 1228 531 
L 3431 531 
L 3431 0 
L 469 0 
L 469 531 
Q 828 903 1448 1529 
Q 2069 2156 2228 2338 
Q 2531 2678 2651 2914 
Q 2772 3150 2772 3378 
Q 2772 3750 2511 3984 
Q 2250 4219 1831 4219 
Q 1534 4219 1204 4116 
Q 875 4013 500 3803 
L 500 4441 
Q 881 4594 1212 4672 
Q 1544 4750 1819 4750 
Q 2544 4750 2975 4387 
Q 3406 4025 3406 3419 
Q 3406 3131 3298 2873 
Q 3191 2616 2906 2266 
Q 2828 2175 2409 1742 
Q 1991 1309 1228 531 
z
" transform="scale(0.015625)"/>
       </defs>
       <use xlink:href="#DejaVuSans-32"/>
      </g>
     </g>
    </g>
    <g id="xtick_3">
     <g id="line2d_3">
      <g>
       <use xlink:href="#m9ff47a2cc1" x="193.448237" y="252" style="stroke: #000000; stroke-width: 0.8"/>
      </g>
     </g>
     <g id="text_3">
      <!-- 4 -->
      <g transform="translate(190.266987 266.598437)scale(0.1 -0.1)">
       <defs>
        <path id="DejaVuSans-34" d="M 2419 4116 
L 825 1625 
L 2419 1625 
L 2419 4116 
z
M 2253 4666 
L 3047 4666 
L 3047 1625 
L 3713 1625 
L 3713 1100 
L 3047 1100 
L 3047 0 
L 2419 0 
L 2419 1100 
L 313 1100 
L 313 1709 
L 2253 4666 
z
" transform="scale(0.015625)"/>
       </defs>
       <use xlink:href="#DejaVuSans-34"/>
      </g>
     </g>
    </g>
    <g id="xtick_4">
     <g id="line2d_4">
      <g>
       <use xlink:href="#m9ff47a2cc1" x="255.563265" y="252" style="stroke: #000000; stroke-width: 0.8"/>
      </g>
     </g>
     <g id="text_4">
      <!-- 6 -->
      <g transform="translate(252.382015 266.598437)scale(0.1 -0.1)">
       <defs>
        <path id="DejaVuSans-36" d="M 2113 2584 
Q 1688 2584 1439 2293 
Q 1191 2003 1191 1497 
Q 1191 994 1439 701 
Q 1688 409 2113 409 
Q 2538 409 2786 701 
Q 3034 994 3034 1497 
Q 3034 2003 2786 2293 
Q 2538 2584 2113 2584 
z
M 3366 4563 
L 3366 3988 
Q 3128 4100 2886 4159 
Q 2644 4219 2406 4219 
Q 1781 4219 1451 3797 
Q 1122 3375 1075 2522 
Q 1259 2794 1537 2939 
Q 1816 3084 2150 3084 
Q 2853 3084 3261 2657 
Q 3669 2231 3669 1497 
Q 3669 778 3244 343 
Q 2819 -91 2113 -91 
Q 1303 -91 875 529 
Q 447 1150 447 2328 
Q 447 3434 972 4092 
Q 1497 4750 2381 4750 
Q 2619 4750 2861 4703 
Q 3103 4656 3366 4563 
z
" transform="scale(0.015625)"/>
       </defs>
       <use xlink:href="#DejaVuSans-36"/>
      </g>
     </g>
    </g>
    <g id="xtick_5">
     <g id="line2d_5">
      <g>
       <use xlink:href="#m9ff47a2cc1" x="317.678293" y="252" style="stroke: #000000; stroke-width: 0.8"/>
      </g>
     </g>
     <g id="text_5">
      <!-- 8 -->
      <g transform="translate(314.497043 266.598437)scale(0.1 -0.1)">
       <defs>
        <path id="DejaVuSans-38" d="M 2034 2216 
Q 1584 2216 1326 1975 
Q 1069 1734 1069 1313 
Q 1069 891 1326 650 
Q 1584 409 2034 409 
Q 2484 409 2743 651 
Q 3003 894 3003 1313 
Q 3003 1734 2745 1975 
Q 2488 2216 2034 2216 
z
M 1403 2484 
Q 997 2584 770 2862 
Q 544 3141 544 3541 
Q 544 4100 942 4425 
Q 1341 4750 2034 4750 
Q 2731 4750 3128 4425 
Q 3525 4100 3525 3541 
Q 3525 3141 3298 2862 
Q 3072 2584 2669 2484 
Q 3125 2378 3379 2068 
Q 3634 1759 3634 1313 
Q 3634 634 3220 271 
Q 2806 -91 2034 -91 
Q 1263 -91 848 271 
Q 434 634 434 1313 
Q 434 1759 690 2068 
Q 947 2378 1403 2484 
z
M 1172 3481 
Q 1172 3119 1398 2916 
Q 1625 2713 2034 2713 
Q 2441 2713 2670 2916 
Q 2900 3119 2900 3481 
Q 2900 3844 2670 4047 
Q 2441 4250 2034 4250 
Q 1625 4250 1398 4047 
Q 1172 3844 1172 3481 
z
" transform="scale(0.015625)"/>
       </defs>
       <use xlink:href="#DejaVuSans-38"/>
      </g>
     </g>
    </g>
    <g id="xtick_6">
     <g id="line2d_6">
      <g>
       <use xlink:href="#m9ff47a2cc1" x="379.793321" y="252" style="stroke: #000000; stroke-width: 0.8"/>
      </g>
     </g>
     <g id="text_6">
      <!-- 10 -->
      <g transform="translate(373.430821 266.598437)scale(0.1 -0.1)">
       <defs>
        <path id="DejaVuSans-31" d="M 794 531 
L 1825 531 
L 1825 4091 
L 703 3866 
L 703 4441 
L 1819 4666 
L 2450 4666 
L 2450 531 
L 3481 531 
L 3481 0 
L 794 0 
L 794 531 
z
" transform="scale(0.015625)"/>
       </defs>
       <use xlink:href="#DejaVuSans-31"/>
       <use xlink:href="#DejaVuSans-30" x="63.623047"/>
      </g>
     </g>
    </g>
    <g id="text_7">
     <!-- j -->
     <g transform="translate(220.010938 280.276563)scale(0.1 -0.1)">
      <defs>
       <path id="DejaVuSans-6a" d="M 603 3500 
L 1178 3500 
L 1178 -63 
Q 1178 -731 923 -1031 
Q 669 -1331 103 -1331 
L -116 -1331 
L -116 -844 
L 38 -844 
Q 366 -844 484 -692 
Q 603 -541 603 -63 
L 603 3500 
z
M 603 4863 
L 1178 4863 
L 1178 4134 
L 603 4134 
L 603 4863 
z
" transform="scale(0.015625)"/>
      </defs>
      <use xlink:href="#DejaVuSans-6a"/>
     </g>
    </g>
   </g>
   <g id="matplotlib.axis_2">
    <g id="ytick_1">
     <g id="line2d_7">
      <defs>
       <path id="mb73f4437e5" d="M 0 0 
L -3.5 0 
" style="stroke: #000000; stroke-width: 0.8"/>
      </defs>
      <g>
       <use xlink:href="#mb73f4437e5" x="54" y="249.117075" style="stroke: #000000; stroke-width: 0.8"/>
      </g>
     </g>
     <g id="text_8">
      <!-- −0.25 -->
      <g transform="translate(16.354687 252.916294)scale(0.1 -0.1)">
       <defs>
        <path id="DejaVuSans-2212" d="M 678 2272 
L 4684 2272 
L 4684 1741 
L 678 1741 
L 678 2272 
z
" transform="scale(0.015625)"/>
        <path id="DejaVuSans-2e" d="M 684 794 
L 1344 794 
L 1344 0 
L 684 0 
L 684 794 
z
" transform="scale(0.015625)"/>
        <path id="DejaVuSans-35" d="M 691 4666 
L 3169 4666 
L 3169 4134 
L 1269 4134 
L 1269 2991 
Q 1406 3038 1543 3061 
Q 1681 3084 1819 3084 
Q 2600 3084 3056 2656 
Q 3513 2228 3513 1497 
Q 3513 744 3044 326 
Q 2575 -91 1722 -91 
Q 1428 -91 1123 -41 
Q 819 9 494 109 
L 494 744 
Q 775 591 1075 516 
Q 1375 441 1709 441 
Q 2250 441 2565 725 
Q 2881 1009 2881 1497 
Q 2881 1984 2565 2268 
Q 2250 2553 1709 2553 
Q 1456 2553 1204 2497 
Q 953 2441 691 2322 
L 691 4666 
z
" transform="scale(0.015625)"/>
       </defs>
       <use xlink:href="#DejaVuSans-2212"/>
       <use xlink:href="#DejaVuSans-30" x="83.789062"/>
       <use xlink:href="#DejaVuSans-2e" x="147.412109"/>
       <use xlink:href="#DejaVuSans-32" x="179.199219"/>
       <use xlink:href="#DejaVuSans-35" x="242.822266"/>
      </g>
     </g>
    </g>
    <g id="ytick_2">
     <g id="line2d_8">
      <g>
       <use xlink:href="#mb73f4437e5" x="54" y="221.014687" style="stroke: #000000; stroke-width: 0.8"/>
      </g>
     </g>
     <g id="text_9">
      <!-- 0.00 -->
      <g transform="translate(24.734375 224.813906)scale(0.1 -0.1)">
       <use xlink:href="#DejaVuSans-30"/>
       <use xlink:href="#DejaVuSans-2e" x="63.623047"/>
       <use xlink:href="#DejaVuSans-30" x="95.410156"/>
       <use xlink:href="#DejaVuSans-30" x="159.033203"/>
      </g>
     </g>
    </g>
    <g id="ytick_3">
     <g id="line2d_9">
      <g>
       <use xlink:href="#mb73f4437e5" x="54" y="192.9123" style="stroke: #000000; stroke-width: 0.8"/>
      </g>
     </g>
     <g id="text_10">
      <!-- 0.25 -->
      <g transform="translate(24.734375 196.711518)scale(0.1 -0.1)">
       <use xlink:href="#DejaVuSans-30"/>
       <use xlink:href="#DejaVuSans-2e" x="63.623047"/>
       <use xlink:href="#DejaVuSans-32" x="95.410156"/>
       <use xlink:href="#DejaVuSans-35" x="159.033203"/>
      </g>
     </g>
    </g>
    <g id="ytick_4">
     <g id="line2d_10">
      <g>
       <use xlink:href="#mb73f4437e5" x="54" y="164.809912" style="stroke: #000000; stroke-width: 0.8"/>
      </g>
     </g>
     <g id="text_11">
      <!-- 0.50 -->
      <g transform="translate(24.734375 168.60913)scale(0.1 -0.1)">
       <use xlink:href="#DejaVuSans-30"/>
       <use xlink:href="#DejaVuSans-2e" x="63.623047"/>
       <use xlink:href="#DejaVuSans-35" x="95.410156"/>
       <use xlink:href="#DejaVuSans-30" x="159.033203"/>
      </g>
     </g>
    </g>
    <g id="ytick_5">
     <g id="line2d_11">
      <g>
       <use xlink:href="#mb73f4437e5" x="54" y="136.707524" style="stroke: #000000; stroke-width: 0.8"/>
      </g>
     </g>
     <g id="text_12">
      <!-- 0.75 -->
      <g transform="translate(24.734375 140.506743)scale(0.1 -0.1)">
       <defs>
        <path id="DejaVuSans-37" d="M 525 4666 
L 3525 4666 
L 3525 4397 
L 1831 0 
L 1172 0 
L 2766 4134 
L 525 4134 
L 525 4666 
z
" transform="scale(0.015625)"/>
       </defs>
       <use xlink:href="#DejaVuSans-30"/>
       <use xlink:href="#DejaVuSans-2e" x="63.623047"/>
       <use xlink:href="#DejaVuSans-37" x="95.410156"/>
       <use xlink:href="#DejaVuSans-35" x="159.033203"/>
      </g>
     </g>
    </g>
    <g id="ytick_6">
     <g id="line2d_12">
      <g>
       <use xlink:href="#mb73f4437e5" x="54" y="108.605136" style="stroke: #000000; stroke-width: 0.8"/>
      </g>
     </g>
     <g id="text_13">
      <!-- 1.00 -->
      <g transform="translate(24.734375 112.404355)scale(0.1 -0.1)">
       <use xlink:href="#DejaVuSans-31"/>
       <use xlink:href="#DejaVuSans-2e" x="63.623047"/>
       <use xlink:href="#DejaVuSans-30" x="95.410156"/>
       <use xlink:href="#DejaVuSans-30" x="159.033203"/>
      </g>
     </g>
    </g>
    <g id="ytick_7">
     <g id="line2d_13">
      <g>
       <use xlink:href="#mb73f4437e5" x="54" y="80.502748" style="stroke: #000000; stroke-width: 0.8"/>
      </g>
     </g>
     <g id="text_14">
      <!-- 1.25 -->
      <g transform="translate(24.734375 84.301967)scale(0.1 -0.1)">
       <use xlink:href="#DejaVuSans-31"/>
       <use xlink:href="#DejaVuSans-2e" x="63.623047"/>
       <use xlink:href="#DejaVuSans-32" x="95.410156"/>
       <use xlink:href="#DejaVuSans-35" x="159.033203"/>
      </g>
     </g>
    </g>
    <g id="ytick_8">
     <g id="line2d_14">
      <g>
       <use xlink:href="#mb73f4437e5" x="54" y="52.40036" style="stroke: #000000; stroke-width: 0.8"/>
      </g>
     </g>
     <g id="text_15">
      <!-- 1.50 -->
      <g transform="translate(24.734375 56.199579)scale(0.1 -0.1)">
       <use xlink:href="#DejaVuSans-31"/>
       <use xlink:href="#DejaVuSans-2e" x="63.623047"/>
       <use xlink:href="#DejaVuSans-35" x="95.410156"/>
       <use xlink:href="#DejaVuSans-30" x="159.033203"/>
      </g>
     </g>
    </g>
    <g id="text_16">
     <!-- q (j) -->
     <g transform="translate(10.275 153.333906)rotate(-90)scale(0.1 -0.1)">
      <defs>
       <path id="DejaVuSans-71" d="M 947 1747 
Q 947 1113 1208 752 
Q 1469 391 1925 391 
Q 2381 391 2643 752 
Q 2906 1113 2906 1747 
Q 2906 2381 2643 2742 
Q 2381 3103 1925 3103 
Q 1469 3103 1208 2742 
Q 947 2381 947 1747 
z
M 2906 525 
Q 2725 213 2448 61 
Q 2172 -91 1784 -91 
Q 1150 -91 751 415 
Q 353 922 353 1747 
Q 353 2572 751 3078 
Q 1150 3584 1784 3584 
Q 2172 3584 2448 3432 
Q 2725 3281 2906 2969 
L 2906 3500 
L 3481 3500 
L 3481 -1331 
L 2906 -1331 
L 2906 525 
z
" transform="scale(0.015625)"/>
       <path id="DejaVuSans-20" transform="scale(0.015625)"/>
       <path id="DejaVuSans-28" d="M 1984 4856 
Q 1566 4138 1362 3434 
Q 1159 2731 1159 2009 
Q 1159 1288 1364 580 
Q 1569 -128 1984 -844 
L 1484 -844 
Q 1016 -109 783 600 
Q 550 1309 550 2009 
Q 550 2706 781 3412 
Q 1013 4119 1484 4856 
L 1984 4856 
z
" transform="scale(0.015625)"/>
       <path id="DejaVuSans-29" d="M 513 4856 
L 1013 4856 
Q 1481 4119 1714 3412 
Q 1947 2706 1947 2009 
Q 1947 1309 1714 600 
Q 1481 -109 1013 -844 
L 513 -844 
Q 928 -128 1133 580 
Q 1338 1288 1338 2009 
Q 1338 2731 1133 3434 
Q 928 4138 513 4856 
z
" transform="scale(0.015625)"/>
      </defs>
      <use xlink:href="#DejaVuSans-71"/>
      <use xlink:href="#DejaVuSans-20" x="63.476562"/>
      <use xlink:href="#DejaVuSans-28" x="95.263672"/>
      <use xlink:href="#DejaVuSans-6a" x="134.277344"/>
      <use xlink:href="#DejaVuSans-29" x="162.060547"/>
     </g>
    </g>
   </g>
   <g id="line2d_15">
    <path d="M 69.218182 108.605136 
L 75.429685 112.022705 
L 81.641187 128.161266 
L 87.85269 153.489323 
L 94.064193 182.633695 
L 100.275696 209.773732 
L 106.487199 230.097353 
L 112.698701 240.911849 
L 118.910204 242.116364 
L 125.121707 235.940629 
L 131.33321 226.073117 
L 137.544712 216.473355 
L 143.756215 210.237058 
L 149.967718 208.840643 
L 156.179221 211.952509 
L 162.390724 217.811015 
L 168.602226 223.994937 
L 174.813729 228.305437 
L 181.025232 229.468885 
L 187.236735 227.453604 
L 193.448237 223.33735 
L 199.65974 218.814979 
L 205.871243 215.546625 
L 212.082746 214.582146 
L 218.294249 216.051356 
L 224.505751 219.203011 
L 230.717254 222.749072 
L 236.928757 225.368885 
L 243.14026 226.183694 
L 249.351763 225.036697 
L 255.563265 222.494223 
L 261.774768 219.588016 
L 267.986271 217.408868 
L 274.197774 216.707182 
L 280.409276 217.643297 
L 286.620779 219.76765 
L 292.832282 222.223395 
L 299.043785 224.084507 
L 305.255288 224.698738 
L 311.46679 223.910626 
L 317.678293 222.090257 
L 323.889796 219.968123 
L 330.101299 218.346868 
L 336.312801 217.801852 
L 342.524304 218.480741 
L 348.735807 220.070576 
L 354.94731 221.936119 
L 361.158813 223.370315 
L 367.370315 223.859385 
L 373.581818 223.264211 
" clip-path="url(#p9cdef005fe)" style="fill: none; stroke: #1f77b4; stroke-width: 1.5; stroke-linecap: square"/>
   </g>
   <g id="line2d_16">
    <path d="M 69.218182 108.605136 
L 75.429685 105.52045 
L 81.641187 114.614134 
L 87.85269 134.032912 
L 94.064193 159.903617 
L 100.275696 187.291822 
L 106.487199 211.390168 
L 112.698701 228.614727 
L 118.910204 237.32377 
L 125.121707 237.989985 
L 131.33321 232.81769 
L 137.544712 224.951991 
L 143.756215 217.531336 
L 149.967718 212.860146 
L 156.179221 211.920778 
L 162.390724 214.326319 
L 168.602226 218.676913 
L 174.813729 223.166169 
L 181.025232 226.224533 
L 187.236735 226.997522 
L 193.448237 225.529336 
L 199.65974 222.628865 
L 205.871243 219.498871 
L 212.082746 217.277189 
L 218.294249 216.652203 
L 224.505751 217.673847 
L 230.717254 219.804054 
L 236.928757 222.165585 
L 243.14026 223.884552 
L 249.351763 224.399373 
L 255.563265 223.631679 
L 261.774768 221.971478 
L 267.986271 220.097566 
L 274.197774 218.710099 
L 280.409276 218.277074 
L 286.620779 218.883709 
L 292.832282 220.230651 
L 299.043785 221.770693 
L 305.255288 222.92507 
L 311.46679 223.296032 
L 317.678293 222.799382 
L 323.889796 221.674426 
L 330.101299 220.375682 
L 336.312801 219.393084 
L 342.524304 219.07036 
L 348.735807 219.487782 
L 354.94731 220.448173 
L 361.158813 221.565319 
L 367.370315 222.416699 
L 373.581818 222.701094 
" clip-path="url(#p9cdef005fe)" style="fill: none; stroke: #ff7f0e; stroke-width: 1.5; stroke-linecap: square"/>
   </g>
   <g id="line2d_17">
    <path d="M 69.218182 108.605136 
L 75.429685 100.120513 
L 81.641187 102.994932 
L 87.85269 116.682262 
L 94.064193 138.614864 
L 100.275696 164.809912 
L 106.487199 190.791144 
L 112.698701 212.584705 
L 118.910204 227.535464 
L 125.121707 234.747991 
L 131.33321 235.065881 
L 137.544712 230.631269 
L 143.756215 224.175931 
L 149.967718 218.255897 
L 156.179221 214.638511 
L 162.390724 213.98909 
L 168.602226 215.905878 
L 174.813729 219.24811 
L 181.025232 222.623982 
L 187.236735 224.873952 
L 193.448237 225.405685 
L 199.65974 224.298922 
L 205.871243 222.179022 
L 212.082746 219.930163 
L 218.294249 218.361443 
L 224.505751 217.940989 
L 230.717254 218.677828 
L 236.928757 220.173779 
L 243.14026 221.808714 
L 249.351763 222.981748 
L 255.563265 223.319961 
L 261.774768 222.786177 
L 267.986271 221.658508 
L 274.197774 220.401121 
L 280.409276 219.481537 
L 286.620779 219.203401 
L 292.832282 219.612258 
L 299.043785 220.501371 
L 305.255288 221.507155 
L 311.46679 222.253001 
L 317.678293 222.486358 
L 323.889796 222.160575 
L 330.101299 221.43634 
L 336.312801 220.608115 
L 342.524304 219.98745 
L 348.735807 219.788295 
L 354.94731 220.055629 
L 361.158813 220.66032 
L 367.370315 221.357733 
L 373.581818 221.884695 
" clip-path="url(#p9cdef005fe)" style="fill: none; stroke: #2ca02c; stroke-width: 1.5; stroke-linecap: square"/>
   </g>
   <g id="line2d_18">
    <path d="M 69.218182 108.605136 
L 75.429685 95.490616 
L 81.641187 92.745775 
L 87.85269 100.856943 
L 94.064193 118.393045 
L 100.275696 142.328001 
L 106.487199 168.712991 
L 112.698701 193.528492 
L 118.910204 213.504828 
L 125.121707 226.71589 
L 131.33321 232.81769 
L 137.544712 232.901437 
L 143.756215 229.031494 
L 149.967718 223.614254 
L 156.179221 218.774929 
L 162.390724 215.900053 
L 168.602226 215.442774 
L 174.813729 217.006284 
L 181.025232 219.642694 
L 187.236735 222.252448 
L 193.448237 223.955602 
L 199.65974 224.331303 
L 205.871243 223.47439 
L 212.082746 221.87964 
L 218.294249 220.2153 
L 224.505751 219.073684 
L 230.717254 218.78235 
L 236.928757 219.329336 
L 243.14026 220.41231 
L 249.351763 221.579772 
L 255.563265 222.40574 
L 261.774768 222.634932 
L 267.986271 222.252367 
L 274.197774 221.461907 
L 280.409276 220.590874 
L 286.620779 219.961462 
L 292.832282 219.777 
L 299.043785 220.061339 
L 305.255288 220.667504 
L 311.46679 221.346131 
L 317.678293 221.844103 
L 323.889796 221.995781 
L 330.101299 221.775096 
L 336.312801 221.293242 
L 342.524304 220.747273 
L 348.735807 220.341939 
L 354.94731 220.214883 
L 361.158813 220.391799 
L 367.370315 220.78546 
L 373.581818 221.235714 
" clip-path="url(#p9cdef005fe)" style="fill: none; stroke: #d62728; stroke-width: 1.5; stroke-linecap: square"/>
   </g>
   <g id="line2d_19">
    <path d="M 69.218182 108.605136 
L 75.429685 91.428471 
L 81.641187 83.523505 
L 87.85269 86.195947 
L 94.064193 99.002499 
L 100.275696 119.846091 
L 106.487199 145.422728 
L 112.698701 171.910694 
L 118.910204 195.736174 
L 125.121707 214.236232 
L 131.33321 226.073117 
L 137.544712 231.322682 
L 143.756215 231.244686 
L 149.967718 227.820441 
L 156.179221 223.193476 
L 162.390724 219.15993 
L 168.602226 216.827065 
L 174.813729 216.501453 
L 181.025232 217.800859 
L 187.236735 219.925293 
L 193.448237 221.988435 
L 199.65974 223.307909 
L 205.871243 223.579025 
L 212.082746 222.901065 
L 218.294249 221.672863 
L 224.505751 220.410964 
L 230.717254 219.559373 
L 236.928757 219.352617 
L 243.14026 219.768331 
L 249.351763 220.572121 
L 255.563265 221.427232 
L 261.774768 222.024018 
L 267.986271 222.183331 
L 274.197774 221.902244 
L 280.409276 221.333596 
L 286.620779 220.714119 
L 292.832282 220.271708 
L 299.043785 220.146101 
L 305.255288 220.34902 
L 311.46679 220.773462 
L 317.678293 221.243871 
L 323.889796 221.585513 
L 330.101299 221.686808 
L 336.312801 221.533289 
L 342.524304 221.20383 
L 348.735807 220.833887 
L 354.94731 220.56175 
L 361.158813 220.478421 
L 367.370315 220.598726 
L 373.581818 220.862215 
" clip-path="url(#p9cdef005fe)" style="fill: none; stroke: #9467bd; stroke-width: 1.5; stroke-linecap: square"/>
   </g>
   <g id="line2d_20">
    <path d="M 69.218182 108.605136 
L 75.429685 87.802265 
L 81.641187 75.102168 
L 87.85269 72.458886 
L 94.064193 80.284382 
L 100.275696 97.364181 
L 106.487199 121.105371 
L 112.698701 148.058428 
L 118.910204 174.591 
L 125.121707 197.559636 
L 131.33321 214.832162 
L 137.544712 225.55602 
L 143.756215 230.13422 
L 149.967718 229.94232 
L 156.179221 226.87845 
L 162.390724 222.869445 
L 168.602226 219.453604 
L 174.813729 217.527807 
L 181.025232 217.294841 
L 187.236735 218.391425 
L 193.448237 220.133678 
L 199.65974 221.795229 
L 205.871243 222.837375 
L 212.082746 223.036343 
L 218.294249 222.490272 
L 224.505751 221.525673 
L 230.717254 220.549365 
L 236.928757 219.900823 
L 243.14026 219.751152 
L 249.351763 220.073366 
L 255.563265 220.682547 
L 261.774768 221.322401 
L 267.986271 221.763065 
L 274.197774 221.876188 
L 280.409276 221.665307 
L 286.620779 221.247186 
L 292.832282 220.796724 
L 299.043785 220.478687 
L 305.255288 220.391233 
L 311.46679 220.539235 
L 317.678293 220.84322 
L 323.889796 221.176831 
L 330.101299 221.416688 
L 336.312801 221.485903 
L 342.524304 221.37668 
L 348.735807 221.146146 
L 354.94731 220.889555 
L 361.158813 220.702496 
L 367.370315 220.64655 
L 373.581818 220.730265 
" clip-path="url(#p9cdef005fe)" style="fill: none; stroke: #8c564b; stroke-width: 1.5; stroke-linecap: square"/>
   </g>
   <g id="line2d_21">
    <path d="M 69.218182 108.605136 
L 75.429685 84.521498 
L 81.641187 67.325 
L 87.85269 59.477104 
L 94.064193 62.125905 
L 100.275696 74.882271 
L 106.487199 95.895931 
L 112.698701 122.214174 
L 118.910204 150.341995 
L 125.121707 176.878914 
L 131.33321 199.094825 
L 137.544712 215.327471 
L 143.756215 225.131375 
L 149.967718 229.169229 
L 156.179221 228.896075 
L 162.390724 226.129322 
L 168.602226 222.614217 
L 174.813729 219.682818 
L 181.025232 218.069992 
L 187.236735 217.903613 
L 193.448237 218.840968 
L 199.65974 220.291091 
L 205.871243 221.650352 
L 212.082746 222.487035 
L 218.294249 222.635039 
L 224.505751 222.188496 
L 230.717254 221.418232 
L 236.928757 220.649769 
L 243.14026 220.147054 
L 249.351763 220.036889 
L 255.563265 220.290839 
L 261.774768 220.760845 
L 267.986271 221.248463 
L 274.197774 221.579964 
L 280.409276 221.66176 
L 286.620779 221.5007 
L 292.832282 221.187441 
L 299.043785 220.853571 
L 305.255288 220.620481 
L 311.46679 220.558418 
L 317.678293 220.668403 
L 323.889796 220.890389 
L 330.101299 221.131688 
L 336.312801 221.303466 
L 342.524304 221.351704 
L 348.735807 221.272477 
L 354.94731 221.107911 
L 361.158813 220.926314 
L 367.370315 220.795095 
L 373.581818 220.756766 
" clip-path="url(#p9cdef005fe)" style="fill: none; stroke: #e377c2; stroke-width: 1.5; stroke-linecap: square"/>
   </g>
   <g id="line2d_22">
    <path d="M 69.218182 108.605136 
L 75.429685 81.521409 
L 81.641187 60.078658 
L 87.85269 47.127312 
L 94.064193 44.443636 
L 100.275696 52.40036 
L 106.487199 69.896969 
L 112.698701 94.56495 
L 118.910204 123.203039 
L 125.121707 152.348168 
L 131.33321 178.861106 
L 137.544712 200.407726 
L 143.756215 215.745948 
L 149.967718 224.776674 
L 156.179221 228.371814 
L 162.390724 228.040284 
L 168.602226 225.52246 
L 174.813729 222.409354 
L 181.025232 219.865191 
L 187.236735 218.497775 
L 193.448237 218.380089 
L 199.65974 219.190113 
L 205.871243 220.412445 
L 212.082746 221.539457 
L 218.294249 222.220708 
L 224.505751 222.331987 
L 230.717254 221.962063 
L 236.928757 221.338114 
L 243.14026 220.72419 
L 249.351763 220.328503 
L 255.563265 220.246263 
L 261.774768 220.449318 
L 267.986271 220.817599 
L 274.197774 221.195148 
L 280.409276 221.448598 
L 286.620779 221.508675 
L 292.832282 221.383748 
L 299.043785 221.145192 
L 305.255288 220.893589 
L 311.46679 220.719851 
L 317.678293 220.675071 
L 323.889796 220.758145 
L 330.101299 220.923024 
L 336.312801 221.100583 
L 342.524304 221.225764 
L 348.735807 221.259966 
L 354.94731 221.201517 
L 361.158813 221.081972 
L 367.370315 220.95116 
L 373.581818 220.857457 
" clip-path="url(#p9cdef005fe)" style="fill: none; stroke: #7f7f7f; stroke-width: 1.5; stroke-linecap: square"/>
   </g>
   <g id="patch_3">
    <path d="M 54 252 
L 54 34.56 
" style="fill: none; stroke: #000000; stroke-width: 0.8; stroke-linejoin: miter; stroke-linecap: square"/>
   </g>
   <g id="patch_4">
    <path d="M 388.8 252 
L 388.8 34.56 
" style="fill: none; stroke: #000000; stroke-width: 0.8; stroke-linejoin: miter; stroke-linecap: square"/>
   </g>
   <g id="patch_5">
    <path d="M 54 252 
L 388.8 252 
" style="fill: none; stroke: #000000; stroke-width: 0.8; stroke-linejoin: miter; stroke-linecap: square"/>
   </g>
   <g id="patch_6">
    <path d="M 54 34.56 
L 388.8 34.56 
" style="fill: none; stroke: #000000; stroke-width: 0.8; stroke-linejoin: miter; stroke-linecap: square"/>
   </g>
   <g id="legend_1">
    <g id="patch_7">
     <path d="M 333.896875 159.985 
L 381.8 159.985 
Q 383.8 159.985 383.8 157.985 
L 383.8 41.56 
Q 383.8 39.56 381.8 39.56 
L 333.896875 39.56 
Q 331.896875 39.56 331.896875 41.56 
L 331.896875 157.985 
Q 331.896875 159.985 333.896875 159.985 
z
" style="fill: #ffffff; opacity: 0.8; stroke: #cccccc; stroke-linejoin: miter"/>
    </g>
    <g id="line2d_23">
     <path d="M 335.896875 47.658437 
L 345.896875 47.658437 
L 355.896875 47.658437 
" style="fill: none; stroke: #1f77b4; stroke-width: 1.5; stroke-linecap: square"/>
    </g>
    <g id="text_17">
     <!-- 0.1 -->
     <g transform="translate(363.896875 51.158437)scale(0.1 -0.1)">
      <use xlink:href="#DejaVuSans-30"/>
      <use xlink:href="#DejaVuSans-2e" x="63.623047"/>
      <use xlink:href="#DejaVuSans-31" x="95.410156"/>
     </g>
    </g>
    <g id="line2d_24">
     <path d="M 335.896875 62.336563 
L 345.896875 62.336563 
L 355.896875 62.336563 
" style="fill: none; stroke: #ff7f0e; stroke-width: 1.5; stroke-linecap: square"/>
    </g>
    <g id="text_18">
     <!-- 0.3 -->
     <g transform="translate(363.896875 65.836563)scale(0.1 -0.1)">
      <defs>
       <path id="DejaVuSans-33" d="M 2597 2516 
Q 3050 2419 3304 2112 
Q 3559 1806 3559 1356 
Q 3559 666 3084 287 
Q 2609 -91 1734 -91 
Q 1441 -91 1130 -33 
Q 819 25 488 141 
L 488 750 
Q 750 597 1062 519 
Q 1375 441 1716 441 
Q 2309 441 2620 675 
Q 2931 909 2931 1356 
Q 2931 1769 2642 2001 
Q 2353 2234 1838 2234 
L 1294 2234 
L 1294 2753 
L 1863 2753 
Q 2328 2753 2575 2939 
Q 2822 3125 2822 3475 
Q 2822 3834 2567 4026 
Q 2313 4219 1838 4219 
Q 1578 4219 1281 4162 
Q 984 4106 628 3988 
L 628 4550 
Q 988 4650 1302 4700 
Q 1616 4750 1894 4750 
Q 2613 4750 3031 4423 
Q 3450 4097 3450 3541 
Q 3450 3153 3228 2886 
Q 3006 2619 2597 2516 
z
" transform="scale(0.015625)"/>
      </defs>
      <use xlink:href="#DejaVuSans-30"/>
      <use xlink:href="#DejaVuSans-2e" x="63.623047"/>
      <use xlink:href="#DejaVuSans-33" x="95.410156"/>
     </g>
    </g>
    <g id="line2d_25">
     <path d="M 335.896875 77.014687 
L 345.896875 77.014687 
L 355.896875 77.014687 
" style="fill: none; stroke: #2ca02c; stroke-width: 1.5; stroke-linecap: square"/>
    </g>
    <g id="text_19">
     <!-- 0.5 -->
     <g transform="translate(363.896875 80.514687)scale(0.1 -0.1)">
      <use xlink:href="#DejaVuSans-30"/>
      <use xlink:href="#DejaVuSans-2e" x="63.623047"/>
      <use xlink:href="#DejaVuSans-35" x="95.410156"/>
     </g>
    </g>
    <g id="line2d_26">
     <path d="M 335.896875 91.692813 
L 345.896875 91.692813 
L 355.896875 91.692813 
" style="fill: none; stroke: #d62728; stroke-width: 1.5; stroke-linecap: square"/>
    </g>
    <g id="text_20">
     <!-- 0.7 -->
     <g transform="translate(363.896875 95.192813)scale(0.1 -0.1)">
      <use xlink:href="#DejaVuSans-30"/>
      <use xlink:href="#DejaVuSans-2e" x="63.623047"/>
      <use xlink:href="#DejaVuSans-37" x="95.410156"/>
     </g>
    </g>
    <g id="line2d_27">
     <path d="M 335.896875 106.370937 
L 345.896875 106.370937 
L 355.896875 106.370937 
" style="fill: none; stroke: #9467bd; stroke-width: 1.5; stroke-linecap: square"/>
    </g>
    <g id="text_21">
     <!-- 0.9 -->
     <g transform="translate(363.896875 109.870937)scale(0.1 -0.1)">
      <defs>
       <path id="DejaVuSans-39" d="M 703 97 
L 703 672 
Q 941 559 1184 500 
Q 1428 441 1663 441 
Q 2288 441 2617 861 
Q 2947 1281 2994 2138 
Q 2813 1869 2534 1725 
Q 2256 1581 1919 1581 
Q 1219 1581 811 2004 
Q 403 2428 403 3163 
Q 403 3881 828 4315 
Q 1253 4750 1959 4750 
Q 2769 4750 3195 4129 
Q 3622 3509 3622 2328 
Q 3622 1225 3098 567 
Q 2575 -91 1691 -91 
Q 1453 -91 1209 -44 
Q 966 3 703 97 
z
M 1959 2075 
Q 2384 2075 2632 2365 
Q 2881 2656 2881 3163 
Q 2881 3666 2632 3958 
Q 2384 4250 1959 4250 
Q 1534 4250 1286 3958 
Q 1038 3666 1038 3163 
Q 1038 2656 1286 2365 
Q 1534 2075 1959 2075 
z
" transform="scale(0.015625)"/>
      </defs>
      <use xlink:href="#DejaVuSans-30"/>
      <use xlink:href="#DejaVuSans-2e" x="63.623047"/>
      <use xlink:href="#DejaVuSans-39" x="95.410156"/>
     </g>
    </g>
    <g id="line2d_28">
     <path d="M 335.896875 121.049062 
L 345.896875 121.049062 
L 355.896875 121.049062 
" style="fill: none; stroke: #8c564b; stroke-width: 1.5; stroke-linecap: square"/>
    </g>
    <g id="text_22">
     <!-- 1.1 -->
     <g transform="translate(363.896875 124.549062)scale(0.1 -0.1)">
      <use xlink:href="#DejaVuSans-31"/>
      <use xlink:href="#DejaVuSans-2e" x="63.623047"/>
      <use xlink:href="#DejaVuSans-31" x="95.410156"/>
     </g>
    </g>
    <g id="line2d_29">
     <path d="M 335.896875 135.727187 
L 345.896875 135.727187 
L 355.896875 135.727187 
" style="fill: none; stroke: #e377c2; stroke-width: 1.5; stroke-linecap: square"/>
    </g>
    <g id="text_23">
     <!-- 1.3 -->
     <g transform="translate(363.896875 139.227187)scale(0.1 -0.1)">
      <use xlink:href="#DejaVuSans-31"/>
      <use xlink:href="#DejaVuSans-2e" x="63.623047"/>
      <use xlink:href="#DejaVuSans-33" x="95.410156"/>
     </g>
    </g>
    <g id="line2d_30">
     <path d="M 335.896875 150.405312 
L 345.896875 150.405312 
L 355.896875 150.405312 
" style="fill: none; stroke: #7f7f7f; stroke-width: 1.5; stroke-linecap: square"/>
    </g>
    <g id="text_24">
     <!-- 1.5 -->
     <g transform="translate(363.896875 153.905312)scale(0.1 -0.1)">
      <use xlink:href="#DejaVuSans-31"/>
      <use xlink:href="#DejaVuSans-2e" x="63.623047"/>
      <use xlink:href="#DejaVuSans-35" x="95.410156"/>
     </g>
    </g>
   </g>
  </g>
 </g>
 <defs>
  <clipPath id="p9cdef005fe">
   <rect x="54" y="34.56" width="334.8" height="217.44"/>
  </clipPath>
 </defs>
</svg>
