<?xml version="1.0" encoding="utf-8" standalone="no"?>
<!DOCTYPE svg PUBLIC "-//W3C//DTD SVG 1.1//EN"
  "http://www.w3.org/Graphics/SVG/1.1/DTD/svg11.dtd">
<svg xmlns:xlink="http://www.w3.org/1999/xlink" width="1440pt" height="720pt" viewBox="0 0 1440 720" xmlns="http://www.w3.org/2000/svg" version="1.1">
 <metadata>
  <rdf:RDF xmlns:dc="http://purl.org/dc/elements/1.1/" xmlns:cc="http://creativecommons.org/ns#" xmlns:rdf="http://www.w3.org/1999/02/22-rdf-syntax-ns#">
   <cc:Work>
    <dc:type rdf:resource="http://purl.org/dc/dcmitype/StillImage"/>
    <dc:date>2022-10-21T22:06:27.714091</dc:date>
    <dc:format>image/svg+xml</dc:format>
    <dc:creator>
     <cc:Agent>
      <dc:title>Matplotlib v3.5.1, https://matplotlib.org/</dc:title>
     </cc:Agent>
    </dc:creator>
   </cc:Work>
  </rdf:RDF>
 </metadata>
 <defs>
  <style type="text/css">*{stroke-linejoin: round; stroke-linecap: butt}</style>
 </defs>
 <g id="figure_1">
  <g id="patch_1">
   <path d="M 0 720 
L 1440 720 
L 1440 0 
L 0 0 
L 0 720 
z
" style="fill: none"/>
  </g>
  <g id="axes_1">
   <g id="patch_2">
    <path d="M 180 630 
L 1296 630 
L 1296 86.4 
L 180 86.4 
z
" style="fill: #ffffff"/>
   </g>
   <g id="matplotlib.axis_1">
    <g id="xtick_1">
     <g id="line2d_1">
      <defs>
       <path id="md4b19e8d6e" d="M 0 0 
L 0 3.5 
" style="stroke: #000000; stroke-width: 0.8"/>
      </defs>
      <g>
       <use xlink:href="#md4b19e8d6e" x="180" y="630" style="stroke: #000000; stroke-width: 0.8"/>
      </g>
     </g>
     <g id="text_1">
      <!-- 0 -->
      <g transform="translate(173.6375 652.196875)scale(0.2 -0.2)">
       <defs>
        <path id="DejaVuSans-30" d="M 2034 4250 
Q 1547 4250 1301 3770 
Q 1056 3291 1056 2328 
Q 1056 1369 1301 889 
Q 1547 409 2034 409 
Q 2525 409 2770 889 
Q 3016 1369 3016 2328 
Q 3016 3291 2770 3770 
Q 2525 4250 2034 4250 
z
M 2034 4750 
Q 2819 4750 3233 4129 
Q 3647 3509 3647 2328 
Q 3647 1150 3233 529 
Q 2819 -91 2034 -91 
Q 1250 -91 836 529 
Q 422 1150 422 2328 
Q 422 3509 836 4129 
Q 1250 4750 2034 4750 
z
" transform="scale(0.015625)"/>
       </defs>
       <use xlink:href="#DejaVuSans-30"/>
      </g>
     </g>
    </g>
    <g id="xtick_2">
     <g id="line2d_2">
      <g>
       <use xlink:href="#md4b19e8d6e" x="403.2" y="630" style="stroke: #000000; stroke-width: 0.8"/>
      </g>
     </g>
     <g id="text_2">
      <!-- 50 -->
      <g transform="translate(390.475 652.196875)scale(0.2 -0.2)">
       <defs>
        <path id="DejaVuSans-35" d="M 691 4666 
L 3169 4666 
L 3169 4134 
L 1269 4134 
L 1269 2991 
Q 1406 3038 1543 3061 
Q 1681 3084 1819 3084 
Q 2600 3084 3056 2656 
Q 3513 2228 3513 1497 
Q 3513 744 3044 326 
Q 2575 -91 1722 -91 
Q 1428 -91 1123 -41 
Q 819 9 494 109 
L 494 744 
Q 775 591 1075 516 
Q 1375 441 1709 441 
Q 2250 441 2565 725 
Q 2881 1009 2881 1497 
Q 2881 1984 2565 2268 
Q 2250 2553 1709 2553 
Q 1456 2553 1204 2497 
Q 953 2441 691 2322 
L 691 4666 
z
" transform="scale(0.015625)"/>
       </defs>
       <use xlink:href="#DejaVuSans-35"/>
       <use xlink:href="#DejaVuSans-30" x="63.623047"/>
      </g>
     </g>
    </g>
    <g id="xtick_3">
     <g id="line2d_3">
      <g>
       <use xlink:href="#md4b19e8d6e" x="626.4" y="630" style="stroke: #000000; stroke-width: 0.8"/>
      </g>
     </g>
     <g id="text_3">
      <!-- 100 -->
      <g transform="translate(607.3125 652.196875)scale(0.2 -0.2)">
       <defs>
        <path id="DejaVuSans-31" d="M 794 531 
L 1825 531 
L 1825 4091 
L 703 3866 
L 703 4441 
L 1819 4666 
L 2450 4666 
L 2450 531 
L 3481 531 
L 3481 0 
L 794 0 
L 794 531 
z
" transform="scale(0.015625)"/>
       </defs>
       <use xlink:href="#DejaVuSans-31"/>
       <use xlink:href="#DejaVuSans-30" x="63.623047"/>
       <use xlink:href="#DejaVuSans-30" x="127.246094"/>
      </g>
     </g>
    </g>
    <g id="xtick_4">
     <g id="line2d_4">
      <g>
       <use xlink:href="#md4b19e8d6e" x="849.6" y="630" style="stroke: #000000; stroke-width: 0.8"/>
      </g>
     </g>
     <g id="text_4">
      <!-- 150 -->
      <g transform="translate(830.5125 652.196875)scale(0.2 -0.2)">
       <use xlink:href="#DejaVuSans-31"/>
       <use xlink:href="#DejaVuSans-35" x="63.623047"/>
       <use xlink:href="#DejaVuSans-30" x="127.246094"/>
      </g>
     </g>
    </g>
    <g id="xtick_5">
     <g id="line2d_5">
      <g>
       <use xlink:href="#md4b19e8d6e" x="1072.8" y="630" style="stroke: #000000; stroke-width: 0.8"/>
      </g>
     </g>
     <g id="text_5">
      <!-- 200 -->
      <g transform="translate(1053.7125 652.196875)scale(0.2 -0.2)">
       <defs>
        <path id="DejaVuSans-32" d="M 1228 531 
L 3431 531 
L 3431 0 
L 469 0 
L 469 531 
Q 828 903 1448 1529 
Q 2069 2156 2228 2338 
Q 2531 2678 2651 2914 
Q 2772 3150 2772 3378 
Q 2772 3750 2511 3984 
Q 2250 4219 1831 4219 
Q 1534 4219 1204 4116 
Q 875 4013 500 3803 
L 500 4441 
Q 881 4594 1212 4672 
Q 1544 4750 1819 4750 
Q 2544 4750 2975 4387 
Q 3406 4025 3406 3419 
Q 3406 3131 3298 2873 
Q 3191 2616 2906 2266 
Q 2828 2175 2409 1742 
Q 1991 1309 1228 531 
z
" transform="scale(0.015625)"/>
       </defs>
       <use xlink:href="#DejaVuSans-32"/>
       <use xlink:href="#DejaVuSans-30" x="63.623047"/>
       <use xlink:href="#DejaVuSans-30" x="127.246094"/>
      </g>
     </g>
    </g>
    <g id="xtick_6">
     <g id="line2d_6">
      <g>
       <use xlink:href="#md4b19e8d6e" x="1296" y="630" style="stroke: #000000; stroke-width: 0.8"/>
      </g>
     </g>
     <g id="text_6">
      <!-- 250 -->
      <g transform="translate(1276.9125 652.196875)scale(0.2 -0.2)">
       <use xlink:href="#DejaVuSans-32"/>
       <use xlink:href="#DejaVuSans-35" x="63.623047"/>
       <use xlink:href="#DejaVuSans-30" x="127.246094"/>
      </g>
     </g>
    </g>
    <g id="text_7">
     <!-- epoch -->
     <g transform="translate(707.54375 675.553125)scale(0.2 -0.2)">
      <defs>
       <path id="DejaVuSans-65" d="M 3597 1894 
L 3597 1613 
L 953 1613 
Q 991 1019 1311 708 
Q 1631 397 2203 397 
Q 2534 397 2845 478 
Q 3156 559 3463 722 
L 3463 178 
Q 3153 47 2828 -22 
Q 2503 -91 2169 -91 
Q 1331 -91 842 396 
Q 353 884 353 1716 
Q 353 2575 817 3079 
Q 1281 3584 2069 3584 
Q 2775 3584 3186 3129 
Q 3597 2675 3597 1894 
z
M 3022 2063 
Q 3016 2534 2758 2815 
Q 2500 3097 2075 3097 
Q 1594 3097 1305 2825 
Q 1016 2553 972 2059 
L 3022 2063 
z
" transform="scale(0.015625)"/>
       <path id="DejaVuSans-70" d="M 1159 525 
L 1159 -1331 
L 581 -1331 
L 581 3500 
L 1159 3500 
L 1159 2969 
Q 1341 3281 1617 3432 
Q 1894 3584 2278 3584 
Q 2916 3584 3314 3078 
Q 3713 2572 3713 1747 
Q 3713 922 3314 415 
Q 2916 -91 2278 -91 
Q 1894 -91 1617 61 
Q 1341 213 1159 525 
z
M 3116 1747 
Q 3116 2381 2855 2742 
Q 2594 3103 2138 3103 
Q 1681 3103 1420 2742 
Q 1159 2381 1159 1747 
Q 1159 1113 1420 752 
Q 1681 391 2138 391 
Q 2594 391 2855 752 
Q 3116 1113 3116 1747 
z
" transform="scale(0.015625)"/>
       <path id="DejaVuSans-6f" d="M 1959 3097 
Q 1497 3097 1228 2736 
Q 959 2375 959 1747 
Q 959 1119 1226 758 
Q 1494 397 1959 397 
Q 2419 397 2687 759 
Q 2956 1122 2956 1747 
Q 2956 2369 2687 2733 
Q 2419 3097 1959 3097 
z
M 1959 3584 
Q 2709 3584 3137 3096 
Q 3566 2609 3566 1747 
Q 3566 888 3137 398 
Q 2709 -91 1959 -91 
Q 1206 -91 779 398 
Q 353 888 353 1747 
Q 353 2609 779 3096 
Q 1206 3584 1959 3584 
z
" transform="scale(0.015625)"/>
       <path id="DejaVuSans-63" d="M 3122 3366 
L 3122 2828 
Q 2878 2963 2633 3030 
Q 2388 3097 2138 3097 
Q 1578 3097 1268 2742 
Q 959 2388 959 1747 
Q 959 1106 1268 751 
Q 1578 397 2138 397 
Q 2388 397 2633 464 
Q 2878 531 3122 666 
L 3122 134 
Q 2881 22 2623 -34 
Q 2366 -91 2075 -91 
Q 1284 -91 818 406 
Q 353 903 353 1747 
Q 353 2603 823 3093 
Q 1294 3584 2113 3584 
Q 2378 3584 2631 3529 
Q 2884 3475 3122 3366 
z
" transform="scale(0.015625)"/>
       <path id="DejaVuSans-68" d="M 3513 2113 
L 3513 0 
L 2938 0 
L 2938 2094 
Q 2938 2591 2744 2837 
Q 2550 3084 2163 3084 
Q 1697 3084 1428 2787 
Q 1159 2491 1159 1978 
L 1159 0 
L 581 0 
L 581 4863 
L 1159 4863 
L 1159 2956 
Q 1366 3272 1645 3428 
Q 1925 3584 2291 3584 
Q 2894 3584 3203 3211 
Q 3513 2838 3513 2113 
z
" transform="scale(0.015625)"/>
      </defs>
      <use xlink:href="#DejaVuSans-65"/>
      <use xlink:href="#DejaVuSans-70" x="61.523438"/>
      <use xlink:href="#DejaVuSans-6f" x="125"/>
      <use xlink:href="#DejaVuSans-63" x="186.181641"/>
      <use xlink:href="#DejaVuSans-68" x="241.162109"/>
     </g>
    </g>
   </g>
   <g id="matplotlib.axis_2">
    <g id="ytick_1">
     <g id="line2d_7">
      <defs>
       <path id="mc5418c5196" d="M 0 0 
L -3.5 0 
" style="stroke: #000000; stroke-width: 0.8"/>
      </defs>
      <g>
       <use xlink:href="#mc5418c5196" x="180" y="599.8" style="stroke: #000000; stroke-width: 0.8"/>
      </g>
     </g>
     <g id="text_8">
      <!-- 0.08 -->
      <g transform="translate(128.46875 607.398438)scale(0.2 -0.2)">
       <defs>
        <path id="DejaVuSans-2e" d="M 684 794 
L 1344 794 
L 1344 0 
L 684 0 
L 684 794 
z
" transform="scale(0.015625)"/>
        <path id="DejaVuSans-38" d="M 2034 2216 
Q 1584 2216 1326 1975 
Q 1069 1734 1069 1313 
Q 1069 891 1326 650 
Q 1584 409 2034 409 
Q 2484 409 2743 651 
Q 3003 894 3003 1313 
Q 3003 1734 2745 1975 
Q 2488 2216 2034 2216 
z
M 1403 2484 
Q 997 2584 770 2862 
Q 544 3141 544 3541 
Q 544 4100 942 4425 
Q 1341 4750 2034 4750 
Q 2731 4750 3128 4425 
Q 3525 4100 3525 3541 
Q 3525 3141 3298 2862 
Q 3072 2584 2669 2484 
Q 3125 2378 3379 2068 
Q 3634 1759 3634 1313 
Q 3634 634 3220 271 
Q 2806 -91 2034 -91 
Q 1263 -91 848 271 
Q 434 634 434 1313 
Q 434 1759 690 2068 
Q 947 2378 1403 2484 
z
M 1172 3481 
Q 1172 3119 1398 2916 
Q 1625 2713 2034 2713 
Q 2441 2713 2670 2916 
Q 2900 3119 2900 3481 
Q 2900 3844 2670 4047 
Q 2441 4250 2034 4250 
Q 1625 4250 1398 4047 
Q 1172 3844 1172 3481 
z
" transform="scale(0.015625)"/>
       </defs>
       <use xlink:href="#DejaVuSans-30"/>
       <use xlink:href="#DejaVuSans-2e" x="63.623047"/>
       <use xlink:href="#DejaVuSans-30" x="95.410156"/>
       <use xlink:href="#DejaVuSans-38" x="159.033203"/>
      </g>
     </g>
    </g>
    <g id="ytick_2">
     <g id="line2d_8">
      <g>
       <use xlink:href="#mc5418c5196" x="180" y="539.4" style="stroke: #000000; stroke-width: 0.8"/>
      </g>
     </g>
     <g id="text_9">
      <!-- 0.10 -->
      <g transform="translate(128.46875 546.998438)scale(0.2 -0.2)">
       <use xlink:href="#DejaVuSans-30"/>
       <use xlink:href="#DejaVuSans-2e" x="63.623047"/>
       <use xlink:href="#DejaVuSans-31" x="95.410156"/>
       <use xlink:href="#DejaVuSans-30" x="159.033203"/>
      </g>
     </g>
    </g>
    <g id="ytick_3">
     <g id="line2d_9">
      <g>
       <use xlink:href="#mc5418c5196" x="180" y="479" style="stroke: #000000; stroke-width: 0.8"/>
      </g>
     </g>
     <g id="text_10">
      <!-- 0.12 -->
      <g transform="translate(128.46875 486.598438)scale(0.2 -0.2)">
       <use xlink:href="#DejaVuSans-30"/>
       <use xlink:href="#DejaVuSans-2e" x="63.623047"/>
       <use xlink:href="#DejaVuSans-31" x="95.410156"/>
       <use xlink:href="#DejaVuSans-32" x="159.033203"/>
      </g>
     </g>
    </g>
    <g id="ytick_4">
     <g id="line2d_10">
      <g>
       <use xlink:href="#mc5418c5196" x="180" y="418.6" style="stroke: #000000; stroke-width: 0.8"/>
      </g>
     </g>
     <g id="text_11">
      <!-- 0.14 -->
      <g transform="translate(128.46875 426.198437)scale(0.2 -0.2)">
       <defs>
        <path id="DejaVuSans-34" d="M 2419 4116 
L 825 1625 
L 2419 1625 
L 2419 4116 
z
M 2253 4666 
L 3047 4666 
L 3047 1625 
L 3713 1625 
L 3713 1100 
L 3047 1100 
L 3047 0 
L 2419 0 
L 2419 1100 
L 313 1100 
L 313 1709 
L 2253 4666 
z
" transform="scale(0.015625)"/>
       </defs>
       <use xlink:href="#DejaVuSans-30"/>
       <use xlink:href="#DejaVuSans-2e" x="63.623047"/>
       <use xlink:href="#DejaVuSans-31" x="95.410156"/>
       <use xlink:href="#DejaVuSans-34" x="159.033203"/>
      </g>
     </g>
    </g>
    <g id="ytick_5">
     <g id="line2d_11">
      <g>
       <use xlink:href="#mc5418c5196" x="180" y="358.2" style="stroke: #000000; stroke-width: 0.8"/>
      </g>
     </g>
     <g id="text_12">
      <!-- 0.16 -->
      <g transform="translate(128.46875 365.798438)scale(0.2 -0.2)">
       <defs>
        <path id="DejaVuSans-36" d="M 2113 2584 
Q 1688 2584 1439 2293 
Q 1191 2003 1191 1497 
Q 1191 994 1439 701 
Q 1688 409 2113 409 
Q 2538 409 2786 701 
Q 3034 994 3034 1497 
Q 3034 2003 2786 2293 
Q 2538 2584 2113 2584 
z
M 3366 4563 
L 3366 3988 
Q 3128 4100 2886 4159 
Q 2644 4219 2406 4219 
Q 1781 4219 1451 3797 
Q 1122 3375 1075 2522 
Q 1259 2794 1537 2939 
Q 1816 3084 2150 3084 
Q 2853 3084 3261 2657 
Q 3669 2231 3669 1497 
Q 3669 778 3244 343 
Q 2819 -91 2113 -91 
Q 1303 -91 875 529 
Q 447 1150 447 2328 
Q 447 3434 972 4092 
Q 1497 4750 2381 4750 
Q 2619 4750 2861 4703 
Q 3103 4656 3366 4563 
z
" transform="scale(0.015625)"/>
       </defs>
       <use xlink:href="#DejaVuSans-30"/>
       <use xlink:href="#DejaVuSans-2e" x="63.623047"/>
       <use xlink:href="#DejaVuSans-31" x="95.410156"/>
       <use xlink:href="#DejaVuSans-36" x="159.033203"/>
      </g>
     </g>
    </g>
    <g id="ytick_6">
     <g id="line2d_12">
      <g>
       <use xlink:href="#mc5418c5196" x="180" y="297.8" style="stroke: #000000; stroke-width: 0.8"/>
      </g>
     </g>
     <g id="text_13">
      <!-- 0.18 -->
      <g transform="translate(128.46875 305.398437)scale(0.2 -0.2)">
       <use xlink:href="#DejaVuSans-30"/>
       <use xlink:href="#DejaVuSans-2e" x="63.623047"/>
       <use xlink:href="#DejaVuSans-31" x="95.410156"/>
       <use xlink:href="#DejaVuSans-38" x="159.033203"/>
      </g>
     </g>
    </g>
    <g id="ytick_7">
     <g id="line2d_13">
      <g>
       <use xlink:href="#mc5418c5196" x="180" y="237.4" style="stroke: #000000; stroke-width: 0.8"/>
      </g>
     </g>
     <g id="text_14">
      <!-- 0.20 -->
      <g transform="translate(128.46875 244.998437)scale(0.2 -0.2)">
       <use xlink:href="#DejaVuSans-30"/>
       <use xlink:href="#DejaVuSans-2e" x="63.623047"/>
       <use xlink:href="#DejaVuSans-32" x="95.410156"/>
       <use xlink:href="#DejaVuSans-30" x="159.033203"/>
      </g>
     </g>
    </g>
    <g id="ytick_8">
     <g id="line2d_14">
      <g>
       <use xlink:href="#mc5418c5196" x="180" y="177" style="stroke: #000000; stroke-width: 0.8"/>
      </g>
     </g>
     <g id="text_15">
      <!-- 0.22 -->
      <g transform="translate(128.46875 184.598438)scale(0.2 -0.2)">
       <use xlink:href="#DejaVuSans-30"/>
       <use xlink:href="#DejaVuSans-2e" x="63.623047"/>
       <use xlink:href="#DejaVuSans-32" x="95.410156"/>
       <use xlink:href="#DejaVuSans-32" x="159.033203"/>
      </g>
     </g>
    </g>
    <g id="ytick_9">
     <g id="line2d_15">
      <g>
       <use xlink:href="#mc5418c5196" x="180" y="116.6" style="stroke: #000000; stroke-width: 0.8"/>
      </g>
     </g>
     <g id="text_16">
      <!-- 0.24 -->
      <g transform="translate(128.46875 124.198438)scale(0.2 -0.2)">
       <use xlink:href="#DejaVuSans-30"/>
       <use xlink:href="#DejaVuSans-2e" x="63.623047"/>
       <use xlink:href="#DejaVuSans-32" x="95.410156"/>
       <use xlink:href="#DejaVuSans-34" x="159.033203"/>
      </g>
     </g>
    </g>
    <g id="text_17">
     <!-- train loss -->
     <g transform="translate(120.309375 403.96875)rotate(-90)scale(0.2 -0.2)">
      <defs>
       <path id="DejaVuSans-74" d="M 1172 4494 
L 1172 3500 
L 2356 3500 
L 2356 3053 
L 1172 3053 
L 1172 1153 
Q 1172 725 1289 603 
Q 1406 481 1766 481 
L 2356 481 
L 2356 0 
L 1766 0 
Q 1100 0 847 248 
Q 594 497 594 1153 
L 594 3053 
L 172 3053 
L 172 3500 
L 594 3500 
L 594 4494 
L 1172 4494 
z
" transform="scale(0.015625)"/>
       <path id="DejaVuSans-72" d="M 2631 2963 
Q 2534 3019 2420 3045 
Q 2306 3072 2169 3072 
Q 1681 3072 1420 2755 
Q 1159 2438 1159 1844 
L 1159 0 
L 581 0 
L 581 3500 
L 1159 3500 
L 1159 2956 
Q 1341 3275 1631 3429 
Q 1922 3584 2338 3584 
Q 2397 3584 2469 3576 
Q 2541 3569 2628 3553 
L 2631 2963 
z
" transform="scale(0.015625)"/>
       <path id="DejaVuSans-61" d="M 2194 1759 
Q 1497 1759 1228 1600 
Q 959 1441 959 1056 
Q 959 750 1161 570 
Q 1363 391 1709 391 
Q 2188 391 2477 730 
Q 2766 1069 2766 1631 
L 2766 1759 
L 2194 1759 
z
M 3341 1997 
L 3341 0 
L 2766 0 
L 2766 531 
Q 2569 213 2275 61 
Q 1981 -91 1556 -91 
Q 1019 -91 701 211 
Q 384 513 384 1019 
Q 384 1609 779 1909 
Q 1175 2209 1959 2209 
L 2766 2209 
L 2766 2266 
Q 2766 2663 2505 2880 
Q 2244 3097 1772 3097 
Q 1472 3097 1187 3025 
Q 903 2953 641 2809 
L 641 3341 
Q 956 3463 1253 3523 
Q 1550 3584 1831 3584 
Q 2591 3584 2966 3190 
Q 3341 2797 3341 1997 
z
" transform="scale(0.015625)"/>
       <path id="DejaVuSans-69" d="M 603 3500 
L 1178 3500 
L 1178 0 
L 603 0 
L 603 3500 
z
M 603 4863 
L 1178 4863 
L 1178 4134 
L 603 4134 
L 603 4863 
z
" transform="scale(0.015625)"/>
       <path id="DejaVuSans-6e" d="M 3513 2113 
L 3513 0 
L 2938 0 
L 2938 2094 
Q 2938 2591 2744 2837 
Q 2550 3084 2163 3084 
Q 1697 3084 1428 2787 
Q 1159 2491 1159 1978 
L 1159 0 
L 581 0 
L 581 3500 
L 1159 3500 
L 1159 2956 
Q 1366 3272 1645 3428 
Q 1925 3584 2291 3584 
Q 2894 3584 3203 3211 
Q 3513 2838 3513 2113 
z
" transform="scale(0.015625)"/>
       <path id="DejaVuSans-20" transform="scale(0.015625)"/>
       <path id="DejaVuSans-6c" d="M 603 4863 
L 1178 4863 
L 1178 0 
L 603 0 
L 603 4863 
z
" transform="scale(0.015625)"/>
       <path id="DejaVuSans-73" d="M 2834 3397 
L 2834 2853 
Q 2591 2978 2328 3040 
Q 2066 3103 1784 3103 
Q 1356 3103 1142 2972 
Q 928 2841 928 2578 
Q 928 2378 1081 2264 
Q 1234 2150 1697 2047 
L 1894 2003 
Q 2506 1872 2764 1633 
Q 3022 1394 3022 966 
Q 3022 478 2636 193 
Q 2250 -91 1575 -91 
Q 1294 -91 989 -36 
Q 684 19 347 128 
L 347 722 
Q 666 556 975 473 
Q 1284 391 1588 391 
Q 1994 391 2212 530 
Q 2431 669 2431 922 
Q 2431 1156 2273 1281 
Q 2116 1406 1581 1522 
L 1381 1569 
Q 847 1681 609 1914 
Q 372 2147 372 2553 
Q 372 3047 722 3315 
Q 1072 3584 1716 3584 
Q 2034 3584 2315 3537 
Q 2597 3491 2834 3397 
z
" transform="scale(0.015625)"/>
      </defs>
      <use xlink:href="#DejaVuSans-74"/>
      <use xlink:href="#DejaVuSans-72" x="39.208984"/>
      <use xlink:href="#DejaVuSans-61" x="80.322266"/>
      <use xlink:href="#DejaVuSans-69" x="141.601562"/>
      <use xlink:href="#DejaVuSans-6e" x="169.384766"/>
      <use xlink:href="#DejaVuSans-20" x="232.763672"/>
      <use xlink:href="#DejaVuSans-6c" x="264.550781"/>
      <use xlink:href="#DejaVuSans-6f" x="292.333984"/>
      <use xlink:href="#DejaVuSans-73" x="353.515625"/>
      <use xlink:href="#DejaVuSans-73" x="405.615234"/>
     </g>
    </g>
   </g>
   <g id="line2d_16">
    <path d="M 353.047474 -1 
L 354.096 95.359845 
L 358.56 304.27169 
L 363.024 392.867372 
L 367.488 421.548542 
L 371.952 453.58534 
L 376.416 458.608183 
L 380.88 465.222257 
L 385.344 473.735394 
L 389.808 467.820959 
L 394.272 484.65465 
L 398.736 478.674625 
L 403.2 474.845289 
L 407.664 467.655848 
L 412.128 476.907326 
L 416.592 473.691113 
L 421.056 480.277601 
L 425.52 475.002817 
L 429.984 480.421471 
L 434.448 483.304425 
L 438.912 489.751858 
L 443.376 483.02348 
L 447.84 490.183805 
L 452.304 486.072355 
L 456.768 495.55964 
L 461.232 487.228984 
L 465.696 489.493707 
L 470.16 492.853294 
L 474.624 487.575383 
L 479.088 497.518443 
L 483.552 490.153857 
L 488.016 498.3973 
L 492.48 497.57519 
L 496.944 494.512027 
L 501.408 499.518085 
L 505.872 495.491148 
L 510.336 493.510811 
L 514.8 500.294159 
L 519.264 494.613033 
L 523.728 499.679281 
L 528.192 498.519412 
L 532.656 501.424821 
L 537.12 502.899408 
L 541.584 498.23984 
L 546.048 503.586941 
L 550.512 500.422098 
L 554.976 502.003631 
L 559.44 504.60015 
L 563.904 511.736849 
L 568.368 509.160738 
L 572.832 505.563385 
L 577.296 513.304994 
L 581.76 508.791028 
L 586.224 509.613566 
L 590.688 506.413824 
L 599.616 509.105274 
L 604.08 521.307837 
L 608.544 516.610332 
L 613.008 509.636944 
L 617.472 515.716017 
L 621.936 511.661584 
L 626.4 514.89195 
L 630.864 512.472511 
L 635.328 512.835471 
L 639.792 503.205621 
L 644.256 505.546554 
L 648.72 513.751184 
L 653.184 508.714053 
L 657.648 511.443664 
L 662.112 506.411573 
L 666.576 513.390857 
L 671.04 512.29318 
L 675.504 508.945811 
L 679.968 507.074041 
L 684.432 519.005695 
L 688.896 511.462543 
L 693.36 517.653827 
L 697.824 516.707333 
L 702.288 521.232415 
L 706.752 516.877506 
L 711.216 506.057704 
L 715.68 521.361929 
L 720.144 517.958533 
L 724.608 517.258804 
L 729.072 517.780034 
L 733.536 516.787053 
L 738 521.743002 
L 742.464 510.843097 
L 746.928 519.122249 
L 751.392 509.505922 
L 755.856 517.273767 
L 760.32 520.19324 
L 764.784 517.979751 
L 769.248 523.083169 
L 773.712 521.064087 
L 778.176 512.57831 
L 782.64 515.759916 
L 787.104 506.198019 
L 791.568 510.04693 
L 796.032 520.399527 
L 800.496 524.682455 
L 804.96 517.802152 
L 809.424 518.422408 
L 813.888 514.214295 
L 818.352 520.246702 
L 822.816 514.429267 
L 827.28 517.846749 
L 831.744 518.304144 
L 836.208 518.39048 
L 840.672 523.658356 
L 845.136 520.372661 
L 849.6 514.317731 
L 854.064 518.973429 
L 858.528 512.612354 
L 862.992 515.10528 
L 867.456 521.205301 
L 871.92 520.768742 
L 876.384 518.635513 
L 880.848 526.179363 
L 885.312 524.739157 
L 889.776 519.882864 
L 894.24 519.407334 
L 898.704 522.300458 
L 903.168 507.79231 
L 907.632 519.746915 
L 912.096 520.26936 
L 916.56 523.567813 
L 921.024 520.086991 
L 925.488 522.14023 
L 929.952 519.22429 
L 934.416 525.044087 
L 938.88 534.698486 
L 943.344 519.431342 
L 947.808 520.671966 
L 952.272 525.611219 
L 956.736 518.840967 
L 961.2 520.779025 
L 965.664 519.168308 
L 970.128 524.784586 
L 974.592 537.82267 
L 979.056 527.080968 
L 983.52 518.007022 
L 987.984 518.654121 
L 992.448 529.772373 
L 996.912 521.763725 
L 1001.376 522.711434 
L 1005.84 526.392647 
L 1010.304 532.906886 
L 1014.768 513.778208 
L 1019.232 523.444194 
L 1023.696 522.653742 
L 1028.16 525.491695 
L 1032.624 524.249136 
L 1037.088 523.711435 
L 1041.552 523.387649 
L 1046.016 519.757895 
L 1050.48 524.457425 
L 1054.944 519.559236 
L 1059.408 522.609618 
L 1068.336 526.901975 
L 1072.8 525.78893 
L 1077.264 517.014446 
L 1081.728 523.697035 
L 1086.192 524.197699 
L 1090.656 522.581335 
L 1095.12 525.715487 
L 1099.584 529.033741 
L 1104.048 525.147951 
L 1108.512 525.370596 
L 1112.976 526.504566 
L 1117.44 526.216917 
L 1121.904 517.685216 
L 1126.368 528.170207 
L 1130.832 517.44718 
L 1135.296 527.891018 
L 1139.76 520.938307 
L 1144.224 530.927697 
L 1148.688 518.389264 
L 1153.152 527.97427 
L 1157.616 532.949817 
L 1162.08 522.44174 
L 1166.544 526.222834 
L 1171.008 521.341093 
L 1175.472 523.038843 
L 1179.936 523.733688 
L 1184.4 524.106908 
L 1188.864 520.495065 
L 1193.328 525.138838 
L 1197.792 525.743951 
L 1202.256 521.22796 
L 1206.72 526.370957 
L 1211.184 523.592946 
L 1215.648 525.466044 
L 1220.112 524.193019 
L 1224.576 523.466087 
L 1229.04 528.136118 
L 1233.504 526.426106 
L 1237.968 520.077249 
L 1242.432 535.715632 
L 1246.896 526.393863 
L 1251.36 516.15683 
L 1255.824 523.053311 
L 1260.288 520.434898 
L 1264.752 525.563067 
L 1269.216 523.631693 
L 1273.68 522.027929 
L 1278.144 522.237726 
L 1282.608 526.150517 
L 1287.072 519.45346 
L 1291.536 529.570744 
L 1291.536 529.570744 
" clip-path="url(#pce15f921f7)" style="fill: none; stroke: #1f77b4; stroke-width: 1.5; stroke-linecap: square"/>
   </g>
   <g id="line2d_17">
    <path d="M 491.940913 -1 
L 492.48 377.839163 
L 496.944 263.617419 
L 501.408 389.030723 
L 505.872 294.984099 
L 510.336 374.454195 
L 514.8 323.727732 
L 519.264 367.020756 
L 523.728 349.322024 
L 528.192 357.139955 
L 532.656 345.512916 
L 537.12 357.855299 
L 541.584 357.460771 
L 546.048 388.870383 
L 550.512 372.97288 
L 554.976 393.915187 
L 559.44 378.79153 
L 563.904 399.596492 
L 568.368 385.485054 
L 572.832 406.928092 
L 577.296 399.497444 
L 581.76 420.003595 
L 586.224 414.309195 
L 590.688 419.936408 
L 595.152 412.622268 
L 599.616 447.198501 
L 604.08 434.417758 
L 608.544 441.676681 
L 613.008 444.18466 
L 617.472 445.135272 
L 621.936 459.448451 
L 626.4 259.186705 
L 630.864 429.071489 
L 635.328 440.29581 
L 639.792 446.194742 
L 644.256 454.160504 
L 648.72 462.463822 
L 653.184 462.264825 
L 657.648 469.908534 
L 662.112 468.714981 
L 666.576 472.524989 
L 671.04 474.919811 
L 675.504 475.102428 
L 679.968 479.708669 
L 684.432 482.598126 
L 688.896 488.658794 
L 693.36 491.803679 
L 697.824 488.162877 
L 702.288 494.587743 
L 706.752 490.912829 
L 711.216 503.680274 
L 715.68 498.402273 
L 720.144 505.757814 
L 724.608 501.67773 
L 729.072 508.744857 
L 733.536 507.493545 
L 738 511.401476 
L 742.464 515.014444 
L 746.928 511.231505 
L 751.392 518.458094 
L 755.856 519.300635 
L 760.32 522.491197 
L 764.784 527.429797 
L 769.248 526.211921 
L 773.712 525.545269 
L 778.176 527.927581 
L 782.64 525.161541 
L 787.104 527.035539 
L 791.568 527.241196 
L 796.032 529.52356 
L 800.496 530.415265 
L 804.96 536.372092 
L 809.424 530.004581 
L 813.888 541.672999 
L 818.352 533.819674 
L 822.816 534.170303 
L 827.28 537.264201 
L 831.744 534.508242 
L 836.208 540.50125 
L 840.672 533.653416 
L 845.136 544.242315 
L 849.6 529.76389 
L 854.064 559.016242 
L 858.528 562.210584 
L 862.992 564.911327 
L 867.456 564.291881 
L 871.92 563.203678 
L 876.384 562.948654 
L 880.848 566.49592 
L 885.312 568.514283 
L 889.776 562.209594 
L 894.24 564.365346 
L 898.704 570.358985 
L 903.168 569.815456 
L 907.632 569.609485 
L 912.096 569.178528 
L 916.56 566.811831 
L 921.024 566.600864 
L 925.488 570.009998 
L 929.952 570.607978 
L 934.416 569.281244 
L 938.88 571.536089 
L 943.344 575.488684 
L 947.808 574.10194 
L 952.272 574.156594 
L 956.736 572.61725 
L 961.2 572.77417 
L 965.664 569.356329 
L 970.128 576.665361 
L 974.592 572.932351 
L 979.056 573.750658 
L 983.52 580.470418 
L 987.984 576.060473 
L 992.448 580.066575 
L 996.912 578.626211 
L 1001.376 577.910462 
L 1005.84 580.709489 
L 1010.304 576.255802 
L 1014.768 585.371262 
L 1019.232 578.192374 
L 1023.696 585.699571 
L 1028.16 578.235261 
L 1032.624 584.280718 
L 1037.088 582.001189 
L 1041.552 578.341712 
L 1046.016 585.213374 
L 1050.48 582.894762 
L 1054.944 585.185091 
L 1059.408 588.290623 
L 1063.872 583.067433 
L 1068.336 585.167675 
L 1072.8 587.000272 
L 1077.264 590.556763 
L 1081.728 594.256427 
L 1086.192 599.186027 
L 1090.656 602.801156 
L 1095.12 604.489162 
L 1099.584 594.907217 
L 1104.048 601.06142 
L 1108.512 602.759687 
L 1112.976 596.124372 
L 1117.44 606.216815 
L 1121.904 600.668984 
L 1126.368 600.636538 
L 1130.832 600.405951 
L 1135.296 599.886746 
L 1139.76 606.581372 
L 1144.224 595.191874 
L 1148.688 603.00499 
L 1153.152 606.005196 
L 1157.616 598.524663 
L 1162.08 603.136102 
L 1166.544 599.04542 
L 1171.008 603.923088 
L 1175.472 602.153764 
L 1179.936 599.748659 
L 1184.4 605.145847 
L 1188.864 602.112948 
L 1193.328 599.309534 
L 1197.792 600.056581 
L 1202.256 598.801512 
L 1206.72 602.973984 
L 1211.184 597.723681 
L 1215.648 603.453205 
L 1220.112 599.004154 
L 1224.576 607.204823 
L 1229.04 604.049138 
L 1233.504 603.093261 
L 1237.968 605.450597 
L 1242.432 601.655193 
L 1246.896 603.496564 
L 1251.36 599.663156 
L 1255.824 609.685014 
L 1260.288 607.411695 
L 1264.752 603.820845 
L 1269.216 608.280292 
L 1273.68 599.722985 
L 1278.144 601.232358 
L 1282.608 604.693649 
L 1287.072 602.794293 
L 1291.536 607.399882 
L 1291.536 607.399882 
" clip-path="url(#pce15f921f7)" style="fill: none; stroke: #ff7f0e; stroke-width: 1.5; stroke-linecap: square"/>
   </g>
   <g id="line2d_18">
    <path d="M 297.965683 -1 
L 300.528 426.43197 
L 304.992 549.568783 
L 309.456 564.286661 
L 313.92 570.033399 
L 318.384 566.738996 
L 322.848 570.715037 
L 327.312 570.498692 
L 331.776 573.352957 
L 336.24 576.501938 
L 340.704 574.272541 
L 345.168 575.30771 
L 349.632 581.299683 
L 354.096 578.651277 
L 358.56 577.489293 
L 363.024 574.699672 
L 367.488 577.087452 
L 371.952 579.865328 
L 376.416 579.419543 
L 380.88 577.674475 
L 385.344 584.985059 
L 389.808 583.981008 
L 394.272 579.898044 
L 398.736 590.485594 
L 403.2 569.25899 
L 407.664 576.791883 
L 412.128 576.122328 
L 416.592 580.792966 
L 421.056 582.920345 
L 425.52 578.585845 
L 429.984 578.442335 
L 434.448 579.354538 
L 438.912 578.479304 
L 443.376 584.122718 
L 447.84 583.146815 
L 452.304 583.191637 
L 456.768 587.115318 
L 461.232 583.928019 
L 465.696 587.85629 
L 470.16 590.017398 
L 474.624 594.282641 
L 479.088 590.01544 
L 483.552 589.341183 
L 488.016 592.752814 
L 492.48 588.995391 
L 496.944 592.398203 
L 501.408 597.023907 
L 505.872 595.006197 
L 510.336 596.056285 
L 514.8 594.246189 
L 519.264 596.857154 
L 523.728 595.710448 
L 528.192 597.169015 
L 532.656 601.764186 
L 537.12 600.725731 
L 541.584 601.669503 
L 546.048 605.553808 
L 550.512 602.749247 
L 554.976 603.869312 
L 559.44 598.941557 
L 563.904 601.328797 
L 568.368 599.959041 
L 572.832 608.865964 
L 577.296 601.031629 
L 581.76 603.217015 
L 586.224 606.462906 
L 590.688 604.739393 
L 595.152 608.023041 
L 599.616 609.469659 
L 604.08 612.611709 
L 608.544 607.982809 
L 613.008 603.622321 
L 617.472 611.105801 
L 621.936 611.935854 
L 626.4 566.775717 
L 630.864 587.526497 
L 635.328 598.21809 
L 639.792 590.659727 
L 644.256 598.193227 
L 648.72 595.492956 
L 653.184 598.291577 
L 657.648 600.92034 
L 662.112 599.928035 
L 666.576 596.983451 
L 671.04 601.231548 
L 675.504 605.675222 
L 679.968 602.152752 
L 684.432 603.478789 
L 688.896 603.361425 
L 693.36 599.059236 
L 697.824 599.646753 
L 702.288 596.896553 
L 706.752 598.157 
L 711.216 598.997381 
L 715.68 600.461033 
L 720.144 604.240349 
L 724.608 601.068373 
L 729.072 604.250789 
L 733.536 604.49445 
L 742.464 607.799901 
L 746.928 603.58767 
L 751.392 606.435613 
L 755.856 602.470642 
L 760.32 600.742269 
L 764.784 603.757865 
L 769.248 601.563052 
L 773.712 607.78271 
L 778.176 610.17355 
L 782.64 610.586552 
L 787.104 608.247936 
L 791.568 605.217084 
L 796.032 610.356076 
L 800.496 603.981028 
L 804.96 604.745131 
L 809.424 610.216009 
L 813.888 604.857207 
L 818.352 604.897911 
L 822.816 608.893505 
L 827.28 618.538543 
L 831.744 606.216185 
L 836.208 609.664133 
L 840.672 612.958829 
L 845.136 609.153321 
L 849.6 604.307109 
L 854.064 611.804135 
L 858.528 608.594785 
L 862.992 609.924692 
L 867.456 613.747232 
L 871.92 608.205567 
L 876.384 612.550125 
L 880.848 613.079298 
L 885.312 609.141013 
L 889.776 612.618932 
L 894.24 608.490404 
L 898.704 612.448624 
L 907.632 608.539298 
L 912.096 611.21223 
L 916.56 609.886463 
L 921.024 608.034291 
L 925.488 613.378558 
L 929.952 611.405849 
L 934.416 615.804521 
L 938.88 611.732492 
L 943.344 611.646405 
L 952.272 612.901699 
L 956.736 612.596769 
L 961.2 616.890543 
L 965.664 613.420656 
L 970.128 614.905661 
L 974.592 611.723335 
L 979.056 614.857375 
L 983.52 616.413977 
L 987.984 611.032224 
L 992.448 619.492867 
L 996.912 614.659075 
L 1001.376 614.28032 
L 1005.84 611.644987 
L 1010.304 614.276225 
L 1014.768 610.835297 
L 1019.232 611.088633 
L 1023.696 617.233049 
L 1028.16 611.682248 
L 1032.624 611.060282 
L 1037.088 618.76301 
L 1041.552 616.261579 
L 1046.016 614.620487 
L 1050.48 618.961129 
L 1054.944 614.476549 
L 1059.408 616.027324 
L 1063.872 622.773995 
L 1068.336 619.179229 
L 1072.8 619.017606 
L 1077.264 615.946614 
L 1081.728 614.177514 
L 1086.192 610.533337 
L 1090.656 619.613134 
L 1095.12 616.312251 
L 1099.584 615.772255 
L 1104.048 617.025457 
L 1108.512 618.925736 
L 1112.976 615.555415 
L 1117.44 620.188973 
L 1121.904 619.218358 
L 1126.368 614.548012 
L 1130.832 618.370417 
L 1135.296 616.898643 
L 1139.76 617.045663 
L 1144.224 614.645102 
L 1148.688 617.265428 
L 1153.152 621.159656 
L 1157.616 618.227605 
L 1162.08 613.007903 
L 1166.544 615.91941 
L 1171.008 613.68243 
L 1175.472 617.549995 
L 1179.936 617.600666 
L 1184.4 615.17342 
L 1188.864 619.558524 
L 1193.328 618.625441 
L 1197.792 617.948168 
L 1202.256 619.882693 
L 1206.72 623.037118 
L 1211.184 616.708894 
L 1215.648 613.048382 
L 1224.576 620.668892 
L 1229.04 623.557021 
L 1233.504 613.21482 
L 1237.968 612.70655 
L 1242.432 618.069425 
L 1246.896 616.686821 
L 1251.36 621.7512 
L 1255.824 616.458618 
L 1260.288 618.232195 
L 1264.752 616.451058 
L 1269.216 618.552358 
L 1273.68 621.990023 
L 1278.144 618.281224 
L 1282.608 619.001631 
L 1287.072 616.041612 
L 1291.536 619.090396 
L 1291.536 619.090396 
" clip-path="url(#pce15f921f7)" style="fill: none; stroke: #2ca02c; stroke-width: 1.5; stroke-linecap: square"/>
   </g>
   <g id="patch_3">
    <path d="M 180 630 
L 180 86.4 
" style="fill: none; stroke: #000000; stroke-width: 0.8; stroke-linejoin: miter; stroke-linecap: square"/>
   </g>
   <g id="patch_4">
    <path d="M 1296 630 
L 1296 86.4 
" style="fill: none; stroke: #000000; stroke-width: 0.8; stroke-linejoin: miter; stroke-linecap: square"/>
   </g>
   <g id="patch_5">
    <path d="M 180 630 
L 1296 630 
" style="fill: none; stroke: #000000; stroke-width: 0.8; stroke-linejoin: miter; stroke-linecap: square"/>
   </g>
   <g id="patch_6">
    <path d="M 180 86.4 
L 1296 86.4 
" style="fill: none; stroke: #000000; stroke-width: 0.8; stroke-linejoin: miter; stroke-linecap: square"/>
   </g>
   <g id="legend_1">
    <g id="patch_7">
     <path d="M 1105.08125 191.025 
L 1282 191.025 
Q 1286 191.025 1286 187.025 
L 1286 100.4 
Q 1286 96.4 1282 96.4 
L 1105.08125 96.4 
Q 1101.08125 96.4 1101.08125 100.4 
L 1101.08125 187.025 
Q 1101.08125 191.025 1105.08125 191.025 
z
" style="fill: #ffffff; opacity: 0.8; stroke: #cccccc; stroke-linejoin: miter"/>
    </g>
    <g id="line2d_19">
     <path d="M 1109.08125 112.596875 
L 1129.08125 112.596875 
L 1149.08125 112.596875 
" style="fill: none; stroke: #1f77b4; stroke-width: 1.5; stroke-linecap: square"/>
    </g>
    <g id="text_18">
     <!-- SGD -->
     <g transform="translate(1165.08125 119.596875)scale(0.2 -0.2)">
      <defs>
       <path id="DejaVuSans-53" d="M 3425 4513 
L 3425 3897 
Q 3066 4069 2747 4153 
Q 2428 4238 2131 4238 
Q 1616 4238 1336 4038 
Q 1056 3838 1056 3469 
Q 1056 3159 1242 3001 
Q 1428 2844 1947 2747 
L 2328 2669 
Q 3034 2534 3370 2195 
Q 3706 1856 3706 1288 
Q 3706 609 3251 259 
Q 2797 -91 1919 -91 
Q 1588 -91 1214 -16 
Q 841 59 441 206 
L 441 856 
Q 825 641 1194 531 
Q 1563 422 1919 422 
Q 2459 422 2753 634 
Q 3047 847 3047 1241 
Q 3047 1584 2836 1778 
Q 2625 1972 2144 2069 
L 1759 2144 
Q 1053 2284 737 2584 
Q 422 2884 422 3419 
Q 422 4038 858 4394 
Q 1294 4750 2059 4750 
Q 2388 4750 2728 4690 
Q 3069 4631 3425 4513 
z
" transform="scale(0.015625)"/>
       <path id="DejaVuSans-47" d="M 3809 666 
L 3809 1919 
L 2778 1919 
L 2778 2438 
L 4434 2438 
L 4434 434 
Q 4069 175 3628 42 
Q 3188 -91 2688 -91 
Q 1594 -91 976 548 
Q 359 1188 359 2328 
Q 359 3472 976 4111 
Q 1594 4750 2688 4750 
Q 3144 4750 3555 4637 
Q 3966 4525 4313 4306 
L 4313 3634 
Q 3963 3931 3569 4081 
Q 3175 4231 2741 4231 
Q 1884 4231 1454 3753 
Q 1025 3275 1025 2328 
Q 1025 1384 1454 906 
Q 1884 428 2741 428 
Q 3075 428 3337 486 
Q 3600 544 3809 666 
z
" transform="scale(0.015625)"/>
       <path id="DejaVuSans-44" d="M 1259 4147 
L 1259 519 
L 2022 519 
Q 2988 519 3436 956 
Q 3884 1394 3884 2338 
Q 3884 3275 3436 3711 
Q 2988 4147 2022 4147 
L 1259 4147 
z
M 628 4666 
L 1925 4666 
Q 3281 4666 3915 4102 
Q 4550 3538 4550 2338 
Q 4550 1131 3912 565 
Q 3275 0 1925 0 
L 628 0 
L 628 4666 
z
" transform="scale(0.015625)"/>
      </defs>
      <use xlink:href="#DejaVuSans-53"/>
      <use xlink:href="#DejaVuSans-47" x="63.476562"/>
      <use xlink:href="#DejaVuSans-44" x="140.966797"/>
     </g>
    </g>
    <g id="line2d_20">
     <path d="M 1109.08125 141.953125 
L 1129.08125 141.953125 
L 1149.08125 141.953125 
" style="fill: none; stroke: #ff7f0e; stroke-width: 1.5; stroke-linecap: square"/>
    </g>
    <g id="text_19">
     <!-- SGDM -->
     <g transform="translate(1165.08125 148.953125)scale(0.2 -0.2)">
      <defs>
       <path id="DejaVuSans-4d" d="M 628 4666 
L 1569 4666 
L 2759 1491 
L 3956 4666 
L 4897 4666 
L 4897 0 
L 4281 0 
L 4281 4097 
L 3078 897 
L 2444 897 
L 1241 4097 
L 1241 0 
L 628 0 
L 628 4666 
z
" transform="scale(0.015625)"/>
      </defs>
      <use xlink:href="#DejaVuSans-53"/>
      <use xlink:href="#DejaVuSans-47" x="63.476562"/>
      <use xlink:href="#DejaVuSans-44" x="140.966797"/>
      <use xlink:href="#DejaVuSans-4d" x="217.96875"/>
     </g>
    </g>
    <g id="line2d_21">
     <path d="M 1109.08125 171.309375 
L 1129.08125 171.309375 
L 1149.08125 171.309375 
" style="fill: none; stroke: #2ca02c; stroke-width: 1.5; stroke-linecap: square"/>
    </g>
    <g id="text_20">
     <!-- FCSGD_G-L -->
     <g transform="translate(1165.08125 178.309375)scale(0.2 -0.2)">
      <defs>
       <path id="DejaVuSans-46" d="M 628 4666 
L 3309 4666 
L 3309 4134 
L 1259 4134 
L 1259 2759 
L 3109 2759 
L 3109 2228 
L 1259 2228 
L 1259 0 
L 628 0 
L 628 4666 
z
" transform="scale(0.015625)"/>
       <path id="DejaVuSans-43" d="M 4122 4306 
L 4122 3641 
Q 3803 3938 3442 4084 
Q 3081 4231 2675 4231 
Q 1875 4231 1450 3742 
Q 1025 3253 1025 2328 
Q 1025 1406 1450 917 
Q 1875 428 2675 428 
Q 3081 428 3442 575 
Q 3803 722 4122 1019 
L 4122 359 
Q 3791 134 3420 21 
Q 3050 -91 2638 -91 
Q 1578 -91 968 557 
Q 359 1206 359 2328 
Q 359 3453 968 4101 
Q 1578 4750 2638 4750 
Q 3056 4750 3426 4639 
Q 3797 4528 4122 4306 
z
" transform="scale(0.015625)"/>
       <path id="DejaVuSans-5f" d="M 3263 -1063 
L 3263 -1509 
L -63 -1509 
L -63 -1063 
L 3263 -1063 
z
" transform="scale(0.015625)"/>
       <path id="DejaVuSans-2d" d="M 313 2009 
L 1997 2009 
L 1997 1497 
L 313 1497 
L 313 2009 
z
" transform="scale(0.015625)"/>
       <path id="DejaVuSans-4c" d="M 628 4666 
L 1259 4666 
L 1259 531 
L 3531 531 
L 3531 0 
L 628 0 
L 628 4666 
z
" transform="scale(0.015625)"/>
      </defs>
      <use xlink:href="#DejaVuSans-46"/>
      <use xlink:href="#DejaVuSans-43" x="57.519531"/>
      <use xlink:href="#DejaVuSans-53" x="127.34375"/>
      <use xlink:href="#DejaVuSans-47" x="190.820312"/>
      <use xlink:href="#DejaVuSans-44" x="268.310547"/>
      <use xlink:href="#DejaVuSans-5f" x="345.3125"/>
      <use xlink:href="#DejaVuSans-47" x="395.3125"/>
      <use xlink:href="#DejaVuSans-2d" x="472.802734"/>
      <use xlink:href="#DejaVuSans-4c" x="508.886719"/>
     </g>
    </g>
   </g>
  </g>
 </g>
 <defs>
  <clipPath id="pce15f921f7">
   <rect x="180" y="86.4" width="1116" height="543.6"/>
  </clipPath>
 </defs>
</svg>
