<?xml version="1.0" encoding="utf-8" standalone="no"?>
<!DOCTYPE svg PUBLIC "-//W3C//DTD SVG 1.1//EN"
  "http://www.w3.org/Graphics/SVG/1.1/DTD/svg11.dtd">
<svg xmlns:xlink="http://www.w3.org/1999/xlink" width="1440pt" height="720pt" viewBox="0 0 1440 720" xmlns="http://www.w3.org/2000/svg" version="1.1">
 <metadata>
  <rdf:RDF xmlns:dc="http://purl.org/dc/elements/1.1/" xmlns:cc="http://creativecommons.org/ns#" xmlns:rdf="http://www.w3.org/1999/02/22-rdf-syntax-ns#">
   <cc:Work>
    <dc:type rdf:resource="http://purl.org/dc/dcmitype/StillImage"/>
    <dc:date>2022-10-23T19:52:32.942037</dc:date>
    <dc:format>image/svg+xml</dc:format>
    <dc:creator>
     <cc:Agent>
      <dc:title>Matplotlib v3.5.1, https://matplotlib.org/</dc:title>
     </cc:Agent>
    </dc:creator>
   </cc:Work>
  </rdf:RDF>
 </metadata>
 <defs>
  <style type="text/css">*{stroke-linejoin: round; stroke-linecap: butt}</style>
 </defs>
 <g id="figure_1">
  <g id="patch_1">
   <path d="M 0 720 
L 1440 720 
L 1440 0 
L 0 0 
L 0 720 
z
" style="fill: none"/>
  </g>
  <g id="axes_1">
   <g id="patch_2">
    <path d="M 180 630 
L 1296 630 
L 1296 86.4 
L 180 86.4 
z
" style="fill: #ffffff"/>
   </g>
   <g id="matplotlib.axis_1">
    <g id="xtick_1">
     <g id="line2d_1">
      <defs>
       <path id="md4aedc5f5d" d="M 0 0 
L 0 3.5 
" style="stroke: #000000; stroke-width: 0.8"/>
      </defs>
      <g>
       <use xlink:href="#md4aedc5f5d" x="180" y="630" style="stroke: #000000; stroke-width: 0.8"/>
      </g>
     </g>
     <g id="text_1">
      <!-- 0 -->
      <g transform="translate(173.6375 652.196875)scale(0.2 -0.2)">
       <defs>
        <path id="DejaVuSans-30" d="M 2034 4250 
Q 1547 4250 1301 3770 
Q 1056 3291 1056 2328 
Q 1056 1369 1301 889 
Q 1547 409 2034 409 
Q 2525 409 2770 889 
Q 3016 1369 3016 2328 
Q 3016 3291 2770 3770 
Q 2525 4250 2034 4250 
z
M 2034 4750 
Q 2819 4750 3233 4129 
Q 3647 3509 3647 2328 
Q 3647 1150 3233 529 
Q 2819 -91 2034 -91 
Q 1250 -91 836 529 
Q 422 1150 422 2328 
Q 422 3509 836 4129 
Q 1250 4750 2034 4750 
z
" transform="scale(0.015625)"/>
       </defs>
       <use xlink:href="#DejaVuSans-30"/>
      </g>
     </g>
    </g>
    <g id="xtick_2">
     <g id="line2d_2">
      <g>
       <use xlink:href="#md4aedc5f5d" x="403.2" y="630" style="stroke: #000000; stroke-width: 0.8"/>
      </g>
     </g>
     <g id="text_2">
      <!-- 50 -->
      <g transform="translate(390.475 652.196875)scale(0.2 -0.2)">
       <defs>
        <path id="DejaVuSans-35" d="M 691 4666 
L 3169 4666 
L 3169 4134 
L 1269 4134 
L 1269 2991 
Q 1406 3038 1543 3061 
Q 1681 3084 1819 3084 
Q 2600 3084 3056 2656 
Q 3513 2228 3513 1497 
Q 3513 744 3044 326 
Q 2575 -91 1722 -91 
Q 1428 -91 1123 -41 
Q 819 9 494 109 
L 494 744 
Q 775 591 1075 516 
Q 1375 441 1709 441 
Q 2250 441 2565 725 
Q 2881 1009 2881 1497 
Q 2881 1984 2565 2268 
Q 2250 2553 1709 2553 
Q 1456 2553 1204 2497 
Q 953 2441 691 2322 
L 691 4666 
z
" transform="scale(0.015625)"/>
       </defs>
       <use xlink:href="#DejaVuSans-35"/>
       <use xlink:href="#DejaVuSans-30" x="63.623047"/>
      </g>
     </g>
    </g>
    <g id="xtick_3">
     <g id="line2d_3">
      <g>
       <use xlink:href="#md4aedc5f5d" x="626.4" y="630" style="stroke: #000000; stroke-width: 0.8"/>
      </g>
     </g>
     <g id="text_3">
      <!-- 100 -->
      <g transform="translate(607.3125 652.196875)scale(0.2 -0.2)">
       <defs>
        <path id="DejaVuSans-31" d="M 794 531 
L 1825 531 
L 1825 4091 
L 703 3866 
L 703 4441 
L 1819 4666 
L 2450 4666 
L 2450 531 
L 3481 531 
L 3481 0 
L 794 0 
L 794 531 
z
" transform="scale(0.015625)"/>
       </defs>
       <use xlink:href="#DejaVuSans-31"/>
       <use xlink:href="#DejaVuSans-30" x="63.623047"/>
       <use xlink:href="#DejaVuSans-30" x="127.246094"/>
      </g>
     </g>
    </g>
    <g id="xtick_4">
     <g id="line2d_4">
      <g>
       <use xlink:href="#md4aedc5f5d" x="849.6" y="630" style="stroke: #000000; stroke-width: 0.8"/>
      </g>
     </g>
     <g id="text_4">
      <!-- 150 -->
      <g transform="translate(830.5125 652.196875)scale(0.2 -0.2)">
       <use xlink:href="#DejaVuSans-31"/>
       <use xlink:href="#DejaVuSans-35" x="63.623047"/>
       <use xlink:href="#DejaVuSans-30" x="127.246094"/>
      </g>
     </g>
    </g>
    <g id="xtick_5">
     <g id="line2d_5">
      <g>
       <use xlink:href="#md4aedc5f5d" x="1072.8" y="630" style="stroke: #000000; stroke-width: 0.8"/>
      </g>
     </g>
     <g id="text_5">
      <!-- 200 -->
      <g transform="translate(1053.7125 652.196875)scale(0.2 -0.2)">
       <defs>
        <path id="DejaVuSans-32" d="M 1228 531 
L 3431 531 
L 3431 0 
L 469 0 
L 469 531 
Q 828 903 1448 1529 
Q 2069 2156 2228 2338 
Q 2531 2678 2651 2914 
Q 2772 3150 2772 3378 
Q 2772 3750 2511 3984 
Q 2250 4219 1831 4219 
Q 1534 4219 1204 4116 
Q 875 4013 500 3803 
L 500 4441 
Q 881 4594 1212 4672 
Q 1544 4750 1819 4750 
Q 2544 4750 2975 4387 
Q 3406 4025 3406 3419 
Q 3406 3131 3298 2873 
Q 3191 2616 2906 2266 
Q 2828 2175 2409 1742 
Q 1991 1309 1228 531 
z
" transform="scale(0.015625)"/>
       </defs>
       <use xlink:href="#DejaVuSans-32"/>
       <use xlink:href="#DejaVuSans-30" x="63.623047"/>
       <use xlink:href="#DejaVuSans-30" x="127.246094"/>
      </g>
     </g>
    </g>
    <g id="xtick_6">
     <g id="line2d_6">
      <g>
       <use xlink:href="#md4aedc5f5d" x="1296" y="630" style="stroke: #000000; stroke-width: 0.8"/>
      </g>
     </g>
     <g id="text_6">
      <!-- 250 -->
      <g transform="translate(1276.9125 652.196875)scale(0.2 -0.2)">
       <use xlink:href="#DejaVuSans-32"/>
       <use xlink:href="#DejaVuSans-35" x="63.623047"/>
       <use xlink:href="#DejaVuSans-30" x="127.246094"/>
      </g>
     </g>
    </g>
    <g id="text_7">
     <!-- epoch -->
     <g transform="translate(707.54375 675.553125)scale(0.2 -0.2)">
      <defs>
       <path id="DejaVuSans-65" d="M 3597 1894 
L 3597 1613 
L 953 1613 
Q 991 1019 1311 708 
Q 1631 397 2203 397 
Q 2534 397 2845 478 
Q 3156 559 3463 722 
L 3463 178 
Q 3153 47 2828 -22 
Q 2503 -91 2169 -91 
Q 1331 -91 842 396 
Q 353 884 353 1716 
Q 353 2575 817 3079 
Q 1281 3584 2069 3584 
Q 2775 3584 3186 3129 
Q 3597 2675 3597 1894 
z
M 3022 2063 
Q 3016 2534 2758 2815 
Q 2500 3097 2075 3097 
Q 1594 3097 1305 2825 
Q 1016 2553 972 2059 
L 3022 2063 
z
" transform="scale(0.015625)"/>
       <path id="DejaVuSans-70" d="M 1159 525 
L 1159 -1331 
L 581 -1331 
L 581 3500 
L 1159 3500 
L 1159 2969 
Q 1341 3281 1617 3432 
Q 1894 3584 2278 3584 
Q 2916 3584 3314 3078 
Q 3713 2572 3713 1747 
Q 3713 922 3314 415 
Q 2916 -91 2278 -91 
Q 1894 -91 1617 61 
Q 1341 213 1159 525 
z
M 3116 1747 
Q 3116 2381 2855 2742 
Q 2594 3103 2138 3103 
Q 1681 3103 1420 2742 
Q 1159 2381 1159 1747 
Q 1159 1113 1420 752 
Q 1681 391 2138 391 
Q 2594 391 2855 752 
Q 3116 1113 3116 1747 
z
" transform="scale(0.015625)"/>
       <path id="DejaVuSans-6f" d="M 1959 3097 
Q 1497 3097 1228 2736 
Q 959 2375 959 1747 
Q 959 1119 1226 758 
Q 1494 397 1959 397 
Q 2419 397 2687 759 
Q 2956 1122 2956 1747 
Q 2956 2369 2687 2733 
Q 2419 3097 1959 3097 
z
M 1959 3584 
Q 2709 3584 3137 3096 
Q 3566 2609 3566 1747 
Q 3566 888 3137 398 
Q 2709 -91 1959 -91 
Q 1206 -91 779 398 
Q 353 888 353 1747 
Q 353 2609 779 3096 
Q 1206 3584 1959 3584 
z
" transform="scale(0.015625)"/>
       <path id="DejaVuSans-63" d="M 3122 3366 
L 3122 2828 
Q 2878 2963 2633 3030 
Q 2388 3097 2138 3097 
Q 1578 3097 1268 2742 
Q 959 2388 959 1747 
Q 959 1106 1268 751 
Q 1578 397 2138 397 
Q 2388 397 2633 464 
Q 2878 531 3122 666 
L 3122 134 
Q 2881 22 2623 -34 
Q 2366 -91 2075 -91 
Q 1284 -91 818 406 
Q 353 903 353 1747 
Q 353 2603 823 3093 
Q 1294 3584 2113 3584 
Q 2378 3584 2631 3529 
Q 2884 3475 3122 3366 
z
" transform="scale(0.015625)"/>
       <path id="DejaVuSans-68" d="M 3513 2113 
L 3513 0 
L 2938 0 
L 2938 2094 
Q 2938 2591 2744 2837 
Q 2550 3084 2163 3084 
Q 1697 3084 1428 2787 
Q 1159 2491 1159 1978 
L 1159 0 
L 581 0 
L 581 4863 
L 1159 4863 
L 1159 2956 
Q 1366 3272 1645 3428 
Q 1925 3584 2291 3584 
Q 2894 3584 3203 3211 
Q 3513 2838 3513 2113 
z
" transform="scale(0.015625)"/>
      </defs>
      <use xlink:href="#DejaVuSans-65"/>
      <use xlink:href="#DejaVuSans-70" x="61.523438"/>
      <use xlink:href="#DejaVuSans-6f" x="125"/>
      <use xlink:href="#DejaVuSans-63" x="186.181641"/>
      <use xlink:href="#DejaVuSans-68" x="241.162109"/>
     </g>
    </g>
   </g>
   <g id="matplotlib.axis_2">
    <g id="ytick_1">
     <g id="line2d_7">
      <defs>
       <path id="m523d52ffad" d="M 0 0 
L -3.5 0 
" style="stroke: #000000; stroke-width: 0.8"/>
      </defs>
      <g>
       <use xlink:href="#m523d52ffad" x="180" y="574.246154" style="stroke: #000000; stroke-width: 0.8"/>
      </g>
     </g>
     <g id="text_8">
      <!-- 0.05 -->
      <g transform="translate(128.46875 581.844591)scale(0.2 -0.2)">
       <defs>
        <path id="DejaVuSans-2e" d="M 684 794 
L 1344 794 
L 1344 0 
L 684 0 
L 684 794 
z
" transform="scale(0.015625)"/>
       </defs>
       <use xlink:href="#DejaVuSans-30"/>
       <use xlink:href="#DejaVuSans-2e" x="63.623047"/>
       <use xlink:href="#DejaVuSans-30" x="95.410156"/>
       <use xlink:href="#DejaVuSans-35" x="159.033203"/>
      </g>
     </g>
    </g>
    <g id="ytick_2">
     <g id="line2d_8">
      <g>
       <use xlink:href="#m523d52ffad" x="180" y="504.553846" style="stroke: #000000; stroke-width: 0.8"/>
      </g>
     </g>
     <g id="text_9">
      <!-- 0.10 -->
      <g transform="translate(128.46875 512.152284)scale(0.2 -0.2)">
       <use xlink:href="#DejaVuSans-30"/>
       <use xlink:href="#DejaVuSans-2e" x="63.623047"/>
       <use xlink:href="#DejaVuSans-31" x="95.410156"/>
       <use xlink:href="#DejaVuSans-30" x="159.033203"/>
      </g>
     </g>
    </g>
    <g id="ytick_3">
     <g id="line2d_9">
      <g>
       <use xlink:href="#m523d52ffad" x="180" y="434.861538" style="stroke: #000000; stroke-width: 0.8"/>
      </g>
     </g>
     <g id="text_10">
      <!-- 0.15 -->
      <g transform="translate(128.46875 442.459976)scale(0.2 -0.2)">
       <use xlink:href="#DejaVuSans-30"/>
       <use xlink:href="#DejaVuSans-2e" x="63.623047"/>
       <use xlink:href="#DejaVuSans-31" x="95.410156"/>
       <use xlink:href="#DejaVuSans-35" x="159.033203"/>
      </g>
     </g>
    </g>
    <g id="ytick_4">
     <g id="line2d_10">
      <g>
       <use xlink:href="#m523d52ffad" x="180" y="365.169231" style="stroke: #000000; stroke-width: 0.8"/>
      </g>
     </g>
     <g id="text_11">
      <!-- 0.20 -->
      <g transform="translate(128.46875 372.767668)scale(0.2 -0.2)">
       <use xlink:href="#DejaVuSans-30"/>
       <use xlink:href="#DejaVuSans-2e" x="63.623047"/>
       <use xlink:href="#DejaVuSans-32" x="95.410156"/>
       <use xlink:href="#DejaVuSans-30" x="159.033203"/>
      </g>
     </g>
    </g>
    <g id="ytick_5">
     <g id="line2d_11">
      <g>
       <use xlink:href="#m523d52ffad" x="180" y="295.476923" style="stroke: #000000; stroke-width: 0.8"/>
      </g>
     </g>
     <g id="text_12">
      <!-- 0.25 -->
      <g transform="translate(128.46875 303.075361)scale(0.2 -0.2)">
       <use xlink:href="#DejaVuSans-30"/>
       <use xlink:href="#DejaVuSans-2e" x="63.623047"/>
       <use xlink:href="#DejaVuSans-32" x="95.410156"/>
       <use xlink:href="#DejaVuSans-35" x="159.033203"/>
      </g>
     </g>
    </g>
    <g id="ytick_6">
     <g id="line2d_12">
      <g>
       <use xlink:href="#m523d52ffad" x="180" y="225.784615" style="stroke: #000000; stroke-width: 0.8"/>
      </g>
     </g>
     <g id="text_13">
      <!-- 0.30 -->
      <g transform="translate(128.46875 233.383053)scale(0.2 -0.2)">
       <defs>
        <path id="DejaVuSans-33" d="M 2597 2516 
Q 3050 2419 3304 2112 
Q 3559 1806 3559 1356 
Q 3559 666 3084 287 
Q 2609 -91 1734 -91 
Q 1441 -91 1130 -33 
Q 819 25 488 141 
L 488 750 
Q 750 597 1062 519 
Q 1375 441 1716 441 
Q 2309 441 2620 675 
Q 2931 909 2931 1356 
Q 2931 1769 2642 2001 
Q 2353 2234 1838 2234 
L 1294 2234 
L 1294 2753 
L 1863 2753 
Q 2328 2753 2575 2939 
Q 2822 3125 2822 3475 
Q 2822 3834 2567 4026 
Q 2313 4219 1838 4219 
Q 1578 4219 1281 4162 
Q 984 4106 628 3988 
L 628 4550 
Q 988 4650 1302 4700 
Q 1616 4750 1894 4750 
Q 2613 4750 3031 4423 
Q 3450 4097 3450 3541 
Q 3450 3153 3228 2886 
Q 3006 2619 2597 2516 
z
" transform="scale(0.015625)"/>
       </defs>
       <use xlink:href="#DejaVuSans-30"/>
       <use xlink:href="#DejaVuSans-2e" x="63.623047"/>
       <use xlink:href="#DejaVuSans-33" x="95.410156"/>
       <use xlink:href="#DejaVuSans-30" x="159.033203"/>
      </g>
     </g>
    </g>
    <g id="ytick_7">
     <g id="line2d_13">
      <g>
       <use xlink:href="#m523d52ffad" x="180" y="156.092308" style="stroke: #000000; stroke-width: 0.8"/>
      </g>
     </g>
     <g id="text_14">
      <!-- 0.35 -->
      <g transform="translate(128.46875 163.690745)scale(0.2 -0.2)">
       <use xlink:href="#DejaVuSans-30"/>
       <use xlink:href="#DejaVuSans-2e" x="63.623047"/>
       <use xlink:href="#DejaVuSans-33" x="95.410156"/>
       <use xlink:href="#DejaVuSans-35" x="159.033203"/>
      </g>
     </g>
    </g>
    <g id="ytick_8">
     <g id="line2d_14">
      <g>
       <use xlink:href="#m523d52ffad" x="180" y="86.4" style="stroke: #000000; stroke-width: 0.8"/>
      </g>
     </g>
     <g id="text_15">
      <!-- 0.40 -->
      <g transform="translate(128.46875 93.998438)scale(0.2 -0.2)">
       <defs>
        <path id="DejaVuSans-34" d="M 2419 4116 
L 825 1625 
L 2419 1625 
L 2419 4116 
z
M 2253 4666 
L 3047 4666 
L 3047 1625 
L 3713 1625 
L 3713 1100 
L 3047 1100 
L 3047 0 
L 2419 0 
L 2419 1100 
L 313 1100 
L 313 1709 
L 2253 4666 
z
" transform="scale(0.015625)"/>
       </defs>
       <use xlink:href="#DejaVuSans-30"/>
       <use xlink:href="#DejaVuSans-2e" x="63.623047"/>
       <use xlink:href="#DejaVuSans-34" x="95.410156"/>
       <use xlink:href="#DejaVuSans-30" x="159.033203"/>
      </g>
     </g>
    </g>
    <g id="text_16">
     <!-- train loss -->
     <g transform="translate(120.309375 403.96875)rotate(-90)scale(0.2 -0.2)">
      <defs>
       <path id="DejaVuSans-74" d="M 1172 4494 
L 1172 3500 
L 2356 3500 
L 2356 3053 
L 1172 3053 
L 1172 1153 
Q 1172 725 1289 603 
Q 1406 481 1766 481 
L 2356 481 
L 2356 0 
L 1766 0 
Q 1100 0 847 248 
Q 594 497 594 1153 
L 594 3053 
L 172 3053 
L 172 3500 
L 594 3500 
L 594 4494 
L 1172 4494 
z
" transform="scale(0.015625)"/>
       <path id="DejaVuSans-72" d="M 2631 2963 
Q 2534 3019 2420 3045 
Q 2306 3072 2169 3072 
Q 1681 3072 1420 2755 
Q 1159 2438 1159 1844 
L 1159 0 
L 581 0 
L 581 3500 
L 1159 3500 
L 1159 2956 
Q 1341 3275 1631 3429 
Q 1922 3584 2338 3584 
Q 2397 3584 2469 3576 
Q 2541 3569 2628 3553 
L 2631 2963 
z
" transform="scale(0.015625)"/>
       <path id="DejaVuSans-61" d="M 2194 1759 
Q 1497 1759 1228 1600 
Q 959 1441 959 1056 
Q 959 750 1161 570 
Q 1363 391 1709 391 
Q 2188 391 2477 730 
Q 2766 1069 2766 1631 
L 2766 1759 
L 2194 1759 
z
M 3341 1997 
L 3341 0 
L 2766 0 
L 2766 531 
Q 2569 213 2275 61 
Q 1981 -91 1556 -91 
Q 1019 -91 701 211 
Q 384 513 384 1019 
Q 384 1609 779 1909 
Q 1175 2209 1959 2209 
L 2766 2209 
L 2766 2266 
Q 2766 2663 2505 2880 
Q 2244 3097 1772 3097 
Q 1472 3097 1187 3025 
Q 903 2953 641 2809 
L 641 3341 
Q 956 3463 1253 3523 
Q 1550 3584 1831 3584 
Q 2591 3584 2966 3190 
Q 3341 2797 3341 1997 
z
" transform="scale(0.015625)"/>
       <path id="DejaVuSans-69" d="M 603 3500 
L 1178 3500 
L 1178 0 
L 603 0 
L 603 3500 
z
M 603 4863 
L 1178 4863 
L 1178 4134 
L 603 4134 
L 603 4863 
z
" transform="scale(0.015625)"/>
       <path id="DejaVuSans-6e" d="M 3513 2113 
L 3513 0 
L 2938 0 
L 2938 2094 
Q 2938 2591 2744 2837 
Q 2550 3084 2163 3084 
Q 1697 3084 1428 2787 
Q 1159 2491 1159 1978 
L 1159 0 
L 581 0 
L 581 3500 
L 1159 3500 
L 1159 2956 
Q 1366 3272 1645 3428 
Q 1925 3584 2291 3584 
Q 2894 3584 3203 3211 
Q 3513 2838 3513 2113 
z
" transform="scale(0.015625)"/>
       <path id="DejaVuSans-20" transform="scale(0.015625)"/>
       <path id="DejaVuSans-6c" d="M 603 4863 
L 1178 4863 
L 1178 0 
L 603 0 
L 603 4863 
z
" transform="scale(0.015625)"/>
       <path id="DejaVuSans-73" d="M 2834 3397 
L 2834 2853 
Q 2591 2978 2328 3040 
Q 2066 3103 1784 3103 
Q 1356 3103 1142 2972 
Q 928 2841 928 2578 
Q 928 2378 1081 2264 
Q 1234 2150 1697 2047 
L 1894 2003 
Q 2506 1872 2764 1633 
Q 3022 1394 3022 966 
Q 3022 478 2636 193 
Q 2250 -91 1575 -91 
Q 1294 -91 989 -36 
Q 684 19 347 128 
L 347 722 
Q 666 556 975 473 
Q 1284 391 1588 391 
Q 1994 391 2212 530 
Q 2431 669 2431 922 
Q 2431 1156 2273 1281 
Q 2116 1406 1581 1522 
L 1381 1569 
Q 847 1681 609 1914 
Q 372 2147 372 2553 
Q 372 3047 722 3315 
Q 1072 3584 1716 3584 
Q 2034 3584 2315 3537 
Q 2597 3491 2834 3397 
z
" transform="scale(0.015625)"/>
      </defs>
      <use xlink:href="#DejaVuSans-74"/>
      <use xlink:href="#DejaVuSans-72" x="39.208984"/>
      <use xlink:href="#DejaVuSans-61" x="80.322266"/>
      <use xlink:href="#DejaVuSans-69" x="141.601562"/>
      <use xlink:href="#DejaVuSans-6e" x="169.384766"/>
      <use xlink:href="#DejaVuSans-20" x="232.763672"/>
      <use xlink:href="#DejaVuSans-6c" x="264.550781"/>
      <use xlink:href="#DejaVuSans-6f" x="292.333984"/>
      <use xlink:href="#DejaVuSans-73" x="353.515625"/>
      <use xlink:href="#DejaVuSans-73" x="405.615234"/>
     </g>
    </g>
   </g>
   <g id="line2d_15">
    <path d="M 215.173776 -1 
L 215.712 58.811548 
L 220.176 53.388769 
L 233.568 139.785598 
L 238.032 156.718155 
L 242.496 172.489425 
L 246.96 181.153101 
L 251.424 197.435103 
L 255.888 205.959787 
L 260.352 217.144268 
L 264.816 189.399759 
L 269.28 160.565327 
L 271.257775 -1 
M 286.72837 -1 
L 287.136 154.988145 
L 291.6 223.345379 
L 296.064 208.621038 
L 300.528 183.219335 
L 304.992 198.043953 
L 309.456 158.257456 
L 313.92 161.052174 
L 318.160499 -1 
M 339.456957 -1 
L 340.704 104.392439 
L 345.168 82.48889 
L 349.632 155.342522 
L 354.096 94.682623 
L 358.56 156.952232 
L 363.024 97.489097 
L 367.488 151.318888 
L 371.952 69.929856 
L 376.416 127.028626 
L 380.348683 -1 
M 381.637173 -1 
L 385.344 83.679671 
L 387.313118 -1 
M 392.160344 -1 
L 394.272 95.311827 
L 398.702928 -1 
M 398.751631 -1 
L 403.2 203.586574 
L 407.664 365.001842 
L 412.128 386.624228 
L 416.592 402.533285 
L 421.056 410.458238 
L 425.52 419.028055 
L 429.984 422.993179 
L 434.448 428.583301 
L 438.912 437.509987 
L 443.376 441.977141 
L 447.84 449.45716 
L 452.304 448.896974 
L 456.768 452.836136 
L 461.232 451.816353 
L 465.696 457.110898 
L 470.16 458.920353 
L 474.624 459.637207 
L 479.088 461.443983 
L 483.552 466.343027 
L 488.016 463.898261 
L 492.48 467.140176 
L 496.944 469.51447 
L 501.408 466.546177 
L 505.872 469.606792 
L 510.336 461.720056 
L 514.8 457.744256 
L 519.264 395.464615 
L 523.728 344.020665 
L 528.192 159.536344 
L 532.656 304.650646 
L 537.12 269.844757 
L 541.584 406.997594 
L 546.048 422.426762 
L 550.512 451.026556 
L 554.976 457.470405 
L 559.44 467.247349 
L 563.904 468.161787 
L 568.368 473.599416 
L 572.832 472.896852 
L 577.296 474.104436 
L 581.76 456.374459 
L 586.224 460.092172 
L 590.688 426.203316 
L 595.152 422.383353 
L 599.616 358.683776 
L 604.08 389.835466 
L 608.544 344.738951 
L 613.008 409.593793 
L 617.472 401.511177 
L 621.936 443.896697 
L 626.4 490.245193 
L 630.864 541.661394 
L 635.328 545.358368 
L 639.792 550.243922 
L 648.72 550.248429 
L 653.184 553.850288 
L 657.648 553.61458 
L 662.112 555.037642 
L 666.576 554.689839 
L 671.04 557.591678 
L 675.504 558.639812 
L 679.968 560.893676 
L 684.432 560.601464 
L 688.896 562.205338 
L 693.36 561.465867 
L 697.824 563.382323 
L 702.288 562.121802 
L 706.752 563.293324 
L 711.216 565.080992 
L 715.68 562.864498 
L 720.144 565.997226 
L 724.608 565.380749 
L 729.072 566.392099 
L 733.536 568.580454 
L 738 566.286489 
L 742.464 567.39499 
L 746.928 569.968078 
L 751.392 568.904642 
L 755.856 570.092105 
L 760.32 569.919606 
L 764.784 570.607828 
L 769.248 570.712633 
L 778.176 574.229656 
L 782.64 574.888639 
L 787.104 574.403563 
L 791.568 573.113262 
L 796.032 574.772478 
L 800.496 576.657848 
L 804.96 578.020999 
L 809.424 577.288807 
L 813.888 579.194702 
L 818.352 579.236797 
L 822.816 580.609212 
L 827.28 581.398272 
L 831.744 581.465899 
L 836.208 581.333225 
L 840.672 582.745227 
L 845.136 584.28484 
L 849.6 584.772959 
L 854.064 591.454073 
L 858.528 589.484222 
L 862.992 591.695778 
L 867.456 589.584001 
L 871.92 591.03829 
L 876.384 591.226497 
L 880.848 589.835172 
L 885.312 591.998525 
L 889.776 592.981826 
L 894.24 592.627532 
L 898.704 593.406747 
L 903.168 593.062138 
L 912.096 593.776888 
L 916.56 595.015061 
L 921.024 594.08649 
L 925.488 595.764227 
L 929.952 595.414628 
L 934.416 596.099475 
L 938.88 595.098634 
L 943.344 597.340332 
L 947.808 595.829061 
L 952.272 595.400432 
L 956.736 596.363767 
L 961.2 597.759054 
L 965.664 598.671866 
L 970.128 597.870765 
L 974.592 597.825227 
L 979.056 598.261172 
L 983.52 597.578143 
L 987.984 600.195616 
L 992.448 599.004694 
L 996.912 600.530884 
L 1001.376 599.590141 
L 1005.84 598.934798 
L 1010.304 600.347257 
L 1014.768 601.240073 
L 1019.232 600.959219 
L 1023.696 601.5287 
L 1028.16 601.097365 
L 1032.624 600.087757 
L 1037.088 602.265824 
L 1041.552 601.470027 
L 1046.016 603.885411 
L 1050.48 604.495216 
L 1054.944 602.929914 
L 1059.408 602.246049 
L 1068.336 603.949832 
L 1072.8 603.488482 
L 1077.264 605.661053 
L 1081.728 605.804784 
L 1086.192 605.20804 
L 1090.656 605.315836 
L 1095.12 606.075608 
L 1099.584 604.65926 
L 1104.048 606.77112 
L 1108.512 604.975536 
L 1112.976 606.066235 
L 1117.44 605.360203 
L 1121.904 604.253431 
L 1130.832 606.629448 
L 1135.296 605.957845 
L 1144.224 606.778215 
L 1148.688 606.289735 
L 1153.152 605.919148 
L 1157.616 605.968562 
L 1162.08 606.929922 
L 1166.544 606.343605 
L 1171.008 606.922746 
L 1175.472 606.572824 
L 1179.936 606.796498 
L 1184.4 606.777042 
L 1188.864 606.012488 
L 1193.328 607.0019 
L 1197.792 606.938731 
L 1202.256 606.627223 
L 1206.72 605.538625 
L 1211.184 605.919389 
L 1215.648 607.74457 
L 1220.112 607.444208 
L 1224.576 606.953246 
L 1229.04 606.824665 
L 1233.504 607.590966 
L 1237.968 606.623898 
L 1242.432 606.413005 
L 1246.896 605.455021 
L 1251.36 607.468556 
L 1255.824 607.247914 
L 1260.288 607.558118 
L 1264.752 606.931048 
L 1269.216 606.818642 
L 1273.68 606.897266 
L 1278.144 607.14117 
L 1282.608 606.806315 
L 1287.072 606.718611 
L 1291.536 607.880626 
L 1291.536 607.880626 
" clip-path="url(#p9c3f678393)" style="fill: none; stroke: #1f77b4; stroke-width: 1.5; stroke-linecap: square"/>
   </g>
   <g id="line2d_16">
    <path d="M 218.077846 -1 
L 220.176 170.280294 
L 224.64 139.769854 
L 229.104 137.774986 
L 233.568 122.165306 
L 238.032 132.845161 
L 242.496 102.326828 
L 246.96 109.297132 
L 251.424 2.052158 
L 252.941649 -1 
M 273.292952 -1 
L 273.744 43.276349 
L 275.386616 -1 
M 280.534306 -1 
L 282.672 68.883882 
L 285.022567 -1 
M 289.432172 -1 
L 291.6 58.321668 
L 293.60265 -1 
M 299.120545 -1 
L 300.528 32.572609 
L 301.410842 -1 
M 308.634008 -1 
L 309.456 29.736351 
L 310.226226 -1 
M 317.522938 -1 
L 318.384 34.227516 
L 319.411257 -1 
M 325.662787 -1 
L 327.312 68.052794 
L 329.823397 -1 
M 333.628712 -1 
L 336.24 74.67055 
L 338.609895 -1 
M 342.875981 -1 
L 345.168 69.559985 
L 347.340836 -1 
M 351.652369 -1 
L 354.096 88.989628 
L 357.962101 -1 
M 359.126378 -1 
L 363.024 94.772349 
L 367.154705 -1 
M 367.821941 -1 
L 371.952 94.57221 
L 374.698335 -1 
M 378.119492 -1 
L 380.88 95.864681 
L 384.410863 -1 
M 386.182171 -1 
L 389.808 109.74003 
L 394.179726 -1 
M 394.353764 -1 
L 398.736 124.274741 
L 403.2 130.779176 
L 407.664 339.924586 
L 412.128 356.808708 
L 416.592 375.859175 
L 421.056 388.265821 
L 425.52 404.628369 
L 429.984 411.38898 
L 434.448 416.41796 
L 438.912 421.046476 
L 443.376 428.074438 
L 452.304 433.823885 
L 456.768 438.361761 
L 461.232 440.372975 
L 465.696 443.356845 
L 470.16 447.597753 
L 474.624 448.319425 
L 479.088 451.245492 
L 483.552 452.0264 
L 488.016 457.596956 
L 492.48 458.521841 
L 496.944 463.312341 
L 501.408 460.643198 
L 505.872 463.103458 
L 510.336 426.795758 
L 514.8 397.711028 
L 519.264 196.338077 
L 523.728 299.625238 
L 528.192 196.911452 
L 532.656 412.027987 
L 537.12 414.148057 
L 541.584 458.140007 
L 546.048 447.103595 
L 550.512 468.162306 
L 554.976 462.211909 
L 559.44 473.016009 
L 563.904 454.137143 
L 568.368 464.799717 
L 572.832 436.243748 
L 577.296 447.505763 
L 581.76 400.034933 
L 586.224 417.691406 
L 590.688 347.356024 
L 595.152 414.621466 
L 599.616 373.161141 
L 604.08 447.27908 
L 608.544 424.425099 
L 613.008 464.696657 
L 617.472 452.569554 
L 621.936 472.314453 
L 626.4 485.736291 
L 630.864 550.108991 
L 635.328 556.087718 
L 639.792 557.684208 
L 644.256 562.166322 
L 648.72 561.341538 
L 653.184 565.030054 
L 657.648 565.947025 
L 662.112 565.0054 
L 666.576 565.388859 
L 671.04 566.200185 
L 675.504 568.035031 
L 679.968 569.699632 
L 684.432 568.975234 
L 688.896 570.80899 
L 693.36 570.565519 
L 697.824 570.00659 
L 702.288 572.455126 
L 706.752 573.131722 
L 711.216 573.658333 
L 715.68 574.041138 
L 720.144 575.543297 
L 724.608 576.555062 
L 729.072 576.759428 
L 733.536 577.472013 
L 738 579.096341 
L 742.464 579.439429 
L 746.928 578.515956 
L 755.856 580.596137 
L 760.32 581.231925 
L 764.784 581.514521 
L 769.248 582.589614 
L 773.712 583.093399 
L 778.176 582.100487 
L 782.64 582.810647 
L 787.104 583.362582 
L 791.568 586.392104 
L 796.032 585.608845 
L 800.496 585.165942 
L 804.96 585.034769 
L 809.424 587.527316 
L 818.352 588.89027 
L 827.28 589.146763 
L 831.744 590.791216 
L 836.208 589.655517 
L 840.672 591.119542 
L 845.136 591.244146 
L 849.6 592.027661 
L 854.064 597.993791 
L 858.528 597.476978 
L 871.92 598.247049 
L 876.384 596.679371 
L 880.848 598.872239 
L 885.312 599.347668 
L 889.776 598.247999 
L 894.24 599.177422 
L 898.704 598.156481 
L 903.168 599.134984 
L 907.632 599.337548 
L 912.096 600.331233 
L 916.56 600.613782 
L 921.024 599.896238 
L 925.488 601.59675 
L 929.952 600.440223 
L 934.416 600.378993 
L 938.88 601.895079 
L 943.344 599.652825 
L 947.808 600.989712 
L 952.272 602.876408 
L 956.736 601.134886 
L 961.2 601.496608 
L 965.664 601.606987 
L 970.128 602.280148 
L 974.592 601.541429 
L 979.056 604.038818 
L 983.52 600.983393 
L 987.984 602.402662 
L 992.448 602.076151 
L 996.912 603.830265 
L 1001.376 602.333033 
L 1005.84 602.942919 
L 1010.304 603.225283 
L 1014.768 604.196137 
L 1019.232 603.82696 
L 1023.696 604.70884 
L 1028.16 604.733492 
L 1032.624 605.621972 
L 1037.088 603.617477 
L 1041.552 604.501369 
L 1046.016 605.810262 
L 1050.48 604.085844 
L 1054.944 604.935149 
L 1059.408 603.745095 
L 1063.872 603.795343 
L 1068.336 602.296582 
L 1072.8 605.509313 
L 1077.264 608.539503 
L 1081.728 607.739128 
L 1086.192 606.824602 
L 1090.656 607.719423 
L 1095.12 605.999608 
L 1104.048 606.370003 
L 1108.512 606.42495 
L 1112.976 607.833213 
L 1117.44 605.446741 
L 1121.904 608.121399 
L 1126.368 607.936692 
L 1130.832 606.938037 
L 1135.296 607.077082 
L 1139.76 606.38017 
L 1144.224 607.932322 
L 1148.688 607.014211 
L 1153.152 606.729009 
L 1157.616 607.537276 
L 1162.08 607.11095 
L 1166.544 608.064404 
L 1171.008 607.741418 
L 1175.472 607.883329 
L 1179.936 607.356082 
L 1184.4 608.211961 
L 1188.864 607.347766 
L 1193.328 608.068622 
L 1197.792 606.893117 
L 1202.256 606.754504 
L 1206.72 607.622487 
L 1211.184 606.564758 
L 1215.648 607.199004 
L 1224.576 606.673138 
L 1229.04 607.806272 
L 1233.504 606.77396 
L 1237.968 608.240655 
L 1242.432 607.454591 
L 1246.896 607.409992 
L 1251.36 607.853482 
L 1255.824 607.883116 
L 1264.752 607.655065 
L 1273.68 607.903701 
L 1278.144 607.021 
L 1282.608 608.214749 
L 1291.536 607.046711 
L 1291.536 607.046711 
" clip-path="url(#p9c3f678393)" style="fill: none; stroke: #ff7f0e; stroke-width: 1.5; stroke-linecap: square"/>
   </g>
   <g id="line2d_17">
    <path d="M 204.178668 -1 
L 206.784 270.519032 
L 210.399654 -1 
M 211.928724 -1 
L 215.712 353.065635 
L 220.176 218.413684 
L 224.64 262.994337 
L 229.087803 -1 
M 229.122811 -1 
L 233.568 226.17686 
L 238.032 13.950335 
L 242.496 272.765756 
L 246.96 128.857293 
L 251.424 278.476863 
L 255.888 156.300971 
L 260.352 283.539574 
L 264.816 159.057057 
L 269.28 283.106563 
L 273.744 143.655409 
L 278.208 288.046565 
L 282.672 192.578887 
L 287.136 301.948313 
L 291.6 176.816548 
L 296.064 300.06151 
L 300.528 190.221833 
L 304.992 309.862008 
L 309.456 198.101943 
L 313.92 315.915091 
L 318.384 198.864157 
L 322.848 316.126965 
L 327.312 204.226662 
L 331.776 311.219738 
L 336.24 207.09989 
L 340.704 326.253758 
L 345.168 249.779513 
L 349.632 342.167447 
L 354.096 239.521454 
L 358.56 343.280632 
L 363.024 257.549335 
L 367.488 350.495835 
L 371.952 254.189093 
L 376.416 349.981384 
L 380.88 254.839815 
L 385.344 348.454338 
L 389.808 259.762329 
L 394.272 358.325287 
L 398.736 263.41904 
L 403.2 442.465816 
L 407.664 481.998088 
L 412.128 465.667755 
L 416.592 463.796821 
L 421.056 455.622401 
L 425.52 458.212951 
L 429.984 448.855226 
L 434.448 449.522585 
L 438.912 447.169373 
L 443.376 449.334576 
L 447.84 451.042175 
L 452.304 449.731863 
L 456.768 451.358044 
L 461.232 451.318477 
L 465.696 452.057409 
L 470.16 452.930452 
L 474.624 457.051164 
L 479.088 454.887228 
L 483.552 461.345907 
L 488.016 457.21373 
L 492.48 460.355119 
L 496.944 461.658744 
L 501.408 462.573991 
L 505.872 468.158484 
L 510.336 468.397775 
L 514.8 469.800212 
L 519.264 470.098188 
L 523.728 474.146952 
L 528.192 476.0204 
L 532.656 474.958942 
L 537.12 455.508727 
L 541.584 432.511247 
L 546.048 252.975922 
L 550.512 296.803457 
L 554.976 160.592162 
L 559.44 429.870642 
L 563.904 450.870408 
L 568.368 462.467732 
L 572.832 451.230911 
L 577.296 455.596438 
L 581.76 448.945763 
L 586.224 451.026847 
L 590.688 436.496165 
L 595.152 448.736485 
L 599.616 433.69966 
L 604.08 443.859187 
L 608.544 407.912883 
L 613.008 421.841466 
L 617.472 357.649371 
L 621.936 398.361438 
L 626.4 406.432071 
L 630.864 505.098753 
L 635.328 514.851252 
L 639.792 519.720813 
L 644.256 526.068829 
L 648.72 527.150579 
L 653.184 532.76037 
L 657.648 536.677962 
L 662.112 537.882337 
L 666.576 538.766056 
L 671.04 542.488858 
L 675.504 544.1941 
L 679.968 545.547956 
L 684.432 549.203588 
L 688.896 548.255368 
L 693.36 549.044729 
L 697.824 550.847569 
L 702.288 552.045713 
L 706.752 552.518198 
L 711.216 554.084936 
L 715.68 554.013602 
L 724.608 556.767673 
L 729.072 557.825003 
L 733.536 559.216136 
L 738 560.41859 
L 742.464 559.185116 
L 746.928 560.950736 
L 755.856 562.757699 
L 760.32 563.108617 
L 764.784 564.399655 
L 769.248 564.630752 
L 773.712 567.073866 
L 778.176 566.88487 
L 787.104 567.06992 
L 791.568 568.861451 
L 796.032 568.459262 
L 800.496 571.02346 
L 804.96 568.83 
L 809.424 571.3623 
L 813.888 570.850197 
L 818.352 572.666039 
L 827.28 573.960649 
L 831.744 575.601406 
L 836.208 576.017812 
L 840.672 575.580112 
L 845.136 578.048296 
L 849.6 577.651735 
L 854.064 587.308188 
L 858.528 587.825728 
L 862.992 588.4832 
L 871.92 587.23202 
L 876.384 587.589449 
L 880.848 588.408776 
L 885.312 589.018166 
L 889.776 588.946203 
L 894.24 588.165114 
L 898.704 588.596095 
L 903.168 588.670098 
L 907.632 590.167854 
L 912.096 588.194482 
L 916.56 590.8709 
L 921.024 590.496408 
L 925.488 591.03438 
L 929.952 591.720136 
L 934.416 590.532418 
L 938.88 591.401343 
L 943.344 591.863988 
L 947.808 591.813735 
L 952.272 592.673044 
L 956.736 592.673382 
L 961.2 591.897397 
L 970.128 591.651138 
L 974.592 592.384124 
L 979.056 593.856359 
L 983.52 593.757131 
L 987.984 593.046431 
L 992.448 593.863327 
L 996.912 593.683418 
L 1001.376 594.634826 
L 1005.84 593.518463 
L 1010.304 592.826031 
L 1014.768 595.022263 
L 1019.232 595.771258 
L 1023.696 594.267874 
L 1028.16 595.188303 
L 1032.624 595.131778 
L 1037.088 596.329502 
L 1041.552 595.848299 
L 1046.016 597.105066 
L 1050.48 595.637453 
L 1054.944 596.34645 
L 1059.408 595.865932 
L 1063.872 596.814324 
L 1068.336 596.00615 
L 1072.8 597.3547 
L 1077.264 600.640853 
L 1081.728 602.188368 
L 1086.192 602.067713 
L 1090.656 601.31398 
L 1095.12 601.617613 
L 1099.584 602.347082 
L 1104.048 601.356787 
L 1108.512 601.684879 
L 1112.976 601.442341 
L 1117.44 601.812578 
L 1126.368 602.067905 
L 1130.832 601.483746 
L 1135.296 602.663626 
L 1139.76 601.122635 
L 1144.224 601.972332 
L 1148.688 602.294427 
L 1153.152 601.734371 
L 1157.616 601.389006 
L 1162.08 602.330403 
L 1166.544 602.425218 
L 1171.008 603.28657 
L 1175.472 602.142217 
L 1179.936 602.390623 
L 1184.4 601.32888 
L 1188.864 602.966838 
L 1193.328 603.571663 
L 1197.792 603.085481 
L 1202.256 601.49412 
L 1206.72 603.064763 
L 1211.184 601.677026 
L 1215.648 603.110041 
L 1224.576 602.05691 
L 1229.04 602.658633 
L 1233.504 603.104374 
L 1237.968 602.802218 
L 1242.432 602.897209 
L 1246.896 603.14952 
L 1251.36 602.045089 
L 1260.288 602.915972 
L 1264.752 601.802793 
L 1269.216 602.923387 
L 1273.68 602.461477 
L 1278.144 603.534057 
L 1282.608 602.742061 
L 1287.072 602.442732 
L 1291.536 602.853644 
L 1291.536 602.853644 
" clip-path="url(#p9c3f678393)" style="fill: none; stroke: #2ca02c; stroke-width: 1.5; stroke-linecap: square"/>
   </g>
   <g id="line2d_18">
    <path d="M 207.010118 -1 
L 211.248 331.791872 
L 215.712 355.947836 
L 220.176 328.810266 
L 224.64 273.67145 
L 229.104 238.152965 
L 233.568 217.602619 
L 238.032 141.036487 
L 242.496 168.016164 
L 246.038556 -1 
M 247.713015 -1 
L 251.424 215.653569 
L 255.888 251.406463 
L 260.352 251.146506 
L 264.816 208.721523 
L 269.28 218.818033 
L 273.744 162.948843 
L 278.208 223.478182 
L 282.672 175.563997 
L 287.136 259.000654 
L 291.6 239.971248 
L 296.064 261.505632 
L 300.528 222.766022 
L 304.992 247.653088 
L 309.456 214.593596 
L 313.92 260.792559 
L 318.384 233.545614 
L 322.848 279.80618 
L 327.312 263.340032 
L 331.776 290.072339 
L 336.24 256.337659 
L 340.704 275.76996 
L 345.168 247.184435 
L 349.632 285.080578 
L 354.096 269.375606 
L 358.56 295.990356 
L 363.024 274.308131 
L 367.488 303.496295 
L 371.952 280.74631 
L 376.416 316.826351 
L 380.88 300.930441 
L 385.344 321.926614 
L 389.808 292.334849 
L 394.272 315.344521 
L 398.736 291.549787 
L 403.2 374.035825 
L 407.664 478.107611 
L 412.128 457.551968 
L 416.592 451.258701 
L 421.056 443.379858 
L 425.52 441.951074 
L 429.984 437.291175 
L 434.448 437.306587 
L 438.912 441.813079 
L 443.376 445.018253 
L 447.84 446.169114 
L 452.304 447.50352 
L 456.768 449.967041 
L 461.232 456.393484 
L 465.696 455.031912 
L 470.16 458.507883 
L 474.624 462.384341 
L 479.088 462.846908 
L 483.552 465.99945 
L 488.016 470.495163 
L 492.48 469.179928 
L 496.944 474.339292 
L 501.408 467.57892 
L 505.872 464.164573 
L 510.336 436.02259 
L 514.8 405.142964 
L 519.264 288.177789 
L 523.728 403.296456 
L 528.192 398.95901 
L 532.656 448.216842 
L 537.12 460.902884 
L 541.584 463.750358 
L 546.048 460.117345 
L 550.512 462.946687 
L 554.976 456.137744 
L 559.44 459.813294 
L 563.904 446.115424 
L 568.368 455.54038 
L 572.832 428.94125 
L 577.296 435.667694 
L 581.76 397.810246 
L 586.224 431.225568 
L 590.688 411.809778 
L 595.152 440.905143 
L 599.616 431.810573 
L 604.08 447.721002 
L 608.544 435.317908 
L 613.008 445.386856 
L 617.472 431.799358 
L 621.936 440.878931 
L 626.4 406.291334 
L 630.864 485.622596 
L 635.328 493.620005 
L 639.792 503.199406 
L 644.256 508.829427 
L 648.72 515.600475 
L 653.184 520.545213 
L 657.648 524.990278 
L 662.112 529.103575 
L 666.576 530.611077 
L 671.04 532.354961 
L 675.504 535.496652 
L 679.968 536.750916 
L 688.896 541.485888 
L 693.36 542.165096 
L 697.824 545.255142 
L 702.288 545.441469 
L 706.752 545.494806 
L 711.216 549.346807 
L 715.68 548.709523 
L 720.144 552.146988 
L 724.608 551.991909 
L 729.072 552.583385 
L 733.536 553.720715 
L 738 557.129444 
L 742.464 556.677272 
L 746.928 557.078116 
L 751.392 558.647746 
L 755.856 560.559924 
L 760.32 557.838134 
L 764.784 560.736328 
L 773.712 564.538004 
L 778.176 564.277606 
L 782.64 565.017581 
L 787.104 566.18347 
L 791.568 566.323137 
L 796.032 566.880332 
L 800.496 568.48443 
L 804.96 570.580001 
L 809.424 571.577285 
L 818.352 573.853866 
L 822.816 574.049784 
L 827.28 573.92815 
L 831.744 573.954517 
L 836.208 574.628797 
L 840.672 576.881903 
L 845.136 576.711564 
L 849.6 574.887487 
L 854.064 587.544711 
L 858.528 588.271352 
L 862.992 587.812845 
L 867.456 588.243479 
L 871.92 589.454739 
L 876.384 590.869628 
L 880.848 590.593336 
L 885.312 590.556584 
L 889.776 589.460929 
L 894.24 592.724777 
L 898.704 590.41473 
L 903.168 590.24207 
L 907.632 591.961965 
L 912.096 591.364186 
L 916.56 591.237521 
L 921.024 592.968112 
L 925.488 593.474177 
L 929.952 592.875868 
L 934.416 591.852663 
L 938.88 592.21607 
L 943.344 593.948468 
L 947.808 592.790784 
L 952.272 593.401529 
L 956.736 595.39498 
L 961.2 593.421416 
L 970.128 593.88727 
L 974.592 595.180364 
L 979.056 595.932843 
L 983.52 596.4959 
L 987.984 595.883784 
L 996.912 595.891407 
L 1001.376 594.970598 
L 1005.84 594.981554 
L 1010.304 596.60948 
L 1014.768 596.361373 
L 1019.232 595.49549 
L 1023.696 597.090237 
L 1028.16 596.241458 
L 1032.624 596.76459 
L 1037.088 597.617486 
L 1041.552 597.314193 
L 1046.016 597.734463 
L 1050.48 596.783922 
L 1054.944 598.024172 
L 1059.408 597.720308 
L 1063.872 598.031535 
L 1068.336 597.752112 
L 1072.8 598.340768 
L 1077.264 601.106803 
L 1086.192 602.556409 
L 1090.656 603.459018 
L 1095.12 604.168487 
L 1099.584 602.384366 
L 1104.048 603.830228 
L 1108.512 602.915853 
L 1112.976 603.358382 
L 1117.44 603.18256 
L 1121.904 603.949697 
L 1126.368 602.329056 
L 1135.296 603.743581 
L 1139.76 603.293024 
L 1144.224 603.162745 
L 1148.688 603.748003 
L 1153.152 603.563477 
L 1157.616 602.460415 
L 1162.08 601.862872 
L 1166.544 603.703085 
L 1171.008 602.981234 
L 1175.472 603.436038 
L 1179.936 604.101875 
L 1184.4 603.795748 
L 1188.864 603.00979 
L 1193.328 603.913991 
L 1197.792 603.399499 
L 1202.256 603.438715 
L 1206.72 602.933089 
L 1211.184 603.962769 
L 1215.648 604.276379 
L 1220.112 603.461861 
L 1224.576 603.608034 
L 1229.04 603.965022 
L 1233.504 603.001648 
L 1237.968 604.356299 
L 1242.432 604.184101 
L 1246.896 603.501251 
L 1251.36 603.407378 
L 1260.288 604.724994 
L 1264.752 603.797856 
L 1269.216 603.872199 
L 1273.68 604.556103 
L 1282.608 602.884843 
L 1287.072 603.599495 
L 1291.536 603.617863 
L 1291.536 603.617863 
" clip-path="url(#p9c3f678393)" style="fill: none; stroke: #d62728; stroke-width: 1.5; stroke-linecap: square"/>
   </g>
   <g id="line2d_19">
    <path d="M 208.223116 -1 
L 211.248 325.436815 
L 215.712 367.520403 
L 220.176 297.92659 
L 224.64 251.821114 
L 229.104 174.316722 
L 233.568 181.32491 
L 238.032 66.163686 
L 242.496 201.019203 
L 246.96 134.505882 
L 251.424 243.000126 
L 255.888 192.847442 
L 260.352 238.408934 
L 264.816 188.794274 
L 269.28 251.529712 
L 273.744 180.801425 
L 278.208 243.788345 
L 282.672 191.802341 
L 287.136 256.867084 
L 291.6 206.069452 
L 296.064 273.290696 
L 300.528 231.359164 
L 304.992 285.690051 
L 309.456 239.233043 
L 313.92 285.729181 
L 318.384 230.789237 
L 322.848 278.473748 
L 327.312 224.430857 
L 331.776 284.426242 
L 336.24 234.831272 
L 340.704 302.934303 
L 345.168 246.713996 
L 349.632 302.950732 
L 354.096 253.019746 
L 358.56 296.600327 
L 363.024 242.00749 
L 367.488 310.264217 
L 371.952 246.285222 
L 376.416 305.817002 
L 380.88 255.303109 
L 385.344 312.181032 
L 389.808 254.878987 
L 394.272 310.13696 
L 398.736 224.139745 
L 403.2 299.269345 
L 407.664 301.340377 
L 412.128 295.07623 
L 416.592 294.938068 
L 421.056 295.757691 
L 425.52 301.624593 
L 429.984 306.625949 
L 434.448 314.074855 
L 438.912 316.454195 
L 443.376 321.108237 
L 447.84 328.672229 
L 452.304 328.896046 
L 456.768 332.417172 
L 465.696 347.207249 
L 470.16 356.408368 
L 474.624 358.883686 
L 479.088 359.66206 
L 483.552 361.795775 
L 488.016 368.24357 
L 492.48 365.547821 
L 496.944 366.385867 
L 501.408 331.8946 
L 505.872 320.948496 
L 510.336 167.82288 
L 514.8 316.748796 
L 519.264 287.734144 
L 523.728 373.513254 
L 528.192 360.220189 
L 532.656 389.248363 
L 537.12 375.283703 
L 541.584 395.141497 
L 546.048 379.507537 
L 550.512 402.127836 
L 554.976 377.450816 
L 559.44 393.479986 
L 563.904 362.059242 
L 568.368 392.850429 
L 572.832 356.758071 
L 577.296 391.82238 
L 581.76 349.694988 
L 586.224 399.977276 
L 590.688 375.945599 
L 595.152 410.934035 
L 599.616 393.933851 
L 604.08 423.165964 
L 608.544 407.48712 
L 613.008 429.535789 
L 617.472 410.3806 
L 621.936 428.986757 
L 626.4 397.79444 
L 630.864 512.190925 
L 635.328 529.415633 
L 639.792 539.358996 
L 644.256 548.620441 
L 648.72 554.859467 
L 653.184 559.207438 
L 657.648 564.176991 
L 662.112 566.354791 
L 671.04 572.698066 
L 675.504 574.086868 
L 679.968 576.053209 
L 684.432 577.758685 
L 688.896 580.480168 
L 693.36 580.84926 
L 697.824 583.37263 
L 702.288 583.554232 
L 706.752 584.428479 
L 711.216 586.028532 
L 715.68 586.357429 
L 720.144 587.7257 
L 729.072 589.925448 
L 733.536 590.56457 
L 738 590.921065 
L 742.464 590.989844 
L 746.928 592.34773 
L 751.392 591.703328 
L 755.856 594.541419 
L 764.784 594.666095 
L 769.248 595.703107 
L 773.712 596.178447 
L 778.176 596.386593 
L 782.64 596.897351 
L 787.104 596.991787 
L 791.568 597.981443 
L 796.032 598.635493 
L 800.496 598.72565 
L 809.424 599.686368 
L 813.888 599.135524 
L 818.352 600.65191 
L 822.816 599.613019 
L 827.28 600.066484 
L 831.744 600.068286 
L 836.208 600.588388 
L 840.672 599.971171 
L 845.136 601.375553 
L 849.6 600.645601 
L 854.064 603.476223 
L 858.528 604.719329 
L 862.992 605.478693 
L 867.456 605.901847 
L 871.92 605.425291 
L 876.384 606.080551 
L 880.848 606.52848 
L 885.312 607.447394 
L 889.776 605.767743 
L 898.704 606.991315 
L 903.168 606.534854 
L 907.632 606.815651 
L 912.096 607.493077 
L 921.024 607.779186 
L 925.488 608.300913 
L 934.416 607.911446 
L 938.88 607.446506 
L 943.344 606.783938 
L 947.808 607.323919 
L 952.272 607.540352 
L 961.2 608.295165 
L 965.664 608.401087 
L 970.128 609.255577 
L 974.592 607.549 
L 979.056 608.405269 
L 983.52 608.500909 
L 987.984 607.682239 
L 996.912 608.949353 
L 1001.376 608.249009 
L 1005.84 608.527942 
L 1010.304 610.004969 
L 1014.768 608.469173 
L 1019.232 609.224752 
L 1023.696 609.007184 
L 1028.16 609.441839 
L 1032.624 609.066501 
L 1037.088 610.641827 
L 1041.552 609.314483 
L 1046.016 608.99992 
L 1050.48 609.128122 
L 1054.944 609.091375 
L 1059.408 609.736432 
L 1063.872 609.829429 
L 1068.336 608.599458 
L 1072.8 609.437298 
L 1077.264 612.553512 
L 1081.728 612.931444 
L 1090.656 611.872827 
L 1095.12 612.808678 
L 1099.584 612.670122 
L 1104.048 613.508276 
L 1108.512 612.454366 
L 1112.976 612.872221 
L 1117.44 612.450555 
L 1121.904 611.877222 
L 1126.368 613.446958 
L 1130.832 612.853951 
L 1135.296 612.856298 
L 1139.76 612.452988 
L 1144.224 612.339114 
L 1148.688 612.77725 
L 1153.152 612.997835 
L 1157.616 613.436586 
L 1162.08 612.610369 
L 1171.008 613.43676 
L 1175.472 612.819193 
L 1184.4 613.659925 
L 1188.864 613.047677 
L 1197.792 613.707094 
L 1206.72 613.816318 
L 1211.184 612.570099 
L 1215.648 613.499125 
L 1220.112 613.332965 
L 1224.576 613.395553 
L 1229.04 613.029226 
L 1233.504 613.458997 
L 1242.432 613.431874 
L 1246.896 613.967292 
L 1251.36 613.119801 
L 1255.824 613.069115 
L 1260.288 614.01095 
L 1264.752 613.807711 
L 1273.68 612.898056 
L 1278.144 613.259757 
L 1287.072 613.251415 
L 1291.536 613.810427 
L 1291.536 613.810427 
" clip-path="url(#p9c3f678393)" style="fill: none; stroke: #9467bd; stroke-width: 1.5; stroke-linecap: square"/>
   </g>
   <g id="line2d_20">
    <path d="M 205.386987 -1 
L 206.784 180.606686 
L 211.248 423.813986 
L 215.712 429.765982 
L 220.176 393.330027 
L 224.64 353.829782 
L 229.104 316.728961 
L 233.568 295.276743 
L 238.032 278.241 
L 242.496 277.77297 
L 246.96 256.961089 
L 251.424 265.095298 
L 255.888 271.45559 
L 260.352 267.434823 
L 264.816 222.872281 
L 269.28 215.015558 
L 273.744 49.526976 
L 278.208 230.429253 
L 282.672 242.830685 
L 287.136 279.246181 
L 291.6 254.819252 
L 296.064 282.085804 
L 300.528 277.563734 
L 304.992 288.326128 
L 309.456 259.69599 
L 313.92 289.394076 
L 318.384 282.005757 
L 322.848 281.722039 
L 327.312 273.081667 
L 331.776 284.080465 
L 336.24 266.88741 
L 340.704 291.769782 
L 345.168 279.44146 
L 349.632 295.752976 
L 354.096 285.916194 
L 358.56 303.278398 
L 363.024 292.718635 
L 367.488 309.607992 
L 371.952 308.059822 
L 376.416 320.349325 
L 380.88 309.259472 
L 385.344 308.602935 
L 389.808 284.649561 
L 394.272 308.853005 
L 398.736 285.039204 
L 403.2 330.825759 
L 407.664 418.276059 
L 412.128 392.668837 
L 416.592 383.481323 
L 421.056 375.145313 
L 425.52 373.325099 
L 429.984 372.84172 
L 434.448 373.92805 
L 438.912 369.314156 
L 443.376 372.303759 
L 447.84 370.180241 
L 452.304 373.317269 
L 456.768 374.107731 
L 461.232 378.563731 
L 465.696 377.813646 
L 470.16 380.60475 
L 474.624 380.187856 
L 479.088 386.676091 
L 483.552 386.323396 
L 488.016 382.057461 
L 492.48 383.403456 
L 496.944 386.510637 
L 501.408 388.530201 
L 505.872 387.878856 
L 510.336 389.962869 
L 514.8 362.824343 
L 519.264 351.13748 
L 523.728 233.955737 
L 528.192 313.954389 
L 532.656 259.79959 
L 537.12 374.883944 
L 541.584 381.097891 
L 546.048 389.531519 
L 550.512 381.336911 
L 554.976 393.327618 
L 559.44 382.815937 
L 563.904 394.549284 
L 568.368 385.625818 
L 572.832 390.149902 
L 577.296 369.940806 
L 581.76 375.283495 
L 586.224 325.493413 
L 590.688 363.158635 
L 595.152 315.091647 
L 599.616 378.071442 
L 604.08 350.871604 
L 608.544 389.633043 
L 613.008 369.97115 
L 617.472 400.472992 
L 621.936 382.790951 
L 626.4 343.234523 
L 630.864 484.172149 
L 635.328 501.644559 
L 639.792 511.18887 
L 644.256 518.174762 
L 648.72 524.648955 
L 653.184 528.525496 
L 657.648 533.869307 
L 662.112 538.238697 
L 666.576 540.72682 
L 671.04 543.866195 
L 675.504 544.747888 
L 679.968 548.746182 
L 688.896 550.907885 
L 693.36 552.163282 
L 697.824 554.214073 
L 702.288 555.159136 
L 706.752 555.882905 
L 711.216 558.718893 
L 715.68 559.059884 
L 720.144 560.655518 
L 724.608 561.468567 
L 729.072 563.308268 
L 733.536 563.783531 
L 738 565.300956 
L 742.464 565.255168 
L 751.392 566.488912 
L 755.856 568.103359 
L 760.32 568.729614 
L 764.784 569.918084 
L 769.248 570.42957 
L 773.712 571.964789 
L 778.176 573.220051 
L 782.64 572.229938 
L 787.104 572.521792 
L 791.568 573.985158 
L 796.032 573.179373 
L 800.496 575.829642 
L 804.96 574.470281 
L 809.424 576.181297 
L 813.888 577.051895 
L 818.352 577.200763 
L 822.816 578.010292 
L 827.28 577.797758 
L 831.744 578.424647 
L 836.208 578.65702 
L 840.672 579.958687 
L 845.136 579.487625 
L 849.6 579.665032 
L 854.064 588.368088 
L 862.992 589.153139 
L 867.456 588.868487 
L 871.92 590.04393 
L 876.384 590.550841 
L 880.848 589.336948 
L 885.312 591.253622 
L 889.776 590.052581 
L 894.24 590.110607 
L 898.704 590.839262 
L 903.168 591.43078 
L 907.632 591.801003 
L 912.096 591.565332 
L 916.56 591.958985 
L 921.024 593.012518 
L 925.488 592.035548 
L 929.952 591.66995 
L 934.416 591.760009 
L 938.88 593.284817 
L 943.344 592.556229 
L 947.808 593.537525 
L 952.272 591.774792 
L 956.736 592.818896 
L 961.2 593.143686 
L 965.664 593.846789 
L 970.128 592.783945 
L 974.592 593.466668 
L 979.056 593.867741 
L 983.52 593.950478 
L 987.984 593.660083 
L 992.448 593.944849 
L 996.912 593.85005 
L 1001.376 593.558768 
L 1005.84 594.263559 
L 1010.304 594.784095 
L 1014.768 594.640735 
L 1019.232 594.222818 
L 1023.696 594.891252 
L 1028.16 594.402774 
L 1037.088 594.818832 
L 1041.552 593.877316 
L 1046.016 594.963417 
L 1050.48 594.631238 
L 1054.944 595.301697 
L 1059.408 594.966065 
L 1063.872 596.251376 
L 1068.336 595.557317 
L 1072.8 596.993604 
L 1077.264 601.700576 
L 1081.728 602.332164 
L 1086.192 602.380602 
L 1090.656 601.415506 
L 1095.12 600.603695 
L 1099.584 602.785163 
L 1104.048 602.889971 
L 1108.512 601.390193 
L 1112.976 600.774089 
L 1117.44 602.089332 
L 1121.904 602.115632 
L 1126.368 601.158224 
L 1130.832 602.143453 
L 1135.296 601.781612 
L 1139.76 602.045676 
L 1144.224 601.775548 
L 1148.688 601.912157 
L 1153.152 602.312614 
L 1157.616 602.369194 
L 1162.08 601.972434 
L 1166.544 602.087294 
L 1171.008 601.942437 
L 1175.472 601.9262 
L 1179.936 601.634234 
L 1184.4 602.469453 
L 1188.864 602.626201 
L 1193.328 602.550357 
L 1197.792 600.790788 
L 1202.256 602.600784 
L 1206.72 602.246968 
L 1211.184 601.505079 
L 1215.648 602.280553 
L 1220.112 601.807274 
L 1224.576 602.42398 
L 1229.04 601.710439 
L 1233.504 602.133746 
L 1237.968 602.858632 
L 1242.432 602.297841 
L 1246.896 602.327926 
L 1251.36 602.017889 
L 1255.824 602.45239 
L 1260.288 602.069476 
L 1264.752 603.024363 
L 1269.216 602.997427 
L 1273.68 602.042093 
L 1278.144 602.455576 
L 1282.608 602.443168 
L 1291.536 602.119617 
L 1291.536 602.119617 
" clip-path="url(#p9c3f678393)" style="fill: none; stroke: #8c564b; stroke-width: 1.5; stroke-linecap: square"/>
   </g>
   <g id="patch_3">
    <path d="M 180 630 
L 180 86.4 
" style="fill: none; stroke: #000000; stroke-width: 0.8; stroke-linejoin: miter; stroke-linecap: square"/>
   </g>
   <g id="patch_4">
    <path d="M 1296 630 
L 1296 86.4 
" style="fill: none; stroke: #000000; stroke-width: 0.8; stroke-linejoin: miter; stroke-linecap: square"/>
   </g>
   <g id="patch_5">
    <path d="M 180 630 
L 1296 630 
" style="fill: none; stroke: #000000; stroke-width: 0.8; stroke-linejoin: miter; stroke-linecap: square"/>
   </g>
   <g id="patch_6">
    <path d="M 180 86.4 
L 1296 86.4 
" style="fill: none; stroke: #000000; stroke-width: 0.8; stroke-linejoin: miter; stroke-linecap: square"/>
   </g>
   <g id="text_17">
    <!-- FCAdam_G-L -->
    <g transform="translate(674.454687 80.4)scale(0.2 -0.2)">
     <defs>
      <path id="DejaVuSans-46" d="M 628 4666 
L 3309 4666 
L 3309 4134 
L 1259 4134 
L 1259 2759 
L 3109 2759 
L 3109 2228 
L 1259 2228 
L 1259 0 
L 628 0 
L 628 4666 
z
" transform="scale(0.015625)"/>
      <path id="DejaVuSans-43" d="M 4122 4306 
L 4122 3641 
Q 3803 3938 3442 4084 
Q 3081 4231 2675 4231 
Q 1875 4231 1450 3742 
Q 1025 3253 1025 2328 
Q 1025 1406 1450 917 
Q 1875 428 2675 428 
Q 3081 428 3442 575 
Q 3803 722 4122 1019 
L 4122 359 
Q 3791 134 3420 21 
Q 3050 -91 2638 -91 
Q 1578 -91 968 557 
Q 359 1206 359 2328 
Q 359 3453 968 4101 
Q 1578 4750 2638 4750 
Q 3056 4750 3426 4639 
Q 3797 4528 4122 4306 
z
" transform="scale(0.015625)"/>
      <path id="DejaVuSans-41" d="M 2188 4044 
L 1331 1722 
L 3047 1722 
L 2188 4044 
z
M 1831 4666 
L 2547 4666 
L 4325 0 
L 3669 0 
L 3244 1197 
L 1141 1197 
L 716 0 
L 50 0 
L 1831 4666 
z
" transform="scale(0.015625)"/>
      <path id="DejaVuSans-64" d="M 2906 2969 
L 2906 4863 
L 3481 4863 
L 3481 0 
L 2906 0 
L 2906 525 
Q 2725 213 2448 61 
Q 2172 -91 1784 -91 
Q 1150 -91 751 415 
Q 353 922 353 1747 
Q 353 2572 751 3078 
Q 1150 3584 1784 3584 
Q 2172 3584 2448 3432 
Q 2725 3281 2906 2969 
z
M 947 1747 
Q 947 1113 1208 752 
Q 1469 391 1925 391 
Q 2381 391 2643 752 
Q 2906 1113 2906 1747 
Q 2906 2381 2643 2742 
Q 2381 3103 1925 3103 
Q 1469 3103 1208 2742 
Q 947 2381 947 1747 
z
" transform="scale(0.015625)"/>
      <path id="DejaVuSans-6d" d="M 3328 2828 
Q 3544 3216 3844 3400 
Q 4144 3584 4550 3584 
Q 5097 3584 5394 3201 
Q 5691 2819 5691 2113 
L 5691 0 
L 5113 0 
L 5113 2094 
Q 5113 2597 4934 2840 
Q 4756 3084 4391 3084 
Q 3944 3084 3684 2787 
Q 3425 2491 3425 1978 
L 3425 0 
L 2847 0 
L 2847 2094 
Q 2847 2600 2669 2842 
Q 2491 3084 2119 3084 
Q 1678 3084 1418 2786 
Q 1159 2488 1159 1978 
L 1159 0 
L 581 0 
L 581 3500 
L 1159 3500 
L 1159 2956 
Q 1356 3278 1631 3431 
Q 1906 3584 2284 3584 
Q 2666 3584 2933 3390 
Q 3200 3197 3328 2828 
z
" transform="scale(0.015625)"/>
      <path id="DejaVuSans-5f" d="M 3263 -1063 
L 3263 -1509 
L -63 -1509 
L -63 -1063 
L 3263 -1063 
z
" transform="scale(0.015625)"/>
      <path id="DejaVuSans-47" d="M 3809 666 
L 3809 1919 
L 2778 1919 
L 2778 2438 
L 4434 2438 
L 4434 434 
Q 4069 175 3628 42 
Q 3188 -91 2688 -91 
Q 1594 -91 976 548 
Q 359 1188 359 2328 
Q 359 3472 976 4111 
Q 1594 4750 2688 4750 
Q 3144 4750 3555 4637 
Q 3966 4525 4313 4306 
L 4313 3634 
Q 3963 3931 3569 4081 
Q 3175 4231 2741 4231 
Q 1884 4231 1454 3753 
Q 1025 3275 1025 2328 
Q 1025 1384 1454 906 
Q 1884 428 2741 428 
Q 3075 428 3337 486 
Q 3600 544 3809 666 
z
" transform="scale(0.015625)"/>
      <path id="DejaVuSans-2d" d="M 313 2009 
L 1997 2009 
L 1997 1497 
L 313 1497 
L 313 2009 
z
" transform="scale(0.015625)"/>
      <path id="DejaVuSans-4c" d="M 628 4666 
L 1259 4666 
L 1259 531 
L 3531 531 
L 3531 0 
L 628 0 
L 628 4666 
z
" transform="scale(0.015625)"/>
     </defs>
     <use xlink:href="#DejaVuSans-46"/>
     <use xlink:href="#DejaVuSans-43" x="57.519531"/>
     <use xlink:href="#DejaVuSans-41" x="127.34375"/>
     <use xlink:href="#DejaVuSans-64" x="194.001953"/>
     <use xlink:href="#DejaVuSans-61" x="257.478516"/>
     <use xlink:href="#DejaVuSans-6d" x="318.757812"/>
     <use xlink:href="#DejaVuSans-5f" x="416.169922"/>
     <use xlink:href="#DejaVuSans-47" x="466.169922"/>
     <use xlink:href="#DejaVuSans-2d" x="543.660156"/>
     <use xlink:href="#DejaVuSans-4c" x="579.744141"/>
    </g>
   </g>
   <g id="legend_1">
    <g id="patch_7">
     <path d="M 1106.778125 278.5375 
L 1282 278.5375 
Q 1286 278.5375 1286 274.5375 
L 1286 100.4 
Q 1286 96.4 1282 96.4 
L 1106.778125 96.4 
Q 1102.778125 96.4 1102.778125 100.4 
L 1102.778125 274.5375 
Q 1102.778125 278.5375 1106.778125 278.5375 
z
" style="fill: #ffffff; opacity: 0.8; stroke: #cccccc; stroke-linejoin: miter"/>
    </g>
    <g id="line2d_21">
     <path d="M 1110.778125 112.596875 
L 1130.778125 112.596875 
L 1150.778125 112.596875 
" style="fill: none; stroke: #1f77b4; stroke-width: 1.5; stroke-linecap: square"/>
    </g>
    <g id="text_18">
     <!-- alpha=-0.1 -->
     <g transform="translate(1166.778125 119.596875)scale(0.2 -0.2)">
      <defs>
       <path id="DejaVuSans-3d" d="M 678 2906 
L 4684 2906 
L 4684 2381 
L 678 2381 
L 678 2906 
z
M 678 1631 
L 4684 1631 
L 4684 1100 
L 678 1100 
L 678 1631 
z
" transform="scale(0.015625)"/>
      </defs>
      <use xlink:href="#DejaVuSans-61"/>
      <use xlink:href="#DejaVuSans-6c" x="61.279297"/>
      <use xlink:href="#DejaVuSans-70" x="89.0625"/>
      <use xlink:href="#DejaVuSans-68" x="152.539062"/>
      <use xlink:href="#DejaVuSans-61" x="215.917969"/>
      <use xlink:href="#DejaVuSans-3d" x="277.197266"/>
      <use xlink:href="#DejaVuSans-2d" x="360.986328"/>
      <use xlink:href="#DejaVuSans-30" x="397.070312"/>
      <use xlink:href="#DejaVuSans-2e" x="460.693359"/>
      <use xlink:href="#DejaVuSans-31" x="492.480469"/>
     </g>
    </g>
    <g id="line2d_22">
     <path d="M 1110.778125 141.953125 
L 1130.778125 141.953125 
L 1150.778125 141.953125 
" style="fill: none; stroke: #ff7f0e; stroke-width: 1.5; stroke-linecap: square"/>
    </g>
    <g id="text_19">
     <!-- alpha=0.0 -->
     <g transform="translate(1166.778125 148.953125)scale(0.2 -0.2)">
      <use xlink:href="#DejaVuSans-61"/>
      <use xlink:href="#DejaVuSans-6c" x="61.279297"/>
      <use xlink:href="#DejaVuSans-70" x="89.0625"/>
      <use xlink:href="#DejaVuSans-68" x="152.539062"/>
      <use xlink:href="#DejaVuSans-61" x="215.917969"/>
      <use xlink:href="#DejaVuSans-3d" x="277.197266"/>
      <use xlink:href="#DejaVuSans-30" x="360.986328"/>
      <use xlink:href="#DejaVuSans-2e" x="424.609375"/>
      <use xlink:href="#DejaVuSans-30" x="456.396484"/>
     </g>
    </g>
    <g id="line2d_23">
     <path d="M 1110.778125 171.309375 
L 1130.778125 171.309375 
L 1150.778125 171.309375 
" style="fill: none; stroke: #2ca02c; stroke-width: 1.5; stroke-linecap: square"/>
    </g>
    <g id="text_20">
     <!-- alpha=0.1 -->
     <g transform="translate(1166.778125 178.309375)scale(0.2 -0.2)">
      <use xlink:href="#DejaVuSans-61"/>
      <use xlink:href="#DejaVuSans-6c" x="61.279297"/>
      <use xlink:href="#DejaVuSans-70" x="89.0625"/>
      <use xlink:href="#DejaVuSans-68" x="152.539062"/>
      <use xlink:href="#DejaVuSans-61" x="215.917969"/>
      <use xlink:href="#DejaVuSans-3d" x="277.197266"/>
      <use xlink:href="#DejaVuSans-30" x="360.986328"/>
      <use xlink:href="#DejaVuSans-2e" x="424.609375"/>
      <use xlink:href="#DejaVuSans-31" x="456.396484"/>
     </g>
    </g>
    <g id="line2d_24">
     <path d="M 1110.778125 200.665625 
L 1130.778125 200.665625 
L 1150.778125 200.665625 
" style="fill: none; stroke: #d62728; stroke-width: 1.5; stroke-linecap: square"/>
    </g>
    <g id="text_21">
     <!-- alpha=0.2 -->
     <g transform="translate(1166.778125 207.665625)scale(0.2 -0.2)">
      <use xlink:href="#DejaVuSans-61"/>
      <use xlink:href="#DejaVuSans-6c" x="61.279297"/>
      <use xlink:href="#DejaVuSans-70" x="89.0625"/>
      <use xlink:href="#DejaVuSans-68" x="152.539062"/>
      <use xlink:href="#DejaVuSans-61" x="215.917969"/>
      <use xlink:href="#DejaVuSans-3d" x="277.197266"/>
      <use xlink:href="#DejaVuSans-30" x="360.986328"/>
      <use xlink:href="#DejaVuSans-2e" x="424.609375"/>
      <use xlink:href="#DejaVuSans-32" x="456.396484"/>
     </g>
    </g>
    <g id="line2d_25">
     <path d="M 1110.778125 230.021875 
L 1130.778125 230.021875 
L 1150.778125 230.021875 
" style="fill: none; stroke: #9467bd; stroke-width: 1.5; stroke-linecap: square"/>
    </g>
    <g id="text_22">
     <!-- alpha=0.3 -->
     <g transform="translate(1166.778125 237.021875)scale(0.2 -0.2)">
      <use xlink:href="#DejaVuSans-61"/>
      <use xlink:href="#DejaVuSans-6c" x="61.279297"/>
      <use xlink:href="#DejaVuSans-70" x="89.0625"/>
      <use xlink:href="#DejaVuSans-68" x="152.539062"/>
      <use xlink:href="#DejaVuSans-61" x="215.917969"/>
      <use xlink:href="#DejaVuSans-3d" x="277.197266"/>
      <use xlink:href="#DejaVuSans-30" x="360.986328"/>
      <use xlink:href="#DejaVuSans-2e" x="424.609375"/>
      <use xlink:href="#DejaVuSans-33" x="456.396484"/>
     </g>
    </g>
    <g id="line2d_26">
     <path d="M 1110.778125 259.378125 
L 1130.778125 259.378125 
L 1150.778125 259.378125 
" style="fill: none; stroke: #8c564b; stroke-width: 1.5; stroke-linecap: square"/>
    </g>
    <g id="text_23">
     <!-- alpha=0.4 -->
     <g transform="translate(1166.778125 266.378125)scale(0.2 -0.2)">
      <use xlink:href="#DejaVuSans-61"/>
      <use xlink:href="#DejaVuSans-6c" x="61.279297"/>
      <use xlink:href="#DejaVuSans-70" x="89.0625"/>
      <use xlink:href="#DejaVuSans-68" x="152.539062"/>
      <use xlink:href="#DejaVuSans-61" x="215.917969"/>
      <use xlink:href="#DejaVuSans-3d" x="277.197266"/>
      <use xlink:href="#DejaVuSans-30" x="360.986328"/>
      <use xlink:href="#DejaVuSans-2e" x="424.609375"/>
      <use xlink:href="#DejaVuSans-34" x="456.396484"/>
     </g>
    </g>
   </g>
  </g>
 </g>
 <defs>
  <clipPath id="p9c3f678393">
   <rect x="180" y="86.4" width="1116" height="543.6"/>
  </clipPath>
 </defs>
</svg>
