<?xml version="1.0" encoding="utf-8" standalone="no"?>
<!DOCTYPE svg PUBLIC "-//W3C//DTD SVG 1.1//EN"
  "http://www.w3.org/Graphics/SVG/1.1/DTD/svg11.dtd">
<svg xmlns:xlink="http://www.w3.org/1999/xlink" width="1440pt" height="720pt" viewBox="0 0 1440 720" xmlns="http://www.w3.org/2000/svg" version="1.1">
 <metadata>
  <rdf:RDF xmlns:dc="http://purl.org/dc/elements/1.1/" xmlns:cc="http://creativecommons.org/ns#" xmlns:rdf="http://www.w3.org/1999/02/22-rdf-syntax-ns#">
   <cc:Work>
    <dc:type rdf:resource="http://purl.org/dc/dcmitype/StillImage"/>
    <dc:date>2022-10-23T20:32:33.162062</dc:date>
    <dc:format>image/svg+xml</dc:format>
    <dc:creator>
     <cc:Agent>
      <dc:title>Matplotlib v3.5.1, https://matplotlib.org/</dc:title>
     </cc:Agent>
    </dc:creator>
   </cc:Work>
  </rdf:RDF>
 </metadata>
 <defs>
  <style type="text/css">*{stroke-linejoin: round; stroke-linecap: butt}</style>
 </defs>
 <g id="figure_1">
  <g id="patch_1">
   <path d="M 0 720 
L 1440 720 
L 1440 0 
L 0 0 
L 0 720 
z
" style="fill: none"/>
  </g>
  <g id="axes_1">
   <g id="patch_2">
    <path d="M 180 630 
L 1296 630 
L 1296 86.4 
L 180 86.4 
z
" style="fill: #ffffff"/>
   </g>
   <g id="matplotlib.axis_1">
    <g id="xtick_1">
     <g id="line2d_1">
      <defs>
       <path id="mecfe13e1ff" d="M 0 0 
L 0 3.5 
" style="stroke: #000000; stroke-width: 0.8"/>
      </defs>
      <g>
       <use xlink:href="#mecfe13e1ff" x="180" y="630" style="stroke: #000000; stroke-width: 0.8"/>
      </g>
     </g>
     <g id="text_1">
      <!-- 0 -->
      <g transform="translate(173.6375 652.196875)scale(0.2 -0.2)">
       <defs>
        <path id="DejaVuSans-30" d="M 2034 4250 
Q 1547 4250 1301 3770 
Q 1056 3291 1056 2328 
Q 1056 1369 1301 889 
Q 1547 409 2034 409 
Q 2525 409 2770 889 
Q 3016 1369 3016 2328 
Q 3016 3291 2770 3770 
Q 2525 4250 2034 4250 
z
M 2034 4750 
Q 2819 4750 3233 4129 
Q 3647 3509 3647 2328 
Q 3647 1150 3233 529 
Q 2819 -91 2034 -91 
Q 1250 -91 836 529 
Q 422 1150 422 2328 
Q 422 3509 836 4129 
Q 1250 4750 2034 4750 
z
" transform="scale(0.015625)"/>
       </defs>
       <use xlink:href="#DejaVuSans-30"/>
      </g>
     </g>
    </g>
    <g id="xtick_2">
     <g id="line2d_2">
      <g>
       <use xlink:href="#mecfe13e1ff" x="403.2" y="630" style="stroke: #000000; stroke-width: 0.8"/>
      </g>
     </g>
     <g id="text_2">
      <!-- 50 -->
      <g transform="translate(390.475 652.196875)scale(0.2 -0.2)">
       <defs>
        <path id="DejaVuSans-35" d="M 691 4666 
L 3169 4666 
L 3169 4134 
L 1269 4134 
L 1269 2991 
Q 1406 3038 1543 3061 
Q 1681 3084 1819 3084 
Q 2600 3084 3056 2656 
Q 3513 2228 3513 1497 
Q 3513 744 3044 326 
Q 2575 -91 1722 -91 
Q 1428 -91 1123 -41 
Q 819 9 494 109 
L 494 744 
Q 775 591 1075 516 
Q 1375 441 1709 441 
Q 2250 441 2565 725 
Q 2881 1009 2881 1497 
Q 2881 1984 2565 2268 
Q 2250 2553 1709 2553 
Q 1456 2553 1204 2497 
Q 953 2441 691 2322 
L 691 4666 
z
" transform="scale(0.015625)"/>
       </defs>
       <use xlink:href="#DejaVuSans-35"/>
       <use xlink:href="#DejaVuSans-30" x="63.623047"/>
      </g>
     </g>
    </g>
    <g id="xtick_3">
     <g id="line2d_3">
      <g>
       <use xlink:href="#mecfe13e1ff" x="626.4" y="630" style="stroke: #000000; stroke-width: 0.8"/>
      </g>
     </g>
     <g id="text_3">
      <!-- 100 -->
      <g transform="translate(607.3125 652.196875)scale(0.2 -0.2)">
       <defs>
        <path id="DejaVuSans-31" d="M 794 531 
L 1825 531 
L 1825 4091 
L 703 3866 
L 703 4441 
L 1819 4666 
L 2450 4666 
L 2450 531 
L 3481 531 
L 3481 0 
L 794 0 
L 794 531 
z
" transform="scale(0.015625)"/>
       </defs>
       <use xlink:href="#DejaVuSans-31"/>
       <use xlink:href="#DejaVuSans-30" x="63.623047"/>
       <use xlink:href="#DejaVuSans-30" x="127.246094"/>
      </g>
     </g>
    </g>
    <g id="xtick_4">
     <g id="line2d_4">
      <g>
       <use xlink:href="#mecfe13e1ff" x="849.6" y="630" style="stroke: #000000; stroke-width: 0.8"/>
      </g>
     </g>
     <g id="text_4">
      <!-- 150 -->
      <g transform="translate(830.5125 652.196875)scale(0.2 -0.2)">
       <use xlink:href="#DejaVuSans-31"/>
       <use xlink:href="#DejaVuSans-35" x="63.623047"/>
       <use xlink:href="#DejaVuSans-30" x="127.246094"/>
      </g>
     </g>
    </g>
    <g id="xtick_5">
     <g id="line2d_5">
      <g>
       <use xlink:href="#mecfe13e1ff" x="1072.8" y="630" style="stroke: #000000; stroke-width: 0.8"/>
      </g>
     </g>
     <g id="text_5">
      <!-- 200 -->
      <g transform="translate(1053.7125 652.196875)scale(0.2 -0.2)">
       <defs>
        <path id="DejaVuSans-32" d="M 1228 531 
L 3431 531 
L 3431 0 
L 469 0 
L 469 531 
Q 828 903 1448 1529 
Q 2069 2156 2228 2338 
Q 2531 2678 2651 2914 
Q 2772 3150 2772 3378 
Q 2772 3750 2511 3984 
Q 2250 4219 1831 4219 
Q 1534 4219 1204 4116 
Q 875 4013 500 3803 
L 500 4441 
Q 881 4594 1212 4672 
Q 1544 4750 1819 4750 
Q 2544 4750 2975 4387 
Q 3406 4025 3406 3419 
Q 3406 3131 3298 2873 
Q 3191 2616 2906 2266 
Q 2828 2175 2409 1742 
Q 1991 1309 1228 531 
z
" transform="scale(0.015625)"/>
       </defs>
       <use xlink:href="#DejaVuSans-32"/>
       <use xlink:href="#DejaVuSans-30" x="63.623047"/>
       <use xlink:href="#DejaVuSans-30" x="127.246094"/>
      </g>
     </g>
    </g>
    <g id="xtick_6">
     <g id="line2d_6">
      <g>
       <use xlink:href="#mecfe13e1ff" x="1296" y="630" style="stroke: #000000; stroke-width: 0.8"/>
      </g>
     </g>
     <g id="text_6">
      <!-- 250 -->
      <g transform="translate(1276.9125 652.196875)scale(0.2 -0.2)">
       <use xlink:href="#DejaVuSans-32"/>
       <use xlink:href="#DejaVuSans-35" x="63.623047"/>
       <use xlink:href="#DejaVuSans-30" x="127.246094"/>
      </g>
     </g>
    </g>
    <g id="text_7">
     <!-- epoch -->
     <g transform="translate(707.54375 675.553125)scale(0.2 -0.2)">
      <defs>
       <path id="DejaVuSans-65" d="M 3597 1894 
L 3597 1613 
L 953 1613 
Q 991 1019 1311 708 
Q 1631 397 2203 397 
Q 2534 397 2845 478 
Q 3156 559 3463 722 
L 3463 178 
Q 3153 47 2828 -22 
Q 2503 -91 2169 -91 
Q 1331 -91 842 396 
Q 353 884 353 1716 
Q 353 2575 817 3079 
Q 1281 3584 2069 3584 
Q 2775 3584 3186 3129 
Q 3597 2675 3597 1894 
z
M 3022 2063 
Q 3016 2534 2758 2815 
Q 2500 3097 2075 3097 
Q 1594 3097 1305 2825 
Q 1016 2553 972 2059 
L 3022 2063 
z
" transform="scale(0.015625)"/>
       <path id="DejaVuSans-70" d="M 1159 525 
L 1159 -1331 
L 581 -1331 
L 581 3500 
L 1159 3500 
L 1159 2969 
Q 1341 3281 1617 3432 
Q 1894 3584 2278 3584 
Q 2916 3584 3314 3078 
Q 3713 2572 3713 1747 
Q 3713 922 3314 415 
Q 2916 -91 2278 -91 
Q 1894 -91 1617 61 
Q 1341 213 1159 525 
z
M 3116 1747 
Q 3116 2381 2855 2742 
Q 2594 3103 2138 3103 
Q 1681 3103 1420 2742 
Q 1159 2381 1159 1747 
Q 1159 1113 1420 752 
Q 1681 391 2138 391 
Q 2594 391 2855 752 
Q 3116 1113 3116 1747 
z
" transform="scale(0.015625)"/>
       <path id="DejaVuSans-6f" d="M 1959 3097 
Q 1497 3097 1228 2736 
Q 959 2375 959 1747 
Q 959 1119 1226 758 
Q 1494 397 1959 397 
Q 2419 397 2687 759 
Q 2956 1122 2956 1747 
Q 2956 2369 2687 2733 
Q 2419 3097 1959 3097 
z
M 1959 3584 
Q 2709 3584 3137 3096 
Q 3566 2609 3566 1747 
Q 3566 888 3137 398 
Q 2709 -91 1959 -91 
Q 1206 -91 779 398 
Q 353 888 353 1747 
Q 353 2609 779 3096 
Q 1206 3584 1959 3584 
z
" transform="scale(0.015625)"/>
       <path id="DejaVuSans-63" d="M 3122 3366 
L 3122 2828 
Q 2878 2963 2633 3030 
Q 2388 3097 2138 3097 
Q 1578 3097 1268 2742 
Q 959 2388 959 1747 
Q 959 1106 1268 751 
Q 1578 397 2138 397 
Q 2388 397 2633 464 
Q 2878 531 3122 666 
L 3122 134 
Q 2881 22 2623 -34 
Q 2366 -91 2075 -91 
Q 1284 -91 818 406 
Q 353 903 353 1747 
Q 353 2603 823 3093 
Q 1294 3584 2113 3584 
Q 2378 3584 2631 3529 
Q 2884 3475 3122 3366 
z
" transform="scale(0.015625)"/>
       <path id="DejaVuSans-68" d="M 3513 2113 
L 3513 0 
L 2938 0 
L 2938 2094 
Q 2938 2591 2744 2837 
Q 2550 3084 2163 3084 
Q 1697 3084 1428 2787 
Q 1159 2491 1159 1978 
L 1159 0 
L 581 0 
L 581 4863 
L 1159 4863 
L 1159 2956 
Q 1366 3272 1645 3428 
Q 1925 3584 2291 3584 
Q 2894 3584 3203 3211 
Q 3513 2838 3513 2113 
z
" transform="scale(0.015625)"/>
      </defs>
      <use xlink:href="#DejaVuSans-65"/>
      <use xlink:href="#DejaVuSans-70" x="61.523438"/>
      <use xlink:href="#DejaVuSans-6f" x="125"/>
      <use xlink:href="#DejaVuSans-63" x="186.181641"/>
      <use xlink:href="#DejaVuSans-68" x="241.162109"/>
     </g>
    </g>
   </g>
   <g id="matplotlib.axis_2">
    <g id="ytick_1">
     <g id="line2d_7">
      <defs>
       <path id="mf50781e7d8" d="M 0 0 
L -3.5 0 
" style="stroke: #000000; stroke-width: 0.8"/>
      </defs>
      <g>
       <use xlink:href="#mf50781e7d8" x="180" y="566.047059" style="stroke: #000000; stroke-width: 0.8"/>
      </g>
     </g>
     <g id="text_8">
      <!-- 0.05 -->
      <g transform="translate(128.46875 573.645496)scale(0.2 -0.2)">
       <defs>
        <path id="DejaVuSans-2e" d="M 684 794 
L 1344 794 
L 1344 0 
L 684 0 
L 684 794 
z
" transform="scale(0.015625)"/>
       </defs>
       <use xlink:href="#DejaVuSans-30"/>
       <use xlink:href="#DejaVuSans-2e" x="63.623047"/>
       <use xlink:href="#DejaVuSans-30" x="95.410156"/>
       <use xlink:href="#DejaVuSans-35" x="159.033203"/>
      </g>
     </g>
    </g>
    <g id="ytick_2">
     <g id="line2d_8">
      <g>
       <use xlink:href="#mf50781e7d8" x="180" y="486.105882" style="stroke: #000000; stroke-width: 0.8"/>
      </g>
     </g>
     <g id="text_9">
      <!-- 0.10 -->
      <g transform="translate(128.46875 493.70432)scale(0.2 -0.2)">
       <use xlink:href="#DejaVuSans-30"/>
       <use xlink:href="#DejaVuSans-2e" x="63.623047"/>
       <use xlink:href="#DejaVuSans-31" x="95.410156"/>
       <use xlink:href="#DejaVuSans-30" x="159.033203"/>
      </g>
     </g>
    </g>
    <g id="ytick_3">
     <g id="line2d_9">
      <g>
       <use xlink:href="#mf50781e7d8" x="180" y="406.164706" style="stroke: #000000; stroke-width: 0.8"/>
      </g>
     </g>
     <g id="text_10">
      <!-- 0.15 -->
      <g transform="translate(128.46875 413.763143)scale(0.2 -0.2)">
       <use xlink:href="#DejaVuSans-30"/>
       <use xlink:href="#DejaVuSans-2e" x="63.623047"/>
       <use xlink:href="#DejaVuSans-31" x="95.410156"/>
       <use xlink:href="#DejaVuSans-35" x="159.033203"/>
      </g>
     </g>
    </g>
    <g id="ytick_4">
     <g id="line2d_10">
      <g>
       <use xlink:href="#mf50781e7d8" x="180" y="326.223529" style="stroke: #000000; stroke-width: 0.8"/>
      </g>
     </g>
     <g id="text_11">
      <!-- 0.20 -->
      <g transform="translate(128.46875 333.821967)scale(0.2 -0.2)">
       <use xlink:href="#DejaVuSans-30"/>
       <use xlink:href="#DejaVuSans-2e" x="63.623047"/>
       <use xlink:href="#DejaVuSans-32" x="95.410156"/>
       <use xlink:href="#DejaVuSans-30" x="159.033203"/>
      </g>
     </g>
    </g>
    <g id="ytick_5">
     <g id="line2d_11">
      <g>
       <use xlink:href="#mf50781e7d8" x="180" y="246.282353" style="stroke: #000000; stroke-width: 0.8"/>
      </g>
     </g>
     <g id="text_12">
      <!-- 0.25 -->
      <g transform="translate(128.46875 253.88079)scale(0.2 -0.2)">
       <use xlink:href="#DejaVuSans-30"/>
       <use xlink:href="#DejaVuSans-2e" x="63.623047"/>
       <use xlink:href="#DejaVuSans-32" x="95.410156"/>
       <use xlink:href="#DejaVuSans-35" x="159.033203"/>
      </g>
     </g>
    </g>
    <g id="ytick_6">
     <g id="line2d_12">
      <g>
       <use xlink:href="#mf50781e7d8" x="180" y="166.341176" style="stroke: #000000; stroke-width: 0.8"/>
      </g>
     </g>
     <g id="text_13">
      <!-- 0.30 -->
      <g transform="translate(128.46875 173.939614)scale(0.2 -0.2)">
       <defs>
        <path id="DejaVuSans-33" d="M 2597 2516 
Q 3050 2419 3304 2112 
Q 3559 1806 3559 1356 
Q 3559 666 3084 287 
Q 2609 -91 1734 -91 
Q 1441 -91 1130 -33 
Q 819 25 488 141 
L 488 750 
Q 750 597 1062 519 
Q 1375 441 1716 441 
Q 2309 441 2620 675 
Q 2931 909 2931 1356 
Q 2931 1769 2642 2001 
Q 2353 2234 1838 2234 
L 1294 2234 
L 1294 2753 
L 1863 2753 
Q 2328 2753 2575 2939 
Q 2822 3125 2822 3475 
Q 2822 3834 2567 4026 
Q 2313 4219 1838 4219 
Q 1578 4219 1281 4162 
Q 984 4106 628 3988 
L 628 4550 
Q 988 4650 1302 4700 
Q 1616 4750 1894 4750 
Q 2613 4750 3031 4423 
Q 3450 4097 3450 3541 
Q 3450 3153 3228 2886 
Q 3006 2619 2597 2516 
z
" transform="scale(0.015625)"/>
       </defs>
       <use xlink:href="#DejaVuSans-30"/>
       <use xlink:href="#DejaVuSans-2e" x="63.623047"/>
       <use xlink:href="#DejaVuSans-33" x="95.410156"/>
       <use xlink:href="#DejaVuSans-30" x="159.033203"/>
      </g>
     </g>
    </g>
    <g id="ytick_7">
     <g id="line2d_13">
      <g>
       <use xlink:href="#mf50781e7d8" x="180" y="86.4" style="stroke: #000000; stroke-width: 0.8"/>
      </g>
     </g>
     <g id="text_14">
      <!-- 0.35 -->
      <g transform="translate(128.46875 93.998437)scale(0.2 -0.2)">
       <use xlink:href="#DejaVuSans-30"/>
       <use xlink:href="#DejaVuSans-2e" x="63.623047"/>
       <use xlink:href="#DejaVuSans-33" x="95.410156"/>
       <use xlink:href="#DejaVuSans-35" x="159.033203"/>
      </g>
     </g>
    </g>
    <g id="text_15">
     <!-- train loss -->
     <g transform="translate(120.309375 403.96875)rotate(-90)scale(0.2 -0.2)">
      <defs>
       <path id="DejaVuSans-74" d="M 1172 4494 
L 1172 3500 
L 2356 3500 
L 2356 3053 
L 1172 3053 
L 1172 1153 
Q 1172 725 1289 603 
Q 1406 481 1766 481 
L 2356 481 
L 2356 0 
L 1766 0 
Q 1100 0 847 248 
Q 594 497 594 1153 
L 594 3053 
L 172 3053 
L 172 3500 
L 594 3500 
L 594 4494 
L 1172 4494 
z
" transform="scale(0.015625)"/>
       <path id="DejaVuSans-72" d="M 2631 2963 
Q 2534 3019 2420 3045 
Q 2306 3072 2169 3072 
Q 1681 3072 1420 2755 
Q 1159 2438 1159 1844 
L 1159 0 
L 581 0 
L 581 3500 
L 1159 3500 
L 1159 2956 
Q 1341 3275 1631 3429 
Q 1922 3584 2338 3584 
Q 2397 3584 2469 3576 
Q 2541 3569 2628 3553 
L 2631 2963 
z
" transform="scale(0.015625)"/>
       <path id="DejaVuSans-61" d="M 2194 1759 
Q 1497 1759 1228 1600 
Q 959 1441 959 1056 
Q 959 750 1161 570 
Q 1363 391 1709 391 
Q 2188 391 2477 730 
Q 2766 1069 2766 1631 
L 2766 1759 
L 2194 1759 
z
M 3341 1997 
L 3341 0 
L 2766 0 
L 2766 531 
Q 2569 213 2275 61 
Q 1981 -91 1556 -91 
Q 1019 -91 701 211 
Q 384 513 384 1019 
Q 384 1609 779 1909 
Q 1175 2209 1959 2209 
L 2766 2209 
L 2766 2266 
Q 2766 2663 2505 2880 
Q 2244 3097 1772 3097 
Q 1472 3097 1187 3025 
Q 903 2953 641 2809 
L 641 3341 
Q 956 3463 1253 3523 
Q 1550 3584 1831 3584 
Q 2591 3584 2966 3190 
Q 3341 2797 3341 1997 
z
" transform="scale(0.015625)"/>
       <path id="DejaVuSans-69" d="M 603 3500 
L 1178 3500 
L 1178 0 
L 603 0 
L 603 3500 
z
M 603 4863 
L 1178 4863 
L 1178 4134 
L 603 4134 
L 603 4863 
z
" transform="scale(0.015625)"/>
       <path id="DejaVuSans-6e" d="M 3513 2113 
L 3513 0 
L 2938 0 
L 2938 2094 
Q 2938 2591 2744 2837 
Q 2550 3084 2163 3084 
Q 1697 3084 1428 2787 
Q 1159 2491 1159 1978 
L 1159 0 
L 581 0 
L 581 3500 
L 1159 3500 
L 1159 2956 
Q 1366 3272 1645 3428 
Q 1925 3584 2291 3584 
Q 2894 3584 3203 3211 
Q 3513 2838 3513 2113 
z
" transform="scale(0.015625)"/>
       <path id="DejaVuSans-20" transform="scale(0.015625)"/>
       <path id="DejaVuSans-6c" d="M 603 4863 
L 1178 4863 
L 1178 0 
L 603 0 
L 603 4863 
z
" transform="scale(0.015625)"/>
       <path id="DejaVuSans-73" d="M 2834 3397 
L 2834 2853 
Q 2591 2978 2328 3040 
Q 2066 3103 1784 3103 
Q 1356 3103 1142 2972 
Q 928 2841 928 2578 
Q 928 2378 1081 2264 
Q 1234 2150 1697 2047 
L 1894 2003 
Q 2506 1872 2764 1633 
Q 3022 1394 3022 966 
Q 3022 478 2636 193 
Q 2250 -91 1575 -91 
Q 1294 -91 989 -36 
Q 684 19 347 128 
L 347 722 
Q 666 556 975 473 
Q 1284 391 1588 391 
Q 1994 391 2212 530 
Q 2431 669 2431 922 
Q 2431 1156 2273 1281 
Q 2116 1406 1581 1522 
L 1381 1569 
Q 847 1681 609 1914 
Q 372 2147 372 2553 
Q 372 3047 722 3315 
Q 1072 3584 1716 3584 
Q 2034 3584 2315 3537 
Q 2597 3491 2834 3397 
z
" transform="scale(0.015625)"/>
      </defs>
      <use xlink:href="#DejaVuSans-74"/>
      <use xlink:href="#DejaVuSans-72" x="39.208984"/>
      <use xlink:href="#DejaVuSans-61" x="80.322266"/>
      <use xlink:href="#DejaVuSans-69" x="141.601562"/>
      <use xlink:href="#DejaVuSans-6e" x="169.384766"/>
      <use xlink:href="#DejaVuSans-20" x="232.763672"/>
      <use xlink:href="#DejaVuSans-6c" x="264.550781"/>
      <use xlink:href="#DejaVuSans-6f" x="292.333984"/>
      <use xlink:href="#DejaVuSans-73" x="353.515625"/>
      <use xlink:href="#DejaVuSans-73" x="405.615234"/>
     </g>
    </g>
   </g>
   <g id="line2d_14">
    <path d="M 208.972742 -1 
L 211.248 280.648111 
L 215.712 328.920462 
L 220.176 249.092266 
L 224.64 196.206572 
L 229.104 107.304475 
L 233.568 115.343279 
L 237.499638 -1 
M 238.486616 -1 
L 242.496 137.933792 
L 246.96 61.6391 
L 251.424 186.08838 
L 255.888 128.560301 
L 260.352 180.822012 
L 264.816 123.911079 
L 269.28 195.872316 
L 273.744 114.742811 
L 278.208 186.992513 
L 282.672 127.361509 
L 287.136 201.994597 
L 291.6 143.726725 
L 296.064 220.833445 
L 300.528 172.735512 
L 304.992 235.056235 
L 309.456 181.767314 
L 313.92 235.10112 
L 318.384 172.081772 
L 322.848 226.77871 
L 327.312 164.788335 
L 331.776 233.606572 
L 336.24 176.718224 
L 340.704 254.836406 
L 345.168 190.348408 
L 349.632 254.855251 
L 354.096 197.581473 
L 358.56 247.570963 
L 363.024 184.949768 
L 367.488 263.244249 
L 371.952 189.856578 
L 376.416 258.143032 
L 380.88 200.200625 
L 385.344 265.442949 
L 389.808 199.714132 
L 394.272 263.098278 
L 398.736 164.454414 
L 403.2 250.632484 
L 407.664 253.00808 
L 412.128 245.822734 
L 416.592 245.664255 
L 421.056 246.60441 
L 425.52 253.334092 
L 429.984 259.070942 
L 434.448 267.615275 
L 438.912 270.344518 
L 443.376 275.682978 
L 447.84 284.359322 
L 452.304 284.616053 
L 456.768 288.654991 
L 465.696 305.62008 
L 470.16 316.174304 
L 474.624 319.01364 
L 479.088 319.90648 
L 483.552 322.353977 
L 488.016 329.749978 
L 492.48 326.657794 
L 496.944 327.619082 
L 501.408 288.055571 
L 505.872 275.499745 
L 510.336 99.855656 
L 514.8 270.682443 
L 519.264 237.40093 
L 523.728 335.794615 
L 528.192 320.546688 
L 532.656 353.84371 
L 537.12 337.825424 
L 541.584 360.603482 
L 546.048 342.670411 
L 550.512 368.617223 
L 554.976 340.31123 
L 559.44 358.697631 
L 563.904 322.656189 
L 568.368 357.975492 
L 572.832 316.575435 
L 577.296 356.796259 
L 581.76 308.473662 
L 586.224 366.150405 
L 590.688 338.584658 
L 595.152 378.718452 
L 599.616 359.21824 
L 604.08 392.749194 
L 608.544 374.764638 
L 613.008 400.055758 
L 617.472 378.083629 
L 621.936 399.425985 
L 626.4 363.646563 
L 630.864 494.866061 
L 635.328 514.623814 
L 639.792 526.029437 
L 644.256 536.652859 
L 648.72 543.809389 
L 653.184 548.796768 
L 657.648 554.497137 
L 662.112 556.995201 
L 671.04 564.271311 
L 675.504 565.864349 
L 679.968 568.119857 
L 684.432 570.076138 
L 688.896 573.19784 
L 693.36 573.62121 
L 697.824 576.515664 
L 702.288 576.723972 
L 706.752 577.726785 
L 711.216 579.56214 
L 715.68 579.939404 
L 720.144 581.508891 
L 729.072 584.032132 
L 733.536 584.765242 
L 738 585.174163 
L 742.464 585.253057 
L 746.928 586.810632 
L 751.392 586.071464 
L 755.856 589.326921 
L 764.784 589.469933 
L 769.248 590.659446 
L 773.712 591.204689 
L 778.176 591.443445 
L 782.64 592.029315 
L 787.104 592.137638 
L 791.568 593.272832 
L 796.032 594.023066 
L 800.496 594.126481 
L 809.424 595.228481 
L 813.888 594.59663 
L 818.352 596.336015 
L 822.816 595.144346 
L 827.28 595.664496 
L 831.744 595.666563 
L 836.208 596.263151 
L 840.672 595.555166 
L 845.136 597.166075 
L 849.6 596.328778 
L 854.064 599.575668 
L 858.528 601.001583 
L 862.992 601.872619 
L 867.456 602.358001 
L 871.92 601.811363 
L 876.384 602.562985 
L 880.848 603.076786 
L 885.312 604.130834 
L 889.776 602.204176 
L 898.704 603.607685 
L 903.168 603.084098 
L 907.632 603.406188 
L 912.096 604.183236 
L 921.024 604.511419 
L 925.488 605.109871 
L 934.416 604.663129 
L 938.88 604.129816 
L 943.344 603.369811 
L 947.808 603.989202 
L 952.272 604.237463 
L 961.2 605.103278 
L 965.664 605.224776 
L 970.128 606.204927 
L 974.592 604.247383 
L 979.056 605.229573 
L 983.52 605.339279 
L 987.984 604.400216 
L 996.912 605.85367 
L 1001.376 605.050334 
L 1005.84 605.370286 
L 1010.304 607.064523 
L 1014.768 605.302875 
L 1019.232 606.169568 
L 1023.696 605.920005 
L 1028.16 606.41858 
L 1032.624 605.988045 
L 1037.088 607.795037 
L 1041.552 606.272495 
L 1046.016 605.911673 
L 1050.48 606.058729 
L 1054.944 606.016577 
L 1059.408 606.756495 
L 1063.872 606.863169 
L 1068.336 605.452319 
L 1072.8 606.413372 
L 1077.264 609.987851 
L 1081.728 610.421362 
L 1090.656 609.207066 
L 1095.12 610.280542 
L 1099.584 610.12161 
L 1104.048 611.083023 
L 1108.512 609.874126 
L 1112.976 610.35343 
L 1117.44 609.869754 
L 1121.904 609.212108 
L 1126.368 611.012688 
L 1130.832 610.332473 
L 1135.296 610.335165 
L 1139.76 609.872545 
L 1144.224 609.741925 
L 1148.688 610.244493 
L 1153.152 610.497516 
L 1157.616 611.00079 
L 1162.08 610.053071 
L 1171.008 611.00099 
L 1175.472 610.292603 
L 1184.4 611.256973 
L 1188.864 610.554689 
L 1197.792 611.311078 
L 1206.72 611.436365 
L 1211.184 610.006878 
L 1215.648 611.072525 
L 1220.112 610.881931 
L 1224.576 610.953722 
L 1229.04 610.533524 
L 1233.504 611.026497 
L 1242.432 610.995385 
L 1246.896 611.609541 
L 1251.36 610.637419 
L 1255.824 610.579278 
L 1260.288 611.659619 
L 1264.752 611.426492 
L 1273.68 610.383064 
L 1278.144 610.797956 
L 1287.072 610.788388 
L 1291.536 611.429607 
L 1291.536 611.429607 
" clip-path="url(#p59d0f75c64)" style="fill: none; stroke: #1f77b4; stroke-width: 1.5; stroke-linecap: square"/>
   </g>
   <g id="line2d_15">
    <path d="M 209.22084 -1 
L 211.248 318.551925 
L 215.712 386.033688 
L 220.176 342.419374 
L 224.64 314.372685 
L 229.104 307.117081 
L 233.568 317.894159 
L 238.032 276.743399 
L 242.496 273.449257 
L 246.96 68.092587 
L 251.424 217.565796 
L 255.888 32.63565 
L 260.352 287.657014 
L 264.816 256.248593 
L 269.28 329.995059 
L 273.744 294.094109 
L 278.208 340.410769 
L 282.672 294.547462 
L 287.136 333.680515 
L 291.6 281.546788 
L 296.064 327.945547 
L 300.528 280.699524 
L 304.992 331.81669 
L 309.456 285.308745 
L 313.92 335.53643 
L 318.384 292.333133 
L 322.848 335.910734 
L 327.312 301.597294 
L 331.776 342.988966 
L 336.24 299.032487 
L 340.704 338.455482 
L 345.168 295.138662 
L 349.632 343.592674 
L 354.096 313.90954 
L 358.56 352.467331 
L 363.024 326.345195 
L 367.488 353.240907 
L 371.952 327.223932 
L 376.416 358.308246 
L 380.88 330.092714 
L 385.344 355.354673 
L 389.808 325.441229 
L 394.272 352.458207 
L 398.736 323.912827 
L 403.2 376.229715 
L 407.664 467.54655 
L 412.128 467.899698 
L 416.592 476.678308 
L 421.056 476.199796 
L 425.52 480.953047 
L 429.984 484.30407 
L 434.448 488.313192 
L 438.912 490.125628 
L 443.376 494.982646 
L 447.84 498.364676 
L 452.304 499.010196 
L 456.768 503.732034 
L 461.232 508.776097 
L 465.696 506.829959 
L 470.16 511.699878 
L 474.624 512.12226 
L 479.088 514.729427 
L 483.552 517.942852 
L 488.016 522.100686 
L 492.48 522.649217 
L 496.944 524.444023 
L 501.408 527.912571 
L 505.872 529.734703 
L 510.336 530.39559 
L 514.8 532.52645 
L 519.264 530.4724 
L 523.728 535.07084 
L 528.192 530.024467 
L 532.656 531.02242 
L 537.12 508.209555 
L 541.584 500.734148 
L 546.048 427.326774 
L 550.512 433.422538 
L 554.976 347.956981 
L 559.44 466.330259 
L 563.904 467.146218 
L 568.368 511.416238 
L 572.832 510.903252 
L 577.296 526.374151 
L 581.76 517.962746 
L 586.224 529.06431 
L 590.688 522.160271 
L 595.152 531.797544 
L 599.616 519.353646 
L 604.08 527.338643 
L 608.544 508.103739 
L 613.008 518.614115 
L 617.472 493.324818 
L 621.936 509.838888 
L 626.4 503.433873 
L 630.864 528.291926 
L 635.328 533.771223 
L 639.792 538.109574 
L 644.256 542.950046 
L 648.72 546.99921 
L 653.184 548.305724 
L 657.648 552.148046 
L 662.112 552.916929 
L 666.576 557.336496 
L 675.504 558.781168 
L 679.968 559.663002 
L 684.432 561.409676 
L 693.36 563.564712 
L 697.824 566.274229 
L 702.288 565.672271 
L 706.752 567.471913 
L 711.216 566.823504 
L 715.68 569.12631 
L 720.144 571.58809 
L 724.608 572.601511 
L 729.072 571.995992 
L 733.536 573.620668 
L 738 573.982738 
L 742.464 573.104729 
L 746.928 574.88879 
L 751.392 576.062727 
L 755.856 575.949669 
L 760.32 575.357325 
L 764.784 576.757582 
L 769.248 578.361286 
L 773.712 576.874208 
L 778.176 579.068029 
L 782.64 579.74716 
L 787.104 580.664158 
L 791.568 580.169553 
L 796.032 581.913934 
L 800.496 583.487025 
L 804.96 581.477759 
L 809.424 582.854108 
L 813.888 583.453647 
L 818.352 583.347051 
L 822.816 583.720879 
L 827.28 585.327984 
L 831.744 585.48096 
L 836.208 585.507102 
L 840.672 586.434481 
L 845.136 585.60007 
L 849.6 583.525567 
L 854.064 587.271704 
L 858.528 589.030047 
L 862.992 588.481354 
L 867.456 590.017928 
L 871.92 590.746893 
L 876.384 591.266198 
L 880.848 591.133943 
L 885.312 591.566533 
L 903.168 591.908144 
L 907.632 591.04512 
L 912.096 593.06752 
L 916.56 593.705392 
L 921.024 594.027402 
L 925.488 594.943584 
L 929.952 593.278317 
L 934.416 593.468656 
L 938.88 593.18866 
L 943.344 594.735139 
L 947.808 593.658428 
L 952.272 595.416961 
L 956.736 595.226283 
L 961.2 593.560641 
L 965.664 595.539943 
L 970.128 595.424162 
L 974.592 594.517289 
L 979.056 595.8397 
L 983.52 594.782728 
L 987.984 595.303111 
L 992.448 595.125959 
L 996.912 595.677367 
L 1001.376 596.586906 
L 1005.84 598.073436 
L 1010.304 595.61026 
L 1014.768 596.964393 
L 1019.232 597.153401 
L 1023.696 596.384372 
L 1028.16 596.78918 
L 1037.088 596.319216 
L 1041.552 597.208062 
L 1046.016 596.232292 
L 1050.48 597.421427 
L 1054.944 597.164381 
L 1059.408 598.368501 
L 1063.872 597.788322 
L 1068.336 598.660426 
L 1072.8 598.375225 
L 1077.264 599.46238 
L 1081.728 599.554288 
L 1086.192 601.516174 
L 1090.656 600.939956 
L 1095.12 601.990975 
L 1099.584 601.622954 
L 1104.048 600.299707 
L 1108.512 600.461262 
L 1112.976 600.81025 
L 1117.44 601.716947 
L 1121.904 601.041808 
L 1126.368 600.763212 
L 1130.832 598.909271 
L 1135.296 601.849875 
L 1139.76 600.250742 
L 1148.688 601.893816 
L 1153.152 600.336357 
L 1157.616 602.026548 
L 1166.544 601.070724 
L 1171.008 600.426327 
L 1175.472 601.241691 
L 1179.936 601.611543 
L 1184.4 601.846963 
L 1188.864 601.800928 
L 1193.328 602.461088 
L 1197.792 601.934193 
L 1202.256 600.777084 
L 1211.184 602.639092 
L 1215.648 602.009918 
L 1220.112 602.138007 
L 1224.576 601.935485 
L 1229.04 601.153651 
L 1233.504 601.864548 
L 1237.968 600.8176 
L 1242.432 602.315242 
L 1251.36 602.008009 
L 1255.824 602.441469 
L 1260.288 602.474951 
L 1264.752 601.419459 
L 1269.216 602.264916 
L 1273.68 601.362537 
L 1278.144 601.865105 
L 1282.608 602.490014 
L 1287.072 602.204289 
L 1291.536 602.186814 
L 1291.536 602.186814 
" clip-path="url(#p59d0f75c64)" style="fill: none; stroke: #ff7f0e; stroke-width: 1.5; stroke-linecap: square"/>
   </g>
   <g id="patch_3">
    <path d="M 180 630 
L 180 86.4 
" style="fill: none; stroke: #000000; stroke-width: 0.8; stroke-linejoin: miter; stroke-linecap: square"/>
   </g>
   <g id="patch_4">
    <path d="M 1296 630 
L 1296 86.4 
" style="fill: none; stroke: #000000; stroke-width: 0.8; stroke-linejoin: miter; stroke-linecap: square"/>
   </g>
   <g id="patch_5">
    <path d="M 180 630 
L 1296 630 
" style="fill: none; stroke: #000000; stroke-width: 0.8; stroke-linejoin: miter; stroke-linecap: square"/>
   </g>
   <g id="patch_6">
    <path d="M 180 86.4 
L 1296 86.4 
" style="fill: none; stroke: #000000; stroke-width: 0.8; stroke-linejoin: miter; stroke-linecap: square"/>
   </g>
   <g id="legend_1">
    <g id="patch_7">
     <path d="M 1090.909375 161.66875 
L 1282 161.66875 
Q 1286 161.66875 1286 157.66875 
L 1286 100.4 
Q 1286 96.4 1282 96.4 
L 1090.909375 96.4 
Q 1086.909375 96.4 1086.909375 100.4 
L 1086.909375 157.66875 
Q 1086.909375 161.66875 1090.909375 161.66875 
z
" style="fill: #ffffff; opacity: 0.8; stroke: #cccccc; stroke-linejoin: miter"/>
    </g>
    <g id="line2d_16">
     <path d="M 1094.909375 112.596875 
L 1114.909375 112.596875 
L 1134.909375 112.596875 
" style="fill: none; stroke: #1f77b4; stroke-width: 1.5; stroke-linecap: square"/>
    </g>
    <g id="text_16">
     <!-- FCAdam_G-L -->
     <g transform="translate(1150.909375 119.596875)scale(0.2 -0.2)">
      <defs>
       <path id="DejaVuSans-46" d="M 628 4666 
L 3309 4666 
L 3309 4134 
L 1259 4134 
L 1259 2759 
L 3109 2759 
L 3109 2228 
L 1259 2228 
L 1259 0 
L 628 0 
L 628 4666 
z
" transform="scale(0.015625)"/>
       <path id="DejaVuSans-43" d="M 4122 4306 
L 4122 3641 
Q 3803 3938 3442 4084 
Q 3081 4231 2675 4231 
Q 1875 4231 1450 3742 
Q 1025 3253 1025 2328 
Q 1025 1406 1450 917 
Q 1875 428 2675 428 
Q 3081 428 3442 575 
Q 3803 722 4122 1019 
L 4122 359 
Q 3791 134 3420 21 
Q 3050 -91 2638 -91 
Q 1578 -91 968 557 
Q 359 1206 359 2328 
Q 359 3453 968 4101 
Q 1578 4750 2638 4750 
Q 3056 4750 3426 4639 
Q 3797 4528 4122 4306 
z
" transform="scale(0.015625)"/>
       <path id="DejaVuSans-41" d="M 2188 4044 
L 1331 1722 
L 3047 1722 
L 2188 4044 
z
M 1831 4666 
L 2547 4666 
L 4325 0 
L 3669 0 
L 3244 1197 
L 1141 1197 
L 716 0 
L 50 0 
L 1831 4666 
z
" transform="scale(0.015625)"/>
       <path id="DejaVuSans-64" d="M 2906 2969 
L 2906 4863 
L 3481 4863 
L 3481 0 
L 2906 0 
L 2906 525 
Q 2725 213 2448 61 
Q 2172 -91 1784 -91 
Q 1150 -91 751 415 
Q 353 922 353 1747 
Q 353 2572 751 3078 
Q 1150 3584 1784 3584 
Q 2172 3584 2448 3432 
Q 2725 3281 2906 2969 
z
M 947 1747 
Q 947 1113 1208 752 
Q 1469 391 1925 391 
Q 2381 391 2643 752 
Q 2906 1113 2906 1747 
Q 2906 2381 2643 2742 
Q 2381 3103 1925 3103 
Q 1469 3103 1208 2742 
Q 947 2381 947 1747 
z
" transform="scale(0.015625)"/>
       <path id="DejaVuSans-6d" d="M 3328 2828 
Q 3544 3216 3844 3400 
Q 4144 3584 4550 3584 
Q 5097 3584 5394 3201 
Q 5691 2819 5691 2113 
L 5691 0 
L 5113 0 
L 5113 2094 
Q 5113 2597 4934 2840 
Q 4756 3084 4391 3084 
Q 3944 3084 3684 2787 
Q 3425 2491 3425 1978 
L 3425 0 
L 2847 0 
L 2847 2094 
Q 2847 2600 2669 2842 
Q 2491 3084 2119 3084 
Q 1678 3084 1418 2786 
Q 1159 2488 1159 1978 
L 1159 0 
L 581 0 
L 581 3500 
L 1159 3500 
L 1159 2956 
Q 1356 3278 1631 3431 
Q 1906 3584 2284 3584 
Q 2666 3584 2933 3390 
Q 3200 3197 3328 2828 
z
" transform="scale(0.015625)"/>
       <path id="DejaVuSans-5f" d="M 3263 -1063 
L 3263 -1509 
L -63 -1509 
L -63 -1063 
L 3263 -1063 
z
" transform="scale(0.015625)"/>
       <path id="DejaVuSans-47" d="M 3809 666 
L 3809 1919 
L 2778 1919 
L 2778 2438 
L 4434 2438 
L 4434 434 
Q 4069 175 3628 42 
Q 3188 -91 2688 -91 
Q 1594 -91 976 548 
Q 359 1188 359 2328 
Q 359 3472 976 4111 
Q 1594 4750 2688 4750 
Q 3144 4750 3555 4637 
Q 3966 4525 4313 4306 
L 4313 3634 
Q 3963 3931 3569 4081 
Q 3175 4231 2741 4231 
Q 1884 4231 1454 3753 
Q 1025 3275 1025 2328 
Q 1025 1384 1454 906 
Q 1884 428 2741 428 
Q 3075 428 3337 486 
Q 3600 544 3809 666 
z
" transform="scale(0.015625)"/>
       <path id="DejaVuSans-2d" d="M 313 2009 
L 1997 2009 
L 1997 1497 
L 313 1497 
L 313 2009 
z
" transform="scale(0.015625)"/>
       <path id="DejaVuSans-4c" d="M 628 4666 
L 1259 4666 
L 1259 531 
L 3531 531 
L 3531 0 
L 628 0 
L 628 4666 
z
" transform="scale(0.015625)"/>
      </defs>
      <use xlink:href="#DejaVuSans-46"/>
      <use xlink:href="#DejaVuSans-43" x="57.519531"/>
      <use xlink:href="#DejaVuSans-41" x="127.34375"/>
      <use xlink:href="#DejaVuSans-64" x="194.001953"/>
      <use xlink:href="#DejaVuSans-61" x="257.478516"/>
      <use xlink:href="#DejaVuSans-6d" x="318.757812"/>
      <use xlink:href="#DejaVuSans-5f" x="416.169922"/>
      <use xlink:href="#DejaVuSans-47" x="466.169922"/>
      <use xlink:href="#DejaVuSans-2d" x="543.660156"/>
      <use xlink:href="#DejaVuSans-4c" x="579.744141"/>
     </g>
    </g>
    <g id="line2d_17">
     <path d="M 1094.909375 142.509375 
L 1114.909375 142.509375 
L 1134.909375 142.509375 
" style="fill: none; stroke: #ff7f0e; stroke-width: 1.5; stroke-linecap: square"/>
    </g>
    <g id="text_17">
     <!-- Adam -->
     <g transform="translate(1150.909375 149.509375)scale(0.2 -0.2)">
      <use xlink:href="#DejaVuSans-41"/>
      <use xlink:href="#DejaVuSans-64" x="66.658203"/>
      <use xlink:href="#DejaVuSans-61" x="130.134766"/>
      <use xlink:href="#DejaVuSans-6d" x="191.414062"/>
     </g>
    </g>
   </g>
  </g>
 </g>
 <defs>
  <clipPath id="p59d0f75c64">
   <rect x="180" y="86.4" width="1116" height="543.6"/>
  </clipPath>
 </defs>
</svg>
