<?xml version="1.0" encoding="utf-8" standalone="no"?>
<!DOCTYPE svg PUBLIC "-//W3C//DTD SVG 1.1//EN"
  "http://www.w3.org/Graphics/SVG/1.1/DTD/svg11.dtd">
<svg xmlns:xlink="http://www.w3.org/1999/xlink" width="1440pt" height="720pt" viewBox="0 0 1440 720" xmlns="http://www.w3.org/2000/svg" version="1.1">
 <metadata>
  <rdf:RDF xmlns:dc="http://purl.org/dc/elements/1.1/" xmlns:cc="http://creativecommons.org/ns#" xmlns:rdf="http://www.w3.org/1999/02/22-rdf-syntax-ns#">
   <cc:Work>
    <dc:type rdf:resource="http://purl.org/dc/dcmitype/StillImage"/>
    <dc:date>2022-10-24T22:02:46.894768</dc:date>
    <dc:format>image/svg+xml</dc:format>
    <dc:creator>
     <cc:Agent>
      <dc:title>Matplotlib v3.5.1, https://matplotlib.org/</dc:title>
     </cc:Agent>
    </dc:creator>
   </cc:Work>
  </rdf:RDF>
 </metadata>
 <defs>
  <style type="text/css">*{stroke-linejoin: round; stroke-linecap: butt}</style>
 </defs>
 <g id="figure_1">
  <g id="patch_1">
   <path d="M 0 720 
L 1440 720 
L 1440 0 
L 0 0 
L 0 720 
z
" style="fill: none"/>
  </g>
  <g id="axes_1">
   <g id="patch_2">
    <path d="M 180 630 
L 1296 630 
L 1296 86.4 
L 180 86.4 
z
" style="fill: #ffffff"/>
   </g>
   <g id="matplotlib.axis_1">
    <g id="xtick_1">
     <g id="line2d_1">
      <defs>
       <path id="m44418cac8a" d="M 0 0 
L 0 3.5 
" style="stroke: #000000; stroke-width: 0.8"/>
      </defs>
      <g>
       <use xlink:href="#m44418cac8a" x="180" y="630" style="stroke: #000000; stroke-width: 0.8"/>
      </g>
     </g>
     <g id="text_1">
      <!-- 0 -->
      <g transform="translate(173.6375 652.196875)scale(0.2 -0.2)">
       <defs>
        <path id="DejaVuSans-30" d="M 2034 4250 
Q 1547 4250 1301 3770 
Q 1056 3291 1056 2328 
Q 1056 1369 1301 889 
Q 1547 409 2034 409 
Q 2525 409 2770 889 
Q 3016 1369 3016 2328 
Q 3016 3291 2770 3770 
Q 2525 4250 2034 4250 
z
M 2034 4750 
Q 2819 4750 3233 4129 
Q 3647 3509 3647 2328 
Q 3647 1150 3233 529 
Q 2819 -91 2034 -91 
Q 1250 -91 836 529 
Q 422 1150 422 2328 
Q 422 3509 836 4129 
Q 1250 4750 2034 4750 
z
" transform="scale(0.015625)"/>
       </defs>
       <use xlink:href="#DejaVuSans-30"/>
      </g>
     </g>
    </g>
    <g id="xtick_2">
     <g id="line2d_2">
      <g>
       <use xlink:href="#m44418cac8a" x="403.2" y="630" style="stroke: #000000; stroke-width: 0.8"/>
      </g>
     </g>
     <g id="text_2">
      <!-- 50 -->
      <g transform="translate(390.475 652.196875)scale(0.2 -0.2)">
       <defs>
        <path id="DejaVuSans-35" d="M 691 4666 
L 3169 4666 
L 3169 4134 
L 1269 4134 
L 1269 2991 
Q 1406 3038 1543 3061 
Q 1681 3084 1819 3084 
Q 2600 3084 3056 2656 
Q 3513 2228 3513 1497 
Q 3513 744 3044 326 
Q 2575 -91 1722 -91 
Q 1428 -91 1123 -41 
Q 819 9 494 109 
L 494 744 
Q 775 591 1075 516 
Q 1375 441 1709 441 
Q 2250 441 2565 725 
Q 2881 1009 2881 1497 
Q 2881 1984 2565 2268 
Q 2250 2553 1709 2553 
Q 1456 2553 1204 2497 
Q 953 2441 691 2322 
L 691 4666 
z
" transform="scale(0.015625)"/>
       </defs>
       <use xlink:href="#DejaVuSans-35"/>
       <use xlink:href="#DejaVuSans-30" x="63.623047"/>
      </g>
     </g>
    </g>
    <g id="xtick_3">
     <g id="line2d_3">
      <g>
       <use xlink:href="#m44418cac8a" x="626.4" y="630" style="stroke: #000000; stroke-width: 0.8"/>
      </g>
     </g>
     <g id="text_3">
      <!-- 100 -->
      <g transform="translate(607.3125 652.196875)scale(0.2 -0.2)">
       <defs>
        <path id="DejaVuSans-31" d="M 794 531 
L 1825 531 
L 1825 4091 
L 703 3866 
L 703 4441 
L 1819 4666 
L 2450 4666 
L 2450 531 
L 3481 531 
L 3481 0 
L 794 0 
L 794 531 
z
" transform="scale(0.015625)"/>
       </defs>
       <use xlink:href="#DejaVuSans-31"/>
       <use xlink:href="#DejaVuSans-30" x="63.623047"/>
       <use xlink:href="#DejaVuSans-30" x="127.246094"/>
      </g>
     </g>
    </g>
    <g id="xtick_4">
     <g id="line2d_4">
      <g>
       <use xlink:href="#m44418cac8a" x="849.6" y="630" style="stroke: #000000; stroke-width: 0.8"/>
      </g>
     </g>
     <g id="text_4">
      <!-- 150 -->
      <g transform="translate(830.5125 652.196875)scale(0.2 -0.2)">
       <use xlink:href="#DejaVuSans-31"/>
       <use xlink:href="#DejaVuSans-35" x="63.623047"/>
       <use xlink:href="#DejaVuSans-30" x="127.246094"/>
      </g>
     </g>
    </g>
    <g id="xtick_5">
     <g id="line2d_5">
      <g>
       <use xlink:href="#m44418cac8a" x="1072.8" y="630" style="stroke: #000000; stroke-width: 0.8"/>
      </g>
     </g>
     <g id="text_5">
      <!-- 200 -->
      <g transform="translate(1053.7125 652.196875)scale(0.2 -0.2)">
       <defs>
        <path id="DejaVuSans-32" d="M 1228 531 
L 3431 531 
L 3431 0 
L 469 0 
L 469 531 
Q 828 903 1448 1529 
Q 2069 2156 2228 2338 
Q 2531 2678 2651 2914 
Q 2772 3150 2772 3378 
Q 2772 3750 2511 3984 
Q 2250 4219 1831 4219 
Q 1534 4219 1204 4116 
Q 875 4013 500 3803 
L 500 4441 
Q 881 4594 1212 4672 
Q 1544 4750 1819 4750 
Q 2544 4750 2975 4387 
Q 3406 4025 3406 3419 
Q 3406 3131 3298 2873 
Q 3191 2616 2906 2266 
Q 2828 2175 2409 1742 
Q 1991 1309 1228 531 
z
" transform="scale(0.015625)"/>
       </defs>
       <use xlink:href="#DejaVuSans-32"/>
       <use xlink:href="#DejaVuSans-30" x="63.623047"/>
       <use xlink:href="#DejaVuSans-30" x="127.246094"/>
      </g>
     </g>
    </g>
    <g id="xtick_6">
     <g id="line2d_6">
      <g>
       <use xlink:href="#m44418cac8a" x="1296" y="630" style="stroke: #000000; stroke-width: 0.8"/>
      </g>
     </g>
     <g id="text_6">
      <!-- 250 -->
      <g transform="translate(1276.9125 652.196875)scale(0.2 -0.2)">
       <use xlink:href="#DejaVuSans-32"/>
       <use xlink:href="#DejaVuSans-35" x="63.623047"/>
       <use xlink:href="#DejaVuSans-30" x="127.246094"/>
      </g>
     </g>
    </g>
    <g id="text_7">
     <!-- epoch -->
     <g transform="translate(707.54375 675.553125)scale(0.2 -0.2)">
      <defs>
       <path id="DejaVuSans-65" d="M 3597 1894 
L 3597 1613 
L 953 1613 
Q 991 1019 1311 708 
Q 1631 397 2203 397 
Q 2534 397 2845 478 
Q 3156 559 3463 722 
L 3463 178 
Q 3153 47 2828 -22 
Q 2503 -91 2169 -91 
Q 1331 -91 842 396 
Q 353 884 353 1716 
Q 353 2575 817 3079 
Q 1281 3584 2069 3584 
Q 2775 3584 3186 3129 
Q 3597 2675 3597 1894 
z
M 3022 2063 
Q 3016 2534 2758 2815 
Q 2500 3097 2075 3097 
Q 1594 3097 1305 2825 
Q 1016 2553 972 2059 
L 3022 2063 
z
" transform="scale(0.015625)"/>
       <path id="DejaVuSans-70" d="M 1159 525 
L 1159 -1331 
L 581 -1331 
L 581 3500 
L 1159 3500 
L 1159 2969 
Q 1341 3281 1617 3432 
Q 1894 3584 2278 3584 
Q 2916 3584 3314 3078 
Q 3713 2572 3713 1747 
Q 3713 922 3314 415 
Q 2916 -91 2278 -91 
Q 1894 -91 1617 61 
Q 1341 213 1159 525 
z
M 3116 1747 
Q 3116 2381 2855 2742 
Q 2594 3103 2138 3103 
Q 1681 3103 1420 2742 
Q 1159 2381 1159 1747 
Q 1159 1113 1420 752 
Q 1681 391 2138 391 
Q 2594 391 2855 752 
Q 3116 1113 3116 1747 
z
" transform="scale(0.015625)"/>
       <path id="DejaVuSans-6f" d="M 1959 3097 
Q 1497 3097 1228 2736 
Q 959 2375 959 1747 
Q 959 1119 1226 758 
Q 1494 397 1959 397 
Q 2419 397 2687 759 
Q 2956 1122 2956 1747 
Q 2956 2369 2687 2733 
Q 2419 3097 1959 3097 
z
M 1959 3584 
Q 2709 3584 3137 3096 
Q 3566 2609 3566 1747 
Q 3566 888 3137 398 
Q 2709 -91 1959 -91 
Q 1206 -91 779 398 
Q 353 888 353 1747 
Q 353 2609 779 3096 
Q 1206 3584 1959 3584 
z
" transform="scale(0.015625)"/>
       <path id="DejaVuSans-63" d="M 3122 3366 
L 3122 2828 
Q 2878 2963 2633 3030 
Q 2388 3097 2138 3097 
Q 1578 3097 1268 2742 
Q 959 2388 959 1747 
Q 959 1106 1268 751 
Q 1578 397 2138 397 
Q 2388 397 2633 464 
Q 2878 531 3122 666 
L 3122 134 
Q 2881 22 2623 -34 
Q 2366 -91 2075 -91 
Q 1284 -91 818 406 
Q 353 903 353 1747 
Q 353 2603 823 3093 
Q 1294 3584 2113 3584 
Q 2378 3584 2631 3529 
Q 2884 3475 3122 3366 
z
" transform="scale(0.015625)"/>
       <path id="DejaVuSans-68" d="M 3513 2113 
L 3513 0 
L 2938 0 
L 2938 2094 
Q 2938 2591 2744 2837 
Q 2550 3084 2163 3084 
Q 1697 3084 1428 2787 
Q 1159 2491 1159 1978 
L 1159 0 
L 581 0 
L 581 4863 
L 1159 4863 
L 1159 2956 
Q 1366 3272 1645 3428 
Q 1925 3584 2291 3584 
Q 2894 3584 3203 3211 
Q 3513 2838 3513 2113 
z
" transform="scale(0.015625)"/>
      </defs>
      <use xlink:href="#DejaVuSans-65"/>
      <use xlink:href="#DejaVuSans-70" x="61.523438"/>
      <use xlink:href="#DejaVuSans-6f" x="125"/>
      <use xlink:href="#DejaVuSans-63" x="186.181641"/>
      <use xlink:href="#DejaVuSans-68" x="241.162109"/>
     </g>
    </g>
   </g>
   <g id="matplotlib.axis_2">
    <g id="ytick_1">
     <g id="line2d_7">
      <defs>
       <path id="ma529032635" d="M 0 0 
L -3.5 0 
" style="stroke: #000000; stroke-width: 0.8"/>
      </defs>
      <g>
       <use xlink:href="#ma529032635" x="180" y="630" style="stroke: #000000; stroke-width: 0.8"/>
      </g>
     </g>
     <g id="text_8">
      <!-- 1.0 -->
      <g transform="translate(141.19375 637.598438)scale(0.2 -0.2)">
       <defs>
        <path id="DejaVuSans-2e" d="M 684 794 
L 1344 794 
L 1344 0 
L 684 0 
L 684 794 
z
" transform="scale(0.015625)"/>
       </defs>
       <use xlink:href="#DejaVuSans-31"/>
       <use xlink:href="#DejaVuSans-2e" x="63.623047"/>
       <use xlink:href="#DejaVuSans-30" x="95.410156"/>
      </g>
     </g>
    </g>
    <g id="ytick_2">
     <g id="line2d_8">
      <g>
       <use xlink:href="#ma529032635" x="180" y="539.4" style="stroke: #000000; stroke-width: 0.8"/>
      </g>
     </g>
     <g id="text_9">
      <!-- 1.2 -->
      <g transform="translate(141.19375 546.998437)scale(0.2 -0.2)">
       <use xlink:href="#DejaVuSans-31"/>
       <use xlink:href="#DejaVuSans-2e" x="63.623047"/>
       <use xlink:href="#DejaVuSans-32" x="95.410156"/>
      </g>
     </g>
    </g>
    <g id="ytick_3">
     <g id="line2d_9">
      <g>
       <use xlink:href="#ma529032635" x="180" y="448.8" style="stroke: #000000; stroke-width: 0.8"/>
      </g>
     </g>
     <g id="text_10">
      <!-- 1.4 -->
      <g transform="translate(141.19375 456.398437)scale(0.2 -0.2)">
       <defs>
        <path id="DejaVuSans-34" d="M 2419 4116 
L 825 1625 
L 2419 1625 
L 2419 4116 
z
M 2253 4666 
L 3047 4666 
L 3047 1625 
L 3713 1625 
L 3713 1100 
L 3047 1100 
L 3047 0 
L 2419 0 
L 2419 1100 
L 313 1100 
L 313 1709 
L 2253 4666 
z
" transform="scale(0.015625)"/>
       </defs>
       <use xlink:href="#DejaVuSans-31"/>
       <use xlink:href="#DejaVuSans-2e" x="63.623047"/>
       <use xlink:href="#DejaVuSans-34" x="95.410156"/>
      </g>
     </g>
    </g>
    <g id="ytick_4">
     <g id="line2d_10">
      <g>
       <use xlink:href="#ma529032635" x="180" y="358.2" style="stroke: #000000; stroke-width: 0.8"/>
      </g>
     </g>
     <g id="text_11">
      <!-- 1.6 -->
      <g transform="translate(141.19375 365.798437)scale(0.2 -0.2)">
       <defs>
        <path id="DejaVuSans-36" d="M 2113 2584 
Q 1688 2584 1439 2293 
Q 1191 2003 1191 1497 
Q 1191 994 1439 701 
Q 1688 409 2113 409 
Q 2538 409 2786 701 
Q 3034 994 3034 1497 
Q 3034 2003 2786 2293 
Q 2538 2584 2113 2584 
z
M 3366 4563 
L 3366 3988 
Q 3128 4100 2886 4159 
Q 2644 4219 2406 4219 
Q 1781 4219 1451 3797 
Q 1122 3375 1075 2522 
Q 1259 2794 1537 2939 
Q 1816 3084 2150 3084 
Q 2853 3084 3261 2657 
Q 3669 2231 3669 1497 
Q 3669 778 3244 343 
Q 2819 -91 2113 -91 
Q 1303 -91 875 529 
Q 447 1150 447 2328 
Q 447 3434 972 4092 
Q 1497 4750 2381 4750 
Q 2619 4750 2861 4703 
Q 3103 4656 3366 4563 
z
" transform="scale(0.015625)"/>
       </defs>
       <use xlink:href="#DejaVuSans-31"/>
       <use xlink:href="#DejaVuSans-2e" x="63.623047"/>
       <use xlink:href="#DejaVuSans-36" x="95.410156"/>
      </g>
     </g>
    </g>
    <g id="ytick_5">
     <g id="line2d_11">
      <g>
       <use xlink:href="#ma529032635" x="180" y="267.6" style="stroke: #000000; stroke-width: 0.8"/>
      </g>
     </g>
     <g id="text_12">
      <!-- 1.8 -->
      <g transform="translate(141.19375 275.198438)scale(0.2 -0.2)">
       <defs>
        <path id="DejaVuSans-38" d="M 2034 2216 
Q 1584 2216 1326 1975 
Q 1069 1734 1069 1313 
Q 1069 891 1326 650 
Q 1584 409 2034 409 
Q 2484 409 2743 651 
Q 3003 894 3003 1313 
Q 3003 1734 2745 1975 
Q 2488 2216 2034 2216 
z
M 1403 2484 
Q 997 2584 770 2862 
Q 544 3141 544 3541 
Q 544 4100 942 4425 
Q 1341 4750 2034 4750 
Q 2731 4750 3128 4425 
Q 3525 4100 3525 3541 
Q 3525 3141 3298 2862 
Q 3072 2584 2669 2484 
Q 3125 2378 3379 2068 
Q 3634 1759 3634 1313 
Q 3634 634 3220 271 
Q 2806 -91 2034 -91 
Q 1263 -91 848 271 
Q 434 634 434 1313 
Q 434 1759 690 2068 
Q 947 2378 1403 2484 
z
M 1172 3481 
Q 1172 3119 1398 2916 
Q 1625 2713 2034 2713 
Q 2441 2713 2670 2916 
Q 2900 3119 2900 3481 
Q 2900 3844 2670 4047 
Q 2441 4250 2034 4250 
Q 1625 4250 1398 4047 
Q 1172 3844 1172 3481 
z
" transform="scale(0.015625)"/>
       </defs>
       <use xlink:href="#DejaVuSans-31"/>
       <use xlink:href="#DejaVuSans-2e" x="63.623047"/>
       <use xlink:href="#DejaVuSans-38" x="95.410156"/>
      </g>
     </g>
    </g>
    <g id="ytick_6">
     <g id="line2d_12">
      <g>
       <use xlink:href="#ma529032635" x="180" y="177" style="stroke: #000000; stroke-width: 0.8"/>
      </g>
     </g>
     <g id="text_13">
      <!-- 2.0 -->
      <g transform="translate(141.19375 184.598438)scale(0.2 -0.2)">
       <use xlink:href="#DejaVuSans-32"/>
       <use xlink:href="#DejaVuSans-2e" x="63.623047"/>
       <use xlink:href="#DejaVuSans-30" x="95.410156"/>
      </g>
     </g>
    </g>
    <g id="ytick_7">
     <g id="line2d_13">
      <g>
       <use xlink:href="#ma529032635" x="180" y="86.4" style="stroke: #000000; stroke-width: 0.8"/>
      </g>
     </g>
     <g id="text_14">
      <!-- 2.2 -->
      <g transform="translate(141.19375 93.998437)scale(0.2 -0.2)">
       <use xlink:href="#DejaVuSans-32"/>
       <use xlink:href="#DejaVuSans-2e" x="63.623047"/>
       <use xlink:href="#DejaVuSans-32" x="95.410156"/>
      </g>
     </g>
    </g>
    <g id="text_15">
     <!-- train loss -->
     <g transform="translate(133.034375 403.96875)rotate(-90)scale(0.2 -0.2)">
      <defs>
       <path id="DejaVuSans-74" d="M 1172 4494 
L 1172 3500 
L 2356 3500 
L 2356 3053 
L 1172 3053 
L 1172 1153 
Q 1172 725 1289 603 
Q 1406 481 1766 481 
L 2356 481 
L 2356 0 
L 1766 0 
Q 1100 0 847 248 
Q 594 497 594 1153 
L 594 3053 
L 172 3053 
L 172 3500 
L 594 3500 
L 594 4494 
L 1172 4494 
z
" transform="scale(0.015625)"/>
       <path id="DejaVuSans-72" d="M 2631 2963 
Q 2534 3019 2420 3045 
Q 2306 3072 2169 3072 
Q 1681 3072 1420 2755 
Q 1159 2438 1159 1844 
L 1159 0 
L 581 0 
L 581 3500 
L 1159 3500 
L 1159 2956 
Q 1341 3275 1631 3429 
Q 1922 3584 2338 3584 
Q 2397 3584 2469 3576 
Q 2541 3569 2628 3553 
L 2631 2963 
z
" transform="scale(0.015625)"/>
       <path id="DejaVuSans-61" d="M 2194 1759 
Q 1497 1759 1228 1600 
Q 959 1441 959 1056 
Q 959 750 1161 570 
Q 1363 391 1709 391 
Q 2188 391 2477 730 
Q 2766 1069 2766 1631 
L 2766 1759 
L 2194 1759 
z
M 3341 1997 
L 3341 0 
L 2766 0 
L 2766 531 
Q 2569 213 2275 61 
Q 1981 -91 1556 -91 
Q 1019 -91 701 211 
Q 384 513 384 1019 
Q 384 1609 779 1909 
Q 1175 2209 1959 2209 
L 2766 2209 
L 2766 2266 
Q 2766 2663 2505 2880 
Q 2244 3097 1772 3097 
Q 1472 3097 1187 3025 
Q 903 2953 641 2809 
L 641 3341 
Q 956 3463 1253 3523 
Q 1550 3584 1831 3584 
Q 2591 3584 2966 3190 
Q 3341 2797 3341 1997 
z
" transform="scale(0.015625)"/>
       <path id="DejaVuSans-69" d="M 603 3500 
L 1178 3500 
L 1178 0 
L 603 0 
L 603 3500 
z
M 603 4863 
L 1178 4863 
L 1178 4134 
L 603 4134 
L 603 4863 
z
" transform="scale(0.015625)"/>
       <path id="DejaVuSans-6e" d="M 3513 2113 
L 3513 0 
L 2938 0 
L 2938 2094 
Q 2938 2591 2744 2837 
Q 2550 3084 2163 3084 
Q 1697 3084 1428 2787 
Q 1159 2491 1159 1978 
L 1159 0 
L 581 0 
L 581 3500 
L 1159 3500 
L 1159 2956 
Q 1366 3272 1645 3428 
Q 1925 3584 2291 3584 
Q 2894 3584 3203 3211 
Q 3513 2838 3513 2113 
z
" transform="scale(0.015625)"/>
       <path id="DejaVuSans-20" transform="scale(0.015625)"/>
       <path id="DejaVuSans-6c" d="M 603 4863 
L 1178 4863 
L 1178 0 
L 603 0 
L 603 4863 
z
" transform="scale(0.015625)"/>
       <path id="DejaVuSans-73" d="M 2834 3397 
L 2834 2853 
Q 2591 2978 2328 3040 
Q 2066 3103 1784 3103 
Q 1356 3103 1142 2972 
Q 928 2841 928 2578 
Q 928 2378 1081 2264 
Q 1234 2150 1697 2047 
L 1894 2003 
Q 2506 1872 2764 1633 
Q 3022 1394 3022 966 
Q 3022 478 2636 193 
Q 2250 -91 1575 -91 
Q 1294 -91 989 -36 
Q 684 19 347 128 
L 347 722 
Q 666 556 975 473 
Q 1284 391 1588 391 
Q 1994 391 2212 530 
Q 2431 669 2431 922 
Q 2431 1156 2273 1281 
Q 2116 1406 1581 1522 
L 1381 1569 
Q 847 1681 609 1914 
Q 372 2147 372 2553 
Q 372 3047 722 3315 
Q 1072 3584 1716 3584 
Q 2034 3584 2315 3537 
Q 2597 3491 2834 3397 
z
" transform="scale(0.015625)"/>
      </defs>
      <use xlink:href="#DejaVuSans-74"/>
      <use xlink:href="#DejaVuSans-72" x="39.208984"/>
      <use xlink:href="#DejaVuSans-61" x="80.322266"/>
      <use xlink:href="#DejaVuSans-69" x="141.601562"/>
      <use xlink:href="#DejaVuSans-6e" x="169.384766"/>
      <use xlink:href="#DejaVuSans-20" x="232.763672"/>
      <use xlink:href="#DejaVuSans-6c" x="264.550781"/>
      <use xlink:href="#DejaVuSans-6f" x="292.333984"/>
      <use xlink:href="#DejaVuSans-73" x="353.515625"/>
      <use xlink:href="#DejaVuSans-73" x="405.615234"/>
     </g>
    </g>
   </g>
   <g id="line2d_14">
    <path d="M 551.163329 -1 
L 559.44 104.508729 
L 563.904 104.757893 
L 568.368 89.840974 
L 572.832 33.401956 
L 577.296 39.493576 
L 581.76 93.003536 
L 586.224 128.274709 
L 590.688 108.13333 
L 595.152 132.323872 
L 599.616 173.883016 
L 604.08 205.60897 
L 608.544 163.234291 
L 613.008 147.629821 
L 617.472 136.38902 
L 621.936 182.525951 
L 626.4 150.886562 
L 630.864 218.306469 
L 635.328 246.604767 
L 639.792 256.917222 
L 644.256 264.143744 
L 648.72 252.918442 
L 653.184 268.557474 
L 657.648 261.03378 
L 662.112 256.728594 
L 666.576 258.215587 
L 671.04 271.601016 
L 675.504 278.160993 
L 679.968 271.537077 
L 684.432 280.419133 
L 688.896 269.680765 
L 693.36 275.801168 
L 697.824 283.771511 
L 702.288 293.173118 
L 706.752 274.675339 
L 711.216 280.629794 
L 715.68 269.365125 
L 724.608 285.593586 
L 729.072 289.502615 
L 733.536 279.448072 
L 738 286.97209 
L 742.464 296.53095 
L 746.928 282.134878 
L 751.392 295.812726 
L 755.856 286.241878 
L 760.32 284.695968 
L 764.784 298.083934 
L 769.248 294.151901 
L 773.712 289.446939 
L 778.176 295.866998 
L 782.64 293.022993 
L 787.104 282.868763 
L 791.568 313.417316 
L 796.032 297.572591 
L 800.496 297.052608 
L 804.96 301.89117 
L 809.424 308.241404 
L 813.888 297.921551 
L 818.352 304.286042 
L 822.816 326.749606 
L 827.28 304.09628 
L 831.744 298.38656 
L 836.208 308.080533 
L 840.672 314.583269 
L 845.136 310.14891 
L 849.6 305.927319 
L 854.064 309.672506 
L 858.528 320.408714 
L 862.992 314.284369 
L 867.456 316.829258 
L 871.92 316.548989 
L 876.384 315.201265 
L 880.848 309.522651 
L 885.312 328.70215 
L 889.776 311.399538 
L 894.24 302.958138 
L 898.704 328.141719 
L 903.168 307.178541 
L 907.632 324.940438 
L 912.096 313.738356 
L 916.56 327.051044 
L 921.024 310.051869 
L 925.488 316.927001 
L 929.952 314.742844 
L 934.416 318.474801 
L 938.88 327.553909 
L 943.344 328.354378 
L 947.808 306.43256 
L 952.272 324.118422 
L 956.736 312.5231 
L 961.2 312.127213 
L 965.664 314.378224 
L 970.128 316.30193 
L 974.592 313.83367 
L 979.056 325.738044 
L 983.52 326.111575 
L 987.984 332.0103 
L 992.448 335.014745 
L 996.912 315.978999 
L 1001.376 323.023589 
L 1005.84 327.718399 
L 1010.304 323.611399 
L 1014.768 326.445522 
L 1019.232 336.862255 
L 1023.696 325.169621 
L 1028.16 321.07488 
L 1032.624 336.211911 
L 1037.088 332.24996 
L 1041.552 323.626844 
L 1046.016 328.865019 
L 1050.48 315.420837 
L 1054.944 324.149095 
L 1059.408 334.996978 
L 1063.872 325.048603 
L 1068.336 319.227586 
L 1072.8 332.983521 
L 1077.264 326.425271 
L 1081.728 330.007805 
L 1086.192 336.640631 
L 1090.656 332.798187 
L 1095.12 327.044294 
L 1099.584 330.39705 
L 1104.048 331.828908 
L 1108.512 324.349712 
L 1112.976 333.696885 
L 1117.44 338.988306 
L 1121.904 332.035519 
L 1126.368 339.086535 
L 1130.832 338.217214 
L 1135.296 336.61498 
L 1139.76 330.33376 
L 1144.224 327.966645 
L 1148.688 342.569436 
L 1153.152 330.416383 
L 1157.616 331.917363 
L 1162.08 320.53983 
L 1166.544 343.257527 
L 1171.008 335.508969 
L 1175.472 332.391175 
L 1179.936 328.491272 
L 1184.4 340.386791 
L 1188.864 338.466054 
L 1193.328 348.68028 
L 1197.792 333.97926 
L 1202.256 335.073661 
L 1206.72 325.943953 
L 1211.184 333.054857 
L 1215.648 321.213719 
L 1220.112 329.107811 
L 1224.576 321.526173 
L 1229.04 323.752722 
L 1237.968 326.548395 
L 1242.432 325.847452 
L 1246.896 341.821511 
L 1251.36 344.058806 
L 1255.824 337.375488 
L 1260.288 341.144112 
L 1264.752 336.925923 
L 1269.216 346.455352 
L 1273.68 345.583655 
L 1278.144 328.658192 
L 1282.608 342.272912 
L 1287.072 337.363878 
L 1291.536 335.10779 
L 1291.536 335.10779 
" clip-path="url(#p366c0c276e)" style="fill: none; stroke: #1f77b4; stroke-width: 1.5; stroke-linecap: square"/>
   </g>
   <g id="line2d_15">
    <path d="M 328.78335 -1 
L 331.776 75.226788 
L 336.24 236.840322 
L 340.704 289.428146 
L 345.168 203.715721 
L 349.632 133.555545 
L 354.096 217.891573 
L 358.56 259.365394 
L 363.024 341.976712 
L 367.488 342.719561 
L 371.952 352.694613 
L 376.416 392.493135 
L 380.88 414.315374 
L 385.344 425.298748 
L 389.808 421.507929 
L 394.272 416.291948 
L 398.736 430.84684 
L 403.2 429.52925 
L 407.664 432.149525 
L 412.128 452.275783 
L 416.592 475.276341 
L 421.056 468.031405 
L 425.52 472.630469 
L 429.984 470.458084 
L 434.448 481.075325 
L 438.912 477.539503 
L 443.376 469.273932 
L 447.84 478.974871 
L 452.304 480.644877 
L 456.768 484.26073 
L 461.232 480.72291 
L 465.696 484.880671 
L 470.16 494.960918 
L 474.624 503.909882 
L 479.088 495.167691 
L 483.552 497.559485 
L 488.016 491.181332 
L 492.48 499.397869 
L 496.944 487.688009 
L 501.408 514.066326 
L 505.872 501.974295 
L 510.336 507.466441 
L 514.8 503.566431 
L 519.264 500.238029 
L 523.728 505.293462 
L 528.192 516.880198 
L 532.656 512.320232 
L 537.12 509.305095 
L 541.584 514.16974 
L 546.048 522.227025 
L 550.512 511.049245 
L 554.976 521.125335 
L 559.44 523.140196 
L 563.904 522.703699 
L 568.368 517.847155 
L 572.832 512.577334 
L 577.296 524.112499 
L 581.76 523.345673 
L 586.224 518.946578 
L 590.688 522.087539 
L 595.152 534.925767 
L 599.616 526.627579 
L 604.08 524.296699 
L 608.544 528.08498 
L 613.008 538.357798 
L 617.472 516.374147 
L 621.936 520.225988 
L 626.4 533.993101 
L 630.864 529.564629 
L 635.328 535.057639 
L 639.792 538.286623 
L 644.256 529.634885 
L 648.72 536.376309 
L 653.184 531.464791 
L 657.648 535.172555 
L 662.112 539.57327 
L 666.576 538.958406 
L 671.04 541.66827 
L 675.504 539.355319 
L 679.968 536.825334 
L 684.432 543.392872 
L 688.896 544.907839 
L 693.36 540.124953 
L 697.824 528.584388 
L 702.288 534.113579 
L 706.752 542.492986 
L 711.216 530.593418 
L 715.68 530.620418 
L 720.144 544.981767 
L 724.608 537.904722 
L 729.072 542.901456 
L 733.536 549.401005 
L 738 541.249702 
L 742.464 541.475862 
L 746.928 539.714377 
L 751.392 540.010901 
L 755.856 535.542683 
L 760.32 538.356987 
L 764.784 544.743025 
L 769.248 539.123489 
L 773.712 542.84686 
L 778.176 540.988712 
L 782.64 541.100171 
L 787.104 534.883861 
L 791.568 543.229301 
L 796.032 543.552555 
L 800.496 549.865529 
L 804.96 542.194626 
L 809.424 543.914206 
L 813.888 540.203687 
L 818.352 544.469776 
L 822.816 545.289794 
L 827.28 544.892178 
L 831.744 549.472126 
L 836.208 545.449585 
L 840.672 546.706045 
L 845.136 547.196381 
L 849.6 544.99138 
L 854.064 549.386155 
L 858.528 531.921862 
L 862.992 544.363987 
L 867.456 545.045489 
L 871.92 540.731825 
L 876.384 546.481344 
L 880.848 551.21012 
L 885.312 554.411617 
L 889.776 546.24595 
L 894.24 547.109277 
L 898.704 543.021826 
L 903.168 543.945635 
L 907.632 541.581489 
L 912.096 537.626883 
L 916.56 544.696638 
L 921.024 541.921647 
L 925.488 542.195112 
L 929.952 544.047968 
L 934.416 545.773272 
L 938.88 553.149109 
L 943.344 539.687322 
L 947.808 543.737134 
L 952.272 547.365731 
L 956.736 545.78067 
L 961.2 547.539077 
L 965.664 543.873866 
L 970.128 547.642868 
L 974.592 553.516591 
L 979.056 547.119051 
L 983.52 544.878624 
L 987.984 551.804788 
L 992.448 552.48116 
L 996.912 544.934354 
L 1001.376 545.344713 
L 1005.84 550.238897 
L 1010.304 542.821425 
L 1014.768 553.350482 
L 1019.232 541.906904 
L 1023.696 549.150707 
L 1028.16 544.818466 
L 1032.624 545.834888 
L 1037.088 549.897552 
L 1041.552 542.440604 
L 1046.016 547.166572 
L 1050.48 547.86757 
L 1054.944 551.267038 
L 1059.408 552.76872 
L 1063.872 553.821107 
L 1068.336 554.532797 
L 1072.8 542.331845 
L 1077.264 543.704517 
L 1081.728 552.865113 
L 1086.192 549.383131 
L 1090.656 547.759998 
L 1095.12 549.213781 
L 1099.584 542.954917 
L 1104.048 551.085538 
L 1108.512 543.686156 
L 1112.976 546.370316 
L 1117.44 545.945592 
L 1121.904 548.04232 
L 1126.368 547.986806 
L 1130.832 545.407464 
L 1135.296 551.308835 
L 1139.76 544.434945 
L 1144.224 555.730935 
L 1148.688 544.313441 
L 1153.152 556.699188 
L 1157.616 552.037374 
L 1162.08 551.982724 
L 1166.544 541.77433 
L 1171.008 551.897779 
L 1175.472 550.609998 
L 1179.936 553.665366 
L 1184.4 546.345853 
L 1188.864 541.969384 
L 1193.328 546.930855 
L 1197.792 541.742145 
L 1202.256 547.173539 
L 1206.72 549.864017 
L 1211.184 547.541075 
L 1215.648 560.870935 
L 1220.112 546.32517 
L 1224.576 538.974552 
L 1229.04 551.069931 
L 1233.504 548.958946 
L 1237.968 553.687507 
L 1242.432 546.00575 
L 1246.896 545.742005 
L 1251.36 555.057263 
L 1255.824 549.414074 
L 1260.288 550.785666 
L 1264.752 547.04253 
L 1269.216 548.531738 
L 1273.68 552.821102 
L 1278.144 555.566014 
L 1282.608 541.754997 
L 1287.072 553.25155 
L 1291.536 552.83066 
L 1291.536 552.83066 
" clip-path="url(#p366c0c276e)" style="fill: none; stroke: #ff7f0e; stroke-width: 1.5; stroke-linecap: square"/>
   </g>
   <g id="line2d_16">
    <path d="M 295.701373 -1 
L 296.064 0.987803 
L 300.528 50.420842 
L 304.992 78.304459 
L 309.456 121.254041 
L 313.92 150.466104 
L 318.384 150.626165 
L 322.848 169.882238 
L 327.312 196.776488 
L 331.776 209.480684 
L 336.24 223.358554 
L 340.704 256.721303 
L 345.168 245.480179 
L 349.632 274.783018 
L 354.096 268.884131 
L 358.56 290.468815 
L 363.024 303.177979 
L 367.488 292.642442 
L 371.952 296.107792 
L 376.416 300.183903 
L 380.88 291.208586 
L 385.344 330.708749 
L 389.808 299.2838 
L 394.272 322.252174 
L 398.736 327.242373 
L 403.2 284.428011 
L 407.664 273.716752 
L 412.128 282.628509 
L 416.592 321.703515 
L 421.056 340.552198 
L 425.52 365.029166 
L 429.984 362.138233 
L 434.448 372.184135 
L 438.912 386.535008 
L 443.376 387.506932 
L 447.84 398.474538 
L 452.304 400.749418 
L 456.768 411.79268 
L 461.232 414.199432 
L 465.696 427.599117 
L 470.16 428.04636 
L 474.624 436.294812 
L 479.088 429.904184 
L 483.552 426.075996 
L 488.016 440.996372 
L 492.48 435.57999 
L 496.944 447.475886 
L 501.408 448.004024 
L 505.872 450.239969 
L 510.336 446.673582 
L 514.8 465.761331 
L 519.264 469.764593 
L 523.728 453.925862 
L 528.192 470.056581 
L 532.656 480.152003 
L 537.12 464.647813 
L 541.584 465.826943 
L 546.048 468.659878 
L 550.512 461.932927 
L 554.976 467.803193 
L 559.44 482.839673 
L 563.904 472.489254 
L 568.368 475.695395 
L 572.832 485.128647 
L 577.296 484.878079 
L 581.76 493.561462 
L 586.224 485.244103 
L 590.688 490.512735 
L 595.152 497.385492 
L 599.616 485.430949 
L 604.08 491.721134 
L 608.544 496.45072 
L 613.008 492.077222 
L 617.472 498.019743 
L 621.936 497.464334 
L 626.4 494.11255 
L 630.864 494.468098 
L 635.328 503.029761 
L 644.256 500.274642 
L 648.72 505.153976 
L 653.184 501.775893 
L 657.648 501.02975 
L 662.112 508.170625 
L 666.576 498.611927 
L 671.04 504.827751 
L 675.504 508.67997 
L 679.968 511.557186 
L 684.432 503.891359 
L 688.896 517.004133 
L 693.36 514.406214 
L 697.824 510.663564 
L 702.288 497.03313 
L 706.752 503.753817 
L 711.216 515.830457 
L 715.68 509.314761 
L 720.144 515.151222 
L 724.608 506.652202 
L 729.072 514.17838 
L 733.536 517.543881 
L 738 511.691327 
L 742.464 510.028773 
L 746.928 506.974215 
L 751.392 508.827233 
L 755.856 505.744161 
L 760.32 498.844944 
L 764.784 514.510923 
L 769.248 501.977697 
L 773.712 516.377172 
L 778.176 517.510345 
L 782.64 510.554859 
L 787.104 514.298426 
L 791.568 514.229574 
L 796.032 521.457446 
L 800.496 502.373315 
L 804.96 509.161018 
L 809.424 506.421992 
L 813.888 512.287507 
L 818.352 519.925468 
L 822.816 517.840621 
L 827.28 513.291994 
L 831.744 520.455712 
L 836.208 515.658137 
L 840.672 519.822865 
L 845.136 517.314427 
L 849.6 519.667016 
L 854.064 514.631995 
L 858.528 519.889341 
L 862.992 500.33372 
L 867.456 521.574738 
L 871.92 519.233111 
L 876.384 516.165376 
L 880.848 523.089488 
L 885.312 510.804401 
L 889.776 529.584448 
L 894.24 509.400786 
L 898.704 524.38456 
L 903.168 519.681434 
L 907.632 520.832969 
L 912.096 515.566226 
L 916.56 512.059403 
L 921.024 516.154144 
L 925.488 525.957578 
L 929.952 516.126279 
L 934.416 516.645561 
L 938.88 514.111364 
L 943.344 514.722232 
L 947.808 526.746599 
L 952.272 522.592672 
L 956.736 515.410323 
L 961.2 522.148507 
L 965.664 512.556274 
L 970.128 522.346045 
L 974.592 511.703693 
L 979.056 519.625218 
L 983.52 522.552656 
L 987.984 527.234181 
L 992.448 518.202865 
L 996.912 511.803326 
L 1001.376 519.625164 
L 1005.84 516.131247 
L 1010.304 517.133035 
L 1014.768 521.498325 
L 1019.232 523.534301 
L 1023.696 523.496014 
L 1028.16 522.319963 
L 1032.624 526.141346 
L 1037.088 520.419585 
L 1041.552 509.059494 
L 1046.016 525.587396 
L 1050.48 514.928789 
L 1054.944 522.105251 
L 1059.408 527.588271 
L 1063.872 523.9101 
L 1068.336 528.032706 
L 1072.8 516.88171 
L 1077.264 520.871472 
L 1081.728 519.15092 
L 1086.192 520.28566 
L 1090.656 517.925295 
L 1095.12 525.959144 
L 1099.584 507.599286 
L 1104.048 518.268801 
L 1108.512 521.10665 
L 1112.976 523.57383 
L 1117.44 523.444712 
L 1121.904 522.516961 
L 1126.368 523.865062 
L 1130.832 526.012606 
L 1135.296 530.573005 
L 1139.76 512.15936 
L 1144.224 520.839071 
L 1148.688 534.334879 
L 1153.152 522.930777 
L 1157.616 522.620483 
L 1162.08 515.461247 
L 1166.544 524.044618 
L 1171.008 522.865975 
L 1175.472 525.298972 
L 1179.936 528.92028 
L 1184.4 526.534912 
L 1188.864 517.468062 
L 1193.328 521.242302 
L 1197.792 527.831711 
L 1202.256 533.248416 
L 1206.72 526.046357 
L 1211.184 526.67672 
L 1215.648 518.95268 
L 1220.112 523.33336 
L 1224.576 527.967526 
L 1229.04 519.27237 
L 1233.504 518.432264 
L 1237.968 529.509277 
L 1242.432 514.170442 
L 1246.896 533.117462 
L 1251.36 519.114145 
L 1255.824 518.035189 
L 1260.288 528.616087 
L 1264.752 525.695184 
L 1269.216 520.438053 
L 1273.68 520.348897 
L 1278.144 524.93851 
L 1282.608 521.251321 
L 1287.072 521.437897 
L 1291.536 524.609315 
L 1291.536 524.609315 
" clip-path="url(#p366c0c276e)" style="fill: none; stroke: #2ca02c; stroke-width: 1.5; stroke-linecap: square"/>
   </g>
   <g id="line2d_17">
    <path d="M 293.747485 -1 
L 296.064 34.531242 
L 300.528 52.075457 
L 304.992 94.395378 
L 309.456 114.942202 
L 313.92 139.686911 
L 318.384 157.372719 
L 322.848 162.827981 
L 327.312 194.904678 
L 331.776 214.485733 
L 336.24 225.238465 
L 340.704 247.951626 
L 345.168 251.814321 
L 349.632 257.080739 
L 354.096 264.459006 
L 358.56 265.733827 
L 363.024 282.212155 
L 367.488 279.053049 
L 371.952 290.799252 
L 376.416 309.067038 
L 380.88 320.029405 
L 385.344 312.413476 
L 389.808 331.737969 
L 394.272 330.063427 
L 398.736 333.890643 
L 403.2 297.221849 
L 407.664 317.276501 
L 412.128 318.963571 
L 416.592 320.48815 
L 421.056 338.772785 
L 425.52 347.205275 
L 429.984 351.836362 
L 434.448 364.135652 
L 438.912 365.899459 
L 443.376 374.683231 
L 447.84 370.272417 
L 452.304 360.012398 
L 456.768 383.508315 
L 461.232 383.810779 
L 465.696 379.444733 
L 470.16 397.064605 
L 474.624 390.18283 
L 479.088 393.086723 
L 483.552 390.60615 
L 488.016 400.531197 
L 492.48 397.82927 
L 496.944 408.978915 
L 501.408 396.913237 
L 505.872 410.434048 
L 510.336 411.679006 
L 514.8 408.642376 
L 519.264 417.094415 
L 523.728 424.508269 
L 528.192 416.196095 
L 532.656 433.619833 
L 541.584 430.819245 
L 546.048 432.109942 
L 550.512 437.408869 
L 554.976 427.902499 
L 559.44 437.668456 
L 563.904 447.841695 
L 568.368 444.875645 
L 572.832 444.534732 
L 577.296 448.605388 
L 581.76 453.73556 
L 586.224 447.395964 
L 590.688 448.152097 
L 595.152 448.348988 
L 599.616 455.475228 
L 604.08 448.138111 
L 608.544 446.832563 
L 613.008 457.118989 
L 617.472 473.313322 
L 621.936 456.100407 
L 626.4 461.426714 
L 630.864 474.183129 
L 635.328 475.179192 
L 639.792 468.459045 
L 644.256 468.356496 
L 648.72 478.095398 
L 653.184 472.592451 
L 657.648 480.221719 
L 662.112 472.703803 
L 666.576 485.673147 
L 671.04 481.769681 
L 675.504 475.269267 
L 679.968 474.56881 
L 688.896 478.051062 
L 693.36 481.110319 
L 697.824 480.528287 
L 702.288 477.37766 
L 706.752 474.474306 
L 711.216 480.311848 
L 715.68 484.508058 
L 720.144 473.828607 
L 724.608 485.847195 
L 729.072 480.246398 
L 733.536 475.156295 
L 738 479.981249 
L 742.464 475.905462 
L 746.928 486.045598 
L 751.392 481.813314 
L 755.856 486.922857 
L 760.32 489.292025 
L 764.784 485.16202 
L 769.248 481.534611 
L 773.712 486.076703 
L 778.176 482.016739 
L 782.64 481.988982 
L 787.104 485.354807 
L 791.568 490.444423 
L 796.032 480.811257 
L 800.496 485.196041 
L 804.96 485.216778 
L 809.424 484.180753 
L 813.888 482.326547 
L 818.352 487.899804 
L 822.816 476.025454 
L 827.28 481.057181 
L 831.744 489.983464 
L 836.208 482.371693 
L 840.672 482.558701 
L 845.136 493.87802 
L 849.6 480.61469 
L 854.064 483.838706 
L 858.528 488.299903 
L 862.992 484.055685 
L 867.456 498.404452 
L 871.92 485.037924 
L 876.384 481.511012 
L 880.848 492.780865 
L 885.312 493.259483 
L 889.776 492.725028 
L 894.24 495.43797 
L 898.704 488.756327 
L 903.168 490.915157 
L 907.632 493.779035 
L 912.096 485.303289 
L 916.56 484.208132 
L 921.024 488.203618 
L 925.488 489.929354 
L 929.952 489.563168 
L 934.416 487.234826 
L 938.88 491.353544 
L 943.344 486.8843 
L 947.808 485.096408 
L 952.272 497.33662 
L 956.736 492.098607 
L 961.2 483.774066 
L 965.664 497.421295 
L 970.128 487.601606 
L 974.592 493.678321 
L 979.056 487.928101 
L 983.52 488.155179 
L 987.984 493.626588 
L 992.448 489.252279 
L 996.912 502.969279 
L 1001.376 493.03003 
L 1005.84 490.796245 
L 1010.304 488.939447 
L 1014.768 491.917863 
L 1019.232 488.659501 
L 1023.696 488.140274 
L 1028.16 493.91809 
L 1032.624 486.351356 
L 1037.088 483.959184 
L 1041.552 497.598421 
L 1046.016 498.376317 
L 1050.48 486.197883 
L 1054.944 502.036883 
L 1059.408 492.528191 
L 1063.872 490.555991 
L 1068.336 498.789701 
L 1072.8 488.951921 
L 1077.264 494.334551 
L 1081.728 495.022372 
L 1086.192 486.636486 
L 1090.656 494.828074 
L 1095.12 490.976881 
L 1099.584 489.369679 
L 1104.048 486.398068 
L 1108.512 496.661435 
L 1112.976 493.639926 
L 1117.44 502.487852 
L 1121.904 491.734526 
L 1126.368 485.758254 
L 1130.832 501.182953 
L 1135.296 498.022821 
L 1139.76 492.96593 
L 1144.224 486.39229 
L 1148.688 493.316347 
L 1153.152 495.861831 
L 1157.616 488.769503 
L 1162.08 482.533536 
L 1166.544 497.900777 
L 1171.008 498.04507 
L 1175.472 494.472742 
L 1179.936 496.80535 
L 1184.4 496.760313 
L 1193.328 487.585405 
L 1197.792 488.296177 
L 1202.256 495.745673 
L 1206.72 502.709854 
L 1211.184 502.865271 
L 1215.648 488.918602 
L 1220.112 498.505705 
L 1224.576 498.63909 
L 1229.04 492.199374 
L 1233.504 496.219377 
L 1237.968 489.433887 
L 1242.432 493.252031 
L 1246.896 498.930375 
L 1251.36 493.106334 
L 1255.824 502.770876 
L 1260.288 487.711932 
L 1264.752 499.501228 
L 1269.216 496.714519 
L 1273.68 497.174075 
L 1278.144 498.447167 
L 1282.608 499.046425 
L 1287.072 498.989183 
L 1291.536 496.42966 
L 1291.536 496.42966 
" clip-path="url(#p366c0c276e)" style="fill: none; stroke: #d62728; stroke-width: 1.5; stroke-linecap: square"/>
   </g>
   <g id="line2d_18">
    <path d="M 271.885191 -1 
L 273.744 23.608512 
L 278.208 38.755371 
L 282.672 72.282178 
L 287.136 99.103796 
L 291.6 131.701663 
L 296.064 135.153891 
L 300.528 157.967171 
L 304.992 169.24588 
L 309.456 185.397227 
L 313.92 206.930718 
L 318.384 210.299135 
L 322.848 216.013012 
L 327.312 234.130511 
L 331.776 232.039075 
L 336.24 239.333855 
L 340.704 263.714321 
L 345.168 272.223224 
L 349.632 279.685302 
L 354.096 282.899112 
L 358.56 290.269549 
L 363.024 294.758341 
L 367.488 301.023145 
L 371.952 313.971374 
L 376.416 311.588977 
L 380.88 332.999181 
L 385.344 320.019037 
L 389.808 339.903799 
L 394.272 329.174557 
L 398.736 344.038555 
L 403.2 318.678334 
L 407.664 348.799246 
L 412.128 362.068301 
L 416.592 367.721912 
L 421.056 377.815336 
L 425.52 375.293344 
L 429.984 383.61378 
L 434.448 392.548703 
L 438.912 397.669587 
L 443.376 391.871521 
L 447.84 395.821213 
L 452.304 404.209098 
L 456.768 403.925102 
L 461.232 405.018531 
L 465.696 405.611471 
L 470.16 410.340355 
L 474.624 407.985768 
L 479.088 419.213878 
L 483.552 417.846606 
L 488.016 415.32213 
L 492.48 420.39803 
L 496.944 415.313274 
L 501.408 418.491928 
L 505.872 427.825276 
L 510.336 416.202467 
L 514.8 440.955438 
L 519.264 428.630821 
L 523.728 428.679045 
L 528.192 444.07037 
L 532.656 441.882865 
L 537.12 437.686817 
L 541.584 431.592227 
L 546.048 441.235708 
L 550.512 438.331112 
L 554.976 434.02571 
L 559.44 438.9301 
L 563.904 447.410652 
L 568.368 451.785717 
L 572.832 456.83764 
L 577.296 455.762734 
L 581.76 450.088926 
L 586.224 450.032548 
L 590.688 455.834178 
L 595.152 453.528625 
L 599.616 467.936416 
L 604.08 465.575997 
L 608.544 470.643256 
L 613.008 460.913696 
L 617.472 463.663468 
L 621.936 475.158671 
L 626.4 447.913517 
L 630.864 465.874789 
L 635.328 463.208395 
L 639.792 470.57111 
L 644.256 456.096573 
L 648.72 462.04417 
L 653.184 467.152147 
L 657.648 476.598144 
L 662.112 482.216546 
L 666.576 468.937123 
L 671.04 470.285656 
L 675.504 482.519388 
L 679.968 478.324365 
L 684.432 476.136482 
L 688.896 479.813411 
L 693.36 481.030396 
L 697.824 471.236196 
L 702.288 473.061781 
L 706.752 471.29657 
L 711.216 471.774378 
L 715.68 470.009437 
L 720.144 482.218328 
L 724.608 485.864206 
L 729.072 481.815528 
L 733.536 485.217588 
L 738 467.618075 
L 742.464 478.205615 
L 746.928 475.077345 
L 751.392 474.170762 
L 755.856 464.243502 
L 760.32 479.044263 
L 764.784 468.351041 
L 769.248 480.358829 
L 773.712 481.660165 
L 778.176 473.663901 
L 782.64 481.21573 
L 787.104 479.993399 
L 791.568 482.992822 
L 796.032 486.223966 
L 800.496 477.724135 
L 804.96 470.991514 
L 809.424 486.542577 
L 813.888 477.494574 
L 818.352 493.945144 
L 822.816 478.911419 
L 827.28 479.098103 
L 831.744 489.095728 
L 836.208 484.49148 
L 840.672 481.710279 
L 845.136 480.702983 
L 849.6 474.945094 
L 854.064 470.768108 
L 858.528 478.327821 
L 862.992 484.404969 
L 867.456 479.224684 
L 871.92 481.487359 
L 876.384 487.928533 
L 880.848 484.893739 
L 885.312 478.247305 
L 889.776 479.403159 
L 894.24 496.667538 
L 898.704 481.854626 
L 903.168 485.180327 
L 907.632 478.371779 
L 912.096 485.923824 
L 916.56 485.031282 
L 921.024 487.950458 
L 925.488 487.968224 
L 929.952 486.906927 
L 934.416 483.234588 
L 938.88 487.407146 
L 943.344 493.054817 
L 947.808 482.109298 
L 952.272 490.635266 
L 956.736 491.934873 
L 961.2 479.632019 
L 965.664 491.458685 
L 970.128 494.070753 
L 974.592 488.432316 
L 979.056 480.162587 
L 983.52 487.345853 
L 987.984 491.222805 
L 992.448 478.469576 
L 996.912 482.655472 
L 1001.376 487.410278 
L 1005.84 487.501433 
L 1010.304 488.666738 
L 1014.768 497.740229 
L 1019.232 490.668855 
L 1023.696 487.136704 
L 1028.16 493.633608 
L 1032.624 492.005939 
L 1037.088 482.827522 
L 1041.552 477.664841 
L 1046.016 483.816997 
L 1050.48 491.240896 
L 1054.944 484.837955 
L 1059.408 487.146965 
L 1063.872 486.945808 
L 1068.336 494.541 
L 1072.8 483.105955 
L 1077.264 490.786579 
L 1081.728 493.15769 
L 1086.192 490.050372 
L 1090.656 489.758384 
L 1095.12 490.117442 
L 1099.584 482.754404 
L 1104.048 489.914773 
L 1108.512 494.78012 
L 1112.976 491.977265 
L 1117.44 498.008186 
L 1121.904 490.425415 
L 1126.368 495.861939 
L 1130.832 497.524762 
L 1135.296 486.405088 
L 1139.76 487.126012 
L 1144.224 488.775119 
L 1148.688 498.509809 
L 1153.152 488.859956 
L 1157.616 493.498819 
L 1162.08 485.85859 
L 1166.544 487.654636 
L 1171.008 491.590666 
L 1175.472 490.775454 
L 1179.936 491.261579 
L 1184.4 497.822312 
L 1188.864 491.846202 
L 1193.328 489.258003 
L 1197.792 497.920488 
L 1202.256 488.897595 
L 1206.72 481.943405 
L 1211.184 499.796996 
L 1215.648 492.495844 
L 1220.112 478.762266 
L 1224.576 491.129436 
L 1229.04 481.878926 
L 1233.504 496.416159 
L 1237.968 497.64308 
L 1242.432 492.512422 
L 1246.896 493.245443 
L 1251.36 490.926065 
L 1255.824 494.407508 
L 1260.288 487.227643 
L 1264.752 490.850355 
L 1269.216 493.883474 
L 1273.68 496.474589 
L 1278.144 486.582538 
L 1282.608 488.002299 
L 1287.072 483.353986 
L 1291.536 494.936186 
L 1291.536 494.936186 
" clip-path="url(#p366c0c276e)" style="fill: none; stroke: #9467bd; stroke-width: 1.5; stroke-linecap: square"/>
   </g>
   <g id="line2d_19">
    <path d="M 290.601701 -1 
L 291.6 7.141849 
L 296.064 59.578144 
L 300.528 79.224974 
L 304.992 108.682745 
L 309.456 129.333468 
L 313.92 141.920749 
L 318.384 161.019461 
L 322.848 180.935814 
L 327.312 191.372311 
L 331.776 185.207573 
L 336.24 223.77156 
L 340.704 219.230764 
L 345.168 234.472072 
L 349.632 236.749923 
L 354.096 251.744659 
L 358.56 255.516037 
L 363.024 264.138398 
L 367.488 282.150377 
L 371.952 272.690772 
L 376.416 280.884142 
L 380.88 293.604106 
L 385.344 296.115406 
L 389.808 309.150309 
L 394.272 303.696288 
L 398.736 320.58422 
L 403.2 303.079696 
L 407.664 308.101486 
L 412.128 327.867336 
L 416.592 329.0746 
L 421.056 332.095083 
L 425.52 336.033759 
L 429.984 342.350999 
L 434.448 340.485452 
L 438.912 347.550725 
L 443.376 346.014859 
L 447.84 350.570722 
L 452.304 350.344616 
L 456.768 354.153688 
L 461.232 358.474966 
L 465.696 360.953487 
L 470.16 376.648789 
L 474.624 361.883453 
L 479.088 376.990026 
L 483.552 372.029744 
L 488.016 371.510247 
L 492.48 374.550063 
L 496.944 376.841467 
L 501.408 377.910163 
L 505.872 379.326685 
L 510.336 391.444474 
L 514.8 384.959397 
L 519.264 393.995682 
L 523.728 392.846847 
L 528.192 381.813036 
L 532.656 402.778644 
L 537.12 402.906574 
L 541.584 395.814787 
L 546.048 403.474133 
L 550.512 401.904031 
L 554.976 410.138334 
L 559.44 413.119666 
L 563.904 410.104367 
L 568.368 409.724518 
L 572.832 408.759074 
L 577.296 418.128334 
L 581.76 421.451659 
L 586.224 415.567514 
L 590.688 425.515241 
L 595.152 422.550326 
L 599.616 415.292321 
L 604.08 427.697508 
L 608.544 436.258199 
L 613.008 424.393732 
L 617.472 431.304937 
L 621.936 438.60771 
L 626.4 425.36328 
L 630.864 433.796148 
L 635.328 426.54187 
L 639.792 435.200411 
L 644.256 442.948861 
L 648.72 437.202312 
L 653.184 441.390693 
L 657.648 431.920126 
L 662.112 440.120192 
L 666.576 444.495473 
L 671.04 440.281388 
L 675.504 451.428495 
L 679.968 455.493859 
L 684.432 444.8973 
L 688.896 439.224302 
L 693.36 447.025133 
L 697.824 441.571221 
L 702.288 447.875986 
L 706.752 441.444209 
L 711.216 450.885669 
L 715.68 451.909651 
L 720.144 441.530827 
L 724.608 438.832681 
L 729.072 450.007329 
L 733.536 443.343992 
L 738 447.624607 
L 742.464 443.762236 
L 746.928 449.96996 
L 751.392 452.35225 
L 755.856 446.313498 
L 760.32 454.750146 
L 764.784 446.039492 
L 769.248 453.457073 
L 773.712 447.166024 
L 778.176 455.124325 
L 782.64 451.35894 
L 791.568 450.76195 
L 796.032 451.505447 
L 800.496 449.899488 
L 804.96 446.469185 
L 809.424 455.498773 
L 813.888 452.977969 
L 818.352 446.721049 
L 822.816 449.559168 
L 827.28 455.326075 
L 831.744 461.841015 
L 836.208 454.890821 
L 840.672 459.328797 
L 845.136 449.518451 
L 849.6 449.635041 
L 854.064 462.449292 
L 862.992 454.52188 
L 867.456 460.964242 
L 871.92 457.047221 
L 876.384 462.026458 
L 880.848 466.491597 
L 885.312 468.308758 
L 889.776 460.949014 
L 894.24 461.87077 
L 898.704 458.672837 
L 903.168 458.999116 
L 907.632 454.201272 
L 912.096 460.631807 
L 916.56 455.648034 
L 921.024 461.449718 
L 925.488 462.57544 
L 929.952 459.732893 
L 934.416 461.731932 
L 938.88 459.349318 
L 943.344 453.326226 
L 947.808 457.219919 
L 952.272 457.720137 
L 956.736 462.600929 
L 961.2 459.410394 
L 965.664 457.959906 
L 970.128 459.078823 
L 974.592 464.288377 
L 979.056 460.430488 
L 983.52 451.226258 
L 987.984 456.490516 
L 992.448 458.474651 
L 996.912 455.391634 
L 1001.376 461.967326 
L 1005.84 457.201828 
L 1010.304 457.308914 
L 1014.768 462.226534 
L 1019.232 455.851621 
L 1023.696 464.762135 
L 1028.16 465.192854 
L 1032.624 454.706405 
L 1037.088 458.701242 
L 1041.552 461.803322 
L 1046.016 465.865986 
L 1050.48 465.989974 
L 1054.944 476.694429 
L 1059.408 459.149781 
L 1063.872 457.085994 
L 1068.336 458.494253 
L 1072.8 462.63846 
L 1077.264 468.529409 
L 1081.728 459.577422 
L 1086.192 460.811417 
L 1090.656 466.453688 
L 1095.12 444.333467 
L 1099.584 457.602792 
L 1104.048 466.578864 
L 1108.512 467.131519 
L 1112.976 473.13787 
L 1117.44 458.748764 
L 1121.904 468.794234 
L 1126.368 467.676721 
L 1130.832 469.44987 
L 1135.296 464.450383 
L 1139.76 473.183933 
L 1144.224 461.581429 
L 1148.688 460.78555 
L 1153.152 466.604191 
L 1157.616 455.16191 
L 1162.08 464.855774 
L 1166.544 456.941485 
L 1171.008 461.30818 
L 1175.472 468.519905 
L 1179.936 469.418279 
L 1184.4 467.714792 
L 1188.864 475.098891 
L 1193.328 460.314708 
L 1197.792 460.846626 
L 1206.72 469.91812 
L 1211.184 458.277274 
L 1215.648 463.772714 
L 1220.112 474.285516 
L 1224.576 461.732688 
L 1229.04 460.996049 
L 1233.504 464.908156 
L 1237.968 464.992399 
L 1242.432 474.262349 
L 1246.896 463.412846 
L 1251.36 475.348272 
L 1255.824 464.465179 
L 1260.288 464.403131 
L 1264.752 473.116053 
L 1269.216 465.599055 
L 1273.68 468.066452 
L 1278.144 460.762491 
L 1282.608 463.699542 
L 1287.072 464.787084 
L 1291.536 467.65863 
L 1291.536 467.65863 
" clip-path="url(#p366c0c276e)" style="fill: none; stroke: #8c564b; stroke-width: 1.5; stroke-linecap: square"/>
   </g>
   <g id="line2d_20">
    <path d="M 277.342935 -1 
L 278.208 9.464574 
L 282.672 34.82944 
L 287.136 67.310771 
L 291.6 76.895012 
L 296.064 90.789677 
L 300.528 115.666366 
L 304.992 128.518581 
L 309.456 129.695712 
L 313.92 172.141889 
L 318.384 158.136952 
L 322.848 177.292204 
L 327.312 180.359668 
L 331.776 200.838234 
L 336.24 193.707781 
L 340.704 221.586863 
L 345.168 222.953055 
L 349.632 233.255196 
L 354.096 231.329005 
L 358.56 234.306341 
L 363.024 238.898547 
L 367.488 250.685521 
L 371.952 266.373533 
L 376.416 268.834449 
L 380.88 265.166646 
L 385.344 278.721694 
L 389.808 289.591124 
L 394.272 293.336581 
L 398.736 287.770723 
L 403.2 263.472771 
L 407.664 310.91498 
L 412.128 319.142533 
L 416.592 319.366533 
L 421.056 326.954327 
L 425.52 329.185628 
L 429.984 334.31742 
L 434.448 338.844445 
L 438.912 328.929875 
L 443.376 354.372179 
L 447.84 345.928834 
L 452.304 344.371206 
L 456.768 353.552972 
L 461.232 349.420267 
L 465.696 348.621634 
L 470.16 347.303342 
L 474.624 363.447885 
L 479.088 363.252506 
L 483.552 375.152129 
L 488.016 376.509518 
L 492.48 374.761966 
L 496.944 368.337911 
L 501.408 369.431069 
L 505.872 376.989 
L 510.336 375.265857 
L 514.8 374.570907 
L 519.264 375.977438 
L 523.728 388.050137 
L 528.192 384.746684 
L 532.656 385.349776 
L 537.12 388.610513 
L 541.584 392.168423 
L 546.048 394.362894 
L 550.512 396.913453 
L 554.976 403.9271 
L 559.44 394.593806 
L 563.904 395.370028 
L 568.368 401.217992 
L 572.832 400.005381 
L 577.296 412.970999 
L 581.76 406.804425 
L 586.224 407.123953 
L 590.688 391.174627 
L 595.152 412.892156 
L 599.616 415.967937 
L 604.08 406.783634 
L 608.544 407.300053 
L 613.008 416.451794 
L 617.472 419.665549 
L 621.936 422.640131 
L 626.4 401.907487 
L 630.864 421.961652 
L 635.328 422.910464 
L 639.792 419.775227 
L 644.256 420.916339 
L 648.72 423.25883 
L 653.184 423.261422 
L 657.648 422.759205 
L 662.112 426.857132 
L 666.576 418.660414 
L 671.04 417.824898 
L 675.504 421.987249 
L 679.968 425.828776 
L 684.432 421.867203 
L 688.896 429.706537 
L 693.36 424.670923 
L 697.824 427.510014 
L 702.288 436.22461 
L 706.752 426.061577 
L 711.216 427.45747 
L 715.68 427.341042 
L 720.144 416.966917 
L 724.608 434.171353 
L 729.072 428.034966 
L 733.536 432.230258 
L 738 441.079102 
L 742.464 426.313712 
L 746.928 427.682064 
L 751.392 425.66704 
L 755.856 434.778711 
L 760.32 432.88611 
L 764.784 425.045965 
L 769.248 431.788847 
L 773.712 437.591612 
L 778.176 429.172892 
L 782.64 433.404635 
L 787.104 430.309144 
L 791.568 424.028733 
L 796.032 438.75076 
L 800.496 432.655738 
L 804.96 422.92526 
L 809.424 432.443079 
L 813.888 429.288077 
L 818.352 436.850707 
L 822.816 441.143688 
L 827.28 444.655426 
L 831.744 440.249148 
L 836.208 438.087726 
L 840.672 434.91728 
L 845.136 437.553918 
L 849.6 444.263859 
L 854.064 439.023577 
L 858.528 437.087127 
L 862.992 440.746667 
L 867.456 442.376766 
L 871.92 440.070457 
L 876.384 435.057739 
L 880.848 439.161984 
L 885.312 439.911691 
L 889.776 433.434876 
L 894.24 438.322526 
L 898.704 436.929603 
L 903.168 444.041749 
L 907.632 434.67249 
L 912.096 444.8197 
L 916.56 437.705663 
L 921.024 444.125614 
L 925.488 444.304846 
L 929.952 446.105861 
L 934.416 435.627134 
L 938.88 445.820137 
L 943.344 450.053609 
L 947.808 439.26637 
L 952.272 447.039876 
L 956.736 446.219426 
L 961.2 437.614292 
L 965.664 441.209355 
L 970.128 434.429806 
L 974.592 441.173011 
L 979.056 446.047053 
L 983.52 442.903823 
L 987.984 443.416031 
L 992.448 430.593787 
L 996.912 442.774273 
L 1001.376 438.761129 
L 1005.84 441.72113 
L 1010.304 447.420049 
L 1014.768 449.715557 
L 1019.232 440.698066 
L 1023.696 444.153695 
L 1028.16 441.648497 
L 1032.624 444.199057 
L 1037.088 450.075155 
L 1041.552 453.670596 
L 1046.016 444.213907 
L 1050.48 444.877589 
L 1054.944 444.329471 
L 1059.408 438.402719 
L 1063.872 443.267904 
L 1068.336 439.384526 
L 1072.8 443.265419 
L 1077.264 445.005196 
L 1081.728 441.049077 
L 1086.192 447.172342 
L 1090.656 450.238241 
L 1095.12 444.575125 
L 1099.584 452.532508 
L 1104.048 446.363503 
L 1108.512 443.518148 
L 1112.976 450.824053 
L 1117.44 449.022768 
L 1121.904 438.97125 
L 1126.368 450.341978 
L 1130.832 433.762397 
L 1135.296 450.81795 
L 1139.76 447.935982 
L 1144.224 444.007296 
L 1148.688 448.607602 
L 1153.152 444.119242 
L 1157.616 445.187506 
L 1162.08 439.860227 
L 1166.544 445.300262 
L 1171.008 439.700868 
L 1175.472 448.449863 
L 1179.936 443.907069 
L 1184.4 445.946663 
L 1188.864 443.578144 
L 1193.328 445.312844 
L 1197.792 448.077683 
L 1202.256 451.15854 
L 1206.72 441.292193 
L 1211.184 435.435967 
L 1215.648 446.685246 
L 1220.112 451.721509 
L 1224.576 448.572609 
L 1229.04 454.854964 
L 1233.504 448.930803 
L 1237.968 446.225367 
L 1242.432 443.370939 
L 1246.896 456.453849 
L 1251.36 455.443745 
L 1255.824 443.684744 
L 1260.288 438.534915 
L 1264.752 450.590009 
L 1269.216 443.588674 
L 1273.68 452.384975 
L 1278.144 451.914943 
L 1282.608 449.100585 
L 1287.072 449.36892 
L 1291.536 443.923486 
L 1291.536 443.923486 
" clip-path="url(#p366c0c276e)" style="fill: none; stroke: #e377c2; stroke-width: 1.5; stroke-linecap: square"/>
   </g>
   <g id="line2d_21">
    <path d="M 272.708636 -1 
L 273.744 5.75951 
L 278.208 39.393024 
L 282.672 55.196222 
L 287.136 80.060814 
L 291.6 82.55289 
L 296.064 94.235101 
L 300.528 111.41826 
L 304.992 122.910493 
L 309.456 133.208098 
L 313.92 151.509094 
L 318.384 148.743014 
L 322.848 164.499121 
L 327.312 153.476596 
L 331.776 178.279303 
L 336.24 176.906253 
L 340.704 189.751879 
L 345.168 197.113027 
L 349.632 205.4434 
L 354.096 200.487276 
L 358.56 226.350146 
L 363.024 217.878289 
L 367.488 228.768563 
L 371.952 247.110926 
L 376.416 233.253954 
L 380.88 236.926671 
L 385.344 256.460475 
L 389.808 250.722998 
L 394.272 248.24923 
L 398.736 268.408861 
L 403.2 246.468628 
L 407.664 281.661498 
L 412.128 286.25824 
L 416.592 281.520986 
L 421.056 291.236667 
L 425.52 299.327866 
L 429.984 299.61791 
L 434.448 308.038898 
L 438.912 310.999439 
L 443.376 305.105897 
L 447.84 314.879307 
L 452.304 311.075959 
L 456.768 309.833324 
L 461.232 309.789852 
L 465.696 323.087582 
L 470.16 327.254361 
L 474.624 311.428321 
L 479.088 325.086026 
L 483.552 327.64231 
L 488.016 331.322965 
L 492.48 331.486861 
L 496.944 330.943279 
L 501.408 335.578578 
L 505.872 343.10562 
L 510.336 331.772314 
L 514.8 337.952011 
L 519.264 348.999269 
L 523.728 343.091417 
L 528.192 350.514506 
L 532.656 353.970082 
L 537.12 350.926054 
L 541.584 357.557368 
L 546.048 362.728851 
L 550.512 353.245215 
L 554.976 361.139794 
L 559.44 368.450342 
L 563.904 360.84678 
L 568.368 364.734532 
L 572.832 360.372266 
L 577.296 370.150319 
L 581.76 376.6233 
L 586.224 372.411213 
L 590.688 359.813725 
L 595.152 375.958214 
L 599.616 378.061422 
L 604.08 368.474103 
L 608.544 379.128984 
L 613.008 383.466301 
L 617.472 377.572598 
L 621.936 389.931614 
L 626.4 382.596494 
L 630.864 395.814247 
L 635.328 396.510006 
L 639.792 393.111186 
L 644.256 390.265993 
L 648.72 394.501571 
L 653.184 388.398394 
L 657.648 387.514547 
L 662.112 392.000747 
L 666.576 391.1412 
L 671.04 391.221771 
L 675.504 395.678918 
L 679.968 392.649201 
L 684.432 396.735842 
L 688.896 391.742672 
L 693.36 394.845184 
L 697.824 396.137501 
L 702.288 397.802269 
L 706.752 399.994473 
L 711.216 403.211846 
L 715.68 396.175357 
L 720.144 400.970771 
L 724.608 404.534675 
L 729.072 402.318008 
L 733.536 407.286121 
L 738 393.938872 
L 742.464 395.017774 
L 746.928 399.835005 
L 751.392 391.205894 
L 755.856 403.515229 
L 760.32 405.781144 
L 764.784 398.684065 
L 769.248 397.639508 
L 773.712 402.612426 
L 778.176 399.788132 
L 782.64 395.208454 
L 787.104 398.108081 
L 791.568 406.249286 
L 796.032 395.848916 
L 800.496 409.080007 
L 804.96 410.37065 
L 809.424 402.378382 
L 813.888 405.36398 
L 818.352 402.074406 
L 822.816 401.988759 
L 831.744 416.509576 
L 836.208 397.453796 
L 840.672 408.395264 
L 845.136 405.23497 
L 849.6 400.159124 
L 854.064 406.250096 
L 858.528 405.654024 
L 862.992 410.42422 
L 867.456 412.497403 
L 871.92 419.653237 
L 876.384 404.706886 
L 880.848 411.471855 
L 885.312 409.2857 
L 889.776 418.214953 
L 894.24 412.917483 
L 898.704 405.839736 
L 903.168 404.687284 
L 907.632 415.525555 
L 912.096 410.058628 
L 916.56 415.465235 
L 921.024 409.732133 
L 925.488 421.679601 
L 929.952 417.317551 
L 934.416 409.591134 
L 938.88 416.542247 
L 943.344 405.123672 
L 947.808 400.163336 
L 952.272 414.129068 
L 956.736 410.820215 
L 961.2 414.128528 
L 965.664 412.597199 
L 970.128 405.442823 
L 974.592 403.088236 
L 979.056 404.834601 
L 983.52 411.264272 
L 987.984 409.433287 
L 992.448 415.525717 
L 996.912 408.94349 
L 1001.376 407.090688 
L 1005.84 412.308613 
L 1010.304 411.572946 
L 1014.768 416.994674 
L 1019.232 411.965161 
L 1023.696 413.016577 
L 1028.16 413.665894 
L 1032.624 421.585638 
L 1037.088 421.571381 
L 1041.552 415.672278 
L 1046.016 421.133588 
L 1050.48 409.682937 
L 1054.944 411.99254 
L 1059.408 409.092643 
L 1063.872 410.306064 
L 1068.336 428.650532 
L 1072.8 409.280462 
L 1077.264 405.895898 
L 1081.728 417.278669 
L 1086.192 416.86588 
L 1090.656 417.2521 
L 1095.12 417.191348 
L 1099.584 419.230835 
L 1104.048 401.655892 
L 1108.512 413.865701 
L 1112.976 416.018915 
L 1117.44 420.542053 
L 1121.904 415.087708 
L 1126.368 413.615079 
L 1130.832 415.56071 
L 1135.296 415.385042 
L 1139.76 416.977933 
L 1144.224 423.143428 
L 1148.688 418.530161 
L 1153.152 417.561639 
L 1157.616 414.79491 
L 1162.08 415.705813 
L 1166.544 413.527974 
L 1171.008 418.203396 
L 1175.472 418.826847 
L 1179.936 422.926232 
L 1184.4 408.274516 
L 1188.864 415.227411 
L 1193.328 422.931795 
L 1197.792 420.668147 
L 1202.256 408.474701 
L 1206.72 427.44856 
L 1211.184 421.43211 
L 1215.648 414.751493 
L 1220.112 421.23171 
L 1224.576 411.777451 
L 1229.04 424.566051 
L 1233.504 427.132325 
L 1237.968 420.875244 
L 1242.432 418.006938 
L 1246.896 416.807396 
L 1251.36 424.45983 
L 1255.824 414.182368 
L 1260.288 419.193465 
L 1264.752 419.153612 
L 1269.216 421.307906 
L 1273.68 411.475095 
L 1278.144 413.911333 
L 1282.608 425.262675 
L 1287.072 412.755424 
L 1291.536 422.31342 
L 1291.536 422.31342 
" clip-path="url(#p366c0c276e)" style="fill: none; stroke: #7f7f7f; stroke-width: 1.5; stroke-linecap: square"/>
   </g>
   <g id="line2d_22">
    <path d="M 282.231275 -1 
L 282.672 2.833152 
L 287.136 14.286612 
L 291.6 47.465863 
L 296.064 62.96071 
L 300.528 72.500453 
L 304.992 80.931215 
L 309.456 109.749388 
L 313.92 115.040053 
L 318.384 117.617776 
L 322.848 130.473662 
L 327.312 153.125153 
L 331.776 145.545567 
L 336.24 161.454499 
L 340.704 167.345989 
L 345.168 170.5362 
L 349.632 175.621874 
L 354.096 166.384865 
L 358.56 186.709255 
L 363.024 195.494971 
L 367.488 215.487575 
L 371.952 201.66835 
L 376.416 216.06966 
L 380.88 216.982507 
L 385.344 225.044545 
L 389.808 224.396253 
L 394.272 236.953185 
L 398.736 242.686827 
L 403.2 226.2807 
L 407.664 253.947716 
L 412.128 250.728831 
L 416.592 258.10078 
L 421.056 262.048744 
L 425.52 257.967881 
L 429.984 272.600211 
L 434.448 276.646837 
L 438.912 277.731247 
L 443.376 279.252532 
L 447.84 277.310951 
L 452.304 296.64403 
L 456.768 294.36915 
L 461.232 294.996489 
L 465.696 288.638046 
L 470.16 296.436231 
L 474.624 305.921973 
L 479.088 302.259624 
L 483.552 304.824872 
L 488.016 301.007106 
L 492.48 303.226797 
L 496.944 309.144045 
L 501.408 305.174156 
L 505.872 315.243711 
L 510.336 321.173217 
L 514.8 316.635715 
L 519.264 329.685738 
L 523.728 318.500128 
L 528.192 310.62499 
L 532.656 326.226815 
L 537.12 329.381924 
L 541.584 330.770095 
L 546.048 328.981987 
L 550.512 334.325196 
L 554.976 334.197698 
L 559.44 339.893106 
L 563.904 333.725074 
L 568.368 351.462562 
L 572.832 335.928401 
L 577.296 347.072593 
L 581.76 348.311232 
L 586.224 346.125023 
L 590.688 352.784418 
L 595.152 361.837227 
L 599.616 355.137007 
L 604.08 360.722252 
L 608.544 356.270991 
L 613.008 353.729288 
L 617.472 367.649172 
L 621.936 362.964137 
L 626.4 352.558258 
L 630.864 375.262293 
L 635.328 367.104725 
L 639.792 370.158798 
L 644.256 376.199386 
L 648.72 370.940852 
L 653.184 375.224815 
L 657.648 375.494176 
L 662.112 366.454922 
L 666.576 376.56622 
L 671.04 376.958489 
L 675.504 375.363438 
L 679.968 369.881768 
L 684.432 371.444689 
L 688.896 369.807678 
L 693.36 381.88718 
L 697.824 368.84731 
L 702.288 372.968296 
L 706.752 373.856517 
L 711.216 368.754103 
L 715.68 377.246427 
L 720.144 379.859628 
L 724.608 369.703238 
L 729.072 377.454658 
L 733.536 379.498194 
L 738 380.45381 
L 742.464 378.39861 
L 746.928 379.426426 
L 751.392 368.107647 
L 755.856 377.534311 
L 760.32 377.093332 
L 764.784 381.880916 
L 769.248 376.92652 
L 773.712 374.709584 
L 778.176 382.493351 
L 782.64 380.725061 
L 787.104 379.330735 
L 791.568 382.884864 
L 796.032 383.121392 
L 800.496 385.388874 
L 809.424 384.339402 
L 813.888 381.34187 
L 818.352 384.324228 
L 827.28 380.009807 
L 831.744 384.62005 
L 836.208 374.750679 
L 840.672 396.3932 
L 845.136 375.224167 
L 849.6 385.894547 
L 854.064 379.479672 
L 858.528 382.397011 
L 862.992 386.133505 
L 867.456 390.646598 
L 871.92 386.911563 
L 876.384 386.346974 
L 880.848 384.516366 
L 885.312 391.92131 
L 889.776 384.730808 
L 894.24 382.534122 
L 898.704 394.129606 
L 903.168 389.292124 
L 907.632 389.907745 
L 912.096 390.346618 
L 916.56 397.143123 
L 921.024 387.42377 
L 925.488 386.930301 
L 929.952 380.141356 
L 934.416 387.261386 
L 938.88 389.872968 
L 943.344 387.425552 
L 947.808 383.217137 
L 952.272 385.704892 
L 956.736 392.643314 
L 961.2 375.858904 
L 965.664 387.915294 
L 970.128 391.068838 
L 974.592 384.853014 
L 979.056 394.477108 
L 983.52 387.751939 
L 987.984 394.100499 
L 992.448 393.009177 
L 996.912 390.275983 
L 1001.376 384.286535 
L 1005.84 387.140638 
L 1010.304 400.656373 
L 1014.768 385.494825 
L 1019.232 387.838936 
L 1023.696 388.138754 
L 1028.16 389.125151 
L 1032.624 385.079659 
L 1037.088 396.190639 
L 1041.552 379.812107 
L 1046.016 389.991718 
L 1050.48 395.740534 
L 1054.944 393.419212 
L 1059.408 397.95288 
L 1063.872 391.092707 
L 1072.8 390.341865 
L 1077.264 408.513744 
L 1081.728 391.152541 
L 1086.192 391.955763 
L 1090.656 390.442471 
L 1095.12 398.25259 
L 1099.584 400.015749 
L 1104.048 407.520057 
L 1108.512 392.663619 
L 1112.976 397.554887 
L 1117.44 382.772486 
L 1121.904 392.240623 
L 1126.368 397.238328 
L 1130.832 392.15314 
L 1135.296 393.438383 
L 1139.76 393.834918 
L 1144.224 387.100731 
L 1148.688 393.976565 
L 1153.152 391.318758 
L 1157.616 408.555217 
L 1162.08 401.712 
L 1166.544 399.691522 
L 1171.008 396.14166 
L 1175.472 388.748812 
L 1179.936 395.9047 
L 1184.4 389.305787 
L 1188.864 399.227971 
L 1193.328 396.805288 
L 1197.792 392.096762 
L 1202.256 396.692316 
L 1206.72 398.798711 
L 1211.184 397.210625 
L 1215.648 393.547413 
L 1220.112 400.489021 
L 1224.576 389.949812 
L 1229.04 398.501701 
L 1233.504 382.490489 
L 1237.968 395.291833 
L 1242.432 398.281103 
L 1246.896 395.387038 
L 1251.36 398.036745 
L 1255.824 397.071139 
L 1260.288 397.674177 
L 1264.752 396.596517 
L 1269.216 392.065981 
L 1273.68 396.222446 
L 1278.144 391.399491 
L 1282.608 401.625813 
L 1287.072 393.223024 
L 1291.536 403.503294 
L 1291.536 403.503294 
" clip-path="url(#p366c0c276e)" style="fill: none; stroke: #bcbd22; stroke-width: 1.5; stroke-linecap: square"/>
   </g>
   <g id="line2d_23">
    <path d="M 281.569125 -1 
L 282.672 5.239689 
L 287.136 13.249993 
L 291.6 34.719492 
L 296.064 54.826957 
L 300.528 62.868906 
L 304.992 74.610952 
L 309.456 97.108753 
L 313.92 110.787411 
L 318.384 106.037196 
L 322.848 135.894904 
L 327.312 135.172035 
L 331.776 148.224164 
L 336.24 149.171248 
L 340.704 159.414095 
L 345.168 176.337938 
L 349.632 178.259484 
L 354.096 193.564083 
L 358.56 197.376826 
L 363.024 200.984633 
L 367.488 200.52551 
L 371.952 208.040239 
L 376.416 207.377637 
L 380.88 223.160206 
L 385.344 224.042325 
L 389.808 239.216023 
L 394.272 229.434352 
L 398.736 246.014743 
L 403.2 214.978608 
L 407.664 258.883806 
L 412.128 255.300408 
L 416.592 259.004662 
L 421.056 261.907691 
L 425.52 270.864809 
L 429.984 265.167186 
L 434.448 274.528724 
L 438.912 286.771042 
L 443.376 268.354967 
L 447.84 287.787842 
L 452.304 293.399331 
L 456.768 288.432407 
L 461.232 289.552081 
L 465.696 286.897352 
L 470.16 289.236116 
L 474.624 297.953358 
L 479.088 304.369961 
L 483.552 299.415349 
L 488.016 302.784198 
L 492.48 315.836111 
L 496.944 310.811998 
L 501.408 311.46893 
L 505.872 300.227428 
L 510.336 306.379098 
L 514.8 318.013572 
L 519.264 319.564072 
L 523.728 322.339656 
L 528.192 314.072898 
L 532.656 319.62693 
L 537.12 324.483204 
L 541.584 330.01758 
L 546.048 315.654719 
L 550.512 330.595777 
L 554.976 327.334338 
L 559.44 325.398319 
L 563.904 337.831587 
L 568.368 334.14483 
L 572.832 336.682645 
L 577.296 345.412685 
L 581.76 337.007358 
L 586.224 342.639314 
L 590.688 340.655126 
L 595.152 353.429847 
L 599.616 337.639665 
L 604.08 353.964303 
L 608.544 348.48717 
L 613.008 345.853556 
L 617.472 352.882215 
L 621.936 348.851412 
L 626.4 342.04632 
L 630.864 350.912067 
L 635.328 356.246582 
L 639.792 354.411978 
L 644.256 373.462736 
L 648.72 359.798821 
L 653.184 353.287931 
L 657.648 359.59491 
L 662.112 369.978054 
L 666.576 353.190511 
L 671.04 366.109256 
L 675.504 372.063927 
L 679.968 362.695316 
L 684.432 358.251075 
L 688.896 374.683501 
L 693.36 354.937038 
L 697.824 351.924601 
L 702.288 355.869865 
L 706.752 374.397994 
L 711.216 368.222131 
L 715.68 360.73289 
L 720.144 372.455711 
L 724.608 356.577235 
L 729.072 373.50259 
L 733.536 364.294309 
L 738 363.850792 
L 742.464 367.032687 
L 746.928 365.452864 
L 751.392 366.761814 
L 755.856 363.313312 
L 760.32 379.897052 
L 764.784 373.498485 
L 769.248 368.361293 
L 773.712 376.581233 
L 778.176 367.929927 
L 782.64 375.876239 
L 787.104 374.311861 
L 791.568 360.250492 
L 796.032 380.405695 
L 800.496 370.45813 
L 804.96 373.642886 
L 809.424 385.641872 
L 813.888 370.676135 
L 818.352 379.526437 
L 822.816 369.374907 
L 827.28 362.033038 
L 831.744 380.878643 
L 836.208 373.314447 
L 840.672 366.863067 
L 845.136 374.935852 
L 849.6 376.027822 
L 854.064 376.762679 
L 858.528 372.817469 
L 862.992 371.422548 
L 867.456 371.080122 
L 871.92 373.502698 
L 876.384 384.436498 
L 880.848 375.975818 
L 885.312 374.598178 
L 889.776 375.406045 
L 894.24 379.30233 
L 898.704 360.873079 
L 903.168 375.742639 
L 907.632 377.132267 
L 912.096 374.976947 
L 916.56 377.892289 
L 921.024 376.116439 
L 925.488 382.583642 
L 929.952 384.215144 
L 934.416 368.177525 
L 938.88 388.946729 
L 943.344 381.877676 
L 947.808 377.070111 
L 952.272 379.196378 
L 956.736 383.06442 
L 961.2 374.404906 
L 965.664 375.130096 
L 970.128 381.710648 
L 974.592 375.244418 
L 979.056 381.011919 
L 983.52 383.569445 
L 987.984 371.85116 
L 992.448 376.9168 
L 996.912 378.049056 
L 1001.376 378.488361 
L 1005.84 384.8643 
L 1010.304 377.348436 
L 1014.768 386.286654 
L 1019.232 379.216143 
L 1023.696 372.784096 
L 1028.16 382.796247 
L 1032.624 373.115505 
L 1037.088 378.260473 
L 1041.552 382.056422 
L 1046.016 389.176236 
L 1050.48 387.642747 
L 1054.944 383.50205 
L 1059.408 387.111909 
L 1063.872 386.774614 
L 1068.336 376.207486 
L 1072.8 379.151881 
L 1077.264 385.681239 
L 1081.728 378.015791 
L 1086.192 376.043267 
L 1090.656 382.702014 
L 1095.12 377.288548 
L 1099.584 381.839281 
L 1104.048 377.915293 
L 1108.512 378.219432 
L 1112.976 382.343496 
L 1117.44 377.939648 
L 1121.904 377.544301 
L 1126.368 385.171948 
L 1130.832 383.593529 
L 1135.296 388.777379 
L 1144.224 379.014824 
L 1148.688 395.270934 
L 1153.152 386.926413 
L 1157.616 388.187787 
L 1162.08 396.102508 
L 1166.544 377.68233 
L 1171.008 380.786299 
L 1175.472 382.943834 
L 1179.936 384.14721 
L 1184.4 387.753937 
L 1188.864 389.440251 
L 1193.328 387.881867 
L 1197.792 377.717161 
L 1202.256 382.11469 
L 1206.72 374.001242 
L 1211.184 378.555107 
L 1215.648 374.347502 
L 1220.112 385.779415 
L 1224.576 379.707775 
L 1229.04 384.901561 
L 1233.504 383.046275 
L 1237.968 377.21894 
L 1242.432 380.630018 
L 1246.896 388.862486 
L 1251.36 384.464795 
L 1255.824 377.874738 
L 1260.288 380.858608 
L 1264.752 382.48498 
L 1269.216 384.818128 
L 1273.68 377.663105 
L 1278.144 389.606793 
L 1282.608 386.622653 
L 1287.072 384.403341 
L 1291.536 378.801625 
L 1291.536 378.801625 
" clip-path="url(#p366c0c276e)" style="fill: none; stroke: #17becf; stroke-width: 1.5; stroke-linecap: square"/>
   </g>
   <g id="line2d_24">
    <path d="M 299.336368 -1 
L 300.528 3.76544 
L 304.992 19.855494 
L 309.456 23.92345 
L 313.92 47.767949 
L 322.848 79.86792 
L 327.312 76.253255 
L 331.776 103.4126 
L 336.24 106.079425 
L 340.704 103.59275 
L 345.168 112.914326 
L 349.632 121.591985 
L 354.096 136.173121 
L 358.56 145.067543 
L 363.024 149.982247 
L 367.488 145.432379 
L 371.952 181.404873 
L 376.416 173.457265 
L 380.88 167.606061 
L 385.344 178.533381 
L 389.808 194.978822 
L 394.272 194.954629 
L 398.736 189.95795 
L 403.2 185.221289 
L 407.664 192.909743 
L 412.128 209.80545 
L 416.592 208.46734 
L 421.056 212.685583 
L 425.52 222.077793 
L 429.984 214.885941 
L 434.448 224.264813 
L 438.912 226.171616 
L 443.376 233.394898 
L 447.84 219.81339 
L 452.304 233.152916 
L 456.768 232.218091 
L 461.232 231.658524 
L 465.696 247.602396 
L 470.16 240.374092 
L 474.624 245.176797 
L 479.088 244.946641 
L 483.552 244.329184 
L 488.016 254.420556 
L 492.48 248.051529 
L 496.944 253.144116 
L 501.408 263.108529 
L 505.872 258.790923 
L 510.336 260.595663 
L 514.8 263.814819 
L 519.264 266.677563 
L 523.728 263.216209 
L 528.192 263.273829 
L 532.656 273.58812 
L 537.12 259.358428 
L 541.584 274.927905 
L 546.048 284.467486 
L 550.512 286.95103 
L 554.976 285.623719 
L 559.44 280.370207 
L 563.904 289.395205 
L 568.368 280.394184 
L 572.832 279.413565 
L 577.296 291.845591 
L 581.76 293.471478 
L 586.224 286.866517 
L 590.688 289.911409 
L 595.152 295.439412 
L 599.616 299.464329 
L 604.08 304.337614 
L 608.544 298.37711 
L 613.008 299.612617 
L 617.472 302.477305 
L 621.936 299.963251 
L 626.4 296.061621 
L 630.864 301.827664 
L 635.328 317.732708 
L 639.792 304.681713 
L 644.256 311.973631 
L 648.72 315.330816 
L 653.184 319.429931 
L 657.648 316.457564 
L 662.112 313.076456 
L 666.576 316.358254 
L 671.04 313.634889 
L 675.504 304.05135 
L 679.968 312.39544 
L 684.432 312.525692 
L 688.896 320.060942 
L 693.36 321.758381 
L 697.824 314.230475 
L 702.288 319.007529 
L 706.752 312.70082 
L 711.216 322.284197 
L 715.68 318.815498 
L 720.144 319.22575 
L 724.608 320.817129 
L 729.072 317.272883 
L 733.536 321.80169 
L 738 317.973124 
L 742.464 315.58079 
L 746.928 317.274125 
L 751.392 322.250986 
L 755.856 321.399755 
L 760.32 319.934848 
L 764.784 333.614208 
L 769.248 322.006897 
L 773.712 314.652283 
L 778.176 319.357839 
L 782.64 332.339549 
L 787.104 321.904996 
L 791.568 330.507754 
L 796.032 316.387415 
L 800.496 326.585603 
L 804.96 325.109733 
L 809.424 328.915133 
L 813.888 329.08054 
L 818.352 326.356095 
L 822.816 323.04141 
L 827.28 325.868891 
L 831.744 329.191676 
L 836.208 330.695734 
L 840.672 326.012481 
L 845.136 327.693234 
L 849.6 331.327825 
L 854.064 317.476362 
L 858.528 321.984109 
L 862.992 321.362818 
L 867.456 328.212623 
L 871.92 327.722665 
L 876.384 326.012319 
L 880.848 327.669203 
L 885.312 323.372333 
L 889.776 322.804126 
L 894.24 326.514374 
L 898.704 327.664235 
L 903.168 333.624738 
L 907.632 329.524867 
L 912.096 337.204464 
L 916.56 327.020209 
L 921.024 320.515691 
L 925.488 327.653326 
L 929.952 324.733827 
L 934.416 328.2845 
L 938.88 337.85416 
L 943.344 322.306013 
L 947.808 327.911671 
L 952.272 335.783299 
L 956.736 336.371594 
L 961.2 334.853441 
L 965.664 332.947934 
L 970.128 341.169439 
L 974.592 332.238512 
L 979.056 337.481223 
L 983.52 336.631505 
L 987.984 333.575435 
L 992.448 337.562928 
L 996.912 330.344723 
L 1001.376 334.97446 
L 1005.84 329.330245 
L 1010.304 337.530257 
L 1014.768 332.218423 
L 1019.232 326.027602 
L 1023.696 336.795455 
L 1028.16 338.733849 
L 1032.624 338.379328 
L 1037.088 325.712663 
L 1041.552 326.639658 
L 1046.016 334.117073 
L 1050.48 339.332783 
L 1054.944 341.748716 
L 1059.408 337.849138 
L 1063.872 333.589745 
L 1068.336 334.109729 
L 1072.8 332.803965 
L 1077.264 332.856077 
L 1081.728 341.768805 
L 1086.192 338.029126 
L 1090.656 339.324953 
L 1095.12 342.910619 
L 1099.584 329.575197 
L 1104.048 337.103589 
L 1108.512 340.637845 
L 1112.976 337.106181 
L 1117.44 333.924772 
L 1121.904 331.518884 
L 1126.368 336.140089 
L 1130.832 326.818404 
L 1135.296 337.099755 
L 1139.76 342.978554 
L 1144.224 342.536225 
L 1148.688 341.916986 
L 1153.152 344.306458 
L 1157.616 337.623896 
L 1162.08 340.500573 
L 1166.544 329.08378 
L 1175.472 345.848156 
L 1179.936 330.473679 
L 1184.4 339.021355 
L 1188.864 332.502635 
L 1193.328 341.771289 
L 1197.792 339.756806 
L 1202.256 336.485484 
L 1206.72 332.491888 
L 1211.184 333.112477 
L 1215.648 332.841226 
L 1220.112 331.520666 
L 1224.576 339.636706 
L 1229.04 335.648888 
L 1233.504 338.260794 
L 1237.968 331.03465 
L 1242.432 342.178085 
L 1246.896 338.046136 
L 1251.36 338.249507 
L 1255.824 338.837749 
L 1260.288 336.842274 
L 1264.752 333.819469 
L 1269.216 342.974233 
L 1273.68 345.658069 
L 1278.144 340.811623 
L 1282.608 337.50115 
L 1287.072 338.037442 
L 1291.536 339.488849 
L 1291.536 339.488849 
" clip-path="url(#p366c0c276e)" style="fill: none; stroke: #1f77b4; stroke-width: 1.5; stroke-linecap: square"/>
   </g>
   <g id="line2d_25">
    <path d="M 301.274731 -1 
L 304.992 21.225844 
L 309.456 39.960691 
L 313.92 63.231691 
L 322.848 81.611746 
L 327.312 79.852151 
L 331.776 93.927074 
L 336.24 111.319977 
L 340.704 127.071548 
L 345.168 109.249007 
L 349.632 123.703779 
L 354.096 142.88425 
L 358.56 143.526871 
L 363.024 149.874892 
L 367.488 153.042638 
L 371.952 153.711504 
L 376.416 170.885483 
L 380.88 175.712381 
L 385.344 169.920363 
L 389.808 183.50549 
L 394.272 183.44301 
L 398.736 196.919053 
L 403.2 180.527938 
L 407.664 205.328971 
L 412.128 207.285888 
L 416.592 209.629027 
L 421.056 205.096655 
L 425.52 211.963201 
L 429.984 210.965949 
L 434.448 224.79673 
L 438.912 221.85806 
L 443.376 227.757704 
L 447.84 228.340329 
L 452.304 219.525506 
L 456.768 235.357 
L 461.232 240.391967 
L 465.696 244.980068 
L 470.16 242.848131 
L 474.624 245.070845 
L 479.088 242.781817 
L 483.552 246.355278 
L 488.016 242.897542 
L 492.48 254.89642 
L 496.944 249.816362 
L 501.408 248.112065 
L 505.872 253.832801 
L 510.336 261.330952 
L 514.8 265.007395 
L 519.264 262.389873 
L 523.728 265.795767 
L 528.192 261.973681 
L 532.656 259.721536 
L 537.12 270.626553 
L 541.584 271.407851 
L 546.048 267.534949 
L 550.512 278.306042 
L 554.976 275.699267 
L 559.44 272.685318 
L 563.904 285.821096 
L 568.368 281.776198 
L 572.832 278.496236 
L 577.296 281.274413 
L 581.76 289.007472 
L 586.224 282.638769 
L 590.688 283.135208 
L 595.152 295.567342 
L 599.616 285.630199 
L 604.08 289.59458 
L 608.544 293.066788 
L 613.008 300.177152 
L 617.472 297.244368 
L 621.936 298.669098 
L 626.4 294.876335 
L 630.864 299.040306 
L 635.328 304.551245 
L 639.792 314.614644 
L 644.256 304.704016 
L 648.72 306.028086 
L 653.184 305.398803 
L 657.648 305.507185 
L 662.112 302.463967 
L 666.576 305.158981 
L 671.04 306.962696 
L 675.504 317.785684 
L 679.968 313.773296 
L 684.432 312.087197 
L 688.896 322.089736 
L 693.36 300.279432 
L 697.824 307.251443 
L 702.288 309.704691 
L 706.752 317.700415 
L 711.216 309.507801 
L 715.68 311.506462 
L 720.144 311.8268 
L 724.608 308.868905 
L 733.536 318.469077 
L 738 306.163415 
L 742.464 313.947505 
L 746.928 323.136183 
L 751.392 309.645883 
L 755.856 316.832012 
L 760.32 314.490764 
L 764.784 301.392625 
L 769.248 316.431373 
L 773.712 316.193387 
L 778.176 314.18857 
L 782.64 324.223456 
L 787.104 305.91182 
L 791.568 321.648865 
L 796.032 307.951091 
L 800.496 315.249435 
L 804.96 330.93102 
L 809.424 316.294748 
L 813.888 320.162574 
L 818.352 317.372462 
L 822.816 311.03265 
L 827.28 325.604012 
L 831.744 324.806729 
L 836.208 312.943936 
L 840.672 320.773604 
L 845.136 327.986626 
L 849.6 325.147642 
L 854.064 326.066807 
L 858.528 317.646197 
L 862.992 321.723604 
L 867.456 323.695588 
L 871.92 320.025409 
L 876.384 323.163994 
L 880.848 325.200078 
L 885.312 317.245018 
L 889.776 316.704028 
L 894.24 332.328479 
L 898.704 325.974734 
L 903.168 315.473543 
L 907.632 315.28918 
L 912.096 327.735517 
L 916.56 321.798612 
L 921.024 327.532362 
L 925.488 332.215183 
L 929.952 320.212525 
L 934.416 315.442708 
L 938.88 326.705595 
L 943.344 317.752095 
L 947.808 321.79683 
L 952.272 328.213541 
L 956.736 326.276658 
L 965.664 321.280195 
L 970.128 332.044699 
L 974.592 330.32215 
L 979.056 331.405426 
L 983.52 335.800903 
L 987.984 334.748624 
L 992.448 322.645955 
L 996.912 328.170934 
L 1001.376 321.640657 
L 1005.84 324.488334 
L 1010.304 324.227236 
L 1014.768 328.139667 
L 1019.232 318.912054 
L 1023.696 322.969426 
L 1028.16 321.654428 
L 1032.624 321.703245 
L 1037.088 327.775964 
L 1041.552 337.970858 
L 1046.016 335.876506 
L 1050.48 330.126825 
L 1054.944 322.676196 
L 1059.408 330.926268 
L 1063.872 326.051255 
L 1068.336 331.692932 
L 1072.8 338.128489 
L 1077.264 331.313839 
L 1081.728 329.666622 
L 1086.192 330.768853 
L 1090.656 330.205668 
L 1095.12 339.700914 
L 1099.584 338.544789 
L 1104.048 322.07872 
L 1108.512 323.661081 
L 1112.976 329.735258 
L 1117.44 332.085363 
L 1121.904 329.708743 
L 1126.368 319.748866 
L 1130.832 329.62261 
L 1135.296 329.777866 
L 1139.76 325.460691 
L 1144.224 330.349205 
L 1148.688 329.512555 
L 1153.152 325.471923 
L 1157.616 337.378458 
L 1162.08 321.942257 
L 1166.544 322.203248 
L 1171.008 330.518824 
L 1175.472 336.158017 
L 1179.936 337.532795 
L 1184.4 333.669452 
L 1188.864 324.210225 
L 1193.328 332.25455 
L 1197.792 325.156715 
L 1202.256 329.716951 
L 1211.184 327.463726 
L 1215.648 330.627206 
L 1220.112 332.776478 
L 1224.576 329.973082 
L 1229.04 333.328754 
L 1233.504 335.374829 
L 1237.968 331.27674 
L 1242.432 323.38875 
L 1246.896 338.813178 
L 1251.36 328.988575 
L 1255.824 331.904133 
L 1260.288 325.848748 
L 1264.752 333.637159 
L 1269.216 334.608327 
L 1273.68 331.360065 
L 1278.144 325.643541 
L 1282.608 323.403978 
L 1287.072 332.76719 
L 1291.536 322.337496 
L 1291.536 322.337496 
" clip-path="url(#p366c0c276e)" style="fill: none; stroke: #ff7f0e; stroke-width: 1.5; stroke-linecap: square"/>
   </g>
   <g id="patch_3">
    <path d="M 180 630 
L 180 86.4 
" style="fill: none; stroke: #000000; stroke-width: 0.8; stroke-linejoin: miter; stroke-linecap: square"/>
   </g>
   <g id="patch_4">
    <path d="M 1296 630 
L 1296 86.4 
" style="fill: none; stroke: #000000; stroke-width: 0.8; stroke-linejoin: miter; stroke-linecap: square"/>
   </g>
   <g id="patch_5">
    <path d="M 180 630 
L 1296 630 
" style="fill: none; stroke: #000000; stroke-width: 0.8; stroke-linejoin: miter; stroke-linecap: square"/>
   </g>
   <g id="patch_6">
    <path d="M 180 86.4 
L 1296 86.4 
" style="fill: none; stroke: #000000; stroke-width: 0.8; stroke-linejoin: miter; stroke-linecap: square"/>
   </g>
   <g id="text_16">
    <!-- FCSGD_G-L -->
    <g transform="translate(681.540625 80.4)scale(0.2 -0.2)">
     <defs>
      <path id="DejaVuSans-46" d="M 628 4666 
L 3309 4666 
L 3309 4134 
L 1259 4134 
L 1259 2759 
L 3109 2759 
L 3109 2228 
L 1259 2228 
L 1259 0 
L 628 0 
L 628 4666 
z
" transform="scale(0.015625)"/>
      <path id="DejaVuSans-43" d="M 4122 4306 
L 4122 3641 
Q 3803 3938 3442 4084 
Q 3081 4231 2675 4231 
Q 1875 4231 1450 3742 
Q 1025 3253 1025 2328 
Q 1025 1406 1450 917 
Q 1875 428 2675 428 
Q 3081 428 3442 575 
Q 3803 722 4122 1019 
L 4122 359 
Q 3791 134 3420 21 
Q 3050 -91 2638 -91 
Q 1578 -91 968 557 
Q 359 1206 359 2328 
Q 359 3453 968 4101 
Q 1578 4750 2638 4750 
Q 3056 4750 3426 4639 
Q 3797 4528 4122 4306 
z
" transform="scale(0.015625)"/>
      <path id="DejaVuSans-53" d="M 3425 4513 
L 3425 3897 
Q 3066 4069 2747 4153 
Q 2428 4238 2131 4238 
Q 1616 4238 1336 4038 
Q 1056 3838 1056 3469 
Q 1056 3159 1242 3001 
Q 1428 2844 1947 2747 
L 2328 2669 
Q 3034 2534 3370 2195 
Q 3706 1856 3706 1288 
Q 3706 609 3251 259 
Q 2797 -91 1919 -91 
Q 1588 -91 1214 -16 
Q 841 59 441 206 
L 441 856 
Q 825 641 1194 531 
Q 1563 422 1919 422 
Q 2459 422 2753 634 
Q 3047 847 3047 1241 
Q 3047 1584 2836 1778 
Q 2625 1972 2144 2069 
L 1759 2144 
Q 1053 2284 737 2584 
Q 422 2884 422 3419 
Q 422 4038 858 4394 
Q 1294 4750 2059 4750 
Q 2388 4750 2728 4690 
Q 3069 4631 3425 4513 
z
" transform="scale(0.015625)"/>
      <path id="DejaVuSans-47" d="M 3809 666 
L 3809 1919 
L 2778 1919 
L 2778 2438 
L 4434 2438 
L 4434 434 
Q 4069 175 3628 42 
Q 3188 -91 2688 -91 
Q 1594 -91 976 548 
Q 359 1188 359 2328 
Q 359 3472 976 4111 
Q 1594 4750 2688 4750 
Q 3144 4750 3555 4637 
Q 3966 4525 4313 4306 
L 4313 3634 
Q 3963 3931 3569 4081 
Q 3175 4231 2741 4231 
Q 1884 4231 1454 3753 
Q 1025 3275 1025 2328 
Q 1025 1384 1454 906 
Q 1884 428 2741 428 
Q 3075 428 3337 486 
Q 3600 544 3809 666 
z
" transform="scale(0.015625)"/>
      <path id="DejaVuSans-44" d="M 1259 4147 
L 1259 519 
L 2022 519 
Q 2988 519 3436 956 
Q 3884 1394 3884 2338 
Q 3884 3275 3436 3711 
Q 2988 4147 2022 4147 
L 1259 4147 
z
M 628 4666 
L 1925 4666 
Q 3281 4666 3915 4102 
Q 4550 3538 4550 2338 
Q 4550 1131 3912 565 
Q 3275 0 1925 0 
L 628 0 
L 628 4666 
z
" transform="scale(0.015625)"/>
      <path id="DejaVuSans-5f" d="M 3263 -1063 
L 3263 -1509 
L -63 -1509 
L -63 -1063 
L 3263 -1063 
z
" transform="scale(0.015625)"/>
      <path id="DejaVuSans-2d" d="M 313 2009 
L 1997 2009 
L 1997 1497 
L 313 1497 
L 313 2009 
z
" transform="scale(0.015625)"/>
      <path id="DejaVuSans-4c" d="M 628 4666 
L 1259 4666 
L 1259 531 
L 3531 531 
L 3531 0 
L 628 0 
L 628 4666 
z
" transform="scale(0.015625)"/>
     </defs>
     <use xlink:href="#DejaVuSans-46"/>
     <use xlink:href="#DejaVuSans-43" x="57.519531"/>
     <use xlink:href="#DejaVuSans-53" x="127.34375"/>
     <use xlink:href="#DejaVuSans-47" x="190.820312"/>
     <use xlink:href="#DejaVuSans-44" x="268.310547"/>
     <use xlink:href="#DejaVuSans-5f" x="345.3125"/>
     <use xlink:href="#DejaVuSans-47" x="395.3125"/>
     <use xlink:href="#DejaVuSans-2d" x="472.802734"/>
     <use xlink:href="#DejaVuSans-4c" x="508.886719"/>
    </g>
   </g>
   <g id="legend_1">
    <g id="patch_7">
     <path d="M 194 620 
L 369.221875 620 
Q 373.221875 620 373.221875 616 
L 373.221875 265.725 
Q 373.221875 261.725 369.221875 261.725 
L 194 261.725 
Q 190 261.725 190 265.725 
L 190 616 
Q 190 620 194 620 
z
" style="fill: #ffffff; opacity: 0.8; stroke: #cccccc; stroke-linejoin: miter"/>
    </g>
    <g id="line2d_26">
     <path d="M 198 277.921875 
L 218 277.921875 
L 238 277.921875 
" style="fill: none; stroke: #1f77b4; stroke-width: 1.5; stroke-linecap: square"/>
    </g>
    <g id="text_17">
     <!-- alpha=-0.7 -->
     <g transform="translate(254 284.921875)scale(0.2 -0.2)">
      <defs>
       <path id="DejaVuSans-3d" d="M 678 2906 
L 4684 2906 
L 4684 2381 
L 678 2381 
L 678 2906 
z
M 678 1631 
L 4684 1631 
L 4684 1100 
L 678 1100 
L 678 1631 
z
" transform="scale(0.015625)"/>
       <path id="DejaVuSans-37" d="M 525 4666 
L 3525 4666 
L 3525 4397 
L 1831 0 
L 1172 0 
L 2766 4134 
L 525 4134 
L 525 4666 
z
" transform="scale(0.015625)"/>
      </defs>
      <use xlink:href="#DejaVuSans-61"/>
      <use xlink:href="#DejaVuSans-6c" x="61.279297"/>
      <use xlink:href="#DejaVuSans-70" x="89.0625"/>
      <use xlink:href="#DejaVuSans-68" x="152.539062"/>
      <use xlink:href="#DejaVuSans-61" x="215.917969"/>
      <use xlink:href="#DejaVuSans-3d" x="277.197266"/>
      <use xlink:href="#DejaVuSans-2d" x="360.986328"/>
      <use xlink:href="#DejaVuSans-30" x="397.070312"/>
      <use xlink:href="#DejaVuSans-2e" x="460.693359"/>
      <use xlink:href="#DejaVuSans-37" x="492.480469"/>
     </g>
    </g>
    <g id="line2d_27">
     <path d="M 198 307.278125 
L 218 307.278125 
L 238 307.278125 
" style="fill: none; stroke: #ff7f0e; stroke-width: 1.5; stroke-linecap: square"/>
    </g>
    <g id="text_18">
     <!-- alpha=-0.6 -->
     <g transform="translate(254 314.278125)scale(0.2 -0.2)">
      <use xlink:href="#DejaVuSans-61"/>
      <use xlink:href="#DejaVuSans-6c" x="61.279297"/>
      <use xlink:href="#DejaVuSans-70" x="89.0625"/>
      <use xlink:href="#DejaVuSans-68" x="152.539062"/>
      <use xlink:href="#DejaVuSans-61" x="215.917969"/>
      <use xlink:href="#DejaVuSans-3d" x="277.197266"/>
      <use xlink:href="#DejaVuSans-2d" x="360.986328"/>
      <use xlink:href="#DejaVuSans-30" x="397.070312"/>
      <use xlink:href="#DejaVuSans-2e" x="460.693359"/>
      <use xlink:href="#DejaVuSans-36" x="492.480469"/>
     </g>
    </g>
    <g id="line2d_28">
     <path d="M 198 336.634375 
L 218 336.634375 
L 238 336.634375 
" style="fill: none; stroke: #2ca02c; stroke-width: 1.5; stroke-linecap: square"/>
    </g>
    <g id="text_19">
     <!-- alpha=-0.5 -->
     <g transform="translate(254 343.634375)scale(0.2 -0.2)">
      <use xlink:href="#DejaVuSans-61"/>
      <use xlink:href="#DejaVuSans-6c" x="61.279297"/>
      <use xlink:href="#DejaVuSans-70" x="89.0625"/>
      <use xlink:href="#DejaVuSans-68" x="152.539062"/>
      <use xlink:href="#DejaVuSans-61" x="215.917969"/>
      <use xlink:href="#DejaVuSans-3d" x="277.197266"/>
      <use xlink:href="#DejaVuSans-2d" x="360.986328"/>
      <use xlink:href="#DejaVuSans-30" x="397.070312"/>
      <use xlink:href="#DejaVuSans-2e" x="460.693359"/>
      <use xlink:href="#DejaVuSans-35" x="492.480469"/>
     </g>
    </g>
    <g id="line2d_29">
     <path d="M 198 365.990625 
L 218 365.990625 
L 238 365.990625 
" style="fill: none; stroke: #d62728; stroke-width: 1.5; stroke-linecap: square"/>
    </g>
    <g id="text_20">
     <!-- alpha=-0.4 -->
     <g transform="translate(254 372.990625)scale(0.2 -0.2)">
      <use xlink:href="#DejaVuSans-61"/>
      <use xlink:href="#DejaVuSans-6c" x="61.279297"/>
      <use xlink:href="#DejaVuSans-70" x="89.0625"/>
      <use xlink:href="#DejaVuSans-68" x="152.539062"/>
      <use xlink:href="#DejaVuSans-61" x="215.917969"/>
      <use xlink:href="#DejaVuSans-3d" x="277.197266"/>
      <use xlink:href="#DejaVuSans-2d" x="360.986328"/>
      <use xlink:href="#DejaVuSans-30" x="397.070312"/>
      <use xlink:href="#DejaVuSans-2e" x="460.693359"/>
      <use xlink:href="#DejaVuSans-34" x="492.480469"/>
     </g>
    </g>
    <g id="line2d_30">
     <path d="M 198 395.346875 
L 218 395.346875 
L 238 395.346875 
" style="fill: none; stroke: #9467bd; stroke-width: 1.5; stroke-linecap: square"/>
    </g>
    <g id="text_21">
     <!-- alpha=-0.3 -->
     <g transform="translate(254 402.346875)scale(0.2 -0.2)">
      <defs>
       <path id="DejaVuSans-33" d="M 2597 2516 
Q 3050 2419 3304 2112 
Q 3559 1806 3559 1356 
Q 3559 666 3084 287 
Q 2609 -91 1734 -91 
Q 1441 -91 1130 -33 
Q 819 25 488 141 
L 488 750 
Q 750 597 1062 519 
Q 1375 441 1716 441 
Q 2309 441 2620 675 
Q 2931 909 2931 1356 
Q 2931 1769 2642 2001 
Q 2353 2234 1838 2234 
L 1294 2234 
L 1294 2753 
L 1863 2753 
Q 2328 2753 2575 2939 
Q 2822 3125 2822 3475 
Q 2822 3834 2567 4026 
Q 2313 4219 1838 4219 
Q 1578 4219 1281 4162 
Q 984 4106 628 3988 
L 628 4550 
Q 988 4650 1302 4700 
Q 1616 4750 1894 4750 
Q 2613 4750 3031 4423 
Q 3450 4097 3450 3541 
Q 3450 3153 3228 2886 
Q 3006 2619 2597 2516 
z
" transform="scale(0.015625)"/>
      </defs>
      <use xlink:href="#DejaVuSans-61"/>
      <use xlink:href="#DejaVuSans-6c" x="61.279297"/>
      <use xlink:href="#DejaVuSans-70" x="89.0625"/>
      <use xlink:href="#DejaVuSans-68" x="152.539062"/>
      <use xlink:href="#DejaVuSans-61" x="215.917969"/>
      <use xlink:href="#DejaVuSans-3d" x="277.197266"/>
      <use xlink:href="#DejaVuSans-2d" x="360.986328"/>
      <use xlink:href="#DejaVuSans-30" x="397.070312"/>
      <use xlink:href="#DejaVuSans-2e" x="460.693359"/>
      <use xlink:href="#DejaVuSans-33" x="492.480469"/>
     </g>
    </g>
    <g id="line2d_31">
     <path d="M 198 424.703125 
L 218 424.703125 
L 238 424.703125 
" style="fill: none; stroke: #8c564b; stroke-width: 1.5; stroke-linecap: square"/>
    </g>
    <g id="text_22">
     <!-- alpha=-0.2 -->
     <g transform="translate(254 431.703125)scale(0.2 -0.2)">
      <use xlink:href="#DejaVuSans-61"/>
      <use xlink:href="#DejaVuSans-6c" x="61.279297"/>
      <use xlink:href="#DejaVuSans-70" x="89.0625"/>
      <use xlink:href="#DejaVuSans-68" x="152.539062"/>
      <use xlink:href="#DejaVuSans-61" x="215.917969"/>
      <use xlink:href="#DejaVuSans-3d" x="277.197266"/>
      <use xlink:href="#DejaVuSans-2d" x="360.986328"/>
      <use xlink:href="#DejaVuSans-30" x="397.070312"/>
      <use xlink:href="#DejaVuSans-2e" x="460.693359"/>
      <use xlink:href="#DejaVuSans-32" x="492.480469"/>
     </g>
    </g>
    <g id="line2d_32">
     <path d="M 198 454.059375 
L 218 454.059375 
L 238 454.059375 
" style="fill: none; stroke: #e377c2; stroke-width: 1.5; stroke-linecap: square"/>
    </g>
    <g id="text_23">
     <!-- alpha=-0.1 -->
     <g transform="translate(254 461.059375)scale(0.2 -0.2)">
      <use xlink:href="#DejaVuSans-61"/>
      <use xlink:href="#DejaVuSans-6c" x="61.279297"/>
      <use xlink:href="#DejaVuSans-70" x="89.0625"/>
      <use xlink:href="#DejaVuSans-68" x="152.539062"/>
      <use xlink:href="#DejaVuSans-61" x="215.917969"/>
      <use xlink:href="#DejaVuSans-3d" x="277.197266"/>
      <use xlink:href="#DejaVuSans-2d" x="360.986328"/>
      <use xlink:href="#DejaVuSans-30" x="397.070312"/>
      <use xlink:href="#DejaVuSans-2e" x="460.693359"/>
      <use xlink:href="#DejaVuSans-31" x="492.480469"/>
     </g>
    </g>
    <g id="line2d_33">
     <path d="M 198 483.415625 
L 218 483.415625 
L 238 483.415625 
" style="fill: none; stroke: #7f7f7f; stroke-width: 1.5; stroke-linecap: square"/>
    </g>
    <g id="text_24">
     <!-- alpha=0.0 -->
     <g transform="translate(254 490.415625)scale(0.2 -0.2)">
      <use xlink:href="#DejaVuSans-61"/>
      <use xlink:href="#DejaVuSans-6c" x="61.279297"/>
      <use xlink:href="#DejaVuSans-70" x="89.0625"/>
      <use xlink:href="#DejaVuSans-68" x="152.539062"/>
      <use xlink:href="#DejaVuSans-61" x="215.917969"/>
      <use xlink:href="#DejaVuSans-3d" x="277.197266"/>
      <use xlink:href="#DejaVuSans-30" x="360.986328"/>
      <use xlink:href="#DejaVuSans-2e" x="424.609375"/>
      <use xlink:href="#DejaVuSans-30" x="456.396484"/>
     </g>
    </g>
    <g id="line2d_34">
     <path d="M 198 512.771875 
L 218 512.771875 
L 238 512.771875 
" style="fill: none; stroke: #bcbd22; stroke-width: 1.5; stroke-linecap: square"/>
    </g>
    <g id="text_25">
     <!-- alpha=0.1 -->
     <g transform="translate(254 519.771875)scale(0.2 -0.2)">
      <use xlink:href="#DejaVuSans-61"/>
      <use xlink:href="#DejaVuSans-6c" x="61.279297"/>
      <use xlink:href="#DejaVuSans-70" x="89.0625"/>
      <use xlink:href="#DejaVuSans-68" x="152.539062"/>
      <use xlink:href="#DejaVuSans-61" x="215.917969"/>
      <use xlink:href="#DejaVuSans-3d" x="277.197266"/>
      <use xlink:href="#DejaVuSans-30" x="360.986328"/>
      <use xlink:href="#DejaVuSans-2e" x="424.609375"/>
      <use xlink:href="#DejaVuSans-31" x="456.396484"/>
     </g>
    </g>
    <g id="line2d_35">
     <path d="M 198 542.128125 
L 218 542.128125 
L 238 542.128125 
" style="fill: none; stroke: #17becf; stroke-width: 1.5; stroke-linecap: square"/>
    </g>
    <g id="text_26">
     <!-- alpha=0.2 -->
     <g transform="translate(254 549.128125)scale(0.2 -0.2)">
      <use xlink:href="#DejaVuSans-61"/>
      <use xlink:href="#DejaVuSans-6c" x="61.279297"/>
      <use xlink:href="#DejaVuSans-70" x="89.0625"/>
      <use xlink:href="#DejaVuSans-68" x="152.539062"/>
      <use xlink:href="#DejaVuSans-61" x="215.917969"/>
      <use xlink:href="#DejaVuSans-3d" x="277.197266"/>
      <use xlink:href="#DejaVuSans-30" x="360.986328"/>
      <use xlink:href="#DejaVuSans-2e" x="424.609375"/>
      <use xlink:href="#DejaVuSans-32" x="456.396484"/>
     </g>
    </g>
    <g id="line2d_36">
     <path d="M 198 571.484375 
L 218 571.484375 
L 238 571.484375 
" style="fill: none; stroke: #1f77b4; stroke-width: 1.5; stroke-linecap: square"/>
    </g>
    <g id="text_27">
     <!-- alpha=0.3 -->
     <g transform="translate(254 578.484375)scale(0.2 -0.2)">
      <use xlink:href="#DejaVuSans-61"/>
      <use xlink:href="#DejaVuSans-6c" x="61.279297"/>
      <use xlink:href="#DejaVuSans-70" x="89.0625"/>
      <use xlink:href="#DejaVuSans-68" x="152.539062"/>
      <use xlink:href="#DejaVuSans-61" x="215.917969"/>
      <use xlink:href="#DejaVuSans-3d" x="277.197266"/>
      <use xlink:href="#DejaVuSans-30" x="360.986328"/>
      <use xlink:href="#DejaVuSans-2e" x="424.609375"/>
      <use xlink:href="#DejaVuSans-33" x="456.396484"/>
     </g>
    </g>
    <g id="line2d_37">
     <path d="M 198 600.840625 
L 218 600.840625 
L 238 600.840625 
" style="fill: none; stroke: #ff7f0e; stroke-width: 1.5; stroke-linecap: square"/>
    </g>
    <g id="text_28">
     <!-- alpha=0.4 -->
     <g transform="translate(254 607.840625)scale(0.2 -0.2)">
      <use xlink:href="#DejaVuSans-61"/>
      <use xlink:href="#DejaVuSans-6c" x="61.279297"/>
      <use xlink:href="#DejaVuSans-70" x="89.0625"/>
      <use xlink:href="#DejaVuSans-68" x="152.539062"/>
      <use xlink:href="#DejaVuSans-61" x="215.917969"/>
      <use xlink:href="#DejaVuSans-3d" x="277.197266"/>
      <use xlink:href="#DejaVuSans-30" x="360.986328"/>
      <use xlink:href="#DejaVuSans-2e" x="424.609375"/>
      <use xlink:href="#DejaVuSans-34" x="456.396484"/>
     </g>
    </g>
   </g>
  </g>
 </g>
 <defs>
  <clipPath id="p366c0c276e">
   <rect x="180" y="86.4" width="1116" height="543.6"/>
  </clipPath>
 </defs>
</svg>
