<?xml version="1.0" encoding="utf-8" standalone="no"?>
<!DOCTYPE svg PUBLIC "-//W3C//DTD SVG 1.1//EN"
  "http://www.w3.org/Graphics/SVG/1.1/DTD/svg11.dtd">
<svg xmlns:xlink="http://www.w3.org/1999/xlink" width="1440pt" height="720pt" viewBox="0 0 1440 720" xmlns="http://www.w3.org/2000/svg" version="1.1">
 <metadata>
  <rdf:RDF xmlns:dc="http://purl.org/dc/elements/1.1/" xmlns:cc="http://creativecommons.org/ns#" xmlns:rdf="http://www.w3.org/1999/02/22-rdf-syntax-ns#">
   <cc:Work>
    <dc:type rdf:resource="http://purl.org/dc/dcmitype/StillImage"/>
    <dc:date>2022-10-25T09:18:38.005982</dc:date>
    <dc:format>image/svg+xml</dc:format>
    <dc:creator>
     <cc:Agent>
      <dc:title>Matplotlib v3.5.1, https://matplotlib.org/</dc:title>
     </cc:Agent>
    </dc:creator>
   </cc:Work>
  </rdf:RDF>
 </metadata>
 <defs>
  <style type="text/css">*{stroke-linejoin: round; stroke-linecap: butt}</style>
 </defs>
 <g id="figure_1">
  <g id="patch_1">
   <path d="M 0 720 
L 1440 720 
L 1440 0 
L 0 0 
L 0 720 
z
" style="fill: none"/>
  </g>
  <g id="axes_1">
   <g id="patch_2">
    <path d="M 180 630 
L 1296 630 
L 1296 86.4 
L 180 86.4 
z
" style="fill: #ffffff"/>
   </g>
   <g id="matplotlib.axis_1">
    <g id="xtick_1">
     <g id="line2d_1">
      <defs>
       <path id="m66cef645e5" d="M 0 0 
L 0 3.5 
" style="stroke: #000000; stroke-width: 0.8"/>
      </defs>
      <g>
       <use xlink:href="#m66cef645e5" x="180" y="630" style="stroke: #000000; stroke-width: 0.8"/>
      </g>
     </g>
     <g id="text_1">
      <!-- 0 -->
      <g transform="translate(173.6375 652.196875)scale(0.2 -0.2)">
       <defs>
        <path id="DejaVuSans-30" d="M 2034 4250 
Q 1547 4250 1301 3770 
Q 1056 3291 1056 2328 
Q 1056 1369 1301 889 
Q 1547 409 2034 409 
Q 2525 409 2770 889 
Q 3016 1369 3016 2328 
Q 3016 3291 2770 3770 
Q 2525 4250 2034 4250 
z
M 2034 4750 
Q 2819 4750 3233 4129 
Q 3647 3509 3647 2328 
Q 3647 1150 3233 529 
Q 2819 -91 2034 -91 
Q 1250 -91 836 529 
Q 422 1150 422 2328 
Q 422 3509 836 4129 
Q 1250 4750 2034 4750 
z
" transform="scale(0.015625)"/>
       </defs>
       <use xlink:href="#DejaVuSans-30"/>
      </g>
     </g>
    </g>
    <g id="xtick_2">
     <g id="line2d_2">
      <g>
       <use xlink:href="#m66cef645e5" x="403.2" y="630" style="stroke: #000000; stroke-width: 0.8"/>
      </g>
     </g>
     <g id="text_2">
      <!-- 50 -->
      <g transform="translate(390.475 652.196875)scale(0.2 -0.2)">
       <defs>
        <path id="DejaVuSans-35" d="M 691 4666 
L 3169 4666 
L 3169 4134 
L 1269 4134 
L 1269 2991 
Q 1406 3038 1543 3061 
Q 1681 3084 1819 3084 
Q 2600 3084 3056 2656 
Q 3513 2228 3513 1497 
Q 3513 744 3044 326 
Q 2575 -91 1722 -91 
Q 1428 -91 1123 -41 
Q 819 9 494 109 
L 494 744 
Q 775 591 1075 516 
Q 1375 441 1709 441 
Q 2250 441 2565 725 
Q 2881 1009 2881 1497 
Q 2881 1984 2565 2268 
Q 2250 2553 1709 2553 
Q 1456 2553 1204 2497 
Q 953 2441 691 2322 
L 691 4666 
z
" transform="scale(0.015625)"/>
       </defs>
       <use xlink:href="#DejaVuSans-35"/>
       <use xlink:href="#DejaVuSans-30" x="63.623047"/>
      </g>
     </g>
    </g>
    <g id="xtick_3">
     <g id="line2d_3">
      <g>
       <use xlink:href="#m66cef645e5" x="626.4" y="630" style="stroke: #000000; stroke-width: 0.8"/>
      </g>
     </g>
     <g id="text_3">
      <!-- 100 -->
      <g transform="translate(607.3125 652.196875)scale(0.2 -0.2)">
       <defs>
        <path id="DejaVuSans-31" d="M 794 531 
L 1825 531 
L 1825 4091 
L 703 3866 
L 703 4441 
L 1819 4666 
L 2450 4666 
L 2450 531 
L 3481 531 
L 3481 0 
L 794 0 
L 794 531 
z
" transform="scale(0.015625)"/>
       </defs>
       <use xlink:href="#DejaVuSans-31"/>
       <use xlink:href="#DejaVuSans-30" x="63.623047"/>
       <use xlink:href="#DejaVuSans-30" x="127.246094"/>
      </g>
     </g>
    </g>
    <g id="xtick_4">
     <g id="line2d_4">
      <g>
       <use xlink:href="#m66cef645e5" x="849.6" y="630" style="stroke: #000000; stroke-width: 0.8"/>
      </g>
     </g>
     <g id="text_4">
      <!-- 150 -->
      <g transform="translate(830.5125 652.196875)scale(0.2 -0.2)">
       <use xlink:href="#DejaVuSans-31"/>
       <use xlink:href="#DejaVuSans-35" x="63.623047"/>
       <use xlink:href="#DejaVuSans-30" x="127.246094"/>
      </g>
     </g>
    </g>
    <g id="xtick_5">
     <g id="line2d_5">
      <g>
       <use xlink:href="#m66cef645e5" x="1072.8" y="630" style="stroke: #000000; stroke-width: 0.8"/>
      </g>
     </g>
     <g id="text_5">
      <!-- 200 -->
      <g transform="translate(1053.7125 652.196875)scale(0.2 -0.2)">
       <defs>
        <path id="DejaVuSans-32" d="M 1228 531 
L 3431 531 
L 3431 0 
L 469 0 
L 469 531 
Q 828 903 1448 1529 
Q 2069 2156 2228 2338 
Q 2531 2678 2651 2914 
Q 2772 3150 2772 3378 
Q 2772 3750 2511 3984 
Q 2250 4219 1831 4219 
Q 1534 4219 1204 4116 
Q 875 4013 500 3803 
L 500 4441 
Q 881 4594 1212 4672 
Q 1544 4750 1819 4750 
Q 2544 4750 2975 4387 
Q 3406 4025 3406 3419 
Q 3406 3131 3298 2873 
Q 3191 2616 2906 2266 
Q 2828 2175 2409 1742 
Q 1991 1309 1228 531 
z
" transform="scale(0.015625)"/>
       </defs>
       <use xlink:href="#DejaVuSans-32"/>
       <use xlink:href="#DejaVuSans-30" x="63.623047"/>
       <use xlink:href="#DejaVuSans-30" x="127.246094"/>
      </g>
     </g>
    </g>
    <g id="xtick_6">
     <g id="line2d_6">
      <g>
       <use xlink:href="#m66cef645e5" x="1296" y="630" style="stroke: #000000; stroke-width: 0.8"/>
      </g>
     </g>
     <g id="text_6">
      <!-- 250 -->
      <g transform="translate(1276.9125 652.196875)scale(0.2 -0.2)">
       <use xlink:href="#DejaVuSans-32"/>
       <use xlink:href="#DejaVuSans-35" x="63.623047"/>
       <use xlink:href="#DejaVuSans-30" x="127.246094"/>
      </g>
     </g>
    </g>
    <g id="text_7">
     <!-- epoch -->
     <g transform="translate(707.54375 675.553125)scale(0.2 -0.2)">
      <defs>
       <path id="DejaVuSans-65" d="M 3597 1894 
L 3597 1613 
L 953 1613 
Q 991 1019 1311 708 
Q 1631 397 2203 397 
Q 2534 397 2845 478 
Q 3156 559 3463 722 
L 3463 178 
Q 3153 47 2828 -22 
Q 2503 -91 2169 -91 
Q 1331 -91 842 396 
Q 353 884 353 1716 
Q 353 2575 817 3079 
Q 1281 3584 2069 3584 
Q 2775 3584 3186 3129 
Q 3597 2675 3597 1894 
z
M 3022 2063 
Q 3016 2534 2758 2815 
Q 2500 3097 2075 3097 
Q 1594 3097 1305 2825 
Q 1016 2553 972 2059 
L 3022 2063 
z
" transform="scale(0.015625)"/>
       <path id="DejaVuSans-70" d="M 1159 525 
L 1159 -1331 
L 581 -1331 
L 581 3500 
L 1159 3500 
L 1159 2969 
Q 1341 3281 1617 3432 
Q 1894 3584 2278 3584 
Q 2916 3584 3314 3078 
Q 3713 2572 3713 1747 
Q 3713 922 3314 415 
Q 2916 -91 2278 -91 
Q 1894 -91 1617 61 
Q 1341 213 1159 525 
z
M 3116 1747 
Q 3116 2381 2855 2742 
Q 2594 3103 2138 3103 
Q 1681 3103 1420 2742 
Q 1159 2381 1159 1747 
Q 1159 1113 1420 752 
Q 1681 391 2138 391 
Q 2594 391 2855 752 
Q 3116 1113 3116 1747 
z
" transform="scale(0.015625)"/>
       <path id="DejaVuSans-6f" d="M 1959 3097 
Q 1497 3097 1228 2736 
Q 959 2375 959 1747 
Q 959 1119 1226 758 
Q 1494 397 1959 397 
Q 2419 397 2687 759 
Q 2956 1122 2956 1747 
Q 2956 2369 2687 2733 
Q 2419 3097 1959 3097 
z
M 1959 3584 
Q 2709 3584 3137 3096 
Q 3566 2609 3566 1747 
Q 3566 888 3137 398 
Q 2709 -91 1959 -91 
Q 1206 -91 779 398 
Q 353 888 353 1747 
Q 353 2609 779 3096 
Q 1206 3584 1959 3584 
z
" transform="scale(0.015625)"/>
       <path id="DejaVuSans-63" d="M 3122 3366 
L 3122 2828 
Q 2878 2963 2633 3030 
Q 2388 3097 2138 3097 
Q 1578 3097 1268 2742 
Q 959 2388 959 1747 
Q 959 1106 1268 751 
Q 1578 397 2138 397 
Q 2388 397 2633 464 
Q 2878 531 3122 666 
L 3122 134 
Q 2881 22 2623 -34 
Q 2366 -91 2075 -91 
Q 1284 -91 818 406 
Q 353 903 353 1747 
Q 353 2603 823 3093 
Q 1294 3584 2113 3584 
Q 2378 3584 2631 3529 
Q 2884 3475 3122 3366 
z
" transform="scale(0.015625)"/>
       <path id="DejaVuSans-68" d="M 3513 2113 
L 3513 0 
L 2938 0 
L 2938 2094 
Q 2938 2591 2744 2837 
Q 2550 3084 2163 3084 
Q 1697 3084 1428 2787 
Q 1159 2491 1159 1978 
L 1159 0 
L 581 0 
L 581 4863 
L 1159 4863 
L 1159 2956 
Q 1366 3272 1645 3428 
Q 1925 3584 2291 3584 
Q 2894 3584 3203 3211 
Q 3513 2838 3513 2113 
z
" transform="scale(0.015625)"/>
      </defs>
      <use xlink:href="#DejaVuSans-65"/>
      <use xlink:href="#DejaVuSans-70" x="61.523438"/>
      <use xlink:href="#DejaVuSans-6f" x="125"/>
      <use xlink:href="#DejaVuSans-63" x="186.181641"/>
      <use xlink:href="#DejaVuSans-68" x="241.162109"/>
     </g>
    </g>
   </g>
   <g id="matplotlib.axis_2">
    <g id="ytick_1">
     <g id="line2d_7">
      <defs>
       <path id="m419fab13d2" d="M 0 0 
L -3.5 0 
" style="stroke: #000000; stroke-width: 0.8"/>
      </defs>
      <g>
       <use xlink:href="#m419fab13d2" x="180" y="569.6" style="stroke: #000000; stroke-width: 0.8"/>
      </g>
     </g>
     <g id="text_8">
      <!-- 1.4 -->
      <g transform="translate(141.19375 577.198437)scale(0.2 -0.2)">
       <defs>
        <path id="DejaVuSans-2e" d="M 684 794 
L 1344 794 
L 1344 0 
L 684 0 
L 684 794 
z
" transform="scale(0.015625)"/>
        <path id="DejaVuSans-34" d="M 2419 4116 
L 825 1625 
L 2419 1625 
L 2419 4116 
z
M 2253 4666 
L 3047 4666 
L 3047 1625 
L 3713 1625 
L 3713 1100 
L 3047 1100 
L 3047 0 
L 2419 0 
L 2419 1100 
L 313 1100 
L 313 1709 
L 2253 4666 
z
" transform="scale(0.015625)"/>
       </defs>
       <use xlink:href="#DejaVuSans-31"/>
       <use xlink:href="#DejaVuSans-2e" x="63.623047"/>
       <use xlink:href="#DejaVuSans-34" x="95.410156"/>
      </g>
     </g>
    </g>
    <g id="ytick_2">
     <g id="line2d_8">
      <g>
       <use xlink:href="#m419fab13d2" x="180" y="448.8" style="stroke: #000000; stroke-width: 0.8"/>
      </g>
     </g>
     <g id="text_9">
      <!-- 1.6 -->
      <g transform="translate(141.19375 456.398438)scale(0.2 -0.2)">
       <defs>
        <path id="DejaVuSans-36" d="M 2113 2584 
Q 1688 2584 1439 2293 
Q 1191 2003 1191 1497 
Q 1191 994 1439 701 
Q 1688 409 2113 409 
Q 2538 409 2786 701 
Q 3034 994 3034 1497 
Q 3034 2003 2786 2293 
Q 2538 2584 2113 2584 
z
M 3366 4563 
L 3366 3988 
Q 3128 4100 2886 4159 
Q 2644 4219 2406 4219 
Q 1781 4219 1451 3797 
Q 1122 3375 1075 2522 
Q 1259 2794 1537 2939 
Q 1816 3084 2150 3084 
Q 2853 3084 3261 2657 
Q 3669 2231 3669 1497 
Q 3669 778 3244 343 
Q 2819 -91 2113 -91 
Q 1303 -91 875 529 
Q 447 1150 447 2328 
Q 447 3434 972 4092 
Q 1497 4750 2381 4750 
Q 2619 4750 2861 4703 
Q 3103 4656 3366 4563 
z
" transform="scale(0.015625)"/>
       </defs>
       <use xlink:href="#DejaVuSans-31"/>
       <use xlink:href="#DejaVuSans-2e" x="63.623047"/>
       <use xlink:href="#DejaVuSans-36" x="95.410156"/>
      </g>
     </g>
    </g>
    <g id="ytick_3">
     <g id="line2d_9">
      <g>
       <use xlink:href="#m419fab13d2" x="180" y="328" style="stroke: #000000; stroke-width: 0.8"/>
      </g>
     </g>
     <g id="text_10">
      <!-- 1.8 -->
      <g transform="translate(141.19375 335.598437)scale(0.2 -0.2)">
       <defs>
        <path id="DejaVuSans-38" d="M 2034 2216 
Q 1584 2216 1326 1975 
Q 1069 1734 1069 1313 
Q 1069 891 1326 650 
Q 1584 409 2034 409 
Q 2484 409 2743 651 
Q 3003 894 3003 1313 
Q 3003 1734 2745 1975 
Q 2488 2216 2034 2216 
z
M 1403 2484 
Q 997 2584 770 2862 
Q 544 3141 544 3541 
Q 544 4100 942 4425 
Q 1341 4750 2034 4750 
Q 2731 4750 3128 4425 
Q 3525 4100 3525 3541 
Q 3525 3141 3298 2862 
Q 3072 2584 2669 2484 
Q 3125 2378 3379 2068 
Q 3634 1759 3634 1313 
Q 3634 634 3220 271 
Q 2806 -91 2034 -91 
Q 1263 -91 848 271 
Q 434 634 434 1313 
Q 434 1759 690 2068 
Q 947 2378 1403 2484 
z
M 1172 3481 
Q 1172 3119 1398 2916 
Q 1625 2713 2034 2713 
Q 2441 2713 2670 2916 
Q 2900 3119 2900 3481 
Q 2900 3844 2670 4047 
Q 2441 4250 2034 4250 
Q 1625 4250 1398 4047 
Q 1172 3844 1172 3481 
z
" transform="scale(0.015625)"/>
       </defs>
       <use xlink:href="#DejaVuSans-31"/>
       <use xlink:href="#DejaVuSans-2e" x="63.623047"/>
       <use xlink:href="#DejaVuSans-38" x="95.410156"/>
      </g>
     </g>
    </g>
    <g id="ytick_4">
     <g id="line2d_10">
      <g>
       <use xlink:href="#m419fab13d2" x="180" y="207.2" style="stroke: #000000; stroke-width: 0.8"/>
      </g>
     </g>
     <g id="text_11">
      <!-- 2.0 -->
      <g transform="translate(141.19375 214.798438)scale(0.2 -0.2)">
       <use xlink:href="#DejaVuSans-32"/>
       <use xlink:href="#DejaVuSans-2e" x="63.623047"/>
       <use xlink:href="#DejaVuSans-30" x="95.410156"/>
      </g>
     </g>
    </g>
    <g id="ytick_5">
     <g id="line2d_11">
      <g>
       <use xlink:href="#m419fab13d2" x="180" y="86.4" style="stroke: #000000; stroke-width: 0.8"/>
      </g>
     </g>
     <g id="text_12">
      <!-- 2.2 -->
      <g transform="translate(141.19375 93.998438)scale(0.2 -0.2)">
       <use xlink:href="#DejaVuSans-32"/>
       <use xlink:href="#DejaVuSans-2e" x="63.623047"/>
       <use xlink:href="#DejaVuSans-32" x="95.410156"/>
      </g>
     </g>
    </g>
    <g id="text_13">
     <!-- train loss -->
     <g transform="translate(133.034375 403.96875)rotate(-90)scale(0.2 -0.2)">
      <defs>
       <path id="DejaVuSans-74" d="M 1172 4494 
L 1172 3500 
L 2356 3500 
L 2356 3053 
L 1172 3053 
L 1172 1153 
Q 1172 725 1289 603 
Q 1406 481 1766 481 
L 2356 481 
L 2356 0 
L 1766 0 
Q 1100 0 847 248 
Q 594 497 594 1153 
L 594 3053 
L 172 3053 
L 172 3500 
L 594 3500 
L 594 4494 
L 1172 4494 
z
" transform="scale(0.015625)"/>
       <path id="DejaVuSans-72" d="M 2631 2963 
Q 2534 3019 2420 3045 
Q 2306 3072 2169 3072 
Q 1681 3072 1420 2755 
Q 1159 2438 1159 1844 
L 1159 0 
L 581 0 
L 581 3500 
L 1159 3500 
L 1159 2956 
Q 1341 3275 1631 3429 
Q 1922 3584 2338 3584 
Q 2397 3584 2469 3576 
Q 2541 3569 2628 3553 
L 2631 2963 
z
" transform="scale(0.015625)"/>
       <path id="DejaVuSans-61" d="M 2194 1759 
Q 1497 1759 1228 1600 
Q 959 1441 959 1056 
Q 959 750 1161 570 
Q 1363 391 1709 391 
Q 2188 391 2477 730 
Q 2766 1069 2766 1631 
L 2766 1759 
L 2194 1759 
z
M 3341 1997 
L 3341 0 
L 2766 0 
L 2766 531 
Q 2569 213 2275 61 
Q 1981 -91 1556 -91 
Q 1019 -91 701 211 
Q 384 513 384 1019 
Q 384 1609 779 1909 
Q 1175 2209 1959 2209 
L 2766 2209 
L 2766 2266 
Q 2766 2663 2505 2880 
Q 2244 3097 1772 3097 
Q 1472 3097 1187 3025 
Q 903 2953 641 2809 
L 641 3341 
Q 956 3463 1253 3523 
Q 1550 3584 1831 3584 
Q 2591 3584 2966 3190 
Q 3341 2797 3341 1997 
z
" transform="scale(0.015625)"/>
       <path id="DejaVuSans-69" d="M 603 3500 
L 1178 3500 
L 1178 0 
L 603 0 
L 603 3500 
z
M 603 4863 
L 1178 4863 
L 1178 4134 
L 603 4134 
L 603 4863 
z
" transform="scale(0.015625)"/>
       <path id="DejaVuSans-6e" d="M 3513 2113 
L 3513 0 
L 2938 0 
L 2938 2094 
Q 2938 2591 2744 2837 
Q 2550 3084 2163 3084 
Q 1697 3084 1428 2787 
Q 1159 2491 1159 1978 
L 1159 0 
L 581 0 
L 581 3500 
L 1159 3500 
L 1159 2956 
Q 1366 3272 1645 3428 
Q 1925 3584 2291 3584 
Q 2894 3584 3203 3211 
Q 3513 2838 3513 2113 
z
" transform="scale(0.015625)"/>
       <path id="DejaVuSans-20" transform="scale(0.015625)"/>
       <path id="DejaVuSans-6c" d="M 603 4863 
L 1178 4863 
L 1178 0 
L 603 0 
L 603 4863 
z
" transform="scale(0.015625)"/>
       <path id="DejaVuSans-73" d="M 2834 3397 
L 2834 2853 
Q 2591 2978 2328 3040 
Q 2066 3103 1784 3103 
Q 1356 3103 1142 2972 
Q 928 2841 928 2578 
Q 928 2378 1081 2264 
Q 1234 2150 1697 2047 
L 1894 2003 
Q 2506 1872 2764 1633 
Q 3022 1394 3022 966 
Q 3022 478 2636 193 
Q 2250 -91 1575 -91 
Q 1294 -91 989 -36 
Q 684 19 347 128 
L 347 722 
Q 666 556 975 473 
Q 1284 391 1588 391 
Q 1994 391 2212 530 
Q 2431 669 2431 922 
Q 2431 1156 2273 1281 
Q 2116 1406 1581 1522 
L 1381 1569 
Q 847 1681 609 1914 
Q 372 2147 372 2553 
Q 372 3047 722 3315 
Q 1072 3584 1716 3584 
Q 2034 3584 2315 3537 
Q 2597 3491 2834 3397 
z
" transform="scale(0.015625)"/>
      </defs>
      <use xlink:href="#DejaVuSans-74"/>
      <use xlink:href="#DejaVuSans-72" x="39.208984"/>
      <use xlink:href="#DejaVuSans-61" x="80.322266"/>
      <use xlink:href="#DejaVuSans-69" x="141.601562"/>
      <use xlink:href="#DejaVuSans-6e" x="169.384766"/>
      <use xlink:href="#DejaVuSans-20" x="232.763672"/>
      <use xlink:href="#DejaVuSans-6c" x="264.550781"/>
      <use xlink:href="#DejaVuSans-6f" x="292.333984"/>
      <use xlink:href="#DejaVuSans-73" x="353.515625"/>
      <use xlink:href="#DejaVuSans-73" x="405.615234"/>
     </g>
    </g>
   </g>
   <g id="line2d_12">
    <path d="M 345.100945 -1 
L 345.168 1.125212 
L 345.223538 -1 
M 357.695128 -1 
L 358.56 52.934979 
L 363.024 109.679503 
L 367.488 113.184436 
L 371.952 109.155469 
L 376.416 126.702025 
L 380.88 138.590343 
L 385.344 145.794184 
L 389.808 90.211059 
L 394.272 78.320725 
L 398.736 5.110401 
L 403.2 119.914933 
L 407.664 165.479787 
L 412.128 199.162083 
L 416.592 193.125833 
L 421.056 193.260477 
L 425.52 200.003935 
L 429.984 229.797165 
L 434.448 233.651742 
L 438.912 238.958895 
L 443.376 240.233122 
L 447.84 240.227434 
L 452.304 255.569996 
L 456.768 265.673734 
L 461.232 276.762753 
L 465.696 279.749485 
L 470.16 269.596425 
L 474.624 260.800107 
L 479.088 274.986454 
L 483.552 283.300932 
L 488.016 289.094318 
L 492.48 299.669312 
L 496.944 302.918637 
L 501.408 286.574738 
L 505.872 311.943851 
L 510.336 300.38732 
L 514.8 306.943788 
L 519.264 319.32093 
L 523.728 267.510587 
L 528.192 331.925888 
L 532.656 263.951076 
L 537.12 158.039778 
L 541.584 293.976802 
L 546.138842 -1 
M 554.21411 -1 
L 554.976 94.152471 
L 555.53012 -1 
M 568.041293 -1 
L 568.368 195.369716 
L 572.832 328.173339 
L 577.296 282.429127 
L 581.76 287.778834 
L 586.224 215.357297 
L 590.688 293.898967 
L 595.152 260.340299 
L 599.616 287.253 
L 604.08 252.28791 
L 608.544 305.044436 
L 613.008 264.753903 
L 617.472 304.968618 
L 621.936 274.938212 
L 626.4 363.415495 
L 630.864 430.106792 
L 635.328 428.386078 
L 639.792 430.811623 
L 644.256 440.211898 
L 648.72 436.193299 
L 653.184 444.296307 
L 657.648 445.641024 
L 662.112 450.869839 
L 666.576 444.964345 
L 671.04 443.646989 
L 675.504 443.098043 
L 679.968 449.054154 
L 684.432 453.720702 
L 688.896 447.08784 
L 693.36 441.274294 
L 697.824 458.611394 
L 702.288 447.812185 
L 706.752 446.446515 
L 711.216 452.429123 
L 715.68 446.737837 
L 720.144 454.514457 
L 724.608 448.233183 
L 729.072 440.794974 
L 733.536 455.213744 
L 738 451.347575 
L 742.464 466.963098 
L 746.928 461.698641 
L 751.392 468.347776 
L 755.856 474.66894 
L 760.32 464.028063 
L 764.784 457.949548 
L 769.248 461.767764 
L 773.712 464.256383 
L 778.176 460.87047 
L 782.64 460.941824 
L 787.104 461.671857 
L 791.568 470.455359 
L 796.032 476.020137 
L 800.496 464.555049 
L 804.96 480.388163 
L 809.424 478.292317 
L 813.888 479.044094 
L 818.352 476.396638 
L 822.816 473.103607 
L 827.28 477.674464 
L 831.744 479.411163 
L 836.208 482.230849 
L 840.672 480.511071 
L 845.136 490.061687 
L 849.6 487.720745 
L 854.064 488.800565 
L 858.528 496.306744 
L 862.992 487.545995 
L 867.456 484.334543 
L 871.92 493.684776 
L 876.384 503.698584 
L 880.848 489.06395 
L 885.312 486.511032 
L 889.776 498.216608 
L 894.24 497.172717 
L 898.704 489.449307 
L 903.168 495.714092 
L 907.632 500.150521 
L 912.096 501.202188 
L 921.024 492.230472 
L 925.488 503.883126 
L 929.952 491.460622 
L 934.416 499.798285 
L 938.88 508.58906 
L 943.344 506.457284 
L 947.808 503.46652 
L 952.272 499.102382 
L 956.736 499.156888 
L 961.2 504.535972 
L 965.664 499.583718 
L 970.128 493.549484 
L 974.592 494.731836 
L 979.056 508.887798 
L 983.52 503.684111 
L 987.984 514.022145 
L 992.448 505.793062 
L 996.912 495.259181 
L 1001.376 516.641665 
L 1005.84 519.351764 
L 1010.304 514.692056 
L 1014.768 518.968567 
L 1019.232 505.783342 
L 1023.696 498.012625 
L 1028.16 511.521718 
L 1032.624 522.076695 
L 1037.088 505.465379 
L 1041.552 524.573235 
L 1046.016 507.644316 
L 1050.48 520.631103 
L 1054.944 516.877329 
L 1059.408 524.85534 
L 1063.872 522.435771 
L 1068.336 518.383043 
L 1072.8 510.697794 
L 1077.264 518.730239 
L 1081.728 518.552969 
L 1086.192 528.713589 
L 1090.656 533.207116 
L 1095.12 524.276801 
L 1099.584 524.375228 
L 1104.048 520.900968 
L 1108.512 526.732659 
L 1112.976 521.385472 
L 1117.44 527.153873 
L 1121.904 530.490105 
L 1126.368 520.336325 
L 1130.832 536.253394 
L 1135.296 523.747655 
L 1139.76 521.789982 
L 1144.224 528.125762 
L 1148.688 534.087561 
L 1153.152 521.371936 
L 1157.616 533.514422 
L 1162.08 532.048093 
L 1166.544 522.666395 
L 1171.008 529.016 
L 1175.472 536.936049 
L 1179.936 532.972748 
L 1184.4 528.65786 
L 1188.864 525.164159 
L 1193.328 529.795354 
L 1197.792 532.774237 
L 1202.256 525.803828 
L 1206.72 538.287822 
L 1211.184 511.271509 
L 1215.648 533.349825 
L 1220.112 531.334693 
L 1224.576 534.52908 
L 1229.04 540.543153 
L 1233.504 530.585508 
L 1237.968 540.02272 
L 1242.432 535.88575 
L 1246.896 526.479499 
L 1251.36 531.037971 
L 1260.288 531.219993 
L 1264.752 534.144947 
L 1269.216 546.036145 
L 1273.68 537.40608 
L 1278.144 539.995215 
L 1282.608 526.004211 
L 1287.072 527.777486 
L 1291.536 542.555477 
L 1291.536 542.555477 
" clip-path="url(#p71fff1114b)" style="fill: none; stroke: #1f77b4; stroke-width: 1.5; stroke-linecap: square"/>
   </g>
   <g id="line2d_13">
    <path d="M 383.908782 -1 
L 385.344 17.928703 
L 385.588605 -1 
M 400.190758 -1 
L 403.2 116.459394 
L 404.444658 -1 
M 415.93744 -1 
L 416.592 91.646499 
L 421.056 220.769646 
L 425.52 226.456901 
L 429.984 239.881462 
L 434.448 254.854652 
L 438.912 271.255145 
L 443.376 283.483818 
L 447.84 274.740421 
L 452.304 289.009211 
L 456.768 301.809224 
L 461.232 293.957433 
L 465.696 290.518598 
L 470.16 307.901564 
L 474.624 314.795147 
L 479.088 312.09556 
L 483.552 323.050439 
L 488.016 334.806849 
L 492.48 316.573318 
L 496.944 329.559457 
L 501.408 336.552115 
L 505.872 341.399317 
L 510.336 336.360949 
L 514.8 347.372133 
L 519.264 340.742079 
L 523.728 356.559281 
L 528.192 357.210111 
L 532.656 369.989531 
L 537.12 362.577171 
L 541.584 370.209498 
L 546.048 377.156435 
L 550.512 376.525694 
L 554.976 361.318424 
L 559.44 354.239219 
L 563.904 349.759877 
L 568.368 249.779058 
L 572.832 316.450266 
L 577.296 6.8615 
L 581.76 67.452393 
L 586.224 232.836386 
L 590.688 344.990942 
L 595.152 95.603031 
L 597.899427 -1 
M 600.661365 -1 
L 604.08 196.383798 
L 608.544 58.558367 
L 613.008 318.256519 
L 617.472 430.143225 
L 621.936 428.108293 
L 626.4 452.495149 
L 630.864 475.788289 
L 635.328 470.656893 
L 639.792 485.881155 
L 644.256 470.015136 
L 648.72 474.538615 
L 653.184 467.071389 
L 657.648 488.59579 
L 662.112 473.088847 
L 666.576 471.574852 
L 671.04 479.216252 
L 675.504 477.598646 
L 679.968 488.806685 
L 684.432 482.291547 
L 688.896 474.929228 
L 693.36 486.516648 
L 697.824 474.588369 
L 702.288 485.787408 
L 706.752 490.197268 
L 711.216 482.147542 
L 715.68 489.73278 
L 720.144 488.691769 
L 724.608 483.320389 
L 729.072 488.225338 
L 733.536 497.516457 
L 738 490.546839 
L 742.464 496.784984 
L 746.928 493.513483 
L 751.392 497.704239 
L 755.856 494.904065 
L 760.32 501.092745 
L 764.784 508.011168 
L 769.248 504.971226 
L 773.712 507.750951 
L 778.176 507.466398 
L 782.64 502.727343 
L 787.104 503.014129 
L 791.568 495.199851 
L 796.032 499.284116 
L 800.496 510.802126 
L 804.96 505.993085 
L 809.424 502.298929 
L 813.888 509.717841 
L 818.352 511.382681 
L 822.816 515.650048 
L 827.28 523.174948 
L 831.744 514.867814 
L 836.208 518.430637 
L 840.672 518.537993 
L 845.136 531.656184 
L 849.6 539.397667 
L 854.064 523.52848 
L 858.528 521.787533 
L 862.992 536.153382 
L 867.456 531.601678 
L 871.92 519.664902 
L 876.384 537.629432 
L 880.848 528.148658 
L 885.312 534.937622 
L 889.776 527.886066 
L 894.24 536.156983 
L 898.704 535.526602 
L 903.168 536.789308 
L 907.632 548.192402 
L 912.096 545.317129 
L 916.56 536.524699 
L 921.024 531.854551 
L 925.488 548.144448 
L 929.952 548.018156 
L 934.416 538.271837 
L 938.88 534.328553 
L 943.344 539.484718 
L 947.808 549.417451 
L 952.272 557.981633 
L 956.736 557.022201 
L 961.2 553.313861 
L 965.664 541.719673 
L 970.128 543.574023 
L 974.592 544.622306 
L 979.056 553.002523 
L 983.52 545.345714 
L 987.984 551.437766 
L 992.448 551.650029 
L 996.912 551.149541 
L 1001.376 548.725579 
L 1005.84 557.272914 
L 1010.304 555.833369 
L 1014.768 553.10239 
L 1019.232 566.802649 
L 1023.696 564.355719 
L 1028.16 567.199022 
L 1032.624 556.043328 
L 1037.088 552.192928 
L 1041.552 567.908102 
L 1046.016 561.563825 
L 1050.48 560.357497 
L 1054.944 561.126555 
L 1059.408 566.90374 
L 1063.872 560.013757 
L 1068.336 564.587279 
L 1072.8 575.358479 
L 1077.264 572.975271 
L 1081.728 568.030506 
L 1086.192 564.319718 
L 1090.656 571.626306 
L 1095.12 571.792632 
L 1099.584 574.090157 
L 1104.048 573.389429 
L 1108.512 572.217374 
L 1112.976 562.339075 
L 1117.44 581.645874 
L 1121.904 578.205743 
L 1126.368 567.552194 
L 1130.832 562.765042 
L 1135.296 569.069069 
L 1139.76 570.086319 
L 1144.224 567.499776 
L 1148.688 555.982558 
L 1153.152 564.237419 
L 1157.616 580.721363 
L 1162.08 566.618755 
L 1166.544 575.210802 
L 1171.008 572.006839 
L 1175.472 576.488845 
L 1179.936 573.27977 
L 1184.4 572.378011 
L 1188.864 580.763196 
L 1193.328 560.873034 
L 1197.792 583.483087 
L 1202.256 572.116715 
L 1206.72 576.037318 
L 1211.184 579.723841 
L 1215.648 578.468047 
L 1220.112 576.952253 
L 1224.576 574.939641 
L 1229.04 582.55512 
L 1233.504 567.763521 
L 1237.968 572.585738 
L 1242.432 586.571127 
L 1246.896 577.95215 
L 1251.36 577.109146 
L 1255.824 579.036362 
L 1260.288 569.334614 
L 1264.752 580.349182 
L 1269.216 570.661546 
L 1273.68 585.855639 
L 1278.144 577.663276 
L 1282.608 585.78774 
L 1287.072 582.483118 
L 1291.536 576.286662 
L 1291.536 576.286662 
" clip-path="url(#p71fff1114b)" style="fill: none; stroke: #ff7f0e; stroke-width: 1.5; stroke-linecap: square"/>
   </g>
   <g id="line2d_14">
    <path d="M 330.99083 -1 
L 331.776 7.827484 
L 336.24 20.884546 
L 340.704 42.434867 
L 345.168 75.348753 
L 349.632 85.074839 
L 354.096 109.932375 
L 358.56 122.459211 
L 363.024 135.920061 
L 367.488 139.672395 
L 371.952 149.040773 
L 376.416 151.757424 
L 380.88 159.335677 
L 385.344 167.331977 
L 389.808 164.271587 
L 394.272 178.17122 
L 398.736 181.723675 
L 403.2 214.095455 
L 407.664 219.304757 
L 412.128 223.184031 
L 416.592 232.584666 
L 421.056 226.780408 
L 425.52 239.271458 
L 429.984 244.995434 
L 434.448 237.593946 
L 438.912 233.411686 
L 443.376 253.36881 
L 447.84 249.65687 
L 452.304 265.815795 
L 456.768 258.552119 
L 461.232 261.821173 
L 465.696 267.334614 
L 470.16 277.549812 
L 474.624 279.122344 
L 479.088 285.380722 
L 483.552 289.261364 
L 488.016 302.263847 
L 492.48 295.164121 
L 496.944 311.86364 
L 501.408 309.846277 
L 510.336 318.225414 
L 514.8 328.909347 
L 519.264 328.345064 
L 523.728 331.012826 
L 528.192 337.498299 
L 532.656 349.728988 
L 537.12 359.767708 
L 541.584 355.626634 
L 546.048 349.462363 
L 550.512 341.963096 
L 554.976 343.185409 
L 559.44 349.908706 
L 563.904 359.200978 
L 568.368 391.504859 
L 572.832 381.255532 
L 577.296 346.869197 
L 581.76 362.628724 
L 586.224 389.661813 
L 590.688 399.522904 
L 595.152 415.809993 
L 599.616 402.15272 
L 604.08 341.771354 
L 608.544 242.519343 
L 613.008 278.285892 
L 617.472 408.7341 
L 621.936 385.3241 
L 626.4 439.032715 
L 635.328 460.386686 
L 639.792 469.612714 
L 644.256 475.595755 
L 648.72 466.546276 
L 653.184 464.981303 
L 657.648 471.773291 
L 662.112 467.318718 
L 666.576 468.455708 
L 671.04 476.995338 
L 675.504 483.838663 
L 679.968 468.305295 
L 684.432 475.246975 
L 688.896 473.121536 
L 693.36 470.479119 
L 697.824 482.464929 
L 702.288 485.199076 
L 706.752 469.913253 
L 711.216 470.026296 
L 715.68 489.352607 
L 720.144 484.30387 
L 724.608 496.443261 
L 729.072 483.956963 
L 733.536 490.718853 
L 738 490.788696 
L 742.464 488.589958 
L 746.928 494.839623 
L 751.392 498.499866 
L 755.856 485.519991 
L 760.32 487.514818 
L 764.784 490.755934 
L 769.248 501.507622 
L 773.712 492.034985 
L 778.176 501.643275 
L 782.64 489.885281 
L 787.104 501.380826 
L 791.568 512.252614 
L 796.032 501.871451 
L 800.496 500.29179 
L 804.96 506.175107 
L 809.424 520.660624 
L 813.888 498.455224 
L 818.352 513.689566 
L 822.816 509.229809 
L 827.28 510.019747 
L 831.744 516.406649 
L 836.208 517.97047 
L 840.672 525.701945 
L 845.136 514.559283 
L 849.6 529.406829 
L 854.064 525.801812 
L 858.528 524.433694 
L 862.992 521.354079 
L 867.456 523.579601 
L 871.92 528.981222 
L 876.384 525.948409 
L 880.848 526.837351 
L 885.312 514.809996 
L 889.776 545.079017 
L 894.24 535.093651 
L 898.704 531.563805 
L 903.168 530.241625 
L 907.632 524.694487 
L 912.096 535.694007 
L 916.56 535.747505 
L 921.024 528.135122 
L 925.488 543.208683 
L 929.952 533.57512 
L 934.416 528.347457 
L 938.88 531.495835 
L 943.344 533.814168 
L 947.808 546.439575 
L 952.272 538.548687 
L 956.736 542.839526 
L 961.2 543.287597 
L 965.664 544.958269 
L 970.128 548.702899 
L 974.592 542.477786 
L 979.056 539.624763 
L 983.52 543.392073 
L 987.984 542.17372 
L 992.448 546.443967 
L 996.912 540.852764 
L 1001.376 544.33408 
L 1005.84 540.454014 
L 1010.304 548.024924 
L 1014.768 547.637191 
L 1019.232 541.392926 
L 1023.696 548.721403 
L 1028.16 546.306082 
L 1032.624 551.629293 
L 1037.088 558.040315 
L 1041.552 560.204204 
L 1046.016 565.324799 
L 1050.48 549.970573 
L 1054.944 548.924378 
L 1059.408 560.311559 
L 1063.872 557.976521 
L 1068.336 546.212119 
L 1072.8 559.336863 
L 1077.264 577.322345 
L 1081.728 561.007103 
L 1086.192 565.689491 
L 1090.656 566.685357 
L 1095.12 549.434083 
L 1099.584 566.18422 
L 1104.048 580.802077 
L 1108.512 549.488805 
L 1112.976 569.799677 
L 1117.44 565.626417 
L 1121.904 570.937675 
L 1126.368 564.634728 
L 1130.832 555.131274 
L 1135.296 555.296591 
L 1139.76 560.559608 
L 1144.224 562.588204 
L 1148.688 555.846114 
L 1153.152 580.739939 
L 1157.616 561.330538 
L 1162.08 566.66066 
L 1166.544 565.339344 
L 1171.008 560.531815 
L 1175.472 571.104793 
L 1179.936 559.173561 
L 1184.4 565.727869 
L 1188.864 558.148967 
L 1193.328 548.434546 
L 1197.792 560.289167 
L 1202.256 561.633452 
L 1206.72 572.344674 
L 1211.184 566.319225 
L 1215.648 567.08101 
L 1220.112 568.986842 
L 1224.576 565.268709 
L 1229.04 566.557121 
L 1233.504 571.659787 
L 1237.968 562.686559 
L 1242.432 565.938836 
L 1246.896 558.472474 
L 1251.36 575.963803 
L 1255.824 567.188078 
L 1260.288 568.45244 
L 1264.752 576.732501 
L 1269.216 566.537968 
L 1273.68 571.699173 
L 1278.144 562.461551 
L 1282.608 558.18108 
L 1287.072 566.857947 
L 1291.536 575.97626 
L 1291.536 575.97626 
" clip-path="url(#p71fff1114b)" style="fill: none; stroke: #2ca02c; stroke-width: 1.5; stroke-linecap: square"/>
   </g>
   <g id="line2d_15">
    <path d="M 326.956938 -1 
L 327.312 1.758401 
L 331.776 7.891422 
L 336.24 18.040018 
L 340.704 21.715021 
L 345.168 39.885694 
L 349.632 41.919762 
L 354.096 85.136329 
L 358.56 100.732771 
L 363.024 118.403747 
L 367.488 94.683417 
L 371.952 144.932459 
L 376.416 105.757675 
L 380.88 125.121572 
L 384.270781 -1 
M 416.220995 -1 
L 416.592 53.459732 
L 416.871418 -1 
M 429.564109 -1 
L 429.984 132.088381 
L 432.909612 -1 
M 441.171618 -1 
L 443.376 201.048258 
L 447.84 261.479017 
L 452.304 257.946291 
L 456.768 285.265446 
L 461.232 302.733087 
L 465.696 302.227918 
L 470.16 300.899329 
L 474.624 301.438339 
L 479.088 309.493465 
L 483.552 313.653332 
L 488.016 318.630499 
L 492.48 326.689441 
L 496.944 321.730563 
L 501.408 336.048386 
L 505.872 337.301876 
L 510.336 340.457454 
L 514.8 339.312472 
L 519.264 352.555011 
L 523.728 359.978316 
L 528.192 358.477065 
L 532.656 370.764637 
L 537.12 365.000052 
L 541.584 365.843992 
L 546.048 370.260764 
L 550.512 388.449653 
L 554.976 387.845841 
L 559.44 389.563746 
L 563.904 393.382394 
L 568.368 388.274759 
L 572.832 401.569068 
L 577.296 399.216317 
L 581.76 413.757492 
L 586.224 420.210996 
L 590.688 417.009481 
L 595.152 401.381358 
L 599.616 417.233193 
L 604.08 418.725443 
L 608.544 432.827763 
L 613.008 445.035268 
L 617.472 427.035961 
L 621.936 443.219367 
L 626.4 463.638098 
L 630.864 459.448278 
L 635.328 473.148609 
L 639.792 473.82716 
L 644.256 463.37673 
L 648.72 470.634213 
L 653.184 474.366314 
L 657.648 463.486749 
L 662.112 462.78955 
L 666.576 485.41278 
L 671.04 481.740585 
L 675.504 466.087908 
L 679.968 466.081932 
L 684.432 486.904165 
L 688.896 482.721545 
L 693.36 484.71594 
L 697.824 479.783415 
L 702.288 491.02688 
L 706.752 487.139973 
L 711.216 493.904168 
L 715.68 495.961349 
L 720.144 483.001779 
L 724.608 491.629324 
L 729.072 493.320588 
L 733.536 477.830998 
L 738 499.307805 
L 742.464 486.779673 
L 746.928 498.879174 
L 751.392 497.986777 
L 755.856 487.200167 
L 760.32 484.416482 
L 764.784 495.868178 
L 769.248 498.2156 
L 773.712 507.176084 
L 778.176 502.516736 
L 782.64 496.312216 
L 787.104 511.251277 
L 791.568 507.889484 
L 796.032 511.690707 
L 800.496 510.74798 
L 804.96 507.908565 
L 809.424 515.217241 
L 813.888 511.487445 
L 818.352 516.486284 
L 822.816 509.546908 
L 827.28 513.767545 
L 831.744 523.743335 
L 836.208 518.860851 
L 840.672 522.234884 
L 845.136 531.769876 
L 849.6 537.542813 
L 854.064 534.702822 
L 858.528 525.074084 
L 862.992 531.975875 
L 867.456 530.603797 
L 871.92 544.311112 
L 876.384 539.618355 
L 880.848 539.23415 
L 885.312 538.269677 
L 889.776 528.762623 
L 894.24 533.91382 
L 898.704 543.410289 
L 903.168 547.913608 
L 907.632 527.25266 
L 912.096 548.902561 
L 916.56 527.874761 
L 921.024 553.545277 
L 925.488 547.099333 
L 929.952 548.896657 
L 934.416 550.426276 
L 938.88 553.302053 
L 943.344 533.776583 
L 947.808 529.585971 
L 952.272 547.980787 
L 956.736 553.763012 
L 961.2 550.332385 
L 965.664 545.492743 
L 970.128 555.192764 
L 974.592 554.59212 
L 979.056 555.417844 
L 983.52 551.855092 
L 987.984 555.504174 
L 992.448 554.8388 
L 996.912 556.543241 
L 1001.376 562.757841 
L 1005.84 543.474084 
L 1010.304 565.847105 
L 1014.768 571.931956 
L 1019.232 563.085308 
L 1023.696 567.102971 
L 1028.16 565.200883 
L 1032.624 571.734598 
L 1037.088 572.81017 
L 1041.552 558.805197 
L 1046.016 550.437941 
L 1050.48 568.413343 
L 1054.944 564.33635 
L 1059.408 564.983652 
L 1063.872 559.047269 
L 1068.336 566.468846 
L 1072.8 571.203652 
L 1077.264 574.486674 
L 1081.728 578.613708 
L 1086.192 578.218199 
L 1090.656 578.428806 
L 1095.12 578.794866 
L 1099.584 560.414883 
L 1104.048 579.030602 
L 1108.512 577.336097 
L 1112.976 578.464879 
L 1117.44 577.538136 
L 1121.904 572.072865 
L 1126.368 567.72752 
L 1130.832 567.715351 
L 1135.296 576.056255 
L 1139.76 575.905626 
L 1144.224 566.742167 
L 1148.688 571.462573 
L 1153.152 565.031965 
L 1157.616 588.898173 
L 1162.08 584.266617 
L 1166.544 576.301423 
L 1171.008 561.706462 
L 1175.472 586.00382 
L 1179.936 572.870436 
L 1184.4 568.001201 
L 1188.864 575.304837 
L 1193.328 572.370595 
L 1197.792 573.584988 
L 1202.256 582.663484 
L 1206.72 583.278096 
L 1211.184 578.581523 
L 1215.648 577.028575 
L 1220.112 579.868926 
L 1224.576 575.977412 
L 1229.04 583.659349 
L 1233.504 581.667834 
L 1237.968 589.763282 
L 1242.432 584.39867 
L 1246.896 580.601767 
L 1251.36 584.526762 
L 1255.824 589.556131 
L 1260.288 583.465231 
L 1264.752 579.39263 
L 1269.216 585.781692 
L 1273.68 593.885996 
L 1278.144 572.669261 
L 1282.608 578.909998 
L 1287.072 580.734539 
L 1291.536 574.948857 
L 1291.536 574.948857 
" clip-path="url(#p71fff1114b)" style="fill: none; stroke: #d62728; stroke-width: 1.5; stroke-linecap: square"/>
   </g>
   <g id="line2d_16">
    <path d="M 346.79604 -1 
L 349.632 12.587996 
L 354.096 49.613507 
L 358.56 55.07201 
L 363.024 52.011908 
L 367.488 72.655863 
L 371.952 81.593666 
L 376.416 28.104659 
L 378.46199 -1 
M 398.697361 -1 
L 398.736 2.091628 
L 403.2 10.819617 
L 407.664 67.398103 
L 412.128 153.786596 
L 416.592 160.940755 
L 421.056 176.798422 
L 425.52 187.238772 
L 429.984 197.197857 
L 434.448 196.614494 
L 438.912 225.619153 
L 443.376 215.621762 
L 447.84 223.204552 
L 452.304 238.56425 
L 456.768 231.126545 
L 461.232 255.557899 
L 465.696 242.264022 
L 470.16 239.241721 
L 474.624 244.347556 
L 479.088 260.489704 
L 483.552 278.073053 
L 488.016 270.718079 
L 492.48 281.471711 
L 496.944 280.059672 
L 501.408 290.694428 
L 505.872 296.712245 
L 510.336 306.648578 
L 514.8 314.163109 
L 519.264 300.596127 
L 523.728 323.258454 
L 528.192 331.826381 
L 532.656 335.034448 
L 537.12 330.31037 
L 541.584 333.507421 
L 546.048 337.658216 
L 550.512 357.318762 
L 554.976 374.995786 
L 559.44 353.334005 
L 563.904 362.833859 
L 568.368 353.767532 
L 572.832 372.48211 
L 577.296 388.099793 
L 581.76 389.430902 
L 586.224 382.04223 
L 590.688 417.569804 
L 595.152 406.532338 
L 599.616 408.277245 
L 604.08 396.874223 
L 608.544 395.653782 
L 613.008 372.390019 
L 617.472 400.960144 
L 621.936 414.716204 
L 626.4 424.125623 
L 630.864 440.609567 
L 635.328 436.766223 
L 639.792 449.963833 
L 644.256 449.555939 
L 648.72 467.794654 
L 653.184 462.350047 
L 657.648 454.59726 
L 662.112 455.727986 
L 666.576 460.375669 
L 671.04 457.77703 
L 675.504 464.09553 
L 679.968 453.900852 
L 684.432 465.06101 
L 688.896 465.148349 
L 693.36 468.501285 
L 697.824 465.937423 
L 702.288 472.184281 
L 706.752 465.128116 
L 711.216 475.234663 
L 715.68 473.768118 
L 720.144 471.841189 
L 724.608 488.64936 
L 729.072 484.513685 
L 733.536 479.656619 
L 738 482.226169 
L 742.464 478.669538 
L 746.928 487.041474 
L 751.392 482.712185 
L 755.856 484.219628 
L 760.32 479.741222 
L 764.784 492.393125 
L 769.248 480.377363 
L 773.712 487.336108 
L 778.176 495.256517 
L 782.64 489.052069 
L 787.104 499.597686 
L 791.568 503.337708 
L 796.032 494.248339 
L 800.496 497.038505 
L 804.96 497.635981 
L 809.424 500.280269 
L 813.888 516.267325 
L 818.352 507.969983 
L 822.816 496.245974 
L 827.28 519.334123 
L 831.744 502.845283 
L 836.208 511.771278 
L 840.672 497.02792 
L 845.136 507.234694 
L 849.6 511.502709 
L 854.064 523.328673 
L 858.528 513.346043 
L 862.992 523.031951 
L 867.456 519.020697 
L 871.92 522.118889 
L 876.384 508.680863 
L 880.848 516.802519 
L 885.312 509.665064 
L 889.776 521.717475 
L 894.24 521.015596 
L 898.704 527.493365 
L 903.168 514.87883 
L 907.632 527.52591 
L 912.096 515.555869 
L 916.56 520.540956 
L 921.024 535.614588 
L 925.488 537.519124 
L 929.952 522.047966 
L 934.416 528.564328 
L 938.88 528.791784 
L 943.344 530.523154 
L 947.808 522.682811 
L 952.272 531.574605 
L 956.736 532.644417 
L 961.2 532.281309 
L 965.664 535.209791 
L 970.128 528.219005 
L 974.592 526.225402 
L 979.056 534.128891 
L 983.52 536.555732 
L 987.984 542.325645 
L 992.448 541.261594 
L 996.912 551.701079 
L 1001.376 529.419285 
L 1005.84 536.698009 
L 1010.304 534.951518 
L 1014.768 541.006561 
L 1019.232 555.026942 
L 1028.16 524.579571 
L 1032.624 539.869571 
L 1037.088 547.685001 
L 1041.552 556.829739 
L 1046.016 546.546642 
L 1050.48 545.469126 
L 1054.944 550.774624 
L 1059.408 553.16388 
L 1063.872 550.802921 
L 1068.336 557.436935 
L 1072.8 558.143135 
L 1077.264 547.220729 
L 1081.728 558.929113 
L 1086.192 547.979994 
L 1090.656 565.178202 
L 1095.12 554.479148 
L 1099.584 567.579771 
L 1104.048 560.010805 
L 1108.512 566.443861 
L 1112.976 561.999368 
L 1117.44 552.789396 
L 1121.904 560.848193 
L 1126.368 552.728986 
L 1130.832 552.959753 
L 1135.296 553.075677 
L 1139.76 554.96862 
L 1144.224 558.48637 
L 1148.688 565.470244 
L 1153.152 556.093874 
L 1157.616 549.538487 
L 1162.08 560.446204 
L 1166.544 559.270045 
L 1171.008 557.860669 
L 1175.472 553.863671 
L 1179.936 553.742203 
L 1184.4 554.079679 
L 1188.864 561.152404 
L 1197.792 555.501654 
L 1202.256 569.824446 
L 1206.72 559.382512 
L 1211.184 557.000889 
L 1215.648 565.764662 
L 1220.112 561.482103 
L 1224.576 552.597221 
L 1229.04 567.011096 
L 1233.504 558.141695 
L 1237.968 574.058692 
L 1242.432 558.754435 
L 1246.896 559.294597 
L 1251.36 568.610125 
L 1255.824 558.893832 
L 1260.288 556.409245 
L 1264.752 553.174968 
L 1269.216 563.483626 
L 1273.68 552.570724 
L 1278.144 567.196862 
L 1282.608 573.23808 
L 1287.072 557.661583 
L 1291.536 562.608076 
L 1291.536 562.608076 
" clip-path="url(#p71fff1114b)" style="fill: none; stroke: #9467bd; stroke-width: 1.5; stroke-linecap: square"/>
   </g>
   <g id="line2d_17">
    <path d="M 331.427423 -1 
L 331.776 9.325998 
L 332.88439 -1 
M 341.900922 -1 
L 345.168 20.664506 
L 349.632 -0.250754 
L 354.096 20.656874 
L 358.56 57.861816 
L 363.024 75.833473 
L 367.488 92.666917 
L 371.952 81.838186 
L 376.416 82.641013 
L 380.88 121.424248 
L 385.344 99.400294 
L 389.808 70.941918 
L 394.272 110.165663 
L 398.736 159.990179 
L 403.2 114.955263 
L 407.664 190.171286 
L 412.128 140.29824 
L 416.592 131.781363 
L 421.056 238.552298 
L 425.52 246.691306 
L 429.984 239.758698 
L 434.448 257.067286 
L 438.912 267.837046 
L 443.376 256.845806 
L 447.84 289.31911 
L 452.304 283.919793 
L 456.768 280.966326 
L 461.232 291.902484 
L 465.696 303.562771 
L 470.16 297.207478 
L 474.624 299.970858 
L 479.088 326.455577 
L 483.552 328.120129 
L 488.016 331.443976 
L 492.48 337.278115 
L 496.944 342.708681 
L 501.408 339.421627 
L 505.872 358.002065 
L 510.336 358.31938 
L 514.8 361.523199 
L 519.264 371.353112 
L 523.728 376.675603 
L 528.192 373.750289 
L 532.656 383.326969 
L 537.12 387.315399 
L 541.584 381.223851 
L 546.048 399.195437 
L 550.512 395.057602 
L 554.976 388.879147 
L 559.44 377.326936 
L 563.904 392.616216 
L 568.368 411.975721 
L 572.832 412.48161 
L 577.296 437.079073 
L 581.76 416.953535 
L 586.224 448.661597 
L 590.688 420.956077 
L 595.152 454.828099 
L 599.616 430.217603 
L 604.08 464.846587 
L 608.544 454.715488 
L 613.008 461.107862 
L 617.472 447.56212 
L 626.4 480.560969 
L 630.864 486.875653 
L 635.328 483.914553 
L 639.792 492.828452 
L 644.256 491.339874 
L 648.72 504.497739 
L 653.184 495.10452 
L 657.648 499.28858 
L 662.112 501.088208 
L 666.576 504.167463 
L 671.04 491.518152 
L 675.504 498.259882 
L 679.968 492.277201 
L 684.432 518.426173 
L 688.896 510.382856 
L 693.36 513.507184 
L 697.824 498.613558 
L 702.288 531.030915 
L 706.752 504.47369 
L 711.216 512.253838 
L 715.68 516.900226 
L 720.144 523.308224 
L 724.608 519.54653 
L 729.072 517.812208 
L 733.536 519.910575 
L 738 518.249335 
L 742.464 520.273179 
L 746.928 519.653382 
L 751.392 515.286724 
L 755.856 529.898101 
L 760.32 537.517972 
L 764.784 535.202159 
L 769.248 521.222387 
L 773.712 526.82079 
L 778.176 536.765259 
L 782.64 528.995623 
L 787.104 522.018013 
L 791.568 526.956515 
L 796.032 527.317895 
L 800.496 531.459617 
L 804.96 525.491842 
L 809.424 530.505009 
L 813.888 537.761268 
L 818.352 537.309525 
L 822.816 541.263538 
L 827.28 554.982805 
L 831.744 540.542793 
L 836.208 540.648637 
L 840.672 543.686059 
L 845.136 559.083198 
L 849.6 549.679971 
L 854.064 556.456478 
L 858.528 559.409009 
L 862.992 559.098247 
L 867.456 557.360973 
L 871.92 544.808936 
L 876.384 560.230197 
L 880.848 546.225872 
L 885.312 554.004652 
L 889.776 567.474143 
L 894.24 553.509276 
L 898.704 545.247215 
L 903.168 559.106383 
L 907.632 565.686971 
L 912.096 572.796561 
L 916.56 555.53672 
L 921.024 552.825973 
L 925.488 561.959767 
L 929.952 566.115098 
L 934.416 557.907111 
L 938.88 554.397353 
L 943.344 563.558292 
L 947.808 562.916319 
L 952.272 559.494908 
L 956.736 554.434651 
L 961.2 560.481845 
L 965.664 563.79662 
L 970.128 576.083183 
L 974.592 581.504029 
L 979.056 568.778035 
L 983.52 567.44959 
L 987.984 573.620845 
L 992.448 560.141778 
L 996.912 570.872585 
L 1001.376 575.399233 
L 1005.84 567.308466 
L 1010.304 581.433107 
L 1014.768 576.789959 
L 1019.232 581.067262 
L 1023.696 568.560588 
L 1028.16 573.376109 
L 1032.624 576.838057 
L 1037.088 581.782894 
L 1041.552 570.43517 
L 1046.016 575.929098 
L 1050.48 585.706954 
L 1054.944 577.923709 
L 1059.408 576.644874 
L 1063.872 595.063019 
L 1068.336 570.685739 
L 1072.8 589.328891 
L 1077.264 577.604738 
L 1081.728 588.418925 
L 1086.192 589.905558 
L 1090.656 585.217265 
L 1095.12 594.467487 
L 1099.584 582.749959 
L 1104.048 584.376853 
L 1108.512 577.340202 
L 1112.976 584.104684 
L 1117.44 585.950034 
L 1121.904 588.717231 
L 1126.368 581.509285 
L 1130.832 591.098782 
L 1135.296 593.539592 
L 1139.76 589.131748 
L 1144.224 587.897267 
L 1148.688 592.221732 
L 1153.152 598.667244 
L 1157.616 591.783381 
L 1162.08 591.057597 
L 1166.544 588.191613 
L 1171.008 581.803775 
L 1175.472 587.909003 
L 1179.936 584.234288 
L 1184.4 585.874575 
L 1188.864 587.344001 
L 1193.328 586.84308 
L 1197.792 581.154961 
L 1202.256 591.239979 
L 1206.72 581.263109 
L 1211.184 599.195165 
L 1215.648 581.008076 
L 1220.112 599.372363 
L 1224.576 611.189759 
L 1229.04 601.380871 
L 1233.504 592.702564 
L 1237.968 594.243128 
L 1242.432 590.996251 
L 1251.36 589.661614 
L 1255.824 584.667527 
L 1260.288 595.219336 
L 1264.752 585.876375 
L 1269.216 580.653969 
L 1273.68 587.403907 
L 1278.144 583.026016 
L 1282.608 584.780067 
L 1287.072 590.772683 
L 1291.536 584.885262 
L 1291.536 584.885262 
" clip-path="url(#p71fff1114b)" style="fill: none; stroke: #8c564b; stroke-width: 1.5; stroke-linecap: square"/>
   </g>
   <g id="line2d_18">
    <path d="M 375.67192 -1 
L 376.416 3.556589 
L 376.889263 -1 
M 382.650005 -1 
L 385.344 57.480779 
L 389.808 36.023772 
L 394.272 29.423311 
L 398.736 91.273382 
L 403.2 119.678189 
L 407.664 111.870824 
L 412.128 159.679273 
L 416.592 164.875399 
L 421.056 147.610085 
L 425.52 192.332798 
L 429.984 180.689576 
L 434.448 191.087444 
L 438.912 211.521009 
L 443.376 207.108845 
L 447.84 218.214209 
L 452.304 217.389349 
L 456.768 217.952048 
L 465.696 242.109793 
L 470.16 238.411749 
L 474.624 248.687789 
L 479.088 246.623408 
L 483.552 268.441363 
L 488.016 272.550756 
L 492.48 264.248806 
L 496.944 279.252597 
L 501.408 265.969808 
L 505.872 271.070891 
L 510.336 289.789645 
L 514.8 302.134315 
L 519.264 284.795342 
L 523.728 291.822057 
L 528.192 311.476916 
L 532.656 315.709361 
L 537.12 293.143734 
L 541.584 333.392433 
L 546.048 319.162741 
L 550.512 340.043872 
L 554.976 337.853055 
L 559.44 361.535152 
L 563.904 360.429123 
L 568.368 344.121873 
L 572.832 362.38442 
L 577.296 363.528178 
L 581.76 368.718544 
L 586.224 368.931095 
L 590.688 375.799261 
L 595.152 355.468877 
L 599.616 397.959299 
L 604.08 364.647384 
L 608.544 380.625151 
L 613.008 399.448813 
L 617.472 397.585391 
L 621.936 353.171424 
L 626.4 426.414508 
L 630.864 390.630534 
L 635.328 442.41474 
L 639.792 436.169467 
L 644.256 446.867585 
L 648.72 442.605042 
L 653.184 447.858554 
L 657.648 435.819031 
L 662.112 454.142708 
L 666.576 454.79649 
L 671.04 450.736706 
L 675.504 460.719985 
L 679.968 460.135325 
L 684.432 457.037061 
L 688.896 460.641502 
L 693.36 455.301227 
L 697.824 462.892585 
L 702.288 454.795914 
L 706.752 453.530904 
L 711.216 458.110905 
L 715.68 457.686739 
L 720.144 462.7223 
L 724.608 462.046053 
L 729.072 461.606694 
L 733.536 461.491563 
L 738 473.793534 
L 742.464 463.808528 
L 746.928 464.609483 
L 751.392 472.551349 
L 755.856 464.257679 
L 760.32 477.903216 
L 764.784 477.683033 
L 769.248 485.514735 
L 773.712 482.055307 
L 778.176 475.396812 
L 782.64 467.490659 
L 787.104 468.509998 
L 791.568 478.44309 
L 796.032 485.89714 
L 800.496 483.34163 
L 804.96 483.713883 
L 809.424 488.961418 
L 813.888 477.217177 
L 818.352 482.662071 
L 822.816 489.910914 
L 827.28 481.036113 
L 831.744 493.475105 
L 836.208 486.56309 
L 840.672 498.182479 
L 845.136 497.908006 
L 849.6 490.367121 
L 854.064 498.826973 
L 858.528 494.090726 
L 862.992 500.123736 
L 867.456 502.910517 
L 871.92 491.425053 
L 876.384 481.935495 
L 880.848 498.330228 
L 885.312 506.155522 
L 889.776 495.130369 
L 894.24 503.405606 
L 898.704 506.549303 
L 903.168 500.097959 
L 907.632 503.613477 
L 912.096 494.554566 
L 916.56 511.057662 
L 921.024 507.203229 
L 925.488 507.587506 
L 929.952 513.690214 
L 934.416 515.847335 
L 938.88 515.729395 
L 943.344 508.280025 
L 947.808 504.991891 
L 952.272 510.22265 
L 956.736 509.454241 
L 961.2 512.509015 
L 965.664 521.459058 
L 970.128 525.796556 
L 974.592 524.486688 
L 979.056 521.343063 
L 983.52 506.593225 
L 987.984 519.382437 
L 992.448 507.768808 
L 996.912 516.571175 
L 1001.376 516.753629 
L 1005.84 520.952162 
L 1010.304 517.946997 
L 1014.768 512.587785 
L 1019.232 532.361016 
L 1023.696 527.605544 
L 1028.16 523.529776 
L 1032.624 514.136413 
L 1037.088 528.162915 
L 1041.552 522.979173 
L 1046.016 528.828937 
L 1050.48 511.855161 
L 1054.944 522.078495 
L 1059.408 531.361838 
L 1063.872 520.269507 
L 1068.336 529.082962 
L 1072.8 540.401381 
L 1077.264 519.716672 
L 1081.728 531.656832 
L 1086.192 532.168553 
L 1090.656 542.130735 
L 1095.12 534.311777 
L 1099.584 532.156313 
L 1104.048 519.507433 
L 1108.512 532.166465 
L 1112.976 529.081594 
L 1117.44 517.320864 
L 1121.904 527.36916 
L 1126.368 532.309246 
L 1130.832 539.927749 
L 1135.296 535.378637 
L 1139.76 533.243477 
L 1144.224 534.0386 
L 1148.688 535.274521 
L 1153.152 535.13282 
L 1157.616 538.237204 
L 1162.08 517.352977 
L 1166.544 529.467815 
L 1171.008 529.517568 
L 1175.472 536.754243 
L 1179.936 535.453303 
L 1184.4 541.679712 
L 1188.864 536.099741 
L 1193.328 530.760834 
L 1197.792 539.113762 
L 1202.256 542.59335 
L 1206.72 534.382555 
L 1211.184 544.434308 
L 1215.648 536.199968 
L 1220.112 534.682301 
L 1224.576 526.878464 
L 1229.04 536.157271 
L 1233.504 538.068935 
L 1237.968 539.295064 
L 1242.432 544.387434 
L 1246.896 518.834283 
L 1251.36 539.519927 
L 1255.824 531.379983 
L 1260.288 538.174922 
L 1269.216 547.185952 
L 1273.68 536.268658 
L 1278.144 536.3097 
L 1282.608 540.588659 
L 1287.072 532.905858 
L 1291.536 533.631354 
L 1291.536 533.631354 
" clip-path="url(#p71fff1114b)" style="fill: none; stroke: #e377c2; stroke-width: 1.5; stroke-linecap: square"/>
   </g>
   <g id="patch_3">
    <path d="M 180 630 
L 180 86.4 
" style="fill: none; stroke: #000000; stroke-width: 0.8; stroke-linejoin: miter; stroke-linecap: square"/>
   </g>
   <g id="patch_4">
    <path d="M 1296 630 
L 1296 86.4 
" style="fill: none; stroke: #000000; stroke-width: 0.8; stroke-linejoin: miter; stroke-linecap: square"/>
   </g>
   <g id="patch_5">
    <path d="M 180 630 
L 1296 630 
" style="fill: none; stroke: #000000; stroke-width: 0.8; stroke-linejoin: miter; stroke-linecap: square"/>
   </g>
   <g id="patch_6">
    <path d="M 180 86.4 
L 1296 86.4 
" style="fill: none; stroke: #000000; stroke-width: 0.8; stroke-linejoin: miter; stroke-linecap: square"/>
   </g>
   <g id="text_14">
    <!-- FCAdam_G-L -->
    <g transform="translate(674.454687 80.4)scale(0.2 -0.2)">
     <defs>
      <path id="DejaVuSans-46" d="M 628 4666 
L 3309 4666 
L 3309 4134 
L 1259 4134 
L 1259 2759 
L 3109 2759 
L 3109 2228 
L 1259 2228 
L 1259 0 
L 628 0 
L 628 4666 
z
" transform="scale(0.015625)"/>
      <path id="DejaVuSans-43" d="M 4122 4306 
L 4122 3641 
Q 3803 3938 3442 4084 
Q 3081 4231 2675 4231 
Q 1875 4231 1450 3742 
Q 1025 3253 1025 2328 
Q 1025 1406 1450 917 
Q 1875 428 2675 428 
Q 3081 428 3442 575 
Q 3803 722 4122 1019 
L 4122 359 
Q 3791 134 3420 21 
Q 3050 -91 2638 -91 
Q 1578 -91 968 557 
Q 359 1206 359 2328 
Q 359 3453 968 4101 
Q 1578 4750 2638 4750 
Q 3056 4750 3426 4639 
Q 3797 4528 4122 4306 
z
" transform="scale(0.015625)"/>
      <path id="DejaVuSans-41" d="M 2188 4044 
L 1331 1722 
L 3047 1722 
L 2188 4044 
z
M 1831 4666 
L 2547 4666 
L 4325 0 
L 3669 0 
L 3244 1197 
L 1141 1197 
L 716 0 
L 50 0 
L 1831 4666 
z
" transform="scale(0.015625)"/>
      <path id="DejaVuSans-64" d="M 2906 2969 
L 2906 4863 
L 3481 4863 
L 3481 0 
L 2906 0 
L 2906 525 
Q 2725 213 2448 61 
Q 2172 -91 1784 -91 
Q 1150 -91 751 415 
Q 353 922 353 1747 
Q 353 2572 751 3078 
Q 1150 3584 1784 3584 
Q 2172 3584 2448 3432 
Q 2725 3281 2906 2969 
z
M 947 1747 
Q 947 1113 1208 752 
Q 1469 391 1925 391 
Q 2381 391 2643 752 
Q 2906 1113 2906 1747 
Q 2906 2381 2643 2742 
Q 2381 3103 1925 3103 
Q 1469 3103 1208 2742 
Q 947 2381 947 1747 
z
" transform="scale(0.015625)"/>
      <path id="DejaVuSans-6d" d="M 3328 2828 
Q 3544 3216 3844 3400 
Q 4144 3584 4550 3584 
Q 5097 3584 5394 3201 
Q 5691 2819 5691 2113 
L 5691 0 
L 5113 0 
L 5113 2094 
Q 5113 2597 4934 2840 
Q 4756 3084 4391 3084 
Q 3944 3084 3684 2787 
Q 3425 2491 3425 1978 
L 3425 0 
L 2847 0 
L 2847 2094 
Q 2847 2600 2669 2842 
Q 2491 3084 2119 3084 
Q 1678 3084 1418 2786 
Q 1159 2488 1159 1978 
L 1159 0 
L 581 0 
L 581 3500 
L 1159 3500 
L 1159 2956 
Q 1356 3278 1631 3431 
Q 1906 3584 2284 3584 
Q 2666 3584 2933 3390 
Q 3200 3197 3328 2828 
z
" transform="scale(0.015625)"/>
      <path id="DejaVuSans-5f" d="M 3263 -1063 
L 3263 -1509 
L -63 -1509 
L -63 -1063 
L 3263 -1063 
z
" transform="scale(0.015625)"/>
      <path id="DejaVuSans-47" d="M 3809 666 
L 3809 1919 
L 2778 1919 
L 2778 2438 
L 4434 2438 
L 4434 434 
Q 4069 175 3628 42 
Q 3188 -91 2688 -91 
Q 1594 -91 976 548 
Q 359 1188 359 2328 
Q 359 3472 976 4111 
Q 1594 4750 2688 4750 
Q 3144 4750 3555 4637 
Q 3966 4525 4313 4306 
L 4313 3634 
Q 3963 3931 3569 4081 
Q 3175 4231 2741 4231 
Q 1884 4231 1454 3753 
Q 1025 3275 1025 2328 
Q 1025 1384 1454 906 
Q 1884 428 2741 428 
Q 3075 428 3337 486 
Q 3600 544 3809 666 
z
" transform="scale(0.015625)"/>
      <path id="DejaVuSans-2d" d="M 313 2009 
L 1997 2009 
L 1997 1497 
L 313 1497 
L 313 2009 
z
" transform="scale(0.015625)"/>
      <path id="DejaVuSans-4c" d="M 628 4666 
L 1259 4666 
L 1259 531 
L 3531 531 
L 3531 0 
L 628 0 
L 628 4666 
z
" transform="scale(0.015625)"/>
     </defs>
     <use xlink:href="#DejaVuSans-46"/>
     <use xlink:href="#DejaVuSans-43" x="57.519531"/>
     <use xlink:href="#DejaVuSans-41" x="127.34375"/>
     <use xlink:href="#DejaVuSans-64" x="194.001953"/>
     <use xlink:href="#DejaVuSans-61" x="257.478516"/>
     <use xlink:href="#DejaVuSans-6d" x="318.757812"/>
     <use xlink:href="#DejaVuSans-5f" x="416.169922"/>
     <use xlink:href="#DejaVuSans-47" x="466.169922"/>
     <use xlink:href="#DejaVuSans-2d" x="543.660156"/>
     <use xlink:href="#DejaVuSans-4c" x="579.744141"/>
    </g>
   </g>
   <g id="legend_1">
    <g id="patch_7">
     <path d="M 1106.778125 307.89375 
L 1282 307.89375 
Q 1286 307.89375 1286 303.89375 
L 1286 100.4 
Q 1286 96.4 1282 96.4 
L 1106.778125 96.4 
Q 1102.778125 96.4 1102.778125 100.4 
L 1102.778125 303.89375 
Q 1102.778125 307.89375 1106.778125 307.89375 
z
" style="fill: #ffffff; opacity: 0.8; stroke: #cccccc; stroke-linejoin: miter"/>
    </g>
    <g id="line2d_19">
     <path d="M 1110.778125 112.596875 
L 1130.778125 112.596875 
L 1150.778125 112.596875 
" style="fill: none; stroke: #1f77b4; stroke-width: 1.5; stroke-linecap: square"/>
    </g>
    <g id="text_15">
     <!-- alpha=-0.1 -->
     <g transform="translate(1166.778125 119.596875)scale(0.2 -0.2)">
      <defs>
       <path id="DejaVuSans-3d" d="M 678 2906 
L 4684 2906 
L 4684 2381 
L 678 2381 
L 678 2906 
z
M 678 1631 
L 4684 1631 
L 4684 1100 
L 678 1100 
L 678 1631 
z
" transform="scale(0.015625)"/>
      </defs>
      <use xlink:href="#DejaVuSans-61"/>
      <use xlink:href="#DejaVuSans-6c" x="61.279297"/>
      <use xlink:href="#DejaVuSans-70" x="89.0625"/>
      <use xlink:href="#DejaVuSans-68" x="152.539062"/>
      <use xlink:href="#DejaVuSans-61" x="215.917969"/>
      <use xlink:href="#DejaVuSans-3d" x="277.197266"/>
      <use xlink:href="#DejaVuSans-2d" x="360.986328"/>
      <use xlink:href="#DejaVuSans-30" x="397.070312"/>
      <use xlink:href="#DejaVuSans-2e" x="460.693359"/>
      <use xlink:href="#DejaVuSans-31" x="492.480469"/>
     </g>
    </g>
    <g id="line2d_20">
     <path d="M 1110.778125 141.953125 
L 1130.778125 141.953125 
L 1150.778125 141.953125 
" style="fill: none; stroke: #ff7f0e; stroke-width: 1.5; stroke-linecap: square"/>
    </g>
    <g id="text_16">
     <!-- alpha=0.0 -->
     <g transform="translate(1166.778125 148.953125)scale(0.2 -0.2)">
      <use xlink:href="#DejaVuSans-61"/>
      <use xlink:href="#DejaVuSans-6c" x="61.279297"/>
      <use xlink:href="#DejaVuSans-70" x="89.0625"/>
      <use xlink:href="#DejaVuSans-68" x="152.539062"/>
      <use xlink:href="#DejaVuSans-61" x="215.917969"/>
      <use xlink:href="#DejaVuSans-3d" x="277.197266"/>
      <use xlink:href="#DejaVuSans-30" x="360.986328"/>
      <use xlink:href="#DejaVuSans-2e" x="424.609375"/>
      <use xlink:href="#DejaVuSans-30" x="456.396484"/>
     </g>
    </g>
    <g id="line2d_21">
     <path d="M 1110.778125 171.309375 
L 1130.778125 171.309375 
L 1150.778125 171.309375 
" style="fill: none; stroke: #2ca02c; stroke-width: 1.5; stroke-linecap: square"/>
    </g>
    <g id="text_17">
     <!-- alpha=0.1 -->
     <g transform="translate(1166.778125 178.309375)scale(0.2 -0.2)">
      <use xlink:href="#DejaVuSans-61"/>
      <use xlink:href="#DejaVuSans-6c" x="61.279297"/>
      <use xlink:href="#DejaVuSans-70" x="89.0625"/>
      <use xlink:href="#DejaVuSans-68" x="152.539062"/>
      <use xlink:href="#DejaVuSans-61" x="215.917969"/>
      <use xlink:href="#DejaVuSans-3d" x="277.197266"/>
      <use xlink:href="#DejaVuSans-30" x="360.986328"/>
      <use xlink:href="#DejaVuSans-2e" x="424.609375"/>
      <use xlink:href="#DejaVuSans-31" x="456.396484"/>
     </g>
    </g>
    <g id="line2d_22">
     <path d="M 1110.778125 200.665625 
L 1130.778125 200.665625 
L 1150.778125 200.665625 
" style="fill: none; stroke: #d62728; stroke-width: 1.5; stroke-linecap: square"/>
    </g>
    <g id="text_18">
     <!-- alpha=0.2 -->
     <g transform="translate(1166.778125 207.665625)scale(0.2 -0.2)">
      <use xlink:href="#DejaVuSans-61"/>
      <use xlink:href="#DejaVuSans-6c" x="61.279297"/>
      <use xlink:href="#DejaVuSans-70" x="89.0625"/>
      <use xlink:href="#DejaVuSans-68" x="152.539062"/>
      <use xlink:href="#DejaVuSans-61" x="215.917969"/>
      <use xlink:href="#DejaVuSans-3d" x="277.197266"/>
      <use xlink:href="#DejaVuSans-30" x="360.986328"/>
      <use xlink:href="#DejaVuSans-2e" x="424.609375"/>
      <use xlink:href="#DejaVuSans-32" x="456.396484"/>
     </g>
    </g>
    <g id="line2d_23">
     <path d="M 1110.778125 230.021875 
L 1130.778125 230.021875 
L 1150.778125 230.021875 
" style="fill: none; stroke: #9467bd; stroke-width: 1.5; stroke-linecap: square"/>
    </g>
    <g id="text_19">
     <!-- alpha=0.3 -->
     <g transform="translate(1166.778125 237.021875)scale(0.2 -0.2)">
      <defs>
       <path id="DejaVuSans-33" d="M 2597 2516 
Q 3050 2419 3304 2112 
Q 3559 1806 3559 1356 
Q 3559 666 3084 287 
Q 2609 -91 1734 -91 
Q 1441 -91 1130 -33 
Q 819 25 488 141 
L 488 750 
Q 750 597 1062 519 
Q 1375 441 1716 441 
Q 2309 441 2620 675 
Q 2931 909 2931 1356 
Q 2931 1769 2642 2001 
Q 2353 2234 1838 2234 
L 1294 2234 
L 1294 2753 
L 1863 2753 
Q 2328 2753 2575 2939 
Q 2822 3125 2822 3475 
Q 2822 3834 2567 4026 
Q 2313 4219 1838 4219 
Q 1578 4219 1281 4162 
Q 984 4106 628 3988 
L 628 4550 
Q 988 4650 1302 4700 
Q 1616 4750 1894 4750 
Q 2613 4750 3031 4423 
Q 3450 4097 3450 3541 
Q 3450 3153 3228 2886 
Q 3006 2619 2597 2516 
z
" transform="scale(0.015625)"/>
      </defs>
      <use xlink:href="#DejaVuSans-61"/>
      <use xlink:href="#DejaVuSans-6c" x="61.279297"/>
      <use xlink:href="#DejaVuSans-70" x="89.0625"/>
      <use xlink:href="#DejaVuSans-68" x="152.539062"/>
      <use xlink:href="#DejaVuSans-61" x="215.917969"/>
      <use xlink:href="#DejaVuSans-3d" x="277.197266"/>
      <use xlink:href="#DejaVuSans-30" x="360.986328"/>
      <use xlink:href="#DejaVuSans-2e" x="424.609375"/>
      <use xlink:href="#DejaVuSans-33" x="456.396484"/>
     </g>
    </g>
    <g id="line2d_24">
     <path d="M 1110.778125 259.378125 
L 1130.778125 259.378125 
L 1150.778125 259.378125 
" style="fill: none; stroke: #8c564b; stroke-width: 1.5; stroke-linecap: square"/>
    </g>
    <g id="text_20">
     <!-- alpha=0.4 -->
     <g transform="translate(1166.778125 266.378125)scale(0.2 -0.2)">
      <use xlink:href="#DejaVuSans-61"/>
      <use xlink:href="#DejaVuSans-6c" x="61.279297"/>
      <use xlink:href="#DejaVuSans-70" x="89.0625"/>
      <use xlink:href="#DejaVuSans-68" x="152.539062"/>
      <use xlink:href="#DejaVuSans-61" x="215.917969"/>
      <use xlink:href="#DejaVuSans-3d" x="277.197266"/>
      <use xlink:href="#DejaVuSans-30" x="360.986328"/>
      <use xlink:href="#DejaVuSans-2e" x="424.609375"/>
      <use xlink:href="#DejaVuSans-34" x="456.396484"/>
     </g>
    </g>
    <g id="line2d_25">
     <path d="M 1110.778125 288.734375 
L 1130.778125 288.734375 
L 1150.778125 288.734375 
" style="fill: none; stroke: #e377c2; stroke-width: 1.5; stroke-linecap: square"/>
    </g>
    <g id="text_21">
     <!-- alpha=0.5 -->
     <g transform="translate(1166.778125 295.734375)scale(0.2 -0.2)">
      <use xlink:href="#DejaVuSans-61"/>
      <use xlink:href="#DejaVuSans-6c" x="61.279297"/>
      <use xlink:href="#DejaVuSans-70" x="89.0625"/>
      <use xlink:href="#DejaVuSans-68" x="152.539062"/>
      <use xlink:href="#DejaVuSans-61" x="215.917969"/>
      <use xlink:href="#DejaVuSans-3d" x="277.197266"/>
      <use xlink:href="#DejaVuSans-30" x="360.986328"/>
      <use xlink:href="#DejaVuSans-2e" x="424.609375"/>
      <use xlink:href="#DejaVuSans-35" x="456.396484"/>
     </g>
    </g>
   </g>
  </g>
 </g>
 <defs>
  <clipPath id="p71fff1114b">
   <rect x="180" y="86.4" width="1116" height="543.6"/>
  </clipPath>
 </defs>
</svg>
