<?xml version="1.0" encoding="utf-8" standalone="no"?>
<!DOCTYPE svg PUBLIC "-//W3C//DTD SVG 1.1//EN"
  "http://www.w3.org/Graphics/SVG/1.1/DTD/svg11.dtd">
<svg xmlns:xlink="http://www.w3.org/1999/xlink" width="1440pt" height="720pt" viewBox="0 0 1440 720" xmlns="http://www.w3.org/2000/svg" version="1.1">
 <metadata>
  <rdf:RDF xmlns:dc="http://purl.org/dc/elements/1.1/" xmlns:cc="http://creativecommons.org/ns#" xmlns:rdf="http://www.w3.org/1999/02/22-rdf-syntax-ns#">
   <cc:Work>
    <dc:type rdf:resource="http://purl.org/dc/dcmitype/StillImage"/>
    <dc:date>2022-10-25T13:40:24.166764</dc:date>
    <dc:format>image/svg+xml</dc:format>
    <dc:creator>
     <cc:Agent>
      <dc:title>Matplotlib v3.5.1, https://matplotlib.org/</dc:title>
     </cc:Agent>
    </dc:creator>
   </cc:Work>
  </rdf:RDF>
 </metadata>
 <defs>
  <style type="text/css">*{stroke-linejoin: round; stroke-linecap: butt}</style>
 </defs>
 <g id="figure_1">
  <g id="patch_1">
   <path d="M 0 720 
L 1440 720 
L 1440 0 
L 0 0 
L 0 720 
z
" style="fill: none"/>
  </g>
  <g id="axes_1">
   <g id="patch_2">
    <path d="M 144 648 
L 1296 648 
L 1296 72 
L 144 72 
z
" style="fill: #ffffff"/>
   </g>
   <g id="matplotlib.axis_1">
    <g id="xtick_1">
     <g id="line2d_1">
      <defs>
       <path id="m0843d19672" d="M 0 0 
L 0 3.5 
" style="stroke: #000000; stroke-width: 0.8"/>
      </defs>
      <g>
       <use xlink:href="#m0843d19672" x="144" y="648" style="stroke: #000000; stroke-width: 0.8"/>
      </g>
     </g>
     <g id="text_1">
      <!-- 0 -->
      <g transform="translate(137.6375 670.196875)scale(0.2 -0.2)">
       <defs>
        <path id="DejaVuSans-30" d="M 2034 4250 
Q 1547 4250 1301 3770 
Q 1056 3291 1056 2328 
Q 1056 1369 1301 889 
Q 1547 409 2034 409 
Q 2525 409 2770 889 
Q 3016 1369 3016 2328 
Q 3016 3291 2770 3770 
Q 2525 4250 2034 4250 
z
M 2034 4750 
Q 2819 4750 3233 4129 
Q 3647 3509 3647 2328 
Q 3647 1150 3233 529 
Q 2819 -91 2034 -91 
Q 1250 -91 836 529 
Q 422 1150 422 2328 
Q 422 3509 836 4129 
Q 1250 4750 2034 4750 
z
" transform="scale(0.015625)"/>
       </defs>
       <use xlink:href="#DejaVuSans-30"/>
      </g>
     </g>
    </g>
    <g id="xtick_2">
     <g id="line2d_2">
      <g>
       <use xlink:href="#m0843d19672" x="374.4" y="648" style="stroke: #000000; stroke-width: 0.8"/>
      </g>
     </g>
     <g id="text_2">
      <!-- 50 -->
      <g transform="translate(361.675 670.196875)scale(0.2 -0.2)">
       <defs>
        <path id="DejaVuSans-35" d="M 691 4666 
L 3169 4666 
L 3169 4134 
L 1269 4134 
L 1269 2991 
Q 1406 3038 1543 3061 
Q 1681 3084 1819 3084 
Q 2600 3084 3056 2656 
Q 3513 2228 3513 1497 
Q 3513 744 3044 326 
Q 2575 -91 1722 -91 
Q 1428 -91 1123 -41 
Q 819 9 494 109 
L 494 744 
Q 775 591 1075 516 
Q 1375 441 1709 441 
Q 2250 441 2565 725 
Q 2881 1009 2881 1497 
Q 2881 1984 2565 2268 
Q 2250 2553 1709 2553 
Q 1456 2553 1204 2497 
Q 953 2441 691 2322 
L 691 4666 
z
" transform="scale(0.015625)"/>
       </defs>
       <use xlink:href="#DejaVuSans-35"/>
       <use xlink:href="#DejaVuSans-30" x="63.623047"/>
      </g>
     </g>
    </g>
    <g id="xtick_3">
     <g id="line2d_3">
      <g>
       <use xlink:href="#m0843d19672" x="604.8" y="648" style="stroke: #000000; stroke-width: 0.8"/>
      </g>
     </g>
     <g id="text_3">
      <!-- 100 -->
      <g transform="translate(585.7125 670.196875)scale(0.2 -0.2)">
       <defs>
        <path id="DejaVuSans-31" d="M 794 531 
L 1825 531 
L 1825 4091 
L 703 3866 
L 703 4441 
L 1819 4666 
L 2450 4666 
L 2450 531 
L 3481 531 
L 3481 0 
L 794 0 
L 794 531 
z
" transform="scale(0.015625)"/>
       </defs>
       <use xlink:href="#DejaVuSans-31"/>
       <use xlink:href="#DejaVuSans-30" x="63.623047"/>
       <use xlink:href="#DejaVuSans-30" x="127.246094"/>
      </g>
     </g>
    </g>
    <g id="xtick_4">
     <g id="line2d_4">
      <g>
       <use xlink:href="#m0843d19672" x="835.2" y="648" style="stroke: #000000; stroke-width: 0.8"/>
      </g>
     </g>
     <g id="text_4">
      <!-- 150 -->
      <g transform="translate(816.1125 670.196875)scale(0.2 -0.2)">
       <use xlink:href="#DejaVuSans-31"/>
       <use xlink:href="#DejaVuSans-35" x="63.623047"/>
       <use xlink:href="#DejaVuSans-30" x="127.246094"/>
      </g>
     </g>
    </g>
    <g id="xtick_5">
     <g id="line2d_5">
      <g>
       <use xlink:href="#m0843d19672" x="1065.6" y="648" style="stroke: #000000; stroke-width: 0.8"/>
      </g>
     </g>
     <g id="text_5">
      <!-- 200 -->
      <g transform="translate(1046.5125 670.196875)scale(0.2 -0.2)">
       <defs>
        <path id="DejaVuSans-32" d="M 1228 531 
L 3431 531 
L 3431 0 
L 469 0 
L 469 531 
Q 828 903 1448 1529 
Q 2069 2156 2228 2338 
Q 2531 2678 2651 2914 
Q 2772 3150 2772 3378 
Q 2772 3750 2511 3984 
Q 2250 4219 1831 4219 
Q 1534 4219 1204 4116 
Q 875 4013 500 3803 
L 500 4441 
Q 881 4594 1212 4672 
Q 1544 4750 1819 4750 
Q 2544 4750 2975 4387 
Q 3406 4025 3406 3419 
Q 3406 3131 3298 2873 
Q 3191 2616 2906 2266 
Q 2828 2175 2409 1742 
Q 1991 1309 1228 531 
z
" transform="scale(0.015625)"/>
       </defs>
       <use xlink:href="#DejaVuSans-32"/>
       <use xlink:href="#DejaVuSans-30" x="63.623047"/>
       <use xlink:href="#DejaVuSans-30" x="127.246094"/>
      </g>
     </g>
    </g>
    <g id="xtick_6">
     <g id="line2d_6">
      <g>
       <use xlink:href="#m0843d19672" x="1296" y="648" style="stroke: #000000; stroke-width: 0.8"/>
      </g>
     </g>
     <g id="text_6">
      <!-- 250 -->
      <g transform="translate(1276.9125 670.196875)scale(0.2 -0.2)">
       <use xlink:href="#DejaVuSans-32"/>
       <use xlink:href="#DejaVuSans-35" x="63.623047"/>
       <use xlink:href="#DejaVuSans-30" x="127.246094"/>
      </g>
     </g>
    </g>
    <g id="text_7">
     <!-- epoch -->
     <g transform="translate(689.54375 693.553125)scale(0.2 -0.2)">
      <defs>
       <path id="DejaVuSans-65" d="M 3597 1894 
L 3597 1613 
L 953 1613 
Q 991 1019 1311 708 
Q 1631 397 2203 397 
Q 2534 397 2845 478 
Q 3156 559 3463 722 
L 3463 178 
Q 3153 47 2828 -22 
Q 2503 -91 2169 -91 
Q 1331 -91 842 396 
Q 353 884 353 1716 
Q 353 2575 817 3079 
Q 1281 3584 2069 3584 
Q 2775 3584 3186 3129 
Q 3597 2675 3597 1894 
z
M 3022 2063 
Q 3016 2534 2758 2815 
Q 2500 3097 2075 3097 
Q 1594 3097 1305 2825 
Q 1016 2553 972 2059 
L 3022 2063 
z
" transform="scale(0.015625)"/>
       <path id="DejaVuSans-70" d="M 1159 525 
L 1159 -1331 
L 581 -1331 
L 581 3500 
L 1159 3500 
L 1159 2969 
Q 1341 3281 1617 3432 
Q 1894 3584 2278 3584 
Q 2916 3584 3314 3078 
Q 3713 2572 3713 1747 
Q 3713 922 3314 415 
Q 2916 -91 2278 -91 
Q 1894 -91 1617 61 
Q 1341 213 1159 525 
z
M 3116 1747 
Q 3116 2381 2855 2742 
Q 2594 3103 2138 3103 
Q 1681 3103 1420 2742 
Q 1159 2381 1159 1747 
Q 1159 1113 1420 752 
Q 1681 391 2138 391 
Q 2594 391 2855 752 
Q 3116 1113 3116 1747 
z
" transform="scale(0.015625)"/>
       <path id="DejaVuSans-6f" d="M 1959 3097 
Q 1497 3097 1228 2736 
Q 959 2375 959 1747 
Q 959 1119 1226 758 
Q 1494 397 1959 397 
Q 2419 397 2687 759 
Q 2956 1122 2956 1747 
Q 2956 2369 2687 2733 
Q 2419 3097 1959 3097 
z
M 1959 3584 
Q 2709 3584 3137 3096 
Q 3566 2609 3566 1747 
Q 3566 888 3137 398 
Q 2709 -91 1959 -91 
Q 1206 -91 779 398 
Q 353 888 353 1747 
Q 353 2609 779 3096 
Q 1206 3584 1959 3584 
z
" transform="scale(0.015625)"/>
       <path id="DejaVuSans-63" d="M 3122 3366 
L 3122 2828 
Q 2878 2963 2633 3030 
Q 2388 3097 2138 3097 
Q 1578 3097 1268 2742 
Q 959 2388 959 1747 
Q 959 1106 1268 751 
Q 1578 397 2138 397 
Q 2388 397 2633 464 
Q 2878 531 3122 666 
L 3122 134 
Q 2881 22 2623 -34 
Q 2366 -91 2075 -91 
Q 1284 -91 818 406 
Q 353 903 353 1747 
Q 353 2603 823 3093 
Q 1294 3584 2113 3584 
Q 2378 3584 2631 3529 
Q 2884 3475 3122 3366 
z
" transform="scale(0.015625)"/>
       <path id="DejaVuSans-68" d="M 3513 2113 
L 3513 0 
L 2938 0 
L 2938 2094 
Q 2938 2591 2744 2837 
Q 2550 3084 2163 3084 
Q 1697 3084 1428 2787 
Q 1159 2491 1159 1978 
L 1159 0 
L 581 0 
L 581 4863 
L 1159 4863 
L 1159 2956 
Q 1366 3272 1645 3428 
Q 1925 3584 2291 3584 
Q 2894 3584 3203 3211 
Q 3513 2838 3513 2113 
z
" transform="scale(0.015625)"/>
      </defs>
      <use xlink:href="#DejaVuSans-65"/>
      <use xlink:href="#DejaVuSans-70" x="61.523438"/>
      <use xlink:href="#DejaVuSans-6f" x="125"/>
      <use xlink:href="#DejaVuSans-63" x="186.181641"/>
      <use xlink:href="#DejaVuSans-68" x="241.162109"/>
     </g>
    </g>
   </g>
   <g id="matplotlib.axis_2">
    <g id="ytick_1">
     <g id="line2d_7">
      <defs>
       <path id="mfb570ef3a5" d="M 0 0 
L -3.5 0 
" style="stroke: #000000; stroke-width: 0.8"/>
      </defs>
      <g>
       <use xlink:href="#mfb570ef3a5" x="144" y="595.636364" style="stroke: #000000; stroke-width: 0.8"/>
      </g>
     </g>
     <g id="text_8">
      <!-- 1.2 -->
      <g transform="translate(105.19375 603.234801)scale(0.2 -0.2)">
       <defs>
        <path id="DejaVuSans-2e" d="M 684 794 
L 1344 794 
L 1344 0 
L 684 0 
L 684 794 
z
" transform="scale(0.015625)"/>
       </defs>
       <use xlink:href="#DejaVuSans-31"/>
       <use xlink:href="#DejaVuSans-2e" x="63.623047"/>
       <use xlink:href="#DejaVuSans-32" x="95.410156"/>
      </g>
     </g>
    </g>
    <g id="ytick_2">
     <g id="line2d_8">
      <g>
       <use xlink:href="#mfb570ef3a5" x="144" y="490.909091" style="stroke: #000000; stroke-width: 0.8"/>
      </g>
     </g>
     <g id="text_9">
      <!-- 1.4 -->
      <g transform="translate(105.19375 498.507528)scale(0.2 -0.2)">
       <defs>
        <path id="DejaVuSans-34" d="M 2419 4116 
L 825 1625 
L 2419 1625 
L 2419 4116 
z
M 2253 4666 
L 3047 4666 
L 3047 1625 
L 3713 1625 
L 3713 1100 
L 3047 1100 
L 3047 0 
L 2419 0 
L 2419 1100 
L 313 1100 
L 313 1709 
L 2253 4666 
z
" transform="scale(0.015625)"/>
       </defs>
       <use xlink:href="#DejaVuSans-31"/>
       <use xlink:href="#DejaVuSans-2e" x="63.623047"/>
       <use xlink:href="#DejaVuSans-34" x="95.410156"/>
      </g>
     </g>
    </g>
    <g id="ytick_3">
     <g id="line2d_9">
      <g>
       <use xlink:href="#mfb570ef3a5" x="144" y="386.181818" style="stroke: #000000; stroke-width: 0.8"/>
      </g>
     </g>
     <g id="text_10">
      <!-- 1.6 -->
      <g transform="translate(105.19375 393.780256)scale(0.2 -0.2)">
       <defs>
        <path id="DejaVuSans-36" d="M 2113 2584 
Q 1688 2584 1439 2293 
Q 1191 2003 1191 1497 
Q 1191 994 1439 701 
Q 1688 409 2113 409 
Q 2538 409 2786 701 
Q 3034 994 3034 1497 
Q 3034 2003 2786 2293 
Q 2538 2584 2113 2584 
z
M 3366 4563 
L 3366 3988 
Q 3128 4100 2886 4159 
Q 2644 4219 2406 4219 
Q 1781 4219 1451 3797 
Q 1122 3375 1075 2522 
Q 1259 2794 1537 2939 
Q 1816 3084 2150 3084 
Q 2853 3084 3261 2657 
Q 3669 2231 3669 1497 
Q 3669 778 3244 343 
Q 2819 -91 2113 -91 
Q 1303 -91 875 529 
Q 447 1150 447 2328 
Q 447 3434 972 4092 
Q 1497 4750 2381 4750 
Q 2619 4750 2861 4703 
Q 3103 4656 3366 4563 
z
" transform="scale(0.015625)"/>
       </defs>
       <use xlink:href="#DejaVuSans-31"/>
       <use xlink:href="#DejaVuSans-2e" x="63.623047"/>
       <use xlink:href="#DejaVuSans-36" x="95.410156"/>
      </g>
     </g>
    </g>
    <g id="ytick_4">
     <g id="line2d_10">
      <g>
       <use xlink:href="#mfb570ef3a5" x="144" y="281.454545" style="stroke: #000000; stroke-width: 0.8"/>
      </g>
     </g>
     <g id="text_11">
      <!-- 1.8 -->
      <g transform="translate(105.19375 289.052983)scale(0.2 -0.2)">
       <defs>
        <path id="DejaVuSans-38" d="M 2034 2216 
Q 1584 2216 1326 1975 
Q 1069 1734 1069 1313 
Q 1069 891 1326 650 
Q 1584 409 2034 409 
Q 2484 409 2743 651 
Q 3003 894 3003 1313 
Q 3003 1734 2745 1975 
Q 2488 2216 2034 2216 
z
M 1403 2484 
Q 997 2584 770 2862 
Q 544 3141 544 3541 
Q 544 4100 942 4425 
Q 1341 4750 2034 4750 
Q 2731 4750 3128 4425 
Q 3525 4100 3525 3541 
Q 3525 3141 3298 2862 
Q 3072 2584 2669 2484 
Q 3125 2378 3379 2068 
Q 3634 1759 3634 1313 
Q 3634 634 3220 271 
Q 2806 -91 2034 -91 
Q 1263 -91 848 271 
Q 434 634 434 1313 
Q 434 1759 690 2068 
Q 947 2378 1403 2484 
z
M 1172 3481 
Q 1172 3119 1398 2916 
Q 1625 2713 2034 2713 
Q 2441 2713 2670 2916 
Q 2900 3119 2900 3481 
Q 2900 3844 2670 4047 
Q 2441 4250 2034 4250 
Q 1625 4250 1398 4047 
Q 1172 3844 1172 3481 
z
" transform="scale(0.015625)"/>
       </defs>
       <use xlink:href="#DejaVuSans-31"/>
       <use xlink:href="#DejaVuSans-2e" x="63.623047"/>
       <use xlink:href="#DejaVuSans-38" x="95.410156"/>
      </g>
     </g>
    </g>
    <g id="ytick_5">
     <g id="line2d_11">
      <g>
       <use xlink:href="#mfb570ef3a5" x="144" y="176.727273" style="stroke: #000000; stroke-width: 0.8"/>
      </g>
     </g>
     <g id="text_12">
      <!-- 2.0 -->
      <g transform="translate(105.19375 184.32571)scale(0.2 -0.2)">
       <use xlink:href="#DejaVuSans-32"/>
       <use xlink:href="#DejaVuSans-2e" x="63.623047"/>
       <use xlink:href="#DejaVuSans-30" x="95.410156"/>
      </g>
     </g>
    </g>
    <g id="ytick_6">
     <g id="line2d_12">
      <g>
       <use xlink:href="#mfb570ef3a5" x="144" y="72" style="stroke: #000000; stroke-width: 0.8"/>
      </g>
     </g>
     <g id="text_13">
      <!-- 2.2 -->
      <g transform="translate(105.19375 79.598438)scale(0.2 -0.2)">
       <use xlink:href="#DejaVuSans-32"/>
       <use xlink:href="#DejaVuSans-2e" x="63.623047"/>
       <use xlink:href="#DejaVuSans-32" x="95.410156"/>
      </g>
     </g>
    </g>
    <g id="text_14">
     <!-- train loss -->
     <g transform="translate(97.034375 405.76875)rotate(-90)scale(0.2 -0.2)">
      <defs>
       <path id="DejaVuSans-74" d="M 1172 4494 
L 1172 3500 
L 2356 3500 
L 2356 3053 
L 1172 3053 
L 1172 1153 
Q 1172 725 1289 603 
Q 1406 481 1766 481 
L 2356 481 
L 2356 0 
L 1766 0 
Q 1100 0 847 248 
Q 594 497 594 1153 
L 594 3053 
L 172 3053 
L 172 3500 
L 594 3500 
L 594 4494 
L 1172 4494 
z
" transform="scale(0.015625)"/>
       <path id="DejaVuSans-72" d="M 2631 2963 
Q 2534 3019 2420 3045 
Q 2306 3072 2169 3072 
Q 1681 3072 1420 2755 
Q 1159 2438 1159 1844 
L 1159 0 
L 581 0 
L 581 3500 
L 1159 3500 
L 1159 2956 
Q 1341 3275 1631 3429 
Q 1922 3584 2338 3584 
Q 2397 3584 2469 3576 
Q 2541 3569 2628 3553 
L 2631 2963 
z
" transform="scale(0.015625)"/>
       <path id="DejaVuSans-61" d="M 2194 1759 
Q 1497 1759 1228 1600 
Q 959 1441 959 1056 
Q 959 750 1161 570 
Q 1363 391 1709 391 
Q 2188 391 2477 730 
Q 2766 1069 2766 1631 
L 2766 1759 
L 2194 1759 
z
M 3341 1997 
L 3341 0 
L 2766 0 
L 2766 531 
Q 2569 213 2275 61 
Q 1981 -91 1556 -91 
Q 1019 -91 701 211 
Q 384 513 384 1019 
Q 384 1609 779 1909 
Q 1175 2209 1959 2209 
L 2766 2209 
L 2766 2266 
Q 2766 2663 2505 2880 
Q 2244 3097 1772 3097 
Q 1472 3097 1187 3025 
Q 903 2953 641 2809 
L 641 3341 
Q 956 3463 1253 3523 
Q 1550 3584 1831 3584 
Q 2591 3584 2966 3190 
Q 3341 2797 3341 1997 
z
" transform="scale(0.015625)"/>
       <path id="DejaVuSans-69" d="M 603 3500 
L 1178 3500 
L 1178 0 
L 603 0 
L 603 3500 
z
M 603 4863 
L 1178 4863 
L 1178 4134 
L 603 4134 
L 603 4863 
z
" transform="scale(0.015625)"/>
       <path id="DejaVuSans-6e" d="M 3513 2113 
L 3513 0 
L 2938 0 
L 2938 2094 
Q 2938 2591 2744 2837 
Q 2550 3084 2163 3084 
Q 1697 3084 1428 2787 
Q 1159 2491 1159 1978 
L 1159 0 
L 581 0 
L 581 3500 
L 1159 3500 
L 1159 2956 
Q 1366 3272 1645 3428 
Q 1925 3584 2291 3584 
Q 2894 3584 3203 3211 
Q 3513 2838 3513 2113 
z
" transform="scale(0.015625)"/>
       <path id="DejaVuSans-20" transform="scale(0.015625)"/>
       <path id="DejaVuSans-6c" d="M 603 4863 
L 1178 4863 
L 1178 0 
L 603 0 
L 603 4863 
z
" transform="scale(0.015625)"/>
       <path id="DejaVuSans-73" d="M 2834 3397 
L 2834 2853 
Q 2591 2978 2328 3040 
Q 2066 3103 1784 3103 
Q 1356 3103 1142 2972 
Q 928 2841 928 2578 
Q 928 2378 1081 2264 
Q 1234 2150 1697 2047 
L 1894 2003 
Q 2506 1872 2764 1633 
Q 3022 1394 3022 966 
Q 3022 478 2636 193 
Q 2250 -91 1575 -91 
Q 1294 -91 989 -36 
Q 684 19 347 128 
L 347 722 
Q 666 556 975 473 
Q 1284 391 1588 391 
Q 1994 391 2212 530 
Q 2431 669 2431 922 
Q 2431 1156 2273 1281 
Q 2116 1406 1581 1522 
L 1381 1569 
Q 847 1681 609 1914 
Q 372 2147 372 2553 
Q 372 3047 722 3315 
Q 1072 3584 1716 3584 
Q 2034 3584 2315 3537 
Q 2597 3491 2834 3397 
z
" transform="scale(0.015625)"/>
      </defs>
      <use xlink:href="#DejaVuSans-74"/>
      <use xlink:href="#DejaVuSans-72" x="39.208984"/>
      <use xlink:href="#DejaVuSans-61" x="80.322266"/>
      <use xlink:href="#DejaVuSans-69" x="141.601562"/>
      <use xlink:href="#DejaVuSans-6e" x="169.384766"/>
      <use xlink:href="#DejaVuSans-20" x="232.763672"/>
      <use xlink:href="#DejaVuSans-6c" x="264.550781"/>
      <use xlink:href="#DejaVuSans-6f" x="292.333984"/>
      <use xlink:href="#DejaVuSans-73" x="353.515625"/>
      <use xlink:href="#DejaVuSans-73" x="405.615234"/>
     </g>
    </g>
   </g>
   <g id="line2d_13">
    <path d="M 338.921597 -1 
L 342.144 5.032313 
L 346.752 5.466397 
L 351.36 15.939989 
L 355.968 29.506106 
L 360.576 27.141299 
L 365.184 56.57542 
L 369.792 48.43917 
L 374.4 32.803628 
L 379.008 53.498998 
L 383.616 61.792053 
L 388.224 64.800684 
L 392.832 70.885737 
L 397.44 64.055487 
L 402.048 74.440063 
L 406.656 78.414118 
L 411.264 81.057454 
L 415.872 73.565901 
L 420.48 87.252744 
L 425.088 82.139857 
L 429.696 96.477639 
L 434.304 91.598461 
L 438.912 110.889454 
L 443.52 110.878093 
L 448.128 92.092721 
L 452.736 91.233165 
L 457.344 105.759214 
L 461.952 103.033481 
L 466.56 105.70578 
L 471.168 131.778459 
L 475.776 118.591245 
L 480.384 116.547413 
L 484.992 137.115567 
L 489.6 131.767598 
L 494.208 132.892573 
L 498.816 136.505951 
L 503.424 124.299142 
L 508.032 134.883095 
L 512.64 134.406813 
L 517.248 140.748796 
L 521.856 127.726377 
L 526.464 134.702196 
L 531.072 141.119959 
L 535.68 139.340174 
L 540.288 150.455591 
L 544.896 149.2235 
L 549.504 159.081856 
L 554.112 157.432035 
L 558.72 150.583183 
L 563.328 157.381223 
L 567.936 146.528603 
L 572.544 152.576827 
L 577.152 152.568337 
L 581.76 167.217232 
L 586.368 157.777355 
L 590.976 160.994102 
L 595.584 172.436113 
L 600.192 172.091292 
L 604.8 152.483693 
L 609.408 169.121238 
L 614.016 180.193522 
L 618.624 166.50362 
L 623.232 167.856312 
L 627.84 172.318384 
L 632.448 175.549863 
L 637.056 177.256239 
L 641.664 165.793754 
L 646.272 182.441162 
L 650.88 172.081429 
L 655.488 175.191309 
L 660.096 180.302573 
L 664.704 185.650231 
L 669.312 185.095609 
L 673.92 170.593281 
L 678.528 172.90066 
L 683.136 175.496055 
L 687.744 172.943481 
L 692.352 172.575564 
L 696.96 178.108741 
L 701.568 192.76057 
L 706.176 172.105899 
L 710.784 178.809806 
L 715.392 169.01512 
L 720 184.12594 
L 724.608 177.962548 
L 729.216 182.00071 
L 733.824 187.239066 
L 738.432 180.740653 
L 743.04 181.658012 
L 747.648 186.6699 
L 752.256 175.852611 
L 756.864 172.768574 
L 761.472 189.779655 
L 766.08 191.907132 
L 770.688 177.303119 
L 775.296 184.38131 
L 779.904 172.576189 
L 784.512 189.884961 
L 789.12 186.600985 
L 793.728 173.379689 
L 798.336 178.983215 
L 802.944 181.862819 
L 807.552 187.875524 
L 812.16 175.569089 
L 816.768 188.637077 
L 821.376 183.302965 
L 825.984 199.868724 
L 830.592 188.213292 
L 835.2 186.843246 
L 839.808 182.28648 
L 844.416 188.592133 
L 849.024 189.344322 
L 853.632 186.203106 
L 858.24 197.343804 
L 862.848 183.99554 
L 867.456 196.528007 
L 872.064 192.864628 
L 876.672 187.765162 
L 881.28 178.367107 
L 885.888 190.586214 
L 890.496 178.897135 
L 895.104 189.654373 
L 899.712 194.202026 
L 904.32 189.569292 
L 908.928 195.174129 
L 913.536 196.597108 
L 918.144 185.84374 
L 922.752 200.879716 
L 927.36 197.32077 
L 931.968 190.39027 
L 936.576 194.863328 
L 941.184 203.488095 
L 945.792 195.793171 
L 950.4 189.44763 
L 955.008 200.443696 
L 959.616 197.854918 
L 964.224 187.961667 
L 968.832 192.942094 
L 973.44 195.749226 
L 978.048 196.636871 
L 982.656 193.98592 
L 987.264 202.525356 
L 991.872 194.435049 
L 996.48 191.726045 
L 1001.088 196.542364 
L 1005.696 182.918568 
L 1010.304 190.75207 
L 1014.912 203.970807 
L 1019.52 202.413495 
L 1028.736 191.014493 
L 1033.344 195.567639 
L 1037.952 188.206612 
L 1042.56 193.709389 
L 1047.168 203.381728 
L 1051.776 198.884512 
L 1056.384 203.495961 
L 1060.992 205.283736 
L 1065.6 198.007478 
L 1070.208 206.273816 
L 1074.816 196.894676 
L 1079.424 203.689095 
L 1084.032 194.662141 
L 1088.64 201.130155 
L 1093.248 206.066699 
L 1097.856 198.997122 
L 1102.464 199.220469 
L 1107.072 198.338504 
L 1111.68 195.794919 
L 1116.288 196.397419 
L 1120.896 196.056094 
L 1125.504 203.997586 
L 1130.112 211.456055 
L 1134.72 197.613781 
L 1139.328 196.736435 
L 1143.936 201.778348 
L 1148.544 194.927873 
L 1153.152 209.260474 
L 1157.76 197.66066 
L 1162.368 207.475633 
L 1166.976 215.302019 
L 1171.584 201.352628 
L 1176.192 199.98252 
L 1180.8 190.695577 
L 1185.408 199.596938 
L 1190.016 204.250709 
L 1194.624 209.796682 
L 1199.232 193.184667 
L 1203.84 202.111371 
L 1208.448 197.25092 
L 1213.056 213.543644 
L 1217.664 200.730465 
L 1222.272 196.967959 
L 1226.88 197.518212 
L 1231.488 206.150844 
L 1236.096 188.863732 
L 1240.704 202.025103 
L 1245.312 202.073918 
L 1249.92 193.03966 
L 1254.528 201.175161 
L 1259.136 204.697403 
L 1263.744 195.784682 
L 1268.352 192.274675 
L 1272.96 204.680362 
L 1277.568 203.841156 
L 1282.176 206.782433 
L 1286.784 191.792213 
L 1291.392 196.612964 
L 1291.392 196.612964 
" clip-path="url(#p258ab2f2a2)" style="fill: none; stroke: #1f77b4; stroke-width: 1.5; stroke-linecap: square"/>
   </g>
   <g id="line2d_14">
    <path d="M 0 0 
" clip-path="url(#p258ab2f2a2)" style="fill: none; stroke: #ff7f0e; stroke-width: 1.5; stroke-linecap: square"/>
   </g>
   <g id="line2d_15">
    <path d="M 254.011206 -1 
L 254.592 8.323966 
L 259.2 51.899239 
L 263.808 113.338531 
L 268.416 162.944425 
L 273.024 187.426396 
L 277.632 216.709267 
L 282.24 234.785023 
L 286.848 271.356886 
L 291.456 280.123789 
L 296.064 294.855768 
L 300.672 306.286356 
L 305.28 330.355404 
L 309.888 333.250488 
L 314.496 336.904878 
L 319.104 348.500323 
L 323.712 362.181173 
L 328.32 353.956408 
L 332.928 378.235008 
L 337.536 370.8982 
L 342.144 389.70205 
L 346.752 390.847624 
L 351.36 402.505305 
L 355.968 409.080372 
L 360.576 420.42669 
L 365.184 432.854786 
L 369.792 429.013816 
L 374.4 401.49631 
L 379.008 434.517592 
L 383.616 443.905909 
L 388.224 455.705163 
L 392.832 461.231473 
L 397.44 475.623064 
L 402.048 478.299233 
L 406.656 464.332239 
L 415.872 486.436919 
L 420.48 474.904895 
L 425.088 481.148001 
L 429.696 483.88859 
L 434.304 488.613647 
L 438.912 483.763246 
L 443.52 489.529882 
L 448.128 496.365501 
L 452.736 502.920781 
L 457.344 498.061328 
L 461.952 503.239821 
L 466.56 509.538732 
L 471.168 500.679882 
L 475.776 512.516652 
L 480.384 502.356295 
L 484.992 510.230496 
L 489.6 516.861744 
L 494.208 521.593731 
L 498.816 513.347742 
L 503.424 521.508899 
L 508.032 521.786928 
L 512.64 517.471673 
L 517.248 518.1125 
L 521.856 524.391998 
L 526.464 520.427557 
L 531.072 514.898188 
L 535.68 533.567455 
L 540.288 537.580711 
L 544.896 528.620486 
L 549.504 532.395413 
L 554.112 538.735087 
L 558.72 538.088516 
L 563.328 538.914364 
L 567.936 535.418277 
L 572.544 533.874573 
L 577.152 539.750198 
L 581.76 537.001681 
L 586.368 538.975038 
L 590.976 546.061844 
L 595.584 557.262905 
L 600.192 548.398873 
L 604.8 531.503274 
L 609.408 540.73697 
L 614.016 546.830575 
L 618.624 553.394344 
L 623.232 554.061451 
L 627.84 543.493852 
L 632.448 551.050199 
L 637.056 557.593681 
L 641.664 545.656723 
L 646.272 548.90774 
L 650.88 544.276066 
L 655.488 547.011412 
L 660.096 560.994261 
L 664.704 562.354256 
L 669.312 553.361323 
L 673.92 561.894703 
L 678.528 564.682983 
L 683.136 555.092106 
L 687.744 550.454502 
L 692.352 561.551755 
L 696.96 553.542535 
L 701.568 557.495365 
L 706.176 561.129031 
L 710.784 561.141266 
L 715.392 561.361367 
L 720 564.076863 
L 724.608 554.733802 
L 729.216 556.458344 
L 733.824 568.64137 
L 738.432 563.556011 
L 743.04 559.57278 
L 747.648 561.058556 
L 752.256 553.461947 
L 756.864 562.23041 
L 761.472 561.851694 
L 766.08 562.71281 
L 770.688 560.364732 
L 775.296 559.609235 
L 779.904 555.689113 
L 784.512 566.275626 
L 789.12 570.727274 
L 793.728 565.896598 
L 798.336 560.414358 
L 802.944 561.736151 
L 807.552 554.055708 
L 812.16 568.512718 
L 816.768 553.28935 
L 821.376 560.404558 
L 825.984 563.679295 
L 830.592 565.552152 
L 835.2 567.742052 
L 839.808 567.395733 
L 844.416 569.817906 
L 849.024 563.251515 
L 853.632 577.090605 
L 858.24 562.513621 
L 862.848 559.501494 
L 867.456 566.781684 
L 872.064 558.929331 
L 876.672 561.924479 
L 881.28 566.962896 
L 885.888 558.534447 
L 890.496 572.513738 
L 895.104 579.597361 
L 899.712 558.099239 
L 904.32 551.948643 
L 908.928 570.40711 
L 913.536 567.651477 
L 918.144 570.171279 
L 922.752 565.140352 
L 927.36 561.597448 
L 931.968 567.780878 
L 936.576 571.673472 
L 941.184 567.296044 
L 945.792 566.95603 
L 950.4 564.18785 
L 955.008 571.246565 
L 959.616 570.962357 
L 964.224 567.971017 
L 968.832 566.127373 
L 973.44 571.809178 
L 978.048 575.28298 
L 982.656 557.306163 
L 987.264 577.773006 
L 991.872 572.880657 
L 996.48 559.827276 
L 1001.088 571.633396 
L 1005.696 570.617536 
L 1010.304 557.329821 
L 1014.912 561.982906 
L 1019.52 571.082395 
L 1024.128 567.295607 
L 1028.736 571.749939 
L 1033.344 559.326711 
L 1037.952 557.751921 
L 1042.56 568.647862 
L 1047.168 575.812383 
L 1051.776 569.45467 
L 1056.384 572.85781 
L 1060.992 570.119593 
L 1065.6 569.281199 
L 1070.208 555.648788 
L 1074.816 574.168492 
L 1079.424 570.978087 
L 1084.032 575.92 
L 1088.64 577.857027 
L 1093.248 565.179803 
L 1097.856 572.667173 
L 1102.464 573.947891 
L 1107.072 576.368691 
L 1111.68 568.02033 
L 1116.288 574.582789 
L 1120.896 570.274151 
L 1125.504 570.635888 
L 1130.112 574.246957 
L 1134.72 561.866301 
L 1139.328 573.442395 
L 1143.936 578.592049 
L 1148.544 573.937716 
L 1153.152 577.370944 
L 1157.76 573.102319 
L 1162.368 572.670731 
L 1166.976 559.805678 
L 1171.584 579.123451 
L 1176.192 574.979607 
L 1180.8 578.528066 
L 1185.408 574.547707 
L 1190.016 568.579634 
L 1194.624 579.900047 
L 1199.232 579.222015 
L 1203.84 570.285948 
L 1208.448 570.033388 
L 1213.056 573.356377 
L 1217.664 574.021612 
L 1222.272 575.060382 
L 1226.88 572.636086 
L 1231.488 570.576025 
L 1236.096 570.403802 
L 1240.704 574.002885 
L 1245.312 575.335976 
L 1249.92 575.680735 
L 1254.528 571.048437 
L 1259.136 571.001495 
L 1263.744 578.291174 
L 1268.352 572.551129 
L 1272.96 577.065324 
L 1277.568 576.749467 
L 1282.176 575.725179 
L 1286.784 575.19203 
L 1291.392 569.598366 
L 1291.392 569.598366 
" clip-path="url(#p258ab2f2a2)" style="fill: none; stroke: #2ca02c; stroke-width: 1.5; stroke-linecap: square"/>
   </g>
   <g id="line2d_16">
    <path d="M 262.835494 -1 
L 263.808 2.725808 
L 268.416 41.345872 
L 273.024 63.502674 
L 277.632 87.304305 
L 282.24 119.996995 
L 286.848 133.483088 
L 291.456 137.213945 
L 296.064 165.381267 
L 300.672 173.592049 
L 305.28 190.106498 
L 309.888 185.615836 
L 314.496 210.810608 
L 319.104 218.174756 
L 323.712 217.404402 
L 328.32 238.731799 
L 332.928 223.106431 
L 337.536 251.955405 
L 342.144 251.799287 
L 346.752 254.677206 
L 351.36 268.881342 
L 355.968 268.349067 
L 360.576 273.91976 
L 365.184 267.841511 
L 369.792 291.282777 
L 374.4 276.003479 
L 379.008 310.178575 
L 383.616 319.160023 
L 388.224 327.002014 
L 392.832 346.197064 
L 397.44 341.849849 
L 402.048 344.322273 
L 406.656 353.626007 
L 411.264 345.616038 
L 415.872 364.565082 
L 420.48 360.350576 
L 425.088 359.736028 
L 429.696 361.680671 
L 434.304 362.342785 
L 438.912 381.694765 
L 443.52 371.758942 
L 448.128 376.512089 
L 452.736 379.521344 
L 457.344 370.620234 
L 461.952 390.962169 
L 466.56 384.502333 
L 471.168 381.455125 
L 475.776 386.937365 
L 480.384 388.656788 
L 484.992 394.358193 
L 489.6 397.350407 
L 494.208 395.235664 
L 498.816 389.138813 
L 503.424 399.952981 
L 508.032 402.871911 
L 512.64 416.546019 
L 517.248 402.221283 
L 521.856 415.993894 
L 526.464 418.970502 
L 531.072 413.736016 
L 535.68 422.59393 
L 540.288 418.404581 
L 544.896 423.752676 
L 549.504 423.476207 
L 554.112 416.678916 
L 558.72 446.482203 
L 563.328 432.559341 
L 567.936 439.970306 
L 572.544 426.470668 
L 577.152 442.056897 
L 581.76 438.385279 
L 586.368 436.273407 
L 590.976 438.325978 
L 595.584 448.45687 
L 600.192 445.023768 
L 604.8 438.266926 
L 609.408 456.933884 
L 614.016 451.802769 
L 618.624 447.618539 
L 623.232 445.523146 
L 627.84 455.974453 
L 632.448 447.709238 
L 637.056 450.545209 
L 641.664 455.167519 
L 646.272 452.837294 
L 650.88 455.811593 
L 655.488 467.025013 
L 660.096 463.151147 
L 664.704 453.401717 
L 669.312 450.417056 
L 673.92 453.8569 
L 678.528 458.283454 
L 683.136 462.887475 
L 687.744 455.002974 
L 692.352 467.065525 
L 696.96 460.738649 
L 701.568 460.120169 
L 706.176 460.078658 
L 710.784 457.057542 
L 715.392 461.851951 
L 720 464.831868 
L 724.608 461.54296 
L 729.216 451.424989 
L 733.824 466.578694 
L 738.432 462.969997 
L 743.04 461.928356 
L 747.648 469.275275 
L 752.256 472.653384 
L 756.864 470.821539 
L 761.472 468.722651 
L 766.08 467.179134 
L 770.688 468.621589 
L 775.296 462.937662 
L 779.904 465.05097 
L 784.512 465.815706 
L 789.12 456.493681 
L 793.728 470.374969 
L 798.336 459.691452 
L 802.944 465.077437 
L 807.552 472.064929 
L 812.16 465.65141 
L 816.768 463.068749 
L 821.376 457.139191 
L 825.984 471.19782 
L 830.592 460.143639 
L 835.2 459.341949 
L 839.808 471.290518 
L 844.416 478.51896 
L 849.024 474.736854 
L 853.632 474.327863 
L 858.24 471.636649 
L 862.848 469.120718 
L 867.456 462.35495 
L 872.064 465.210521 
L 876.672 467.155101 
L 881.28 464.793353 
L 885.888 477.853101 
L 890.496 466.354847 
L 899.712 483.632846 
L 904.32 476.712583 
L 908.928 473.479419 
L 913.536 475.039914 
L 918.144 469.816852 
L 922.752 483.270984 
L 927.36 469.408547 
L 931.968 471.62585 
L 936.576 477.918457 
L 941.184 467.0458 
L 945.792 477.95435 
L 950.4 477.716895 
L 955.008 477.196231 
L 959.616 479.778455 
L 964.224 478.43469 
L 968.832 467.651047 
L 973.44 474.556329 
L 978.048 486.399528 
L 982.656 482.065484 
L 987.264 484.39084 
L 991.872 468.482949 
L 996.48 462.143338 
L 1001.088 471.508247 
L 1005.696 474.19147 
L 1010.304 479.51934 
L 1014.912 469.270968 
L 1019.52 481.431835 
L 1024.128 476.687863 
L 1028.736 467.302605 
L 1033.344 475.161638 
L 1037.952 475.807646 
L 1042.56 474.100084 
L 1047.168 469.530396 
L 1051.776 482.224411 
L 1056.384 482.051626 
L 1060.992 470.206741 
L 1065.6 485.558449 
L 1070.208 480.765664 
L 1074.816 484.431227 
L 1079.424 481.121097 
L 1084.032 488.081872 
L 1088.64 480.067782 
L 1093.248 469.720097 
L 1097.856 461.688904 
L 1102.464 477.332936 
L 1107.072 472.311809 
L 1111.68 484.260065 
L 1116.288 479.87059 
L 1120.896 469.741445 
L 1125.504 473.426547 
L 1130.112 486.257018 
L 1134.72 461.913749 
L 1139.328 478.811783 
L 1143.936 480.12415 
L 1148.544 478.707725 
L 1153.152 472.568053 
L 1157.76 475.506646 
L 1162.368 478.898238 
L 1166.976 473.568932 
L 1171.584 489.442429 
L 1176.192 477.492237 
L 1180.8 475.604212 
L 1185.408 481.075778 
L 1190.016 490.121833 
L 1194.624 475.739294 
L 1199.232 472.120672 
L 1203.84 480.478896 
L 1208.448 474.559138 
L 1213.056 483.686591 
L 1217.664 474.460385 
L 1222.272 469.147747 
L 1226.88 478.856852 
L 1231.488 471.17797 
L 1236.096 482.097819 
L 1240.704 483.09695 
L 1245.312 487.62313 
L 1249.92 479.463534 
L 1254.528 479.537754 
L 1259.136 487.706339 
L 1263.744 480.722405 
L 1268.352 492.574968 
L 1272.96 481.191759 
L 1277.568 476.692795 
L 1282.176 486.970879 
L 1286.784 482.491766 
L 1291.392 474.412008 
L 1291.392 474.412008 
" clip-path="url(#p258ab2f2a2)" style="fill: none; stroke: #d62728; stroke-width: 1.5; stroke-linecap: square"/>
   </g>
   <g id="line2d_17">
    <path d="M 304.132469 -1 
L 305.28 0.352636 
L 309.888 2.255268 
L 314.496 5.905476 
L 319.104 29.368028 
L 323.712 21.559995 
L 328.32 33.809002 
L 332.928 41.297308 
L 337.536 54.548692 
L 342.144 68.161252 
L 346.752 76.705994 
L 351.36 79.886036 
L 355.968 92.653023 
L 360.576 101.145954 
L 365.184 105.635492 
L 369.792 118.945054 
L 374.4 131.3636 
L 379.008 144.734086 
L 383.616 150.32438 
L 388.224 151.824013 
L 392.832 157.26262 
L 397.44 166.489014 
L 402.048 169.819619 
L 406.656 177.350247 
L 411.264 183.484489 
L 415.872 182.658392 
L 420.48 184.641049 
L 425.088 196.205408 
L 429.696 200.678404 
L 434.304 197.629012 
L 438.912 205.456583 
L 443.52 214.852578 
L 448.128 215.192717 
L 452.736 216.846596 
L 457.344 233.882584 
L 461.952 229.714833 
L 466.56 238.89572 
L 471.168 247.740151 
L 475.776 239.145846 
L 480.384 247.551448 
L 484.992 245.881402 
L 489.6 248.708946 
L 494.208 261.108889 
L 498.816 263.59155 
L 503.424 267.493132 
L 508.032 274.385805 
L 512.64 270.577169 
L 517.248 282.612255 
L 521.856 283.766568 
L 526.464 292.79733 
L 531.072 297.757969 
L 535.68 309.352853 
L 540.288 306.428741 
L 544.896 314.994894 
L 549.504 315.392524 
L 554.112 311.880332 
L 558.72 323.328648 
L 563.328 324.829343 
L 567.936 338.260379 
L 572.544 337.605319 
L 577.152 348.623545 
L 581.76 347.978785 
L 586.368 349.316433 
L 590.976 345.970971 
L 595.584 361.381543 
L 600.192 359.976292 
L 604.8 365.314711 
L 609.408 376.703226 
L 614.016 376.571265 
L 618.624 380.372348 
L 623.232 376.085994 
L 627.84 380.561675 
L 632.448 370.12329 
L 637.056 374.199592 
L 641.664 372.011128 
L 646.272 376.173323 
L 650.88 382.03428 
L 655.488 385.58536 
L 660.096 386.225626 
L 664.704 389.525957 
L 669.312 381.76705 
L 673.92 385.870755 
L 678.528 393.741523 
L 683.136 389.309851 
L 687.744 390.880334 
L 692.352 398.586931 
L 696.96 389.120898 
L 701.568 377.433255 
L 706.176 394.260752 
L 710.784 395.139908 
L 715.392 393.242207 
L 720 385.481989 
L 724.608 400.023892 
L 729.216 401.15692 
L 733.824 388.684316 
L 738.432 406.065499 
L 743.04 395.33117 
L 747.648 393.743895 
L 752.256 402.879027 
L 756.864 396.7735 
L 761.472 403.056743 
L 766.08 394.363374 
L 770.688 404.88784 
L 775.296 399.813592 
L 779.904 405.031973 
L 784.512 402.749251 
L 789.12 394.73641 
L 793.728 412.100801 
L 798.336 406.579297 
L 802.944 406.793968 
L 807.552 415.186211 
L 812.16 414.018976 
L 816.768 407.449527 
L 821.376 416.454196 
L 825.984 422.494117 
L 830.592 412.086069 
L 835.2 423.890255 
L 839.808 409.666393 
L 844.416 412.111725 
L 849.024 423.509166 
L 853.632 432.691365 
L 858.24 426.251441 
L 862.848 412.814912 
L 867.456 426.345512 
L 872.064 415.593205 
L 876.672 416.338215 
L 885.888 434.258477 
L 890.496 420.397788 
L 895.104 421.721079 
L 899.712 429.939414 
L 904.32 427.534594 
L 908.928 423.338379 
L 913.536 441.147903 
L 918.144 427.780226 
L 922.752 428.508071 
L 927.36 427.238838 
L 931.968 423.153921 
L 936.576 428.704638 
L 941.184 431.474504 
L 945.792 436.353432 
L 950.4 433.532131 
L 955.008 434.469901 
L 959.616 424.887264 
L 964.224 435.609046 
L 968.832 427.243831 
L 973.44 433.060405 
L 978.048 429.20333 
L 982.656 435.819285 
L 987.264 432.669017 
L 991.872 434.424208 
L 996.48 443.124943 
L 1001.088 437.238019 
L 1005.696 433.060967 
L 1010.304 441.930242 
L 1014.912 436.456429 
L 1019.52 433.600296 
L 1024.128 433.060468 
L 1028.736 436.483271 
L 1033.344 424.297061 
L 1037.952 434.27196 
L 1042.56 435.942194 
L 1047.168 439.238405 
L 1051.776 438.595517 
L 1056.384 443.129125 
L 1060.992 437.587272 
L 1065.6 438.624856 
L 1070.208 440.262755 
L 1074.816 446.580892 
L 1079.424 440.178859 
L 1084.032 439.449267 
L 1088.64 433.060031 
L 1093.248 439.994776 
L 1097.856 442.762457 
L 1102.464 440.854706 
L 1107.072 430.70596 
L 1111.68 453.009705 
L 1116.288 444.729446 
L 1120.896 441.435421 
L 1125.504 446.824277 
L 1130.112 444.377946 
L 1134.72 442.186361 
L 1139.328 451.020493 
L 1143.936 445.025765 
L 1148.544 441.756022 
L 1153.152 436.472222 
L 1157.76 429.731486 
L 1162.368 444.547423 
L 1166.976 445.428764 
L 1171.584 454.751475 
L 1176.192 445.920901 
L 1180.8 449.428973 
L 1185.408 437.626598 
L 1190.016 441.241287 
L 1194.624 460.324789 
L 1199.232 438.61774 
L 1203.84 435.976027 
L 1208.448 440.34509 
L 1213.056 439.593775 
L 1217.664 438.378725 
L 1222.272 441.756022 
L 1226.88 446.897811 
L 1231.488 438.988965 
L 1236.096 434.298989 
L 1240.704 452.571375 
L 1245.312 448.461802 
L 1249.92 438.138149 
L 1254.528 444.55379 
L 1259.136 452.853212 
L 1263.744 442.680933 
L 1268.352 442.497911 
L 1272.96 444.577698 
L 1277.568 448.571852 
L 1282.176 450.483536 
L 1286.784 442.549285 
L 1291.392 448.641141 
L 1291.392 448.641141 
" clip-path="url(#p258ab2f2a2)" style="fill: none; stroke: #9467bd; stroke-width: 1.5; stroke-linecap: square"/>
   </g>
   <g id="line2d_18">
    <path d="M 298.56547 -1 
L 300.672 59.084548 
L 305.28 245.898505 
L 309.888 306.686358 
L 314.496 207.60878 
L 319.104 126.508517 
L 323.712 223.995076 
L 328.32 271.935916 
L 332.928 367.42883 
L 337.536 368.287512 
L 342.144 379.817975 
L 346.752 425.822288 
L 351.36 451.047272 
L 355.968 463.743285 
L 360.576 459.361363 
L 365.184 453.332053 
L 369.792 470.156491 
L 374.4 468.633449 
L 379.008 471.662305 
L 383.616 494.926854 
L 388.224 521.513892 
L 392.832 513.139252 
L 397.44 518.455448 
L 402.048 515.944323 
L 406.656 528.217113 
L 411.264 524.129949 
L 415.872 514.575527 
L 420.48 525.789135 
L 425.088 527.719545 
L 429.696 531.899218 
L 434.304 527.809745 
L 438.912 532.615827 
L 443.52 544.267889 
L 448.128 554.612266 
L 452.736 544.506904 
L 457.344 547.271651 
L 461.952 539.898951 
L 466.56 549.396694 
L 471.168 535.860913 
L 475.776 566.352406 
L 480.384 552.374863 
L 484.992 558.7234 
L 489.6 554.21526 
L 494.208 550.36786 
L 498.816 556.211588 
L 503.424 569.605046 
L 508.032 564.334043 
L 512.64 560.848755 
L 517.248 566.471945 
L 521.856 575.785604 
L 526.464 562.864871 
L 531.072 574.512127 
L 535.68 576.841166 
L 540.288 576.336606 
L 544.896 570.72278 
L 549.504 564.631235 
L 554.112 577.96508 
L 558.72 577.078683 
L 563.328 571.993636 
L 567.936 575.624367 
L 572.544 590.464462 
L 577.152 580.872337 
L 581.76 578.178002 
L 586.368 582.55699 
L 590.976 594.43165 
L 595.584 569.020086 
L 600.192 573.472545 
L 604.8 589.386366 
L 609.408 584.267362 
L 614.016 590.616898 
L 618.624 594.349378 
L 623.232 584.348573 
L 627.84 592.141188 
L 632.448 586.463816 
L 637.056 590.749732 
L 641.664 595.836652 
L 646.272 595.125911 
L 650.88 598.258326 
L 655.488 595.584715 
L 660.096 592.66023 
L 664.704 600.251845 
L 669.312 602.003041 
L 673.92 596.474358 
L 678.528 583.134272 
L 683.136 589.525631 
L 687.744 599.211639 
L 692.352 585.456569 
L 696.96 585.48778 
L 701.568 602.088497 
L 706.176 593.907927 
L 710.784 599.683802 
L 715.392 607.196827 
L 720 597.77449 
L 724.608 598.035915 
L 729.216 595.999761 
L 733.824 596.342522 
L 738.432 591.177575 
L 743.04 594.430714 
L 747.648 601.812528 
L 752.256 595.316736 
L 756.864 599.620693 
L 761.472 597.472803 
L 766.08 597.601643 
L 770.688 590.416023 
L 775.296 600.062768 
L 779.904 600.436428 
L 784.512 607.733784 
L 789.12 598.866756 
L 793.728 600.85447 
L 798.336 596.56537 
L 802.944 601.496671 
L 807.552 602.444554 
L 812.16 601.984938 
L 816.768 607.279037 
L 821.376 602.629261 
L 825.984 604.081641 
L 830.592 604.648436 
L 835.2 602.099608 
L 839.808 607.179661 
L 844.416 586.992158 
L 849.024 601.374385 
L 853.632 602.162155 
L 858.24 597.17586 
L 862.848 603.821902 
L 867.456 609.288037 
L 872.064 612.988745 
L 876.672 603.549803 
L 881.28 604.547749 
L 885.888 599.822941 
L 890.496 600.8908 
L 895.104 598.158013 
L 899.712 593.586764 
L 904.32 601.758907 
L 908.928 598.551211 
L 913.536 598.867318 
L 918.144 601.00909 
L 922.752 603.003421 
L 927.36 611.529373 
L 931.968 595.968488 
L 936.576 600.649787 
L 941.184 604.844193 
L 945.792 603.011973 
L 950.4 605.044568 
L 955.008 600.807841 
L 959.616 605.164544 
L 964.224 611.954157 
L 968.832 604.559047 
L 973.44 601.96927 
L 978.048 609.975432 
L 982.656 610.757272 
L 987.264 602.03369 
L 991.872 602.508037 
L 996.48 608.165372 
L 1001.088 599.591292 
L 1005.696 611.762146 
L 1010.304 598.53417 
L 1014.912 606.9075 
L 1019.52 601.899732 
L 1024.128 603.074645 
L 1028.736 607.770801 
L 1033.344 599.15109 
L 1037.952 604.613979 
L 1042.56 605.424283 
L 1047.168 609.353831 
L 1051.776 611.08967 
L 1056.384 612.306157 
L 1060.992 613.12882 
L 1065.6 599.025371 
L 1070.208 600.612084 
L 1074.816 611.201094 
L 1079.424 607.176165 
L 1084.032 605.299938 
L 1088.64 606.980409 
L 1093.248 599.7456 
L 1097.856 609.144029 
L 1102.464 600.590861 
L 1107.072 603.693562 
L 1111.68 603.20261 
L 1116.288 605.626282 
L 1120.896 605.562112 
L 1125.504 602.580572 
L 1130.112 609.402145 
L 1134.72 601.456408 
L 1139.328 614.513784 
L 1143.936 601.315958 
L 1148.544 615.633016 
L 1153.152 610.244285 
L 1157.76 610.181114 
L 1162.368 598.380923 
L 1166.976 610.082923 
L 1171.584 608.594338 
L 1176.192 612.126131 
L 1180.8 603.665285 
L 1185.408 598.606393 
L 1190.016 604.341506 
L 1194.624 598.343719 
L 1199.232 604.622031 
L 1203.84 607.732036 
L 1208.448 605.046878 
L 1213.056 620.455265 
L 1217.664 603.641377 
L 1222.272 595.144576 
L 1226.88 609.125989 
L 1231.488 606.685838 
L 1236.096 612.151724 
L 1240.704 603.272149 
L 1245.312 602.967278 
L 1249.92 613.735066 
L 1254.528 607.211933 
L 1259.136 608.797398 
L 1263.744 604.470595 
L 1268.352 606.192015 
L 1272.96 611.15022 
L 1277.568 614.323146 
L 1282.176 598.358576 
L 1286.784 611.647788 
L 1291.392 611.161269 
L 1291.392 611.161269 
" clip-path="url(#p258ab2f2a2)" style="fill: none; stroke: #8c564b; stroke-width: 1.5; stroke-linecap: square"/>
   </g>
   <g id="line2d_19">
    <path d="M 300.423565 -1 
L 300.672 5.180878 
L 301.461962 -1 
M 311.621129 -1 
L 314.496 15.01077 
L 318.564821 -1 
M 319.643376 -1 
L 323.712 15.004153 
L 328.32 47.258889 
L 332.928 62.839375 
L 337.536 77.433089 
L 342.144 68.045147 
L 346.752 68.741155 
L 351.36 102.364188 
L 355.968 83.270574 
L 360.576 58.598652 
L 365.184 92.603585 
L 369.792 135.798831 
L 374.4 96.755918 
L 379.008 161.964269 
L 383.616 118.726951 
L 388.224 111.343264 
L 392.832 203.908073 
L 397.44 210.964167 
L 402.048 204.953959 
L 406.656 219.959598 
L 411.264 229.296416 
L 415.872 219.767586 
L 420.48 247.92024 
L 425.088 243.239315 
L 429.696 240.678814 
L 434.304 250.15989 
L 438.912 260.268748 
L 443.52 254.759042 
L 448.128 257.154748 
L 452.736 280.115612 
L 457.344 281.558691 
L 461.952 284.440292 
L 466.56 289.498186 
L 471.168 294.206202 
L 475.776 291.356498 
L 480.384 307.464765 
L 484.992 307.73986 
L 489.6 310.517403 
L 494.208 319.039423 
L 498.816 323.653743 
L 503.424 321.117649 
L 508.032 329.42013 
L 512.64 332.877889 
L 517.248 327.596836 
L 521.856 343.17726 
L 526.464 339.589974 
L 531.072 334.233577 
L 535.68 324.218416 
L 540.288 337.473421 
L 544.896 354.257097 
L 549.504 354.695676 
L 554.112 376.020389 
L 558.72 358.572601 
L 563.328 386.06183 
L 567.936 362.042596 
L 572.544 391.407865 
L 577.152 370.071854 
L 581.76 400.093369 
L 586.368 391.310236 
L 590.976 396.85209 
L 595.584 385.108641 
L 604.8 413.716915 
L 609.408 419.191415 
L 614.016 416.624297 
L 618.624 424.35218 
L 623.232 423.061661 
L 627.84 434.46884 
L 632.448 426.325412 
L 637.056 429.952773 
L 641.664 431.512956 
L 646.272 434.182509 
L 650.88 423.216218 
L 655.488 429.060945 
L 660.096 423.874275 
L 664.704 446.544063 
L 669.312 439.570928 
L 673.92 442.279558 
L 678.528 429.367563 
L 683.136 457.471714 
L 687.744 434.447991 
L 692.352 441.192972 
L 696.96 445.221147 
L 701.568 450.776546 
L 706.176 447.515355 
L 710.784 446.011788 
L 715.392 447.830962 
L 720 446.390754 
L 724.608 448.145321 
L 729.216 447.607989 
L 733.824 443.822325 
L 738.432 456.489624 
L 743.04 463.095653 
L 747.648 461.087964 
L 752.256 448.968234 
L 756.864 453.821757 
L 761.472 462.44309 
L 766.08 455.707223 
L 770.688 449.658001 
L 775.296 453.939423 
L 779.904 454.25272 
L 784.512 457.843377 
L 789.12 452.669628 
L 793.728 457.015782 
L 798.336 463.306578 
L 802.944 462.914941 
L 807.552 466.342862 
L 812.16 478.236748 
L 816.768 465.718015 
L 821.376 465.809776 
L 825.984 468.443061 
L 830.592 481.791575 
L 835.2 473.639469 
L 839.808 479.514346 
L 844.416 482.074036 
L 849.024 481.804621 
L 853.632 480.298495 
L 858.24 469.416537 
L 862.848 482.785962 
L 867.456 470.644946 
L 872.064 477.388741 
L 876.672 489.066084 
L 881.28 476.959276 
L 885.888 469.796502 
L 890.496 481.811675 
L 895.104 487.5167 
L 899.712 493.680342 
L 904.32 478.716963 
L 908.928 476.366888 
L 913.536 484.285409 
L 918.144 487.887863 
L 922.752 480.771968 
L 927.36 477.729193 
L 931.968 485.671247 
L 936.576 485.114689 
L 941.184 482.148505 
L 945.792 477.761527 
L 950.4 483.004128 
L 955.008 485.877864 
L 959.616 496.529671 
L 964.224 501.229261 
L 968.832 490.19649 
L 973.44 489.044798 
L 978.048 494.394953 
L 982.656 482.709308 
L 987.264 492.012355 
L 991.872 495.936722 
L 996.48 488.922451 
L 1001.088 501.167775 
L 1005.696 497.142409 
L 1010.304 500.850607 
L 1014.912 490.007975 
L 1019.52 494.182779 
L 1024.128 497.184107 
L 1028.736 501.471022 
L 1033.344 491.63314 
L 1037.952 496.396088 
L 1042.56 504.872976 
L 1047.168 498.125311 
L 1051.776 497.016628 
L 1056.384 512.984195 
L 1060.992 491.85037 
L 1065.6 508.013006 
L 1070.208 497.84878 
L 1074.816 507.224113 
L 1079.424 508.512946 
L 1084.032 504.448442 
L 1088.64 512.4679 
L 1093.248 502.309416 
L 1097.856 503.719849 
L 1102.464 497.61944 
L 1107.072 503.483892 
L 1111.68 505.083714 
L 1116.288 507.482728 
L 1120.896 501.233817 
L 1125.504 509.547409 
L 1130.112 511.663463 
L 1134.72 507.842094 
L 1139.328 506.771863 
L 1143.936 510.520948 
L 1148.544 516.108869 
L 1153.152 510.14092 
L 1157.76 509.511703 
L 1162.368 507.027046 
L 1166.976 501.489125 
L 1171.584 506.782038 
L 1176.192 503.596252 
L 1180.8 505.018295 
L 1185.408 506.29221 
L 1190.016 505.857938 
L 1194.624 500.926637 
L 1199.232 509.669819 
L 1203.84 501.020395 
L 1208.448 516.566549 
L 1213.056 500.799296 
L 1217.664 516.72017 
L 1222.272 526.965234 
L 1226.88 518.461441 
L 1231.488 510.937804 
L 1236.096 512.273392 
L 1240.704 509.45852 
L 1249.92 508.30146 
L 1254.528 503.971848 
L 1259.136 513.119714 
L 1263.744 505.019856 
L 1268.352 500.492303 
L 1272.96 506.344145 
L 1277.568 502.548744 
L 1282.176 504.069414 
L 1286.784 509.264698 
L 1291.392 504.160613 
L 1291.392 504.160613 
" clip-path="url(#p258ab2f2a2)" style="fill: none; stroke: #e377c2; stroke-width: 1.5; stroke-linecap: square"/>
   </g>
   <g id="patch_3">
    <path d="M 144 648 
L 144 72 
" style="fill: none; stroke: #000000; stroke-width: 0.8; stroke-linejoin: miter; stroke-linecap: square"/>
   </g>
   <g id="patch_4">
    <path d="M 1296 648 
L 1296 72 
" style="fill: none; stroke: #000000; stroke-width: 0.8; stroke-linejoin: miter; stroke-linecap: square"/>
   </g>
   <g id="patch_5">
    <path d="M 144 648 
L 1296 648 
" style="fill: none; stroke: #000000; stroke-width: 0.8; stroke-linejoin: miter; stroke-linecap: square"/>
   </g>
   <g id="patch_6">
    <path d="M 144 72 
L 1296 72 
" style="fill: none; stroke: #000000; stroke-width: 0.8; stroke-linejoin: miter; stroke-linecap: square"/>
   </g>
   <g id="legend_1">
    <g id="patch_7">
     <path d="M 158 638 
L 384.51875 638 
Q 388.51875 638 388.51875 634 
L 388.51875 429.39375 
Q 388.51875 425.39375 384.51875 425.39375 
L 158 425.39375 
Q 154 425.39375 154 429.39375 
L 154 634 
Q 154 638 158 638 
z
" style="fill: #ffffff; opacity: 0.8; stroke: #cccccc; stroke-linejoin: miter"/>
    </g>
    <g id="line2d_20">
     <path d="M 162 441.590625 
L 182 441.590625 
L 202 441.590625 
" style="fill: none; stroke: #1f77b4; stroke-width: 1.5; stroke-linecap: square"/>
    </g>
    <g id="text_15">
     <!-- SGD -->
     <g transform="translate(218 448.590625)scale(0.2 -0.2)">
      <defs>
       <path id="DejaVuSans-53" d="M 3425 4513 
L 3425 3897 
Q 3066 4069 2747 4153 
Q 2428 4238 2131 4238 
Q 1616 4238 1336 4038 
Q 1056 3838 1056 3469 
Q 1056 3159 1242 3001 
Q 1428 2844 1947 2747 
L 2328 2669 
Q 3034 2534 3370 2195 
Q 3706 1856 3706 1288 
Q 3706 609 3251 259 
Q 2797 -91 1919 -91 
Q 1588 -91 1214 -16 
Q 841 59 441 206 
L 441 856 
Q 825 641 1194 531 
Q 1563 422 1919 422 
Q 2459 422 2753 634 
Q 3047 847 3047 1241 
Q 3047 1584 2836 1778 
Q 2625 1972 2144 2069 
L 1759 2144 
Q 1053 2284 737 2584 
Q 422 2884 422 3419 
Q 422 4038 858 4394 
Q 1294 4750 2059 4750 
Q 2388 4750 2728 4690 
Q 3069 4631 3425 4513 
z
" transform="scale(0.015625)"/>
       <path id="DejaVuSans-47" d="M 3809 666 
L 3809 1919 
L 2778 1919 
L 2778 2438 
L 4434 2438 
L 4434 434 
Q 4069 175 3628 42 
Q 3188 -91 2688 -91 
Q 1594 -91 976 548 
Q 359 1188 359 2328 
Q 359 3472 976 4111 
Q 1594 4750 2688 4750 
Q 3144 4750 3555 4637 
Q 3966 4525 4313 4306 
L 4313 3634 
Q 3963 3931 3569 4081 
Q 3175 4231 2741 4231 
Q 1884 4231 1454 3753 
Q 1025 3275 1025 2328 
Q 1025 1384 1454 906 
Q 1884 428 2741 428 
Q 3075 428 3337 486 
Q 3600 544 3809 666 
z
" transform="scale(0.015625)"/>
       <path id="DejaVuSans-44" d="M 1259 4147 
L 1259 519 
L 2022 519 
Q 2988 519 3436 956 
Q 3884 1394 3884 2338 
Q 3884 3275 3436 3711 
Q 2988 4147 2022 4147 
L 1259 4147 
z
M 628 4666 
L 1925 4666 
Q 3281 4666 3915 4102 
Q 4550 3538 4550 2338 
Q 4550 1131 3912 565 
Q 3275 0 1925 0 
L 628 0 
L 628 4666 
z
" transform="scale(0.015625)"/>
      </defs>
      <use xlink:href="#DejaVuSans-53"/>
      <use xlink:href="#DejaVuSans-47" x="63.476562"/>
      <use xlink:href="#DejaVuSans-44" x="140.966797"/>
     </g>
    </g>
    <g id="line2d_21">
     <path d="M 162 470.946875 
L 182 470.946875 
L 202 470.946875 
" style="fill: none; stroke: #ff7f0e; stroke-width: 1.5; stroke-linecap: square"/>
    </g>
    <g id="text_16">
     <!-- Momentum=0.9 -->
     <g transform="translate(218 477.946875)scale(0.2 -0.2)">
      <defs>
       <path id="DejaVuSans-4d" d="M 628 4666 
L 1569 4666 
L 2759 1491 
L 3956 4666 
L 4897 4666 
L 4897 0 
L 4281 0 
L 4281 4097 
L 3078 897 
L 2444 897 
L 1241 4097 
L 1241 0 
L 628 0 
L 628 4666 
z
" transform="scale(0.015625)"/>
       <path id="DejaVuSans-6d" d="M 3328 2828 
Q 3544 3216 3844 3400 
Q 4144 3584 4550 3584 
Q 5097 3584 5394 3201 
Q 5691 2819 5691 2113 
L 5691 0 
L 5113 0 
L 5113 2094 
Q 5113 2597 4934 2840 
Q 4756 3084 4391 3084 
Q 3944 3084 3684 2787 
Q 3425 2491 3425 1978 
L 3425 0 
L 2847 0 
L 2847 2094 
Q 2847 2600 2669 2842 
Q 2491 3084 2119 3084 
Q 1678 3084 1418 2786 
Q 1159 2488 1159 1978 
L 1159 0 
L 581 0 
L 581 3500 
L 1159 3500 
L 1159 2956 
Q 1356 3278 1631 3431 
Q 1906 3584 2284 3584 
Q 2666 3584 2933 3390 
Q 3200 3197 3328 2828 
z
" transform="scale(0.015625)"/>
       <path id="DejaVuSans-75" d="M 544 1381 
L 544 3500 
L 1119 3500 
L 1119 1403 
Q 1119 906 1312 657 
Q 1506 409 1894 409 
Q 2359 409 2629 706 
Q 2900 1003 2900 1516 
L 2900 3500 
L 3475 3500 
L 3475 0 
L 2900 0 
L 2900 538 
Q 2691 219 2414 64 
Q 2138 -91 1772 -91 
Q 1169 -91 856 284 
Q 544 659 544 1381 
z
M 1991 3584 
L 1991 3584 
z
" transform="scale(0.015625)"/>
       <path id="DejaVuSans-3d" d="M 678 2906 
L 4684 2906 
L 4684 2381 
L 678 2381 
L 678 2906 
z
M 678 1631 
L 4684 1631 
L 4684 1100 
L 678 1100 
L 678 1631 
z
" transform="scale(0.015625)"/>
       <path id="DejaVuSans-39" d="M 703 97 
L 703 672 
Q 941 559 1184 500 
Q 1428 441 1663 441 
Q 2288 441 2617 861 
Q 2947 1281 2994 2138 
Q 2813 1869 2534 1725 
Q 2256 1581 1919 1581 
Q 1219 1581 811 2004 
Q 403 2428 403 3163 
Q 403 3881 828 4315 
Q 1253 4750 1959 4750 
Q 2769 4750 3195 4129 
Q 3622 3509 3622 2328 
Q 3622 1225 3098 567 
Q 2575 -91 1691 -91 
Q 1453 -91 1209 -44 
Q 966 3 703 97 
z
M 1959 2075 
Q 2384 2075 2632 2365 
Q 2881 2656 2881 3163 
Q 2881 3666 2632 3958 
Q 2384 4250 1959 4250 
Q 1534 4250 1286 3958 
Q 1038 3666 1038 3163 
Q 1038 2656 1286 2365 
Q 1534 2075 1959 2075 
z
" transform="scale(0.015625)"/>
      </defs>
      <use xlink:href="#DejaVuSans-4d"/>
      <use xlink:href="#DejaVuSans-6f" x="86.279297"/>
      <use xlink:href="#DejaVuSans-6d" x="147.460938"/>
      <use xlink:href="#DejaVuSans-65" x="244.873047"/>
      <use xlink:href="#DejaVuSans-6e" x="306.396484"/>
      <use xlink:href="#DejaVuSans-74" x="369.775391"/>
      <use xlink:href="#DejaVuSans-75" x="408.984375"/>
      <use xlink:href="#DejaVuSans-6d" x="472.363281"/>
      <use xlink:href="#DejaVuSans-3d" x="569.775391"/>
      <use xlink:href="#DejaVuSans-30" x="653.564453"/>
      <use xlink:href="#DejaVuSans-2e" x="717.1875"/>
      <use xlink:href="#DejaVuSans-39" x="748.974609"/>
     </g>
    </g>
    <g id="line2d_22">
     <path d="M 162 500.303125 
L 182 500.303125 
L 202 500.303125 
" style="fill: none; stroke: #2ca02c; stroke-width: 1.5; stroke-linecap: square"/>
    </g>
    <g id="text_17">
     <!-- Momentum=0.8 -->
     <g transform="translate(218 507.303125)scale(0.2 -0.2)">
      <use xlink:href="#DejaVuSans-4d"/>
      <use xlink:href="#DejaVuSans-6f" x="86.279297"/>
      <use xlink:href="#DejaVuSans-6d" x="147.460938"/>
      <use xlink:href="#DejaVuSans-65" x="244.873047"/>
      <use xlink:href="#DejaVuSans-6e" x="306.396484"/>
      <use xlink:href="#DejaVuSans-74" x="369.775391"/>
      <use xlink:href="#DejaVuSans-75" x="408.984375"/>
      <use xlink:href="#DejaVuSans-6d" x="472.363281"/>
      <use xlink:href="#DejaVuSans-3d" x="569.775391"/>
      <use xlink:href="#DejaVuSans-30" x="653.564453"/>
      <use xlink:href="#DejaVuSans-2e" x="717.1875"/>
      <use xlink:href="#DejaVuSans-38" x="748.974609"/>
     </g>
    </g>
    <g id="line2d_23">
     <path d="M 162 529.659375 
L 182 529.659375 
L 202 529.659375 
" style="fill: none; stroke: #d62728; stroke-width: 1.5; stroke-linecap: square"/>
    </g>
    <g id="text_18">
     <!-- Momentum=0.7 -->
     <g transform="translate(218 536.659375)scale(0.2 -0.2)">
      <defs>
       <path id="DejaVuSans-37" d="M 525 4666 
L 3525 4666 
L 3525 4397 
L 1831 0 
L 1172 0 
L 2766 4134 
L 525 4134 
L 525 4666 
z
" transform="scale(0.015625)"/>
      </defs>
      <use xlink:href="#DejaVuSans-4d"/>
      <use xlink:href="#DejaVuSans-6f" x="86.279297"/>
      <use xlink:href="#DejaVuSans-6d" x="147.460938"/>
      <use xlink:href="#DejaVuSans-65" x="244.873047"/>
      <use xlink:href="#DejaVuSans-6e" x="306.396484"/>
      <use xlink:href="#DejaVuSans-74" x="369.775391"/>
      <use xlink:href="#DejaVuSans-75" x="408.984375"/>
      <use xlink:href="#DejaVuSans-6d" x="472.363281"/>
      <use xlink:href="#DejaVuSans-3d" x="569.775391"/>
      <use xlink:href="#DejaVuSans-30" x="653.564453"/>
      <use xlink:href="#DejaVuSans-2e" x="717.1875"/>
      <use xlink:href="#DejaVuSans-37" x="748.974609"/>
     </g>
    </g>
    <g id="line2d_24">
     <path d="M 162 559.015625 
L 182 559.015625 
L 202 559.015625 
" style="fill: none; stroke: #9467bd; stroke-width: 1.5; stroke-linecap: square"/>
    </g>
    <g id="text_19">
     <!-- Adam -->
     <g transform="translate(218 566.015625)scale(0.2 -0.2)">
      <defs>
       <path id="DejaVuSans-41" d="M 2188 4044 
L 1331 1722 
L 3047 1722 
L 2188 4044 
z
M 1831 4666 
L 2547 4666 
L 4325 0 
L 3669 0 
L 3244 1197 
L 1141 1197 
L 716 0 
L 50 0 
L 1831 4666 
z
" transform="scale(0.015625)"/>
       <path id="DejaVuSans-64" d="M 2906 2969 
L 2906 4863 
L 3481 4863 
L 3481 0 
L 2906 0 
L 2906 525 
Q 2725 213 2448 61 
Q 2172 -91 1784 -91 
Q 1150 -91 751 415 
Q 353 922 353 1747 
Q 353 2572 751 3078 
Q 1150 3584 1784 3584 
Q 2172 3584 2448 3432 
Q 2725 3281 2906 2969 
z
M 947 1747 
Q 947 1113 1208 752 
Q 1469 391 1925 391 
Q 2381 391 2643 752 
Q 2906 1113 2906 1747 
Q 2906 2381 2643 2742 
Q 2381 3103 1925 3103 
Q 1469 3103 1208 2742 
Q 947 2381 947 1747 
z
" transform="scale(0.015625)"/>
      </defs>
      <use xlink:href="#DejaVuSans-41"/>
      <use xlink:href="#DejaVuSans-64" x="66.658203"/>
      <use xlink:href="#DejaVuSans-61" x="130.134766"/>
      <use xlink:href="#DejaVuSans-6d" x="191.414062"/>
     </g>
    </g>
    <g id="line2d_25">
     <path d="M 162 588.371875 
L 182 588.371875 
L 202 588.371875 
" style="fill: none; stroke: #8c564b; stroke-width: 1.5; stroke-linecap: square"/>
    </g>
    <g id="text_20">
     <!-- FCSGD_G-L -->
     <g transform="translate(218 595.371875)scale(0.2 -0.2)">
      <defs>
       <path id="DejaVuSans-46" d="M 628 4666 
L 3309 4666 
L 3309 4134 
L 1259 4134 
L 1259 2759 
L 3109 2759 
L 3109 2228 
L 1259 2228 
L 1259 0 
L 628 0 
L 628 4666 
z
" transform="scale(0.015625)"/>
       <path id="DejaVuSans-43" d="M 4122 4306 
L 4122 3641 
Q 3803 3938 3442 4084 
Q 3081 4231 2675 4231 
Q 1875 4231 1450 3742 
Q 1025 3253 1025 2328 
Q 1025 1406 1450 917 
Q 1875 428 2675 428 
Q 3081 428 3442 575 
Q 3803 722 4122 1019 
L 4122 359 
Q 3791 134 3420 21 
Q 3050 -91 2638 -91 
Q 1578 -91 968 557 
Q 359 1206 359 2328 
Q 359 3453 968 4101 
Q 1578 4750 2638 4750 
Q 3056 4750 3426 4639 
Q 3797 4528 4122 4306 
z
" transform="scale(0.015625)"/>
       <path id="DejaVuSans-5f" d="M 3263 -1063 
L 3263 -1509 
L -63 -1509 
L -63 -1063 
L 3263 -1063 
z
" transform="scale(0.015625)"/>
       <path id="DejaVuSans-2d" d="M 313 2009 
L 1997 2009 
L 1997 1497 
L 313 1497 
L 313 2009 
z
" transform="scale(0.015625)"/>
       <path id="DejaVuSans-4c" d="M 628 4666 
L 1259 4666 
L 1259 531 
L 3531 531 
L 3531 0 
L 628 0 
L 628 4666 
z
" transform="scale(0.015625)"/>
      </defs>
      <use xlink:href="#DejaVuSans-46"/>
      <use xlink:href="#DejaVuSans-43" x="57.519531"/>
      <use xlink:href="#DejaVuSans-53" x="127.34375"/>
      <use xlink:href="#DejaVuSans-47" x="190.820312"/>
      <use xlink:href="#DejaVuSans-44" x="268.310547"/>
      <use xlink:href="#DejaVuSans-5f" x="345.3125"/>
      <use xlink:href="#DejaVuSans-47" x="395.3125"/>
      <use xlink:href="#DejaVuSans-2d" x="472.802734"/>
      <use xlink:href="#DejaVuSans-4c" x="508.886719"/>
     </g>
    </g>
    <g id="line2d_26">
     <path d="M 162 618.284375 
L 182 618.284375 
L 202 618.284375 
" style="fill: none; stroke: #e377c2; stroke-width: 1.5; stroke-linecap: square"/>
    </g>
    <g id="text_21">
     <!-- FCAdam_G-L -->
     <g transform="translate(218 625.284375)scale(0.2 -0.2)">
      <use xlink:href="#DejaVuSans-46"/>
      <use xlink:href="#DejaVuSans-43" x="57.519531"/>
      <use xlink:href="#DejaVuSans-41" x="127.34375"/>
      <use xlink:href="#DejaVuSans-64" x="194.001953"/>
      <use xlink:href="#DejaVuSans-61" x="257.478516"/>
      <use xlink:href="#DejaVuSans-6d" x="318.757812"/>
      <use xlink:href="#DejaVuSans-5f" x="416.169922"/>
      <use xlink:href="#DejaVuSans-47" x="466.169922"/>
      <use xlink:href="#DejaVuSans-2d" x="543.660156"/>
      <use xlink:href="#DejaVuSans-4c" x="579.744141"/>
     </g>
    </g>
   </g>
  </g>
  <g id="axes_2">
   <g id="patch_8">
    <path d="M 936 396 
L 1267.2 396 
L 1267.2 230.4 
L 936 230.4 
z
" style="fill: #ffffff"/>
   </g>
   <g id="matplotlib.axis_3">
    <g id="xtick_7">
     <g id="line2d_27">
      <g>
       <use xlink:href="#m0843d19672" x="936" y="396" style="stroke: #000000; stroke-width: 0.8"/>
      </g>
     </g>
     <g id="text_22">
      <!-- 0 -->
      <g transform="translate(929.6375 418.196875)scale(0.2 -0.2)">
       <use xlink:href="#DejaVuSans-30"/>
      </g>
     </g>
    </g>
    <g id="xtick_8">
     <g id="line2d_28">
      <g>
       <use xlink:href="#m0843d19672" x="1002.24" y="396" style="stroke: #000000; stroke-width: 0.8"/>
      </g>
     </g>
     <g id="text_23">
      <!-- 50 -->
      <g transform="translate(989.515 418.196875)scale(0.2 -0.2)">
       <use xlink:href="#DejaVuSans-35"/>
       <use xlink:href="#DejaVuSans-30" x="63.623047"/>
      </g>
     </g>
    </g>
    <g id="xtick_9">
     <g id="line2d_29">
      <g>
       <use xlink:href="#m0843d19672" x="1068.48" y="396" style="stroke: #000000; stroke-width: 0.8"/>
      </g>
     </g>
     <g id="text_24">
      <!-- 100 -->
      <g transform="translate(1049.3925 418.196875)scale(0.2 -0.2)">
       <use xlink:href="#DejaVuSans-31"/>
       <use xlink:href="#DejaVuSans-30" x="63.623047"/>
       <use xlink:href="#DejaVuSans-30" x="127.246094"/>
      </g>
     </g>
    </g>
    <g id="xtick_10">
     <g id="line2d_30">
      <g>
       <use xlink:href="#m0843d19672" x="1134.72" y="396" style="stroke: #000000; stroke-width: 0.8"/>
      </g>
     </g>
     <g id="text_25">
      <!-- 150 -->
      <g transform="translate(1115.6325 418.196875)scale(0.2 -0.2)">
       <use xlink:href="#DejaVuSans-31"/>
       <use xlink:href="#DejaVuSans-35" x="63.623047"/>
       <use xlink:href="#DejaVuSans-30" x="127.246094"/>
      </g>
     </g>
    </g>
    <g id="xtick_11">
     <g id="line2d_31">
      <g>
       <use xlink:href="#m0843d19672" x="1200.96" y="396" style="stroke: #000000; stroke-width: 0.8"/>
      </g>
     </g>
     <g id="text_26">
      <!-- 200 -->
      <g transform="translate(1181.8725 418.196875)scale(0.2 -0.2)">
       <use xlink:href="#DejaVuSans-32"/>
       <use xlink:href="#DejaVuSans-30" x="63.623047"/>
       <use xlink:href="#DejaVuSans-30" x="127.246094"/>
      </g>
     </g>
    </g>
    <g id="xtick_12">
     <g id="line2d_32">
      <g>
       <use xlink:href="#m0843d19672" x="1267.2" y="396" style="stroke: #000000; stroke-width: 0.8"/>
      </g>
     </g>
     <g id="text_27">
      <!-- 250 -->
      <g transform="translate(1248.1125 418.196875)scale(0.2 -0.2)">
       <use xlink:href="#DejaVuSans-32"/>
       <use xlink:href="#DejaVuSans-35" x="63.623047"/>
       <use xlink:href="#DejaVuSans-30" x="127.246094"/>
      </g>
     </g>
    </g>
   </g>
   <g id="matplotlib.axis_4">
    <g id="ytick_7">
     <g id="line2d_33">
      <g>
       <use xlink:href="#mfb570ef3a5" x="936" y="387.284211" style="stroke: #000000; stroke-width: 0.8"/>
      </g>
     </g>
     <g id="text_28">
      <!-- 50 -->
      <g transform="translate(903.55 394.882648)scale(0.2 -0.2)">
       <use xlink:href="#DejaVuSans-35"/>
       <use xlink:href="#DejaVuSans-30" x="63.623047"/>
      </g>
     </g>
    </g>
    <g id="ytick_8">
     <g id="line2d_34">
      <g>
       <use xlink:href="#mfb570ef3a5" x="936" y="343.705263" style="stroke: #000000; stroke-width: 0.8"/>
      </g>
     </g>
     <g id="text_29">
      <!-- 75 -->
      <g transform="translate(903.55 351.303701)scale(0.2 -0.2)">
       <use xlink:href="#DejaVuSans-37"/>
       <use xlink:href="#DejaVuSans-35" x="63.623047"/>
      </g>
     </g>
    </g>
    <g id="ytick_9">
     <g id="line2d_35">
      <g>
       <use xlink:href="#mfb570ef3a5" x="936" y="300.126316" style="stroke: #000000; stroke-width: 0.8"/>
      </g>
     </g>
     <g id="text_30">
      <!-- 100 -->
      <g transform="translate(890.825 307.724753)scale(0.2 -0.2)">
       <use xlink:href="#DejaVuSans-31"/>
       <use xlink:href="#DejaVuSans-30" x="63.623047"/>
       <use xlink:href="#DejaVuSans-30" x="127.246094"/>
      </g>
     </g>
    </g>
    <g id="ytick_10">
     <g id="line2d_36">
      <g>
       <use xlink:href="#mfb570ef3a5" x="936" y="256.547368" style="stroke: #000000; stroke-width: 0.8"/>
      </g>
     </g>
     <g id="text_31">
      <!-- 125 -->
      <g transform="translate(890.825 264.145806)scale(0.2 -0.2)">
       <use xlink:href="#DejaVuSans-31"/>
       <use xlink:href="#DejaVuSans-32" x="63.623047"/>
       <use xlink:href="#DejaVuSans-35" x="127.246094"/>
      </g>
     </g>
    </g>
   </g>
   <g id="line2d_37">
    <path d="M 936 354.828601 
L 937.3248 298.313284 
L 938.6496 348.459342 
L 939.9744 241.8162 
L 941.2992 338.522563 
L 942.624 341.437942 
L 943.9488 342.924691 
L 945.2736 333.59949 
L 946.5984 354.0434 
L 947.9232 298.854629 
L 949.248 343.804422 
L 950.5728 319.975284 
L 951.8976 304.620155 
L 953.2224 336.152027 
L 954.5472 385.408625 
L 955.872 324.907241 
L 957.1968 317.747768 
L 958.5216 296.933328 
L 959.8464 336.170539 
L 961.1712 231.884966 
L 963.8208 324.324973 
L 966.4704 341.645956 
L 967.7952 310.091303 
L 969.12 348.816733 
L 970.4448 257.098023 
L 971.7696 263.740807 
L 973.0944 295.292721 
L 974.4192 297.4878 
L 975.744 294.045332 
L 977.0688 289.394628 
L 978.3936 281.051031 
L 979.7184 273.645908 
L 981.0432 275.777922 
L 982.368 283.4631 
L 983.6928 284.649951 
L 985.0176 308.947316 
L 986.3424 282.894119 
L 987.6672 318.328213 
L 988.992 313.861305 
L 990.3168 324.858898 
L 991.6416 341.299963 
L 992.9664 310.234123 
L 994.2912 348.63303 
L 995.616 263.760889 
L 996.9408 270.667517 
L 998.2656 311.347642 
L 999.5904 333.718665 
L 1000.9152 337.598691 
L 1002.24 211.251596 
L 1003.5648 335.762 
L 1004.8896 345.734528 
L 1006.2144 346.04452 
L 1007.5392 346.096865 
L 1011.5136 345.961519 
L 1012.8384 346.166646 
L 1014.1632 346.036075 
L 1019.4624 346.069695 
L 1020.7872 345.972398 
L 1022.112 346.104898 
L 1023.4368 345.997041 
L 1026.0864 346.077954 
L 1028.736 345.98047 
L 1030.0608 346.147522 
L 1031.3856 346.046421 
L 1032.7104 346.0937 
L 1034.0352 345.970789 
L 1039.3344 346.084138 
L 1040.6592 345.935705 
L 1043.3088 346.117107 
L 1045.9584 346.041594 
L 1059.2064 346.07435 
L 1060.5312 345.97418 
L 1067.1552 346.023454 
L 1068.48 358.703507 
L 1069.8048 366.007622 
L 1071.1296 368.096254 
L 1072.4544 368.565032 
L 1073.7792 368.69871 
L 1106.8992 368.728826 
L 1118.8224 368.715533 
L 1125.4464 368.725534 
L 1133.3952 368.731998 
L 1134.72 370.568742 
L 1137.3696 370.905818 
L 1140.0192 371.063554 
L 1149.2928 371.120987 
L 1190.3616 371.19261 
L 1199.6352 371.22879 
L 1200.96 372.981318 
L 1247.328 373.170838 
L 1255.2768 373.186405 
L 1261.9008 373.22087 
L 1265.8752 373.2326 
L 1265.8752 373.2326 
" clip-path="url(#p6631dda540)" style="fill: none; stroke: #ffa500; stroke-width: 1.5; stroke-linecap: square"/>
   </g>
   <g id="patch_9">
    <path d="M 936 396 
L 936 230.4 
" style="fill: none; stroke: #000000; stroke-width: 0.8; stroke-linejoin: miter; stroke-linecap: square"/>
   </g>
   <g id="patch_10">
    <path d="M 1267.2 396 
L 1267.2 230.4 
" style="fill: none; stroke: #000000; stroke-width: 0.8; stroke-linejoin: miter; stroke-linecap: square"/>
   </g>
   <g id="patch_11">
    <path d="M 936 396 
L 1267.2 396 
" style="fill: none; stroke: #000000; stroke-width: 0.8; stroke-linejoin: miter; stroke-linecap: square"/>
   </g>
   <g id="patch_12">
    <path d="M 936 230.4 
L 1267.2 230.4 
" style="fill: none; stroke: #000000; stroke-width: 0.8; stroke-linejoin: miter; stroke-linecap: square"/>
   </g>
   <g id="text_32">
    <!-- Momentum=0.9 -->
    <g transform="translate(1020.340625 224.4)scale(0.2 -0.2)">
     <use xlink:href="#DejaVuSans-4d"/>
     <use xlink:href="#DejaVuSans-6f" x="86.279297"/>
     <use xlink:href="#DejaVuSans-6d" x="147.460938"/>
     <use xlink:href="#DejaVuSans-65" x="244.873047"/>
     <use xlink:href="#DejaVuSans-6e" x="306.396484"/>
     <use xlink:href="#DejaVuSans-74" x="369.775391"/>
     <use xlink:href="#DejaVuSans-75" x="408.984375"/>
     <use xlink:href="#DejaVuSans-6d" x="472.363281"/>
     <use xlink:href="#DejaVuSans-3d" x="569.775391"/>
     <use xlink:href="#DejaVuSans-30" x="653.564453"/>
     <use xlink:href="#DejaVuSans-2e" x="717.1875"/>
     <use xlink:href="#DejaVuSans-39" x="748.974609"/>
    </g>
   </g>
  </g>
 </g>
 <defs>
  <clipPath id="p258ab2f2a2">
   <rect x="144" y="72" width="1152" height="576"/>
  </clipPath>
  <clipPath id="p6631dda540">
   <rect x="936" y="230.4" width="331.2" height="165.6"/>
  </clipPath>
 </defs>
</svg>
