<?xml version="1.0" encoding="utf-8" standalone="no"?>
<!DOCTYPE svg PUBLIC "-//W3C//DTD SVG 1.1//EN"
  "http://www.w3.org/Graphics/SVG/1.1/DTD/svg11.dtd">
<svg xmlns:xlink="http://www.w3.org/1999/xlink" width="1440pt" height="720pt" viewBox="0 0 1440 720" xmlns="http://www.w3.org/2000/svg" version="1.1">
 <metadata>
  <rdf:RDF xmlns:dc="http://purl.org/dc/elements/1.1/" xmlns:cc="http://creativecommons.org/ns#" xmlns:rdf="http://www.w3.org/1999/02/22-rdf-syntax-ns#">
   <cc:Work>
    <dc:type rdf:resource="http://purl.org/dc/dcmitype/StillImage"/>
    <dc:date>2022-10-21T19:59:45.680295</dc:date>
    <dc:format>image/svg+xml</dc:format>
    <dc:creator>
     <cc:Agent>
      <dc:title>Matplotlib v3.5.1, https://matplotlib.org/</dc:title>
     </cc:Agent>
    </dc:creator>
   </cc:Work>
  </rdf:RDF>
 </metadata>
 <defs>
  <style type="text/css">*{stroke-linejoin: round; stroke-linecap: butt}</style>
 </defs>
 <g id="figure_1">
  <g id="patch_1">
   <path d="M 0 720 
L 1440 720 
L 1440 0 
L 0 0 
L 0 720 
z
" style="fill: none"/>
  </g>
  <g id="axes_1">
   <g id="patch_2">
    <path d="M 180 630 
L 1296 630 
L 1296 86.4 
L 180 86.4 
z
" style="fill: #ffffff"/>
   </g>
   <g id="matplotlib.axis_1">
    <g id="xtick_1">
     <g id="line2d_1">
      <defs>
       <path id="m5009b0365b" d="M 0 0 
L 0 3.5 
" style="stroke: #000000; stroke-width: 0.8"/>
      </defs>
      <g>
       <use xlink:href="#m5009b0365b" x="180" y="630" style="stroke: #000000; stroke-width: 0.8"/>
      </g>
     </g>
     <g id="text_1">
      <!-- 0 -->
      <g transform="translate(173.6375 652.196875)scale(0.2 -0.2)">
       <defs>
        <path id="DejaVuSans-30" d="M 2034 4250 
Q 1547 4250 1301 3770 
Q 1056 3291 1056 2328 
Q 1056 1369 1301 889 
Q 1547 409 2034 409 
Q 2525 409 2770 889 
Q 3016 1369 3016 2328 
Q 3016 3291 2770 3770 
Q 2525 4250 2034 4250 
z
M 2034 4750 
Q 2819 4750 3233 4129 
Q 3647 3509 3647 2328 
Q 3647 1150 3233 529 
Q 2819 -91 2034 -91 
Q 1250 -91 836 529 
Q 422 1150 422 2328 
Q 422 3509 836 4129 
Q 1250 4750 2034 4750 
z
" transform="scale(0.015625)"/>
       </defs>
       <use xlink:href="#DejaVuSans-30"/>
      </g>
     </g>
    </g>
    <g id="xtick_2">
     <g id="line2d_2">
      <g>
       <use xlink:href="#m5009b0365b" x="403.2" y="630" style="stroke: #000000; stroke-width: 0.8"/>
      </g>
     </g>
     <g id="text_2">
      <!-- 50 -->
      <g transform="translate(390.475 652.196875)scale(0.2 -0.2)">
       <defs>
        <path id="DejaVuSans-35" d="M 691 4666 
L 3169 4666 
L 3169 4134 
L 1269 4134 
L 1269 2991 
Q 1406 3038 1543 3061 
Q 1681 3084 1819 3084 
Q 2600 3084 3056 2656 
Q 3513 2228 3513 1497 
Q 3513 744 3044 326 
Q 2575 -91 1722 -91 
Q 1428 -91 1123 -41 
Q 819 9 494 109 
L 494 744 
Q 775 591 1075 516 
Q 1375 441 1709 441 
Q 2250 441 2565 725 
Q 2881 1009 2881 1497 
Q 2881 1984 2565 2268 
Q 2250 2553 1709 2553 
Q 1456 2553 1204 2497 
Q 953 2441 691 2322 
L 691 4666 
z
" transform="scale(0.015625)"/>
       </defs>
       <use xlink:href="#DejaVuSans-35"/>
       <use xlink:href="#DejaVuSans-30" x="63.623047"/>
      </g>
     </g>
    </g>
    <g id="xtick_3">
     <g id="line2d_3">
      <g>
       <use xlink:href="#m5009b0365b" x="626.4" y="630" style="stroke: #000000; stroke-width: 0.8"/>
      </g>
     </g>
     <g id="text_3">
      <!-- 100 -->
      <g transform="translate(607.3125 652.196875)scale(0.2 -0.2)">
       <defs>
        <path id="DejaVuSans-31" d="M 794 531 
L 1825 531 
L 1825 4091 
L 703 3866 
L 703 4441 
L 1819 4666 
L 2450 4666 
L 2450 531 
L 3481 531 
L 3481 0 
L 794 0 
L 794 531 
z
" transform="scale(0.015625)"/>
       </defs>
       <use xlink:href="#DejaVuSans-31"/>
       <use xlink:href="#DejaVuSans-30" x="63.623047"/>
       <use xlink:href="#DejaVuSans-30" x="127.246094"/>
      </g>
     </g>
    </g>
    <g id="xtick_4">
     <g id="line2d_4">
      <g>
       <use xlink:href="#m5009b0365b" x="849.6" y="630" style="stroke: #000000; stroke-width: 0.8"/>
      </g>
     </g>
     <g id="text_4">
      <!-- 150 -->
      <g transform="translate(830.5125 652.196875)scale(0.2 -0.2)">
       <use xlink:href="#DejaVuSans-31"/>
       <use xlink:href="#DejaVuSans-35" x="63.623047"/>
       <use xlink:href="#DejaVuSans-30" x="127.246094"/>
      </g>
     </g>
    </g>
    <g id="xtick_5">
     <g id="line2d_5">
      <g>
       <use xlink:href="#m5009b0365b" x="1072.8" y="630" style="stroke: #000000; stroke-width: 0.8"/>
      </g>
     </g>
     <g id="text_5">
      <!-- 200 -->
      <g transform="translate(1053.7125 652.196875)scale(0.2 -0.2)">
       <defs>
        <path id="DejaVuSans-32" d="M 1228 531 
L 3431 531 
L 3431 0 
L 469 0 
L 469 531 
Q 828 903 1448 1529 
Q 2069 2156 2228 2338 
Q 2531 2678 2651 2914 
Q 2772 3150 2772 3378 
Q 2772 3750 2511 3984 
Q 2250 4219 1831 4219 
Q 1534 4219 1204 4116 
Q 875 4013 500 3803 
L 500 4441 
Q 881 4594 1212 4672 
Q 1544 4750 1819 4750 
Q 2544 4750 2975 4387 
Q 3406 4025 3406 3419 
Q 3406 3131 3298 2873 
Q 3191 2616 2906 2266 
Q 2828 2175 2409 1742 
Q 1991 1309 1228 531 
z
" transform="scale(0.015625)"/>
       </defs>
       <use xlink:href="#DejaVuSans-32"/>
       <use xlink:href="#DejaVuSans-30" x="63.623047"/>
       <use xlink:href="#DejaVuSans-30" x="127.246094"/>
      </g>
     </g>
    </g>
    <g id="xtick_6">
     <g id="line2d_6">
      <g>
       <use xlink:href="#m5009b0365b" x="1296" y="630" style="stroke: #000000; stroke-width: 0.8"/>
      </g>
     </g>
     <g id="text_6">
      <!-- 250 -->
      <g transform="translate(1276.9125 652.196875)scale(0.2 -0.2)">
       <use xlink:href="#DejaVuSans-32"/>
       <use xlink:href="#DejaVuSans-35" x="63.623047"/>
       <use xlink:href="#DejaVuSans-30" x="127.246094"/>
      </g>
     </g>
    </g>
    <g id="text_7">
     <!-- epoch -->
     <g transform="translate(707.54375 675.553125)scale(0.2 -0.2)">
      <defs>
       <path id="DejaVuSans-65" d="M 3597 1894 
L 3597 1613 
L 953 1613 
Q 991 1019 1311 708 
Q 1631 397 2203 397 
Q 2534 397 2845 478 
Q 3156 559 3463 722 
L 3463 178 
Q 3153 47 2828 -22 
Q 2503 -91 2169 -91 
Q 1331 -91 842 396 
Q 353 884 353 1716 
Q 353 2575 817 3079 
Q 1281 3584 2069 3584 
Q 2775 3584 3186 3129 
Q 3597 2675 3597 1894 
z
M 3022 2063 
Q 3016 2534 2758 2815 
Q 2500 3097 2075 3097 
Q 1594 3097 1305 2825 
Q 1016 2553 972 2059 
L 3022 2063 
z
" transform="scale(0.015625)"/>
       <path id="DejaVuSans-70" d="M 1159 525 
L 1159 -1331 
L 581 -1331 
L 581 3500 
L 1159 3500 
L 1159 2969 
Q 1341 3281 1617 3432 
Q 1894 3584 2278 3584 
Q 2916 3584 3314 3078 
Q 3713 2572 3713 1747 
Q 3713 922 3314 415 
Q 2916 -91 2278 -91 
Q 1894 -91 1617 61 
Q 1341 213 1159 525 
z
M 3116 1747 
Q 3116 2381 2855 2742 
Q 2594 3103 2138 3103 
Q 1681 3103 1420 2742 
Q 1159 2381 1159 1747 
Q 1159 1113 1420 752 
Q 1681 391 2138 391 
Q 2594 391 2855 752 
Q 3116 1113 3116 1747 
z
" transform="scale(0.015625)"/>
       <path id="DejaVuSans-6f" d="M 1959 3097 
Q 1497 3097 1228 2736 
Q 959 2375 959 1747 
Q 959 1119 1226 758 
Q 1494 397 1959 397 
Q 2419 397 2687 759 
Q 2956 1122 2956 1747 
Q 2956 2369 2687 2733 
Q 2419 3097 1959 3097 
z
M 1959 3584 
Q 2709 3584 3137 3096 
Q 3566 2609 3566 1747 
Q 3566 888 3137 398 
Q 2709 -91 1959 -91 
Q 1206 -91 779 398 
Q 353 888 353 1747 
Q 353 2609 779 3096 
Q 1206 3584 1959 3584 
z
" transform="scale(0.015625)"/>
       <path id="DejaVuSans-63" d="M 3122 3366 
L 3122 2828 
Q 2878 2963 2633 3030 
Q 2388 3097 2138 3097 
Q 1578 3097 1268 2742 
Q 959 2388 959 1747 
Q 959 1106 1268 751 
Q 1578 397 2138 397 
Q 2388 397 2633 464 
Q 2878 531 3122 666 
L 3122 134 
Q 2881 22 2623 -34 
Q 2366 -91 2075 -91 
Q 1284 -91 818 406 
Q 353 903 353 1747 
Q 353 2603 823 3093 
Q 1294 3584 2113 3584 
Q 2378 3584 2631 3529 
Q 2884 3475 3122 3366 
z
" transform="scale(0.015625)"/>
       <path id="DejaVuSans-68" d="M 3513 2113 
L 3513 0 
L 2938 0 
L 2938 2094 
Q 2938 2591 2744 2837 
Q 2550 3084 2163 3084 
Q 1697 3084 1428 2787 
Q 1159 2491 1159 1978 
L 1159 0 
L 581 0 
L 581 4863 
L 1159 4863 
L 1159 2956 
Q 1366 3272 1645 3428 
Q 1925 3584 2291 3584 
Q 2894 3584 3203 3211 
Q 3513 2838 3513 2113 
z
" transform="scale(0.015625)"/>
      </defs>
      <use xlink:href="#DejaVuSans-65"/>
      <use xlink:href="#DejaVuSans-70" x="61.523438"/>
      <use xlink:href="#DejaVuSans-6f" x="125"/>
      <use xlink:href="#DejaVuSans-63" x="186.181641"/>
      <use xlink:href="#DejaVuSans-68" x="241.162109"/>
     </g>
    </g>
   </g>
   <g id="matplotlib.axis_2">
    <g id="ytick_1">
     <g id="line2d_7">
      <defs>
       <path id="m3fbcaf0ba7" d="M 0 0 
L -3.5 0 
" style="stroke: #000000; stroke-width: 0.8"/>
      </defs>
      <g>
       <use xlink:href="#m3fbcaf0ba7" x="180" y="599.8" style="stroke: #000000; stroke-width: 0.8"/>
      </g>
     </g>
     <g id="text_8">
      <!-- 0.08 -->
      <g transform="translate(128.46875 607.398438)scale(0.2 -0.2)">
       <defs>
        <path id="DejaVuSans-2e" d="M 684 794 
L 1344 794 
L 1344 0 
L 684 0 
L 684 794 
z
" transform="scale(0.015625)"/>
        <path id="DejaVuSans-38" d="M 2034 2216 
Q 1584 2216 1326 1975 
Q 1069 1734 1069 1313 
Q 1069 891 1326 650 
Q 1584 409 2034 409 
Q 2484 409 2743 651 
Q 3003 894 3003 1313 
Q 3003 1734 2745 1975 
Q 2488 2216 2034 2216 
z
M 1403 2484 
Q 997 2584 770 2862 
Q 544 3141 544 3541 
Q 544 4100 942 4425 
Q 1341 4750 2034 4750 
Q 2731 4750 3128 4425 
Q 3525 4100 3525 3541 
Q 3525 3141 3298 2862 
Q 3072 2584 2669 2484 
Q 3125 2378 3379 2068 
Q 3634 1759 3634 1313 
Q 3634 634 3220 271 
Q 2806 -91 2034 -91 
Q 1263 -91 848 271 
Q 434 634 434 1313 
Q 434 1759 690 2068 
Q 947 2378 1403 2484 
z
M 1172 3481 
Q 1172 3119 1398 2916 
Q 1625 2713 2034 2713 
Q 2441 2713 2670 2916 
Q 2900 3119 2900 3481 
Q 2900 3844 2670 4047 
Q 2441 4250 2034 4250 
Q 1625 4250 1398 4047 
Q 1172 3844 1172 3481 
z
" transform="scale(0.015625)"/>
       </defs>
       <use xlink:href="#DejaVuSans-30"/>
       <use xlink:href="#DejaVuSans-2e" x="63.623047"/>
       <use xlink:href="#DejaVuSans-30" x="95.410156"/>
       <use xlink:href="#DejaVuSans-38" x="159.033203"/>
      </g>
     </g>
    </g>
    <g id="ytick_2">
     <g id="line2d_8">
      <g>
       <use xlink:href="#m3fbcaf0ba7" x="180" y="539.4" style="stroke: #000000; stroke-width: 0.8"/>
      </g>
     </g>
     <g id="text_9">
      <!-- 0.10 -->
      <g transform="translate(128.46875 546.998438)scale(0.2 -0.2)">
       <use xlink:href="#DejaVuSans-30"/>
       <use xlink:href="#DejaVuSans-2e" x="63.623047"/>
       <use xlink:href="#DejaVuSans-31" x="95.410156"/>
       <use xlink:href="#DejaVuSans-30" x="159.033203"/>
      </g>
     </g>
    </g>
    <g id="ytick_3">
     <g id="line2d_9">
      <g>
       <use xlink:href="#m3fbcaf0ba7" x="180" y="479" style="stroke: #000000; stroke-width: 0.8"/>
      </g>
     </g>
     <g id="text_10">
      <!-- 0.12 -->
      <g transform="translate(128.46875 486.598438)scale(0.2 -0.2)">
       <use xlink:href="#DejaVuSans-30"/>
       <use xlink:href="#DejaVuSans-2e" x="63.623047"/>
       <use xlink:href="#DejaVuSans-31" x="95.410156"/>
       <use xlink:href="#DejaVuSans-32" x="159.033203"/>
      </g>
     </g>
    </g>
    <g id="ytick_4">
     <g id="line2d_10">
      <g>
       <use xlink:href="#m3fbcaf0ba7" x="180" y="418.6" style="stroke: #000000; stroke-width: 0.8"/>
      </g>
     </g>
     <g id="text_11">
      <!-- 0.14 -->
      <g transform="translate(128.46875 426.198437)scale(0.2 -0.2)">
       <defs>
        <path id="DejaVuSans-34" d="M 2419 4116 
L 825 1625 
L 2419 1625 
L 2419 4116 
z
M 2253 4666 
L 3047 4666 
L 3047 1625 
L 3713 1625 
L 3713 1100 
L 3047 1100 
L 3047 0 
L 2419 0 
L 2419 1100 
L 313 1100 
L 313 1709 
L 2253 4666 
z
" transform="scale(0.015625)"/>
       </defs>
       <use xlink:href="#DejaVuSans-30"/>
       <use xlink:href="#DejaVuSans-2e" x="63.623047"/>
       <use xlink:href="#DejaVuSans-31" x="95.410156"/>
       <use xlink:href="#DejaVuSans-34" x="159.033203"/>
      </g>
     </g>
    </g>
    <g id="ytick_5">
     <g id="line2d_11">
      <g>
       <use xlink:href="#m3fbcaf0ba7" x="180" y="358.2" style="stroke: #000000; stroke-width: 0.8"/>
      </g>
     </g>
     <g id="text_12">
      <!-- 0.16 -->
      <g transform="translate(128.46875 365.798438)scale(0.2 -0.2)">
       <defs>
        <path id="DejaVuSans-36" d="M 2113 2584 
Q 1688 2584 1439 2293 
Q 1191 2003 1191 1497 
Q 1191 994 1439 701 
Q 1688 409 2113 409 
Q 2538 409 2786 701 
Q 3034 994 3034 1497 
Q 3034 2003 2786 2293 
Q 2538 2584 2113 2584 
z
M 3366 4563 
L 3366 3988 
Q 3128 4100 2886 4159 
Q 2644 4219 2406 4219 
Q 1781 4219 1451 3797 
Q 1122 3375 1075 2522 
Q 1259 2794 1537 2939 
Q 1816 3084 2150 3084 
Q 2853 3084 3261 2657 
Q 3669 2231 3669 1497 
Q 3669 778 3244 343 
Q 2819 -91 2113 -91 
Q 1303 -91 875 529 
Q 447 1150 447 2328 
Q 447 3434 972 4092 
Q 1497 4750 2381 4750 
Q 2619 4750 2861 4703 
Q 3103 4656 3366 4563 
z
" transform="scale(0.015625)"/>
       </defs>
       <use xlink:href="#DejaVuSans-30"/>
       <use xlink:href="#DejaVuSans-2e" x="63.623047"/>
       <use xlink:href="#DejaVuSans-31" x="95.410156"/>
       <use xlink:href="#DejaVuSans-36" x="159.033203"/>
      </g>
     </g>
    </g>
    <g id="ytick_6">
     <g id="line2d_12">
      <g>
       <use xlink:href="#m3fbcaf0ba7" x="180" y="297.8" style="stroke: #000000; stroke-width: 0.8"/>
      </g>
     </g>
     <g id="text_13">
      <!-- 0.18 -->
      <g transform="translate(128.46875 305.398437)scale(0.2 -0.2)">
       <use xlink:href="#DejaVuSans-30"/>
       <use xlink:href="#DejaVuSans-2e" x="63.623047"/>
       <use xlink:href="#DejaVuSans-31" x="95.410156"/>
       <use xlink:href="#DejaVuSans-38" x="159.033203"/>
      </g>
     </g>
    </g>
    <g id="ytick_7">
     <g id="line2d_13">
      <g>
       <use xlink:href="#m3fbcaf0ba7" x="180" y="237.4" style="stroke: #000000; stroke-width: 0.8"/>
      </g>
     </g>
     <g id="text_14">
      <!-- 0.20 -->
      <g transform="translate(128.46875 244.998437)scale(0.2 -0.2)">
       <use xlink:href="#DejaVuSans-30"/>
       <use xlink:href="#DejaVuSans-2e" x="63.623047"/>
       <use xlink:href="#DejaVuSans-32" x="95.410156"/>
       <use xlink:href="#DejaVuSans-30" x="159.033203"/>
      </g>
     </g>
    </g>
    <g id="ytick_8">
     <g id="line2d_14">
      <g>
       <use xlink:href="#m3fbcaf0ba7" x="180" y="177" style="stroke: #000000; stroke-width: 0.8"/>
      </g>
     </g>
     <g id="text_15">
      <!-- 0.22 -->
      <g transform="translate(128.46875 184.598438)scale(0.2 -0.2)">
       <use xlink:href="#DejaVuSans-30"/>
       <use xlink:href="#DejaVuSans-2e" x="63.623047"/>
       <use xlink:href="#DejaVuSans-32" x="95.410156"/>
       <use xlink:href="#DejaVuSans-32" x="159.033203"/>
      </g>
     </g>
    </g>
    <g id="ytick_9">
     <g id="line2d_15">
      <g>
       <use xlink:href="#m3fbcaf0ba7" x="180" y="116.6" style="stroke: #000000; stroke-width: 0.8"/>
      </g>
     </g>
     <g id="text_16">
      <!-- 0.24 -->
      <g transform="translate(128.46875 124.198438)scale(0.2 -0.2)">
       <use xlink:href="#DejaVuSans-30"/>
       <use xlink:href="#DejaVuSans-2e" x="63.623047"/>
       <use xlink:href="#DejaVuSans-32" x="95.410156"/>
       <use xlink:href="#DejaVuSans-34" x="159.033203"/>
      </g>
     </g>
    </g>
    <g id="text_17">
     <!-- train loss -->
     <g transform="translate(120.309375 403.96875)rotate(-90)scale(0.2 -0.2)">
      <defs>
       <path id="DejaVuSans-74" d="M 1172 4494 
L 1172 3500 
L 2356 3500 
L 2356 3053 
L 1172 3053 
L 1172 1153 
Q 1172 725 1289 603 
Q 1406 481 1766 481 
L 2356 481 
L 2356 0 
L 1766 0 
Q 1100 0 847 248 
Q 594 497 594 1153 
L 594 3053 
L 172 3053 
L 172 3500 
L 594 3500 
L 594 4494 
L 1172 4494 
z
" transform="scale(0.015625)"/>
       <path id="DejaVuSans-72" d="M 2631 2963 
Q 2534 3019 2420 3045 
Q 2306 3072 2169 3072 
Q 1681 3072 1420 2755 
Q 1159 2438 1159 1844 
L 1159 0 
L 581 0 
L 581 3500 
L 1159 3500 
L 1159 2956 
Q 1341 3275 1631 3429 
Q 1922 3584 2338 3584 
Q 2397 3584 2469 3576 
Q 2541 3569 2628 3553 
L 2631 2963 
z
" transform="scale(0.015625)"/>
       <path id="DejaVuSans-61" d="M 2194 1759 
Q 1497 1759 1228 1600 
Q 959 1441 959 1056 
Q 959 750 1161 570 
Q 1363 391 1709 391 
Q 2188 391 2477 730 
Q 2766 1069 2766 1631 
L 2766 1759 
L 2194 1759 
z
M 3341 1997 
L 3341 0 
L 2766 0 
L 2766 531 
Q 2569 213 2275 61 
Q 1981 -91 1556 -91 
Q 1019 -91 701 211 
Q 384 513 384 1019 
Q 384 1609 779 1909 
Q 1175 2209 1959 2209 
L 2766 2209 
L 2766 2266 
Q 2766 2663 2505 2880 
Q 2244 3097 1772 3097 
Q 1472 3097 1187 3025 
Q 903 2953 641 2809 
L 641 3341 
Q 956 3463 1253 3523 
Q 1550 3584 1831 3584 
Q 2591 3584 2966 3190 
Q 3341 2797 3341 1997 
z
" transform="scale(0.015625)"/>
       <path id="DejaVuSans-69" d="M 603 3500 
L 1178 3500 
L 1178 0 
L 603 0 
L 603 3500 
z
M 603 4863 
L 1178 4863 
L 1178 4134 
L 603 4134 
L 603 4863 
z
" transform="scale(0.015625)"/>
       <path id="DejaVuSans-6e" d="M 3513 2113 
L 3513 0 
L 2938 0 
L 2938 2094 
Q 2938 2591 2744 2837 
Q 2550 3084 2163 3084 
Q 1697 3084 1428 2787 
Q 1159 2491 1159 1978 
L 1159 0 
L 581 0 
L 581 3500 
L 1159 3500 
L 1159 2956 
Q 1366 3272 1645 3428 
Q 1925 3584 2291 3584 
Q 2894 3584 3203 3211 
Q 3513 2838 3513 2113 
z
" transform="scale(0.015625)"/>
       <path id="DejaVuSans-20" transform="scale(0.015625)"/>
       <path id="DejaVuSans-6c" d="M 603 4863 
L 1178 4863 
L 1178 0 
L 603 0 
L 603 4863 
z
" transform="scale(0.015625)"/>
       <path id="DejaVuSans-73" d="M 2834 3397 
L 2834 2853 
Q 2591 2978 2328 3040 
Q 2066 3103 1784 3103 
Q 1356 3103 1142 2972 
Q 928 2841 928 2578 
Q 928 2378 1081 2264 
Q 1234 2150 1697 2047 
L 1894 2003 
Q 2506 1872 2764 1633 
Q 3022 1394 3022 966 
Q 3022 478 2636 193 
Q 2250 -91 1575 -91 
Q 1294 -91 989 -36 
Q 684 19 347 128 
L 347 722 
Q 666 556 975 473 
Q 1284 391 1588 391 
Q 1994 391 2212 530 
Q 2431 669 2431 922 
Q 2431 1156 2273 1281 
Q 2116 1406 1581 1522 
L 1381 1569 
Q 847 1681 609 1914 
Q 372 2147 372 2553 
Q 372 3047 722 3315 
Q 1072 3584 1716 3584 
Q 2034 3584 2315 3537 
Q 2597 3491 2834 3397 
z
" transform="scale(0.015625)"/>
      </defs>
      <use xlink:href="#DejaVuSans-74"/>
      <use xlink:href="#DejaVuSans-72" x="39.208984"/>
      <use xlink:href="#DejaVuSans-61" x="80.322266"/>
      <use xlink:href="#DejaVuSans-69" x="141.601562"/>
      <use xlink:href="#DejaVuSans-6e" x="169.384766"/>
      <use xlink:href="#DejaVuSans-20" x="232.763672"/>
      <use xlink:href="#DejaVuSans-6c" x="264.550781"/>
      <use xlink:href="#DejaVuSans-6f" x="292.333984"/>
      <use xlink:href="#DejaVuSans-73" x="353.515625"/>
      <use xlink:href="#DejaVuSans-73" x="405.615234"/>
     </g>
    </g>
   </g>
   <g id="line2d_16">
    <path d="M 322.383706 -1 
L 322.848 136.465346 
L 327.312 409.381845 
L 331.776 435.510754 
L 336.24 447.592039 
L 340.704 455.38918 
L 345.168 458.618353 
L 349.632 473.863761 
L 354.096 477.973456 
L 358.56 476.470721 
L 363.024 487.863302 
L 367.488 491.002135 
L 371.952 496.438294 
L 376.416 498.341093 
L 380.88 495.554667 
L 385.344 502.371698 
L 389.808 513.853563 
L 394.272 510.828089 
L 398.736 515.873905 
L 403.2 494.472044 
L 407.664 505.054373 
L 412.128 511.102328 
L 416.592 515.04023 
L 421.056 521.479563 
L 425.52 526.506434 
L 429.984 529.225852 
L 434.448 526.113458 
L 438.912 533.197213 
L 443.376 529.752302 
L 447.84 535.204618 
L 452.304 531.088465 
L 456.768 532.957692 
L 461.232 540.19164 
L 465.696 539.271246 
L 470.16 532.744588 
L 474.624 539.176991 
L 479.088 544.52497 
L 483.552 546.56662 
L 488.016 550.140505 
L 492.48 543.244024 
L 496.944 549.496894 
L 501.408 548.089224 
L 505.872 556.244577 
L 510.336 550.402369 
L 514.8 552.099353 
L 519.264 556.954723 
L 523.728 554.648329 
L 528.192 560.378348 
L 532.656 557.697451 
L 537.12 561.027832 
L 541.584 560.060772 
L 546.048 557.909273 
L 550.512 559.565508 
L 554.976 564.282724 
L 559.44 562.07477 
L 563.904 568.455286 
L 568.368 566.225259 
L 572.832 569.591686 
L 577.296 573.192865 
L 581.76 565.905861 
L 586.224 570.795072 
L 590.688 567.610743 
L 595.152 573.06875 
L 599.616 573.424217 
L 604.08 577.300827 
L 608.544 575.285435 
L 613.008 572.183661 
L 617.472 572.590542 
L 621.936 576.140306 
L 626.4 529.520522 
L 630.864 554.549303 
L 635.328 560.246336 
L 639.792 564.847133 
L 644.256 561.869248 
L 648.72 564.160972 
L 653.184 563.408727 
L 657.648 563.348087 
L 662.112 570.380945 
L 666.576 569.894164 
L 671.04 567.482443 
L 675.504 566.189955 
L 679.968 566.544072 
L 684.432 562.08305 
L 688.896 567.882912 
L 693.36 572.285904 
L 697.824 571.978881 
L 702.288 564.68785 
L 706.752 569.750699 
L 711.216 569.706598 
L 715.68 571.660901 
L 720.144 570.758238 
L 724.608 570.938019 
L 729.072 576.93132 
L 733.536 569.38549 
L 738 572.745235 
L 742.464 574.26039 
L 746.928 574.043595 
L 751.392 573.973506 
L 755.856 570.267632 
L 760.32 576.63629 
L 764.784 570.582957 
L 769.248 578.471384 
L 773.712 574.77676 
L 778.176 577.135289 
L 782.64 578.750213 
L 787.104 577.081715 
L 791.568 574.483238 
L 796.032 575.88814 
L 800.496 577.175925 
L 804.96 579.852772 
L 809.424 574.61966 
L 813.888 581.19798 
L 818.352 577.400573 
L 822.816 579.181305 
L 827.28 580.695066 
L 831.744 574.808081 
L 836.208 575.701316 
L 845.136 577.735069 
L 849.6 577.563456 
L 854.064 580.2149 
L 858.528 578.678233 
L 862.992 582.218974 
L 867.456 583.412414 
L 876.384 577.580781 
L 880.848 586.203475 
L 885.312 586.459061 
L 889.776 578.096859 
L 894.24 580.215102 
L 898.704 582.993585 
L 903.168 579.453789 
L 907.632 577.974005 
L 912.096 580.82197 
L 916.56 585.696938 
L 921.024 586.296426 
L 925.488 584.822469 
L 929.952 580.863461 
L 934.416 579.986607 
L 938.88 578.89235 
L 943.344 581.213416 
L 947.808 583.822918 
L 952.272 584.04464 
L 956.736 585.256463 
L 961.2 580.849758 
L 965.664 585.777108 
L 970.128 580.405729 
L 974.592 585.3115 
L 979.056 587.033348 
L 983.52 582.809687 
L 987.984 584.301576 
L 992.448 580.593272 
L 996.912 583.947865 
L 1001.376 585.492609 
L 1005.84 585.506559 
L 1010.304 590.189664 
L 1019.232 583.042164 
L 1023.696 589.648228 
L 1028.16 582.982627 
L 1032.624 587.435549 
L 1037.088 586.571632 
L 1041.552 584.951556 
L 1046.016 588.155438 
L 1050.48 586.890536 
L 1054.944 591.708487 
L 1059.408 584.362779 
L 1063.872 590.113701 
L 1068.336 589.585248 
L 1072.8 588.260179 
L 1077.264 587.341653 
L 1081.728 596.110219 
L 1086.192 589.637585 
L 1090.656 587.239747 
L 1095.12 586.934502 
L 1099.584 593.080358 
L 1104.048 585.254843 
L 1108.512 593.034186 
L 1112.976 586.322257 
L 1117.44 594.409117 
L 1121.904 586.236034 
L 1126.368 590.614365 
L 1130.832 592.39845 
L 1135.296 588.920486 
L 1139.76 593.499524 
L 1148.688 590.959167 
L 1153.152 585.235673 
L 1157.616 590.377612 
L 1162.08 589.356641 
L 1166.544 589.430668 
L 1171.008 592.069017 
L 1175.472 593.29083 
L 1179.936 587.932276 
L 1184.4 594.919367 
L 1188.864 591.020436 
L 1193.328 590.705291 
L 1197.792 591.633267 
L 1202.256 587.332225 
L 1206.72 588.973048 
L 1211.184 589.799523 
L 1215.648 590.341904 
L 1220.112 591.11296 
L 1224.576 589.758864 
L 1229.04 591.408214 
L 1233.504 594.515703 
L 1237.968 590.540315 
L 1242.432 590.575462 
L 1246.896 594.340085 
L 1251.36 589.822069 
L 1255.824 590.517162 
L 1260.288 589.852625 
L 1264.752 589.608244 
L 1269.216 592.859851 
L 1273.68 591.610564 
L 1278.144 590.100223 
L 1282.608 587.460975 
L 1287.072 592.214529 
L 1291.536 592.178325 
L 1291.536 592.178325 
" clip-path="url(#p3d1ef6c944)" style="fill: none; stroke: #1f77b4; stroke-width: 1.5; stroke-linecap: square"/>
   </g>
   <g id="line2d_17">
    <path d="M 300.035925 -1 
L 300.528 124.705238 
L 304.992 405.723132 
L 309.456 443.906821 
L 313.92 468.360909 
L 318.384 458.855151 
L 322.848 471.170938 
L 327.312 472.979324 
L 331.776 490.03728 
L 336.24 488.935508 
L 340.704 504.048994 
L 345.168 497.103507 
L 349.632 498.542295 
L 354.096 511.282267 
L 358.56 504.331469 
L 363.024 506.804954 
L 367.488 510.712232 
L 371.952 514.013993 
L 376.416 516.805031 
L 380.88 520.367733 
L 385.344 521.647194 
L 389.808 526.453805 
L 394.272 530.28629 
L 398.736 527.013533 
L 403.2 528.214308 
L 407.664 528.292409 
L 412.128 521.631511 
L 416.592 536.674052 
L 421.056 536.066374 
L 425.52 533.471339 
L 429.984 535.270275 
L 434.448 527.785174 
L 438.912 538.324054 
L 443.376 535.451271 
L 447.84 539.116464 
L 452.304 539.111266 
L 456.768 540.545464 
L 461.232 539.953942 
L 465.696 546.116628 
L 470.16 547.554989 
L 474.624 553.601909 
L 479.088 551.415735 
L 483.552 551.64288 
L 488.016 543.235294 
L 492.48 549.044696 
L 496.944 557.777148 
L 501.408 553.615769 
L 505.872 551.613629 
L 510.336 558.030034 
L 514.8 553.275648 
L 519.264 558.354765 
L 523.728 559.031858 
L 528.192 563.762034 
L 532.656 553.392337 
L 537.12 567.740639 
L 541.584 565.97865 
L 546.048 569.411005 
L 550.512 568.097479 
L 554.976 568.424887 
L 559.44 569.082269 
L 563.904 560.539408 
L 568.368 572.362407 
L 572.832 570.459405 
L 577.296 575.848111 
L 581.76 576.910259 
L 586.224 572.641281 
L 590.688 579.128226 
L 595.152 582.498681 
L 599.616 567.499521 
L 604.08 581.198723 
L 608.544 576.786257 
L 613.008 585.172873 
L 617.472 571.534221 
L 621.936 573.618376 
L 626.4 551.014502 
L 630.864 567.122139 
L 635.328 571.069198 
L 639.792 566.585856 
L 644.256 571.528709 
L 648.72 567.314655 
L 653.184 573.934129 
L 657.648 564.447474 
L 662.112 574.839312 
L 666.576 563.987941 
L 671.04 574.032413 
L 675.504 568.311709 
L 679.968 575.201214 
L 684.432 570.317538 
L 688.896 572.636308 
L 693.36 574.544417 
L 697.824 577.187513 
L 702.288 569.926385 
L 706.752 570.568354 
L 711.216 564.207864 
L 715.68 581.329902 
L 720.144 574.711013 
L 724.608 573.240004 
L 729.072 572.233185 
L 733.536 574.299227 
L 738 575.98082 
L 742.464 569.699083 
L 746.928 577.516812 
L 751.392 577.341643 
L 755.856 578.622769 
L 760.32 578.549551 
L 764.784 575.680368 
L 769.248 580.105163 
L 773.712 576.373841 
L 778.176 576.221826 
L 782.64 577.872751 
L 787.104 574.77109 
L 796.032 581.045492 
L 800.496 577.929971 
L 804.96 579.766122 
L 809.424 580.722179 
L 813.888 580.279117 
L 818.352 575.546083 
L 822.816 577.550023 
L 827.28 584.228809 
L 831.744 580.831983 
L 836.208 580.472241 
L 840.672 579.872686 
L 845.136 581.800933 
L 849.6 579.459279 
L 854.064 583.387528 
L 858.528 582.139479 
L 862.992 581.335257 
L 867.456 578.462451 
L 871.92 580.904975 
L 876.384 584.540512 
L 880.848 591.048877 
L 885.312 583.764483 
L 889.776 575.725234 
L 894.24 586.056208 
L 898.704 582.921268 
L 903.168 587.652209 
L 907.632 588.000025 
L 912.096 585.630043 
L 916.56 585.413069 
L 921.024 587.446687 
L 925.488 584.512499 
L 929.952 586.446168 
L 934.416 587.518757 
L 938.88 580.279814 
L 943.344 585.875617 
L 947.808 585.923926 
L 952.272 590.397998 
L 956.736 584.242444 
L 961.2 580.935374 
L 965.664 583.74448 
L 970.128 584.764282 
L 974.592 592.53656 
L 979.056 593.130737 
L 983.52 585.220102 
L 987.984 588.438205 
L 992.448 581.518436 
L 996.912 584.500866 
L 1001.376 585.458768 
L 1005.84 595.16935 
L 1010.304 589.274445 
L 1014.768 587.159915 
L 1019.232 583.689488 
L 1023.696 590.771601 
L 1028.16 587.33227 
L 1032.624 592.020775 
L 1037.088 583.820015 
L 1041.552 589.573705 
L 1046.016 590.390393 
L 1050.48 592.308897 
L 1054.944 585.280449 
L 1059.408 588.617221 
L 1063.872 591.502493 
L 1068.336 588.724775 
L 1072.8 590.293257 
L 1077.264 588.538941 
L 1086.192 589.801661 
L 1090.656 591.442753 
L 1095.12 596.525988 
L 1099.584 595.778873 
L 1104.048 599.0492 
L 1108.512 590.255951 
L 1112.976 588.056975 
L 1117.44 588.732312 
L 1121.904 583.290213 
L 1126.368 595.006805 
L 1130.832 580.527345 
L 1135.296 591.208228 
L 1139.76 595.473831 
L 1144.224 589.356483 
L 1148.688 590.772501 
L 1153.152 585.075782 
L 1157.616 583.907768 
L 1162.08 593.132807 
L 1166.544 593.464873 
L 1171.008 590.114039 
L 1175.472 588.380783 
L 1179.936 588.264229 
L 1184.4 592.659076 
L 1188.864 592.363844 
L 1193.328 590.218847 
L 1197.792 587.840427 
L 1202.256 591.070456 
L 1206.72 592.792123 
L 1211.184 595.15513 
L 1215.648 595.212102 
L 1220.112 591.066248 
L 1224.576 596.27794 
L 1233.504 587.719261 
L 1237.968 590.923571 
L 1242.432 590.548686 
L 1246.896 595.427479 
L 1251.36 593.168808 
L 1255.824 594.624607 
L 1260.288 595.781011 
L 1264.752 591.94875 
L 1269.216 582.257788 
L 1273.68 594.365578 
L 1278.144 589.953136 
L 1282.608 590.300727 
L 1287.072 592.529629 
L 1291.536 590.401216 
L 1291.536 590.401216 
" clip-path="url(#p3d1ef6c944)" style="fill: none; stroke: #ff7f0e; stroke-width: 1.5; stroke-linecap: square"/>
   </g>
   <g id="line2d_18">
    <path d="M 265.683371 -1 
L 269.28 408.702457 
L 273.744 488.197169 
L 278.208 488.413671 
L 282.672 508.814001 
L 287.136 499.978113 
L 291.6 506.854118 
L 300.528 504.741388 
L 304.992 506.181503 
L 309.456 502.822186 
L 313.92 512.690386 
L 318.384 511.012392 
L 322.848 515.755101 
L 327.312 519.815722 
L 331.776 516.718584 
L 336.24 520.057493 
L 340.704 524.491469 
L 345.168 524.277554 
L 349.632 526.514579 
L 354.096 526.593984 
L 358.56 533.209701 
L 363.024 533.861053 
L 367.488 535.403434 
L 371.952 532.408381 
L 376.416 533.453856 
L 380.88 537.363835 
L 385.344 540.453076 
L 389.808 544.781118 
L 394.272 546.454634 
L 398.736 548.871733 
L 403.2 526.009707 
L 407.664 533.208508 
L 412.128 534.787251 
L 416.592 538.194383 
L 421.056 549.46879 
L 425.52 541.633105 
L 429.984 544.867409 
L 434.448 543.264972 
L 438.912 545.218825 
L 443.376 550.193629 
L 447.84 549.77084 
L 452.304 552.060652 
L 456.768 556.003234 
L 461.232 549.286062 
L 465.696 560.365725 
L 470.16 557.846338 
L 474.624 558.872147 
L 479.088 560.910806 
L 483.552 557.012213 
L 488.016 562.494521 
L 492.48 564.244855 
L 496.944 565.593145 
L 501.408 565.320233 
L 505.872 571.440911 
L 510.336 566.977211 
L 514.8 571.064968 
L 519.264 573.512398 
L 523.728 573.384863 
L 528.192 577.255376 
L 532.656 576.810266 
L 537.12 576.005526 
L 541.584 580.493999 
L 546.048 580.852481 
L 550.512 573.200537 
L 554.976 584.762324 
L 559.44 580.944014 
L 563.904 578.476986 
L 568.368 584.175527 
L 572.832 582.189206 
L 577.296 589.10479 
L 581.76 579.695222 
L 586.224 584.164479 
L 590.688 585.992958 
L 595.152 588.139147 
L 599.616 589.081817 
L 604.08 594.170272 
L 608.544 588.499992 
L 613.008 592.753444 
L 617.472 589.670324 
L 621.936 597.841855 
L 626.4 547.479814 
L 630.864 568.031867 
L 635.328 571.743276 
L 639.792 578.65904 
L 644.256 577.334466 
L 648.72 579.745151 
L 653.184 581.902231 
L 657.648 580.619823 
L 662.112 583.673625 
L 666.576 573.411549 
L 671.04 587.353309 
L 675.504 581.997274 
L 679.968 583.541051 
L 684.432 580.283054 
L 688.896 583.588865 
L 693.36 584.619422 
L 697.824 589.139148 
L 702.288 587.481338 
L 706.752 583.655535 
L 711.216 589.617064 
L 715.68 589.819099 
L 720.144 592.409858 
L 724.608 584.4193 
L 729.072 588.506832 
L 733.536 586.658665 
L 738 588.076393 
L 742.464 586.529894 
L 746.928 587.959996 
L 751.392 590.177063 
L 755.856 589.004594 
L 760.32 592.777318 
L 764.784 591.037582 
L 769.248 590.589885 
L 773.712 589.019084 
L 778.176 591.038775 
L 782.64 585.791396 
L 787.104 590.224405 
L 791.568 594.269725 
L 796.032 585.293725 
L 800.496 593.459991 
L 804.96 593.535571 
L 809.424 595.172298 
L 813.888 594.614392 
L 818.352 599.396522 
L 822.816 594.949158 
L 827.28 593.569637 
L 831.744 596.004736 
L 836.208 595.483506 
L 840.672 593.407789 
L 845.136 594.091699 
L 849.6 592.827427 
L 854.064 591.72912 
L 858.528 592.638916 
L 862.992 600.781668 
L 867.456 593.687766 
L 871.92 601.162809 
L 876.384 595.862216 
L 880.848 594.534334 
L 885.312 595.590902 
L 889.776 601.527501 
L 894.24 593.472726 
L 898.704 591.935205 
L 903.168 598.719047 
L 907.632 594.269838 
L 912.096 592.249293 
L 916.56 598.764408 
L 921.024 597.304312 
L 925.488 597.218899 
L 929.952 598.768976 
L 934.416 602.601462 
L 938.88 594.605706 
L 943.344 601.675781 
L 947.808 597.021432 
L 952.272 600.151085 
L 956.736 600.886657 
L 961.2 600.060969 
L 965.664 601.42231 
L 970.128 601.514135 
L 974.592 600.406311 
L 979.056 598.151375 
L 983.52 598.201394 
L 987.984 597.455089 
L 992.448 600.738129 
L 996.912 600.209204 
L 1001.376 597.798226 
L 1005.84 602.104893 
L 1010.304 603.076588 
L 1014.768 602.540867 
L 1019.232 608.551313 
L 1023.696 601.083538 
L 1028.16 600.909518 
L 1032.624 608.367887 
L 1037.088 596.195947 
L 1041.552 599.567798 
L 1046.016 602.774312 
L 1050.48 603.202254 
L 1054.944 598.089813 
L 1059.408 598.483126 
L 1063.872 603.397988 
L 1068.336 604.786892 
L 1072.8 601.825928 
L 1077.264 604.500278 
L 1081.728 607.880386 
L 1086.192 602.130588 
L 1090.656 602.256773 
L 1095.12 604.55653 
L 1099.584 605.447807 
L 1104.048 603.65641 
L 1108.512 604.139231 
L 1112.976 600.315858 
L 1117.44 608.723737 
L 1121.904 603.252611 
L 1126.368 606.765789 
L 1130.832 609.020297 
L 1135.296 609.059313 
L 1139.76 602.473455 
L 1144.224 600.15833 
L 1148.688 606.114617 
L 1153.152 606.673851 
L 1157.616 601.993266 
L 1162.08 600.397175 
L 1166.544 605.259723 
L 1171.008 607.022342 
L 1175.472 605.028415 
L 1179.936 607.164322 
L 1184.4 603.800054 
L 1188.864 606.07272 
L 1193.328 601.714595 
L 1197.792 609.291588 
L 1202.256 608.715794 
L 1206.72 599.630215 
L 1211.184 608.455168 
L 1215.648 607.667056 
L 1220.112 603.209365 
L 1224.576 606.528158 
L 1229.04 608.150372 
L 1233.504 608.222667 
L 1237.968 607.518484 
L 1242.432 609.442028 
L 1246.896 604.589111 
L 1251.36 603.31055 
L 1255.824 606.526043 
L 1260.288 609.566952 
L 1264.752 608.634656 
L 1269.216 609.191617 
L 1273.68 602.690362 
L 1278.144 610.737734 
L 1282.608 603.808537 
L 1287.072 607.240217 
L 1291.536 606.737663 
L 1291.536 606.737663 
" clip-path="url(#p3d1ef6c944)" style="fill: none; stroke: #2ca02c; stroke-width: 1.5; stroke-linecap: square"/>
   </g>
   <g id="line2d_19">
    <path d="M 328.371792 -1 
L 331.776 358.019555 
L 336.24 469.008639 
L 340.704 482.972224 
L 345.168 495.015369 
L 354.096 499.859264 
L 358.56 498.972217 
L 363.024 505.007549 
L 367.488 510.380819 
L 371.952 506.613833 
L 376.416 513.080369 
L 380.88 517.479919 
L 385.344 510.657106 
L 389.808 520.532079 
L 394.272 518.498101 
L 398.736 524.476506 
L 403.2 509.998284 
L 407.664 517.182122 
L 412.128 518.486603 
L 416.592 514.632066 
L 425.52 523.171552 
L 429.984 526.00568 
L 434.448 521.822834 
L 438.912 526.643171 
L 443.376 522.346607 
L 447.84 531.395982 
L 452.304 524.915113 
L 456.768 528.999945 
L 461.232 532.293223 
L 465.696 533.012707 
L 470.16 533.535647 
L 474.624 535.377761 
L 479.088 541.079924 
L 483.552 536.032443 
L 488.016 539.584074 
L 492.48 532.722627 
L 496.944 543.48206 
L 501.408 541.297079 
L 505.872 547.82385 
L 510.336 547.075858 
L 514.8 541.752877 
L 519.264 544.812619 
L 523.728 544.433189 
L 528.192 546.570738 
L 532.656 551.059548 
L 537.12 551.759884 
L 541.584 550.194214 
L 546.048 550.96734 
L 550.512 547.248438 
L 554.976 553.952605 
L 559.44 552.269436 
L 563.904 557.171518 
L 568.368 557.964625 
L 572.832 555.307151 
L 577.296 550.484812 
L 581.76 554.633883 
L 586.224 560.473189 
L 590.688 557.286092 
L 595.152 556.382754 
L 599.616 562.61508 
L 604.08 563.648607 
L 608.544 559.172578 
L 613.008 565.727565 
L 617.472 561.342685 
L 621.936 564.857505 
L 626.4 526.280144 
L 630.864 545.59128 
L 635.328 550.711529 
L 639.792 556.315544 
L 644.256 548.733736 
L 648.72 554.603665 
L 653.184 552.945832 
L 657.648 551.610254 
L 662.112 558.586365 
L 666.576 556.623737 
L 671.04 552.598195 
L 675.504 550.88015 
L 679.968 560.577727 
L 684.432 561.519091 
L 688.896 555.73282 
L 693.36 553.152568 
L 697.824 555.191969 
L 702.288 552.578237 
L 706.752 562.426614 
L 711.216 565.590782 
L 715.68 555.053837 
L 720.144 556.725508 
L 724.608 563.440678 
L 729.072 562.410143 
L 733.536 556.84744 
L 738 555.834276 
L 742.464 555.727802 
L 746.928 560.099699 
L 751.392 562.586414 
L 755.856 567.647126 
L 760.32 564.63306 
L 764.784 565.834038 
L 769.248 566.131971 
L 773.712 563.201517 
L 778.176 563.28963 
L 782.64 561.488378 
L 787.104 564.238375 
L 791.568 562.011453 
L 796.032 563.42846 
L 800.496 560.397811 
L 804.96 561.800126 
L 809.424 567.54531 
L 813.888 559.946581 
L 818.352 566.968751 
L 822.816 561.116845 
L 827.28 563.850462 
L 831.744 559.636431 
L 836.208 567.206832 
L 840.672 558.35967 
L 845.136 568.603656 
L 849.6 565.161401 
L 854.064 564.973069 
L 858.528 568.28833 
L 862.992 563.661928 
L 867.456 566.04631 
L 871.92 567.009275 
L 876.384 566.801075 
L 880.848 567.402453 
L 885.312 570.29569 
L 889.776 565.524158 
L 894.24 570.291347 
L 898.704 569.781998 
L 903.168 566.132938 
L 907.632 566.838112 
L 912.096 571.213991 
L 916.56 565.126007 
L 921.024 575.777864 
L 925.488 564.783275 
L 929.952 574.379082 
L 934.416 570.271997 
L 938.88 568.95181 
L 943.344 568.405379 
L 947.808 566.897086 
L 952.272 567.856001 
L 956.736 572.381937 
L 961.2 568.247154 
L 965.664 566.103102 
L 970.128 572.683852 
L 974.592 571.580708 
L 979.056 569.195673 
L 983.52 570.121917 
L 987.984 572.581159 
L 992.448 567.374912 
L 996.912 571.984349 
L 1001.376 571.404617 
L 1005.84 569.25998 
L 1010.304 566.757672 
L 1014.768 576.407502 
L 1019.232 571.218356 
L 1023.696 570.010403 
L 1028.16 572.425184 
L 1032.624 573.353925 
L 1037.088 574.671907 
L 1041.552 575.666417 
L 1046.016 570.779164 
L 1050.48 571.359121 
L 1054.944 573.195812 
L 1059.408 569.358759 
L 1063.872 576.247792 
L 1068.336 572.542728 
L 1072.8 570.59414 
L 1077.264 574.499303 
L 1081.728 574.879813 
L 1086.192 568.950685 
L 1090.656 574.63604 
L 1095.12 568.482242 
L 1099.584 569.93372 
L 1104.048 577.053409 
L 1108.512 576.7296 
L 1112.976 571.543694 
L 1117.44 572.879744 
L 1121.904 572.247923 
L 1126.368 572.147817 
L 1130.832 577.778518 
L 1135.296 576.494423 
L 1139.76 572.597202 
L 1144.224 575.866202 
L 1148.688 573.979716 
L 1153.152 569.534782 
L 1157.616 573.244661 
L 1166.544 570.495407 
L 1171.008 574.247407 
L 1175.472 574.998302 
L 1179.936 576.64583 
L 1184.4 571.486137 
L 1188.864 573.348997 
L 1193.328 578.505427 
L 1197.792 574.343171 
L 1202.256 573.836746 
L 1206.72 576.174012 
L 1211.184 573.538431 
L 1215.648 571.923012 
L 1220.112 575.968805 
L 1224.576 571.87711 
L 1229.04 571.749621 
L 1233.504 577.263791 
L 1237.968 575.859609 
L 1242.432 576.088194 
L 1246.896 579.983187 
L 1251.36 568.291278 
L 1255.824 574.382209 
L 1260.288 576.992724 
L 1264.752 570.945039 
L 1269.216 575.090623 
L 1273.68 577.171988 
L 1278.144 570.546146 
L 1282.608 577.242775 
L 1287.072 576.129978 
L 1291.536 575.271889 
L 1291.536 575.271889 
" clip-path="url(#p3d1ef6c944)" style="fill: none; stroke: #d62728; stroke-width: 1.5; stroke-linecap: square"/>
   </g>
   <g id="line2d_20">
    <path d="M 338.823178 -1 
L 340.704 229.343506 
L 345.168 393.42431 
L 349.632 430.312585 
L 354.096 454.565427 
L 358.56 460.814607 
L 363.024 466.235781 
L 367.488 475.659479 
L 371.952 466.254389 
L 376.416 461.422352 
L 380.88 479.241419 
L 385.344 474.489417 
L 389.808 473.385688 
L 394.272 482.005006 
L 398.736 487.867263 
L 403.2 461.589353 
L 407.664 467.537517 
L 412.128 460.100343 
L 416.592 482.27074 
L 421.056 478.339723 
L 425.52 483.092085 
L 429.984 483.108263 
L 434.448 486.223447 
L 438.912 487.882023 
L 443.376 490.065519 
L 447.84 484.953955 
L 452.304 493.969017 
L 456.768 495.687849 
L 461.232 491.180993 
L 465.696 494.580722 
L 470.16 487.543094 
L 474.624 499.299468 
L 479.088 496.250931 
L 483.552 492.166256 
L 488.016 500.169324 
L 492.48 500.980567 
L 496.944 495.25543 
L 501.408 491.38638 
L 505.872 496.587902 
L 510.336 503.861901 
L 514.8 504.077435 
L 519.264 509.80615 
L 523.728 503.886404 
L 528.192 508.501443 
L 532.656 507.790712 
L 537.12 509.084618 
L 541.584 509.652447 
L 546.048 504.467171 
L 550.512 508.438486 
L 554.976 510.948693 
L 559.44 516.822605 
L 563.904 516.127579 
L 568.368 518.598679 
L 572.832 521.494256 
L 577.296 516.395585 
L 581.76 520.980541 
L 586.224 513.346441 
L 590.688 513.933755 
L 595.152 524.021428 
L 599.616 521.561556 
L 604.08 521.632568 
L 608.544 527.829366 
L 613.008 518.201046 
L 617.472 526.464425 
L 621.936 520.587701 
L 626.4 480.91993 
L 630.864 505.301881 
L 635.328 514.66638 
L 639.792 513.255718 
L 644.256 512.930604 
L 648.72 513.676257 
L 653.184 517.606351 
L 657.648 512.903558 
L 662.112 513.034063 
L 666.576 525.36299 
L 671.04 515.884571 
L 675.504 524.285227 
L 679.968 516.370429 
L 684.432 521.31749 
L 688.896 513.784688 
L 693.36 522.609281 
L 697.824 519.629236 
L 702.288 522.483727 
L 706.752 522.811923 
L 711.216 517.615666 
L 715.68 521.266458 
L 720.144 529.776581 
L 724.608 523.951518 
L 729.072 520.355133 
L 733.536 523.080672 
L 738 527.867684 
L 742.464 526.523557 
L 746.928 522.766269 
L 751.392 519.437215 
L 755.856 522.171461 
L 760.32 523.424978 
L 764.784 529.340336 
L 769.248 524.385693 
L 773.712 526.879046 
L 778.176 523.289389 
L 782.64 521.229197 
L 787.104 527.21721 
L 791.568 528.889736 
L 796.032 531.781263 
L 800.496 523.806568 
L 804.96 521.066224 
L 809.424 527.43045 
L 813.888 539.660599 
L 818.352 532.717002 
L 822.816 532.819043 
L 827.28 529.476353 
L 831.744 531.439296 
L 836.208 524.930256 
L 840.672 531.905017 
L 845.136 531.001972 
L 849.6 529.533865 
L 854.064 531.40253 
L 858.528 530.183304 
L 862.992 534.149872 
L 867.456 529.653074 
L 871.92 526.77669 
L 876.384 530.495075 
L 880.848 537.476361 
L 885.312 530.177184 
L 889.776 529.850608 
L 894.24 529.923601 
L 898.704 538.118735 
L 903.168 538.220258 
L 907.632 541.982182 
L 912.096 531.366259 
L 916.56 530.530536 
L 921.024 532.994549 
L 925.488 534.701996 
L 929.952 532.703119 
L 934.416 527.751018 
L 938.88 537.399431 
L 943.344 538.433341 
L 947.808 533.446364 
L 952.272 533.599391 
L 956.736 536.577839 
L 961.2 537.003328 
L 965.664 532.581637 
L 970.128 537.682828 
L 974.592 536.921358 
L 979.056 531.09868 
L 983.52 536.569918 
L 987.984 537.992506 
L 992.448 537.892018 
L 996.912 539.947776 
L 1001.376 536.380462 
L 1005.84 534.146947 
L 1010.304 532.379468 
L 1014.768 531.779125 
L 1019.232 537.089236 
L 1023.696 538.485272 
L 1028.16 540.429517 
L 1032.624 537.789369 
L 1037.088 530.780789 
L 1041.552 536.604569 
L 1046.016 536.61861 
L 1050.48 545.2868 
L 1054.944 533.932042 
L 1059.408 533.635595 
L 1063.872 537.084015 
L 1068.336 542.236125 
L 1072.8 537.132055 
L 1077.264 536.005734 
L 1081.728 541.311389 
L 1086.192 538.385144 
L 1090.656 551.157764 
L 1095.12 541.355333 
L 1099.584 532.416099 
L 1104.048 541.54713 
L 1108.512 538.197938 
L 1112.976 537.911278 
L 1117.44 537.042502 
L 1121.904 535.387031 
L 1126.368 538.56056 
L 1130.832 540.224558 
L 1135.296 535.102667 
L 1139.76 538.172377 
L 1144.224 534.414076 
L 1148.688 536.505656 
L 1153.152 539.889094 
L 1157.616 547.848916 
L 1162.08 541.676982 
L 1166.544 543.684881 
L 1171.008 545.12115 
L 1175.472 538.381634 
L 1179.936 541.587384 
L 1184.4 547.807064 
L 1188.864 543.238827 
L 1193.328 539.743897 
L 1197.792 541.867833 
L 1202.256 537.557229 
L 1206.72 540.813695 
L 1211.184 538.714308 
L 1215.648 543.017982 
L 1220.112 540.222173 
L 1224.576 538.689512 
L 1229.04 538.478275 
L 1233.504 543.994942 
L 1237.968 541.690212 
L 1242.432 541.088407 
L 1246.896 538.031455 
L 1251.36 543.514641 
L 1255.824 544.340148 
L 1260.288 536.624933 
L 1264.752 534.889359 
L 1269.216 540.74005 
L 1273.68 536.034198 
L 1278.144 533.956253 
L 1282.608 542.707561 
L 1287.072 539.275679 
L 1291.536 537.434262 
L 1291.536 537.434262 
" clip-path="url(#p3d1ef6c944)" style="fill: none; stroke: #9467bd; stroke-width: 1.5; stroke-linecap: square"/>
   </g>
   <g id="line2d_21">
    <path d="M 315.855735 -1 
L 318.384 218.597461 
L 322.848 328.991603 
L 327.312 356.323088 
L 331.776 380.358213 
L 336.24 381.632295 
L 340.704 406.358013 
L 345.168 411.222496 
L 349.632 408.371741 
L 354.096 413.180782 
L 358.56 414.085042 
L 363.024 416.498518 
L 367.488 432.625393 
L 371.952 433.984933 
L 376.416 429.189438 
L 380.88 425.287987 
L 385.344 440.89037 
L 389.808 445.962489 
L 394.272 449.795538 
L 398.736 457.472705 
L 403.2 442.967459 
L 407.664 445.232025 
L 412.128 449.2719 
L 416.592 459.380049 
L 421.056 459.067378 
L 425.52 450.929576 
L 429.984 453.227263 
L 434.448 462.409685 
L 438.912 458.766138 
L 443.376 462.291556 
L 447.84 460.740624 
L 452.304 465.151582 
L 456.768 465.744072 
L 461.232 465.967729 
L 465.696 472.401955 
L 470.16 463.879209 
L 474.624 474.164866 
L 479.088 470.799406 
L 483.552 475.393407 
L 488.016 475.046311 
L 492.48 481.52232 
L 496.944 475.356619 
L 501.408 479.582553 
L 505.872 480.442599 
L 510.336 482.397464 
L 514.8 492.220618 
L 519.264 490.215104 
L 523.728 472.873165 
L 528.192 487.654225 
L 532.656 490.842177 
L 537.12 495.12191 
L 541.584 493.532547 
L 546.048 491.51144 
L 550.512 497.091131 
L 554.976 499.883902 
L 559.44 492.186485 
L 563.904 503.736999 
L 568.368 499.562007 
L 572.832 508.313157 
L 577.296 496.626851 
L 581.76 501.435577 
L 586.224 493.580879 
L 590.688 507.805945 
L 595.152 513.643091 
L 599.616 509.237443 
L 604.08 513.210199 
L 608.544 510.156261 
L 613.008 510.945723 
L 617.472 507.776582 
L 621.936 518.509396 
L 626.4 482.748679 
L 630.864 501.689295 
L 635.328 500.433461 
L 639.792 502.411547 
L 644.256 507.831663 
L 648.72 505.324877 
L 653.184 502.165861 
L 657.648 508.030705 
L 662.112 500.894974 
L 666.576 511.125391 
L 671.04 503.589664 
L 675.504 516.949441 
L 679.968 506.949274 
L 684.432 513.441979 
L 688.896 506.046071 
L 693.36 506.980392 
L 697.824 510.766144 
L 702.288 509.233798 
L 706.752 512.015971 
L 711.216 512.381518 
L 715.68 505.71666 
L 720.144 501.121714 
L 724.608 513.985102 
L 729.072 504.339817 
L 733.536 512.686336 
L 738 517.507212 
L 742.464 512.433068 
L 746.928 522.558452 
L 751.392 509.548088 
L 755.856 515.986297 
L 760.32 519.100671 
L 764.784 514.247416 
L 769.248 513.641471 
L 773.712 499.30318 
L 778.176 511.938704 
L 782.64 520.490205 
L 787.104 521.9996 
L 791.568 516.233062 
L 796.032 518.972619 
L 800.496 517.143353 
L 804.96 513.102375 
L 809.424 513.846767 
L 813.888 510.956163 
L 818.352 509.731807 
L 822.816 511.388223 
L 827.28 511.112791 
L 831.744 524.645734 
L 836.208 519.235068 
L 840.672 516.572306 
L 845.136 524.21849 
L 849.6 516.288999 
L 854.064 516.171005 
L 858.528 514.045584 
L 862.992 516.846005 
L 867.456 519.857911 
L 871.92 519.559596 
L 876.384 523.02208 
L 880.848 520.619247 
L 885.312 522.021381 
L 889.776 517.509103 
L 894.24 518.63225 
L 898.704 520.354008 
L 903.168 511.803159 
L 907.632 525.396607 
L 912.096 518.69748 
L 916.56 524.739495 
L 921.024 516.302455 
L 925.488 523.462149 
L 929.952 516.431046 
L 934.416 515.488175 
L 938.88 521.541575 
L 943.344 520.044825 
L 947.808 526.324088 
L 952.272 517.908603 
L 956.736 516.1544 
L 961.2 515.122538 
L 965.664 519.086225 
L 970.128 516.677722 
L 974.592 521.628878 
L 979.056 522.762668 
L 983.52 521.118696 
L 987.984 527.371138 
L 992.448 521.334208 
L 996.912 530.283208 
L 1001.376 519.337986 
L 1005.84 519.074277 
L 1010.304 519.856269 
L 1014.768 535.477417 
L 1019.232 521.535477 
L 1023.696 525.047102 
L 1028.16 529.798632 
L 1032.624 511.334333 
L 1037.088 522.788207 
L 1041.552 530.168026 
L 1046.016 521.866463 
L 1050.48 527.711439 
L 1054.944 522.800312 
L 1059.408 514.853384 
L 1063.872 525.806458 
L 1068.336 522.279262 
L 1072.8 527.229315 
L 1077.264 531.555918 
L 1081.728 522.107919 
L 1086.192 517.855074 
L 1090.656 529.987908 
L 1095.12 530.577653 
L 1099.584 524.162035 
L 1104.048 523.713213 
L 1108.512 525.192705 
L 1112.976 519.216595 
L 1117.44 522.413547 
L 1121.904 528.69488 
L 1126.368 523.289569 
L 1130.832 528.593176 
L 1135.296 523.275483 
L 1139.76 526.539712 
L 1144.224 526.946346 
L 1148.688 520.816871 
L 1153.152 527.118747 
L 1157.616 525.388889 
L 1162.08 521.659434 
L 1166.544 527.557939 
L 1171.008 516.656999 
L 1175.472 528.374604 
L 1179.936 530.943312 
L 1184.4 519.367417 
L 1188.864 525.701312 
L 1193.328 523.838767 
L 1197.792 522.482647 
L 1202.256 524.866016 
L 1206.72 520.411317 
L 1211.184 530.698572 
L 1215.648 524.286532 
L 1224.576 524.741385 
L 1229.04 532.177141 
L 1233.504 531.799849 
L 1237.968 526.887259 
L 1242.432 523.449594 
L 1246.896 528.722285 
L 1251.36 525.905349 
L 1255.824 528.234132 
L 1260.288 526.608115 
L 1264.752 521.908607 
L 1269.216 523.481635 
L 1273.68 532.972903 
L 1278.144 531.859678 
L 1282.608 528.652803 
L 1287.072 526.403673 
L 1291.536 525.501775 
L 1291.536 525.501775 
" clip-path="url(#p3d1ef6c944)" style="fill: none; stroke: #8c564b; stroke-width: 1.5; stroke-linecap: square"/>
   </g>
   <g id="patch_3">
    <path d="M 180 630 
L 180 86.4 
" style="fill: none; stroke: #000000; stroke-width: 0.8; stroke-linejoin: miter; stroke-linecap: square"/>
   </g>
   <g id="patch_4">
    <path d="M 1296 630 
L 1296 86.4 
" style="fill: none; stroke: #000000; stroke-width: 0.8; stroke-linejoin: miter; stroke-linecap: square"/>
   </g>
   <g id="patch_5">
    <path d="M 180 630 
L 1296 630 
" style="fill: none; stroke: #000000; stroke-width: 0.8; stroke-linejoin: miter; stroke-linecap: square"/>
   </g>
   <g id="patch_6">
    <path d="M 180 86.4 
L 1296 86.4 
" style="fill: none; stroke: #000000; stroke-width: 0.8; stroke-linejoin: miter; stroke-linecap: square"/>
   </g>
   <g id="text_18">
    <!-- train loss at DJIA -->
    <g transform="translate(655.385937 80.4)scale(0.2 -0.2)">
     <defs>
      <path id="DejaVuSans-44" d="M 1259 4147 
L 1259 519 
L 2022 519 
Q 2988 519 3436 956 
Q 3884 1394 3884 2338 
Q 3884 3275 3436 3711 
Q 2988 4147 2022 4147 
L 1259 4147 
z
M 628 4666 
L 1925 4666 
Q 3281 4666 3915 4102 
Q 4550 3538 4550 2338 
Q 4550 1131 3912 565 
Q 3275 0 1925 0 
L 628 0 
L 628 4666 
z
" transform="scale(0.015625)"/>
      <path id="DejaVuSans-4a" d="M 628 4666 
L 1259 4666 
L 1259 325 
Q 1259 -519 939 -900 
Q 619 -1281 -91 -1281 
L -331 -1281 
L -331 -750 
L -134 -750 
Q 284 -750 456 -515 
Q 628 -281 628 325 
L 628 4666 
z
" transform="scale(0.015625)"/>
      <path id="DejaVuSans-49" d="M 628 4666 
L 1259 4666 
L 1259 0 
L 628 0 
L 628 4666 
z
" transform="scale(0.015625)"/>
      <path id="DejaVuSans-41" d="M 2188 4044 
L 1331 1722 
L 3047 1722 
L 2188 4044 
z
M 1831 4666 
L 2547 4666 
L 4325 0 
L 3669 0 
L 3244 1197 
L 1141 1197 
L 716 0 
L 50 0 
L 1831 4666 
z
" transform="scale(0.015625)"/>
     </defs>
     <use xlink:href="#DejaVuSans-74"/>
     <use xlink:href="#DejaVuSans-72" x="39.208984"/>
     <use xlink:href="#DejaVuSans-61" x="80.322266"/>
     <use xlink:href="#DejaVuSans-69" x="141.601562"/>
     <use xlink:href="#DejaVuSans-6e" x="169.384766"/>
     <use xlink:href="#DejaVuSans-20" x="232.763672"/>
     <use xlink:href="#DejaVuSans-6c" x="264.550781"/>
     <use xlink:href="#DejaVuSans-6f" x="292.333984"/>
     <use xlink:href="#DejaVuSans-73" x="353.515625"/>
     <use xlink:href="#DejaVuSans-73" x="405.615234"/>
     <use xlink:href="#DejaVuSans-20" x="457.714844"/>
     <use xlink:href="#DejaVuSans-61" x="489.501953"/>
     <use xlink:href="#DejaVuSans-74" x="550.78125"/>
     <use xlink:href="#DejaVuSans-20" x="589.990234"/>
     <use xlink:href="#DejaVuSans-44" x="621.777344"/>
     <use xlink:href="#DejaVuSans-4a" x="698.779297"/>
     <use xlink:href="#DejaVuSans-49" x="728.271484"/>
     <use xlink:href="#DejaVuSans-41" x="757.763672"/>
    </g>
   </g>
   <g id="legend_1">
    <g id="patch_7">
     <path d="M 1106.778125 278.5375 
L 1282 278.5375 
Q 1286 278.5375 1286 274.5375 
L 1286 100.4 
Q 1286 96.4 1282 96.4 
L 1106.778125 96.4 
Q 1102.778125 96.4 1102.778125 100.4 
L 1102.778125 274.5375 
Q 1102.778125 278.5375 1106.778125 278.5375 
z
" style="fill: #ffffff; opacity: 0.8; stroke: #cccccc; stroke-linejoin: miter"/>
    </g>
    <g id="line2d_22">
     <path d="M 1110.778125 112.596875 
L 1130.778125 112.596875 
L 1150.778125 112.596875 
" style="fill: none; stroke: #1f77b4; stroke-width: 1.5; stroke-linecap: square"/>
    </g>
    <g id="text_19">
     <!-- alpha=-0.1 -->
     <g transform="translate(1166.778125 119.596875)scale(0.2 -0.2)">
      <defs>
       <path id="DejaVuSans-3d" d="M 678 2906 
L 4684 2906 
L 4684 2381 
L 678 2381 
L 678 2906 
z
M 678 1631 
L 4684 1631 
L 4684 1100 
L 678 1100 
L 678 1631 
z
" transform="scale(0.015625)"/>
       <path id="DejaVuSans-2d" d="M 313 2009 
L 1997 2009 
L 1997 1497 
L 313 1497 
L 313 2009 
z
" transform="scale(0.015625)"/>
      </defs>
      <use xlink:href="#DejaVuSans-61"/>
      <use xlink:href="#DejaVuSans-6c" x="61.279297"/>
      <use xlink:href="#DejaVuSans-70" x="89.0625"/>
      <use xlink:href="#DejaVuSans-68" x="152.539062"/>
      <use xlink:href="#DejaVuSans-61" x="215.917969"/>
      <use xlink:href="#DejaVuSans-3d" x="277.197266"/>
      <use xlink:href="#DejaVuSans-2d" x="360.986328"/>
      <use xlink:href="#DejaVuSans-30" x="397.070312"/>
      <use xlink:href="#DejaVuSans-2e" x="460.693359"/>
      <use xlink:href="#DejaVuSans-31" x="492.480469"/>
     </g>
    </g>
    <g id="line2d_23">
     <path d="M 1110.778125 141.953125 
L 1130.778125 141.953125 
L 1150.778125 141.953125 
" style="fill: none; stroke: #ff7f0e; stroke-width: 1.5; stroke-linecap: square"/>
    </g>
    <g id="text_20">
     <!-- alpha=0.0 -->
     <g transform="translate(1166.778125 148.953125)scale(0.2 -0.2)">
      <use xlink:href="#DejaVuSans-61"/>
      <use xlink:href="#DejaVuSans-6c" x="61.279297"/>
      <use xlink:href="#DejaVuSans-70" x="89.0625"/>
      <use xlink:href="#DejaVuSans-68" x="152.539062"/>
      <use xlink:href="#DejaVuSans-61" x="215.917969"/>
      <use xlink:href="#DejaVuSans-3d" x="277.197266"/>
      <use xlink:href="#DejaVuSans-30" x="360.986328"/>
      <use xlink:href="#DejaVuSans-2e" x="424.609375"/>
      <use xlink:href="#DejaVuSans-30" x="456.396484"/>
     </g>
    </g>
    <g id="line2d_24">
     <path d="M 1110.778125 171.309375 
L 1130.778125 171.309375 
L 1150.778125 171.309375 
" style="fill: none; stroke: #2ca02c; stroke-width: 1.5; stroke-linecap: square"/>
    </g>
    <g id="text_21">
     <!-- alpha=0.1 -->
     <g transform="translate(1166.778125 178.309375)scale(0.2 -0.2)">
      <use xlink:href="#DejaVuSans-61"/>
      <use xlink:href="#DejaVuSans-6c" x="61.279297"/>
      <use xlink:href="#DejaVuSans-70" x="89.0625"/>
      <use xlink:href="#DejaVuSans-68" x="152.539062"/>
      <use xlink:href="#DejaVuSans-61" x="215.917969"/>
      <use xlink:href="#DejaVuSans-3d" x="277.197266"/>
      <use xlink:href="#DejaVuSans-30" x="360.986328"/>
      <use xlink:href="#DejaVuSans-2e" x="424.609375"/>
      <use xlink:href="#DejaVuSans-31" x="456.396484"/>
     </g>
    </g>
    <g id="line2d_25">
     <path d="M 1110.778125 200.665625 
L 1130.778125 200.665625 
L 1150.778125 200.665625 
" style="fill: none; stroke: #d62728; stroke-width: 1.5; stroke-linecap: square"/>
    </g>
    <g id="text_22">
     <!-- alpha=0.2 -->
     <g transform="translate(1166.778125 207.665625)scale(0.2 -0.2)">
      <use xlink:href="#DejaVuSans-61"/>
      <use xlink:href="#DejaVuSans-6c" x="61.279297"/>
      <use xlink:href="#DejaVuSans-70" x="89.0625"/>
      <use xlink:href="#DejaVuSans-68" x="152.539062"/>
      <use xlink:href="#DejaVuSans-61" x="215.917969"/>
      <use xlink:href="#DejaVuSans-3d" x="277.197266"/>
      <use xlink:href="#DejaVuSans-30" x="360.986328"/>
      <use xlink:href="#DejaVuSans-2e" x="424.609375"/>
      <use xlink:href="#DejaVuSans-32" x="456.396484"/>
     </g>
    </g>
    <g id="line2d_26">
     <path d="M 1110.778125 230.021875 
L 1130.778125 230.021875 
L 1150.778125 230.021875 
" style="fill: none; stroke: #9467bd; stroke-width: 1.5; stroke-linecap: square"/>
    </g>
    <g id="text_23">
     <!-- alpha=0.3 -->
     <g transform="translate(1166.778125 237.021875)scale(0.2 -0.2)">
      <defs>
       <path id="DejaVuSans-33" d="M 2597 2516 
Q 3050 2419 3304 2112 
Q 3559 1806 3559 1356 
Q 3559 666 3084 287 
Q 2609 -91 1734 -91 
Q 1441 -91 1130 -33 
Q 819 25 488 141 
L 488 750 
Q 750 597 1062 519 
Q 1375 441 1716 441 
Q 2309 441 2620 675 
Q 2931 909 2931 1356 
Q 2931 1769 2642 2001 
Q 2353 2234 1838 2234 
L 1294 2234 
L 1294 2753 
L 1863 2753 
Q 2328 2753 2575 2939 
Q 2822 3125 2822 3475 
Q 2822 3834 2567 4026 
Q 2313 4219 1838 4219 
Q 1578 4219 1281 4162 
Q 984 4106 628 3988 
L 628 4550 
Q 988 4650 1302 4700 
Q 1616 4750 1894 4750 
Q 2613 4750 3031 4423 
Q 3450 4097 3450 3541 
Q 3450 3153 3228 2886 
Q 3006 2619 2597 2516 
z
" transform="scale(0.015625)"/>
      </defs>
      <use xlink:href="#DejaVuSans-61"/>
      <use xlink:href="#DejaVuSans-6c" x="61.279297"/>
      <use xlink:href="#DejaVuSans-70" x="89.0625"/>
      <use xlink:href="#DejaVuSans-68" x="152.539062"/>
      <use xlink:href="#DejaVuSans-61" x="215.917969"/>
      <use xlink:href="#DejaVuSans-3d" x="277.197266"/>
      <use xlink:href="#DejaVuSans-30" x="360.986328"/>
      <use xlink:href="#DejaVuSans-2e" x="424.609375"/>
      <use xlink:href="#DejaVuSans-33" x="456.396484"/>
     </g>
    </g>
    <g id="line2d_27">
     <path d="M 1110.778125 259.378125 
L 1130.778125 259.378125 
L 1150.778125 259.378125 
" style="fill: none; stroke: #8c564b; stroke-width: 1.5; stroke-linecap: square"/>
    </g>
    <g id="text_24">
     <!-- alpha=0.4 -->
     <g transform="translate(1166.778125 266.378125)scale(0.2 -0.2)">
      <use xlink:href="#DejaVuSans-61"/>
      <use xlink:href="#DejaVuSans-6c" x="61.279297"/>
      <use xlink:href="#DejaVuSans-70" x="89.0625"/>
      <use xlink:href="#DejaVuSans-68" x="152.539062"/>
      <use xlink:href="#DejaVuSans-61" x="215.917969"/>
      <use xlink:href="#DejaVuSans-3d" x="277.197266"/>
      <use xlink:href="#DejaVuSans-30" x="360.986328"/>
      <use xlink:href="#DejaVuSans-2e" x="424.609375"/>
      <use xlink:href="#DejaVuSans-34" x="456.396484"/>
     </g>
    </g>
   </g>
  </g>
 </g>
 <defs>
  <clipPath id="p3d1ef6c944">
   <rect x="180" y="86.4" width="1116" height="543.6"/>
  </clipPath>
 </defs>
</svg>
